<svg width="72" height="72" viewBox="0 0 72 72" fill="none" xmlns="http://www.w3.org/2000/svg">
<path fill-rule="evenodd" clip-rule="evenodd" d="M36.3894 0C47.5562 0 57.5479 4.97637 64.2216 12.8104L68.8177 8.26348V23.1838H53.736L58.0489 18.9176C52.9222 12.4506 44.9525 8.2957 36.0003 8.2957C20.5342 8.2957 7.99572 20.6994 7.99572 36C7.99572 51.3006 20.5336 63.7049 36.0003 63.7049C48.8633 63.7049 59.6996 55.1244 62.9838 43.4361H72.0006C68.5376 59.7504 53.9107 72 36.39 72C16.2923 72 0 55.882 0 35.9994C0 16.118 16.2923 0 36.3894 0ZM35.883 46.783H20.8848V43.5691L27.7908 36.3867C29.4941 34.4672 30.3452 32.9467 30.3452 31.8158C30.3452 30.9029 30.1439 30.2057 29.7405 29.7322C29.3378 29.2541 28.7479 29.0145 27.9821 29.0145C27.2263 29.0145 26.6121 29.3332 26.1383 29.9713C25.6639 30.6088 25.4276 31.4021 25.4276 32.359H20.4394C20.4394 31.0529 20.767 29.8465 21.4279 28.7391C22.0877 27.6375 23.0052 26.7715 24.1731 26.148C25.347 25.5252 26.6524 25.2152 28.1029 25.2152C30.4199 25.2152 32.2091 25.7438 33.4636 26.8055C34.7234 27.8672 35.3482 29.393 35.3482 31.3764C35.3482 32.2137 35.1924 33.0305 34.8744 33.8238C34.5628 34.616 34.0736 35.4475 33.4091 36.3211C32.744 37.1924 31.6749 38.3537 30.199 39.8139L27.4224 42.9844H35.8824L35.883 46.783ZM50.2451 38.4738H52.4318V42.2725H50.2451V46.7824H45.2718V42.2725H36.9645L36.666 39.2613L45.2712 25.565V25.5199H50.2445L50.2451 38.4738ZM41.4019 38.4738H45.2712V31.9301L44.9638 32.4287L41.4019 38.4738Z" fill="white"/>
</svg>
