<svg width="86" height="86" viewBox="0 0 86 86" fill="none" xmlns="http://www.w3.org/2000/svg">
<g clip-path="url(#clip0_193_510)">
<path fill-rule="evenodd" clip-rule="evenodd" d="M5.82292 11H80.1771C83.3825 11 86 13.6228 86 16.8348V69.1652C86 72.3702 83.3825 75 80.1771 75H5.82292C2.61751 75 0 72.3702 0 69.1652V16.8348C0 13.6228 2.61751 11 5.82292 11ZM38.1149 61.6474L22.3958 52.1028V46.0506L38.1149 36.506V43.7013L28.5617 49.0942L38.1149 54.4942V61.6474ZM47.8851 61.6474L63.6042 52.1028V46.0506L47.8851 36.506V43.7013L57.4383 49.0942L47.8851 54.4942V61.6474ZM82.5636 27.3331H3.70231V69.7333C3.70231 70.1821 3.87728 70.5748 4.17122 70.8764C4.46517 71.1709 4.8641 71.3463 5.31201 71.3463H80.9259C81.3739 71.3463 81.7658 71.1709 82.0667 70.8764C82.3677 70.5748 82.5356 70.1821 82.5356 69.7333V27.3331H82.5636ZM74.6341 17.5571C76.2228 17.5571 77.5106 18.8475 77.5106 20.4394C77.5106 22.0313 76.2228 23.3217 74.6341 23.3217C73.0454 23.3217 71.7577 22.0313 71.7577 20.4394C71.7646 18.8475 73.0524 17.5571 74.6341 17.5571ZM55.1497 17.5571C56.7384 17.5571 58.0262 18.8475 58.0262 20.4394C58.0262 22.0313 56.7384 23.3217 55.1497 23.3217C53.561 23.3217 52.2733 22.0313 52.2733 20.4394C52.2733 18.8475 53.561 17.5571 55.1497 17.5571ZM64.8919 17.5571C66.4806 17.5571 67.7684 18.8475 67.7684 20.4394C67.7684 22.0313 66.4806 23.3217 64.8919 23.3217C63.3032 23.3217 62.0155 22.0313 62.0155 20.4394C62.0155 18.8475 63.3032 17.5571 64.8919 17.5571Z" fill="white"/>
</g>
<defs>
<clipPath id="clip0_193_510">
<rect width="86" height="64" fill="white" transform="translate(0 11)"/>
</clipPath>
</defs>
</svg>
