<svg width="62" height="72" viewBox="0 0 62 72" fill="none" xmlns="http://www.w3.org/2000/svg">
<path fill-rule="evenodd" clip-rule="evenodd" d="M30.997 0C48.0327 0 61.8407 6.42187 61.8407 14.332C61.8407 22.248 48.0268 28.6641 30.997 28.6641C13.9673 28.6641 0.153422 22.2422 0.153422 14.332C0.153422 6.42187 13.9673 0 30.997 0ZM0.153422 47.9473V58.9512C5.64119 78.3047 59.858 74.5664 61.8466 57.9609V46.9688C59.1381 65.1973 4.49053 66.5098 0.153422 47.9473ZM0 19.3008V30.0469C5.48777 48.9492 60.0055 46.3945 62 30.1816V19.4414C59.2856 37.248 4.33711 37.4297 0 19.3008ZM0 33.1875V44.1914C5.48777 63.5449 60.0055 60.9316 62 44.3262V33.334C59.2856 51.5625 4.33711 51.75 0 33.1875Z" fill="white"/>
</svg>
