<svg width="43" height="37" viewBox="0 0 43 37" fill="none" xmlns="http://www.w3.org/2000/svg">
<path fill-rule="evenodd" clip-rule="evenodd" d="M5.34444 4.37553V26.3696H36.6956V4.37553H5.34444ZM8.38472 22.5521C8.05604 22.5521 7.78556 22.2851 7.78556 21.953C7.78556 21.6243 8.05262 21.3538 8.38472 21.3538H12.1679V12.4008C12.1679 12.3323 12.1953 12.2672 12.2433 12.2227C12.2535 12.2124 12.2638 12.2056 12.2741 12.1953C12.3152 12.1645 12.3665 12.1474 12.4213 12.1474H14.3317C14.4002 12.1474 14.4653 12.1748 14.5098 12.2227C14.52 12.233 14.5303 12.2467 14.5372 12.257C14.5646 12.298 14.5817 12.346 14.5817 12.4008V21.3572H17.2796V15.0713C17.2796 15.0028 17.307 14.9377 17.3549 14.8932C17.3994 14.8487 17.4645 14.8179 17.5329 14.8179H19.4434C19.5153 14.8179 19.5769 14.8453 19.6214 14.8932C19.6659 14.9377 19.6967 15.0028 19.6967 15.0713V21.3572H22.3946V9.73024C22.3946 9.66177 22.422 9.59672 22.4699 9.55221C22.5145 9.5077 22.5795 9.47689 22.648 9.47689H24.5584C24.6269 9.47689 24.6919 9.50428 24.7365 9.55221C24.781 9.59672 24.8118 9.66177 24.8118 9.73024V21.3572H27.5097V13.1642C27.5097 13.0958 27.5371 13.0307 27.585 12.9862C27.6295 12.9417 27.6946 12.9109 27.763 12.9109H29.6735C29.742 12.9109 29.8036 12.9383 29.8515 12.9862C29.896 13.0307 29.9268 13.0958 29.9268 13.1642V21.3572H32.5768C32.9055 21.3572 33.176 21.6243 33.176 21.9564C33.176 22.2851 32.9089 22.5555 32.5768 22.5555H8.38472V22.5521ZM20.087 31.1457C20.1521 31.0841 20.2274 31.0327 20.3062 30.9985V27.8897H0.760068C0.338949 27.8897 0 27.5473 0 27.1296C0 26.7085 0.338949 26.3696 0.760068 26.3696H3.82088V4.37553H0.760068C0.338949 4.37553 0 4.03315 0 3.61546C0 3.19434 0.338949 2.85539 0.760068 2.85539H20.1932V0.801153C20.1932 0.359492 20.5527 0 20.9943 0C21.436 0 21.7955 0.359492 21.7955 0.801153V2.85539H41.2286C41.6497 2.85539 41.9886 3.19434 41.9886 3.61546C41.9886 4.03658 41.6497 4.37553 41.2286 4.37553H38.2123V26.3696H41.3073C41.7284 26.3696 42.0674 26.7085 42.0674 27.1296C42.0674 27.5508 41.7284 27.8897 41.3073 27.8897H21.9085V31.0841C21.9324 31.1046 21.9598 31.1251 21.9804 31.1457L26.4654 35.4082C26.7873 35.7129 26.7975 36.2197 26.4928 36.5415C26.1881 36.8633 25.6814 36.8736 25.3596 36.5689L21.905 33.2855V36.1888C21.905 36.6305 21.5455 36.99 21.1039 36.99C20.6622 36.99 20.3027 36.6305 20.3027 36.1888V33.1486L16.7044 36.5689C16.3826 36.8736 15.8758 36.8599 15.5711 36.5415C15.2664 36.2197 15.2801 35.7129 15.5985 35.4082L20.087 31.1457Z" fill="url(#paint0_linear_345_265)"/>
<defs>
<linearGradient id="paint0_linear_345_265" x1="2.31371" y1="33.7889" x2="37.8359" y2="7.34844" gradientUnits="userSpaceOnUse">
<stop stop-color="#E75778"/>
<stop offset="0.888634" stop-color="#8876FF"/>
</linearGradient>
</defs>
</svg>
