<svg width="44" height="75" viewBox="0 0 44 75" fill="none" xmlns="http://www.w3.org/2000/svg">
<g clip-path="url(#clip0_409_140)">
<path fill-rule="evenodd" clip-rule="evenodd" d="M6.6003 0H37.3937C41.0256 0 44 3.00903 44 6.67725V68.3167C44 71.991 41.0256 74.9939 37.3997 74.9939H6.60634C2.97436 75 0 71.991 0 68.3228V6.68335C0 3.00903 2.97436 0 6.6003 0ZM21.997 61.0962C24.356 61.0962 26.2745 63.031 26.2745 65.4236C26.2745 67.8101 24.356 69.751 21.997 69.751C19.632 69.751 17.7195 67.8162 17.7195 65.4236C17.7195 63.0371 19.638 61.0962 21.997 61.0962ZM15.1855 5.40771H28.8145C28.911 5.40771 28.9955 5.49316 28.9955 5.59082V7.60498C28.9955 7.70264 28.911 7.78809 28.8145 7.78809H15.1855C15.089 7.78809 15.0045 7.70874 15.0045 7.60498V5.59082C15.0045 5.48706 15.083 5.40771 15.1855 5.40771ZM5.82202 13.1409H38.178C38.7692 13.1409 39.2519 13.6353 39.2519 14.2273V56.958C39.2519 57.55 38.7632 58.0444 38.178 58.0444H5.82202C5.2368 58.0444 4.74811 57.5562 4.74811 56.958V14.2212C4.74811 13.6291 5.23077 13.1409 5.82202 13.1409Z" fill="white"/>
</g>
<defs>
<clipPath id="clip0_409_140">
<rect width="44" height="75" fill="white"/>
</clipPath>
</defs>
</svg>
