<svg width="42" height="51" viewBox="0 0 42 51" fill="none" xmlns="http://www.w3.org/2000/svg">
<rect x="15.8184" y="41.5143" width="9.81021" height="4.20438" rx="2.10219" fill="url(#paint0_linear_345_810)" fill-opacity="0.5"/>
<path d="M15.8418 43.1132C15.8418 42.5565 15.8418 42.2782 15.9502 42.0656C16.0455 41.8786 16.1975 41.7265 16.3845 41.6312C16.5972 41.5229 16.8755 41.5229 17.4322 41.5229H24.0913C24.6479 41.5229 24.9263 41.5229 25.1389 41.6312C25.3259 41.7265 25.478 41.8786 25.5733 42.0656C25.6816 42.2782 25.6816 42.5565 25.6816 43.1132V44.1496C25.6816 44.7062 25.6816 44.9846 25.5733 45.1972C25.478 45.3842 25.3259 45.5363 25.1389 45.6316C24.9263 45.7399 24.6479 45.7399 24.0913 45.7399L17.4322 45.7399C16.8755 45.7399 16.5972 45.7399 16.3845 45.6316C16.1975 45.5363 16.0455 45.3842 15.9502 45.1972C15.8418 44.9846 15.8418 44.7062 15.8418 44.1496V43.1132Z" fill="url(#paint1_linear_345_810)"/>
<path d="M20.7617 22.5461V33.2097V22.5461Z" fill="url(#paint2_linear_345_810)"/>
<path d="M19.356 36.603C20.1324 37.3793 21.3911 37.3793 22.1674 36.603C22.9437 35.8266 22.9437 34.5679 22.1674 33.7916C21.3911 33.0153 20.1324 33.0153 19.356 33.7916C18.5797 34.5679 18.5797 35.8266 19.356 36.603Z" fill="url(#paint3_linear_345_810)"/>
<path d="M24.2759 41.5229L27.9297 36.0422C28.1338 35.7361 28.2358 35.583 28.2777 35.4171C28.3147 35.2704 28.3177 35.1172 28.2865 34.9692C28.2512 34.8017 28.1553 34.6448 27.9634 34.3308L20.7617 22.5461M20.7617 22.5461L13.56 34.3308C13.3681 34.6448 13.2722 34.8017 13.2369 34.9692C13.2057 35.1172 13.2088 35.2704 13.2458 35.4171C13.2876 35.583 13.3897 35.7361 13.5938 36.0422L17.2475 41.5229M20.7617 22.5461V33.2097M17.4322 45.7399L24.0913 45.7399C24.6479 45.7399 24.9263 45.7399 25.1389 45.6316C25.3259 45.5363 25.478 45.3842 25.5733 45.1972C25.6816 44.9846 25.6816 44.7062 25.6816 44.1496L25.6816 43.1132C25.6816 42.5565 25.6816 42.2782 25.5733 42.0656C25.478 41.8786 25.3259 41.7265 25.1389 41.6312C24.9263 41.5229 24.6479 41.5229 24.0913 41.5229H17.4322C16.8755 41.5229 16.5972 41.5229 16.3845 41.6312C16.1975 41.7265 16.0455 41.8786 15.9502 42.0656C15.8418 42.2782 15.8418 42.5565 15.8418 43.1132L15.8418 44.1496C15.8418 44.7062 15.8418 44.9846 15.9502 45.1972C16.0455 45.3842 16.1975 45.5363 16.3845 45.6316C16.5972 45.7399 16.8755 45.7399 17.4322 45.7399ZM22.1674 36.603C21.3911 37.3793 20.1324 37.3793 19.356 36.603C18.5797 35.8266 18.5797 34.5679 19.356 33.7916C20.1324 33.0153 21.3911 33.0153 22.1674 33.7916C22.9437 34.5679 22.9437 35.8266 22.1674 36.603Z" stroke="url(#paint4_linear_345_810)" stroke-width="0.8" stroke-linecap="round" stroke-linejoin="round"/>
<path d="M24.2759 41.5229L27.9297 36.0422C28.1338 35.7361 28.2358 35.583 28.2777 35.4171C28.3147 35.2704 28.3177 35.1172 28.2865 34.9692C28.2512 34.8017 28.1553 34.6448 27.9634 34.3308L20.7617 22.5461M20.7617 22.5461L13.56 34.3308C13.3681 34.6448 13.2722 34.8017 13.2369 34.9692C13.2057 35.1172 13.2088 35.2704 13.2458 35.4171C13.2876 35.583 13.3897 35.7361 13.5938 36.0422L17.2475 41.5229M20.7617 22.5461V33.2097M17.4322 45.7399L24.0913 45.7399C24.6479 45.7399 24.9263 45.7399 25.1389 45.6316C25.3259 45.5363 25.478 45.3842 25.5733 45.1972C25.6816 44.9846 25.6816 44.7062 25.6816 44.1496L25.6816 43.1132C25.6816 42.5565 25.6816 42.2782 25.5733 42.0656C25.478 41.8786 25.3259 41.7265 25.1389 41.6312C24.9263 41.5229 24.6479 41.5229 24.0913 41.5229H17.4322C16.8755 41.5229 16.5972 41.5229 16.3845 41.6312C16.1975 41.7265 16.0455 41.8786 15.9502 42.0656C15.8418 42.2782 15.8418 42.5565 15.8418 43.1132L15.8418 44.1496C15.8418 44.7062 15.8418 44.9846 15.9502 45.1972C16.0455 45.3842 16.1975 45.5363 16.3845 45.6316C16.5972 45.7399 16.8755 45.7399 17.4322 45.7399ZM22.1674 36.603C21.3911 37.3793 20.1324 37.3793 19.356 36.603C18.5797 35.8266 18.5797 34.5679 19.356 33.7916C20.1324 33.0153 21.3911 33.0153 22.1674 33.7916C22.9437 34.5679 22.9437 35.8266 22.1674 36.603Z" stroke="url(#paint5_linear_345_810)" stroke-width="0.8" stroke-linecap="round" stroke-linejoin="round"/>
<path d="M0.742188 21.0976C0.742188 21.0976 11.1782 10.4749 21.0552 19.4204C30.9321 28.366 40.8091 17.5568 40.8091 17.5568" stroke="url(#paint6_linear_345_810)"/>
<path d="M0.742188 21.0976C0.742188 21.0976 11.1782 10.4749 21.0552 19.4204C30.9321 28.366 40.8091 17.5568 40.8091 17.5568" stroke="url(#paint7_linear_345_810)"/>
<path d="M0.742188 19.819C0.742188 19.819 11.1782 9.19619 21.0552 18.1417C30.9321 27.0873 40.8091 16.2782 40.8091 16.2782" stroke="url(#paint8_linear_345_810)" stroke-opacity="0.9" stroke-width="0.5"/>
<path d="M0.742188 18.6889C0.742188 18.6889 11.1782 8.06619 21.0552 17.0117C30.9321 25.9573 40.8091 15.1482 40.8091 15.1482" stroke="url(#paint9_linear_345_810)" stroke-opacity="0.8" stroke-width="0.5"/>
<path d="M0.742188 17.5592C0.742188 17.5592 11.1782 6.93643 21.0552 15.882C30.9321 24.8275 40.8091 14.0184 40.8091 14.0184" stroke="url(#paint10_linear_345_810)" stroke-opacity="0.7" stroke-width="0.5"/>
<path d="M0.742188 16.4292C0.742188 16.4292 11.1782 5.80642 21.0552 14.752C30.9321 23.6975 40.8091 12.8884 40.8091 12.8884" stroke="url(#paint11_linear_345_810)" stroke-opacity="0.6" stroke-width="0.5"/>
<path d="M0.742188 15.2994C0.742188 15.2994 11.1782 4.67666 21.0552 13.6222C30.9321 22.5677 40.8091 11.7586 40.8091 11.7586" stroke="url(#paint12_linear_345_810)" stroke-opacity="0.5" stroke-width="0.5"/>
<path d="M0.742188 14.1694C0.742188 14.1694 11.1782 3.54666 21.0552 12.4922C30.9321 21.4377 40.8091 10.6286 40.8091 10.6286" stroke="url(#paint13_linear_345_810)" stroke-opacity="0.4" stroke-width="0.5"/>
<path d="M0.742188 13.0397C0.742188 13.0397 11.1782 2.4169 21.0552 11.3624C30.9321 20.308 40.8091 9.49886 40.8091 9.49886" stroke="url(#paint14_linear_345_810)" stroke-opacity="0.3" stroke-width="0.5"/>
<path d="M0.742188 11.9096C0.742188 11.9096 11.1782 1.28689 21.0552 10.2324C30.9321 19.178 40.8091 8.36886 40.8091 8.36886" stroke="url(#paint15_linear_345_810)" stroke-opacity="0.2" stroke-width="0.5"/>
<path d="M0.742188 10.7799C0.742188 10.7799 11.1782 0.15713 21.0552 9.10267C30.9321 18.0482 40.8091 7.2391 40.8091 7.2391" stroke="url(#paint16_linear_345_810)" stroke-opacity="0.2" stroke-width="0.5"/>
<path d="M0.742188 9.64988C0.742188 9.64988 11.1782 -0.972875 21.0552 7.97267C30.9321 16.9182 40.8091 6.10909 40.8091 6.10909" stroke="url(#paint17_linear_345_810)" stroke-opacity="0.2" stroke-width="0.5"/>
<path d="M0.742188 8.52012C0.742188 8.52012 11.1782 -2.10264 21.0552 6.84291C30.9321 15.7884 40.8091 4.97933 40.8091 4.97933" stroke="url(#paint18_linear_345_810)" stroke-opacity="0.2" stroke-width="0.5"/>
<path d="M0.742188 7.39012C0.742188 7.39012 11.1782 -3.23264 21.0552 5.7129C30.9321 14.6584 40.8091 3.84933 40.8091 3.84933" stroke="url(#paint19_linear_345_810)" stroke-opacity="0.2" stroke-width="0.5"/>
<path d="M0.742188 6.26036C0.742188 6.26036 11.1782 -4.3624 21.0552 4.58314C30.9321 13.5287 40.8091 2.71957 40.8091 2.71957" stroke="url(#paint20_linear_345_810)" stroke-opacity="0.95" stroke-width="0.5"/>
<path d="M0.742188 6.29515C0.742188 6.29515 11.1782 -4.32761 21.0552 4.61793C30.9321 13.5635 40.8091 2.75436 40.8091 2.75436" stroke="url(#paint21_linear_345_810)" stroke-opacity="0.2" stroke-width="0.5"/>
<path d="M0.742188 6.29515C0.742188 6.29515 11.1782 -4.32761 21.0552 4.61793C30.9321 13.5635 40.8091 2.75436 40.8091 2.75436" stroke="url(#paint22_linear_345_810)" stroke-width="0.5"/>
<path d="M14.5352 11.3651L27.3938 27.9509" stroke="#5D35C7"/>
<rect x="0.372715" y="20.6829" width="0.74543" height="0.74543" fill="#181726" stroke="#593BE7" stroke-width="0.74543"/>
<rect x="20.5006" y="19.1921" width="0.74543" height="0.74543" fill="#181726" stroke="#6744D4" stroke-width="0.74543"/>
<rect x="39.8815" y="17.7016" width="0.74543" height="0.74543" stroke="#5D35C7" stroke-width="0.74543"/>
<ellipse cx="14.5378" cy="11.3653" rx="0.372715" ry="0.372715" fill="#5D35C7"/>
<ellipse cx="27.2106" cy="27.7652" rx="0.372715" ry="0.372715" fill="#5D35C7"/>
<defs>
<linearGradient id="paint0_linear_345_810" x1="23.9166" y1="45.5482" x2="22.9054" y2="41.482" gradientUnits="userSpaceOnUse">
<stop stop-color="#5E00A8"/>
<stop offset="1" stop-color="#4729D3"/>
</linearGradient>
<linearGradient id="paint1_linear_345_810" x1="8.94439" y1="35.8777" x2="29.8682" y2="40.2471" gradientUnits="userSpaceOnUse">
<stop stop-color="#E75778"/>
<stop offset="0.888634" stop-color="#8876FF"/>
</linearGradient>
<linearGradient id="paint2_linear_345_810" x1="8.94439" y1="35.8777" x2="29.8682" y2="40.2471" gradientUnits="userSpaceOnUse">
<stop stop-color="#E75778"/>
<stop offset="0.888634" stop-color="#8876FF"/>
</linearGradient>
<linearGradient id="paint3_linear_345_810" x1="8.94439" y1="35.8777" x2="29.8682" y2="40.2471" gradientUnits="userSpaceOnUse">
<stop stop-color="#E75778"/>
<stop offset="0.888634" stop-color="#8876FF"/>
</linearGradient>
<linearGradient id="paint4_linear_345_810" x1="20.8226" y1="26.7451" x2="20.8226" y2="45.9531" gradientUnits="userSpaceOnUse">
<stop stop-color="#6744D4"/>
<stop offset="1" stop-color="#6525AC"/>
</linearGradient>
<linearGradient id="paint5_linear_345_810" x1="8.94439" y1="35.8777" x2="29.8682" y2="40.2471" gradientUnits="userSpaceOnUse">
<stop stop-color="#E75778"/>
<stop offset="0.888634" stop-color="#8876FF"/>
</linearGradient>
<linearGradient id="paint6_linear_345_810" x1="35.3345" y1="29.1546" x2="32.6534" y2="32.2572" gradientUnits="userSpaceOnUse">
<stop stop-color="#8046B9"/>
<stop offset="1" stop-color="#593BE7"/>
</linearGradient>
<linearGradient id="paint7_linear_345_810" x1="2.94586" y1="22.3478" x2="6.56257" y2="9.04077" gradientUnits="userSpaceOnUse">
<stop stop-color="#E75778"/>
<stop offset="0.888634" stop-color="#8876FF"/>
</linearGradient>
<linearGradient id="paint8_linear_345_810" x1="35.3345" y1="27.8759" x2="32.6534" y2="30.9785" gradientUnits="userSpaceOnUse">
<stop stop-color="#8046B9"/>
<stop offset="1" stop-color="#593BE7"/>
</linearGradient>
<linearGradient id="paint9_linear_345_810" x1="35.3345" y1="26.7459" x2="32.6534" y2="29.8485" gradientUnits="userSpaceOnUse">
<stop stop-color="#8046B9"/>
<stop offset="1" stop-color="#593BE7"/>
</linearGradient>
<linearGradient id="paint10_linear_345_810" x1="35.3345" y1="25.6161" x2="32.6534" y2="28.7188" gradientUnits="userSpaceOnUse">
<stop stop-color="#8046B9"/>
<stop offset="1" stop-color="#593BE7"/>
</linearGradient>
<linearGradient id="paint11_linear_345_810" x1="35.3345" y1="24.4861" x2="32.6534" y2="27.5888" gradientUnits="userSpaceOnUse">
<stop stop-color="#8046B9"/>
<stop offset="1" stop-color="#593BE7"/>
</linearGradient>
<linearGradient id="paint12_linear_345_810" x1="35.3345" y1="23.3564" x2="32.6534" y2="26.459" gradientUnits="userSpaceOnUse">
<stop stop-color="#8046B9"/>
<stop offset="1" stop-color="#593BE7"/>
</linearGradient>
<linearGradient id="paint13_linear_345_810" x1="35.3345" y1="22.2264" x2="32.6534" y2="25.329" gradientUnits="userSpaceOnUse">
<stop stop-color="#8046B9"/>
<stop offset="1" stop-color="#593BE7"/>
</linearGradient>
<linearGradient id="paint14_linear_345_810" x1="35.3345" y1="21.0966" x2="32.6534" y2="24.1992" gradientUnits="userSpaceOnUse">
<stop stop-color="#8046B9"/>
<stop offset="1" stop-color="#593BE7"/>
</linearGradient>
<linearGradient id="paint15_linear_345_810" x1="35.3345" y1="19.9666" x2="32.6534" y2="23.0692" gradientUnits="userSpaceOnUse">
<stop stop-color="#8046B9"/>
<stop offset="1" stop-color="#593BE7"/>
</linearGradient>
<linearGradient id="paint16_linear_345_810" x1="35.3345" y1="18.8368" x2="32.6534" y2="21.9395" gradientUnits="userSpaceOnUse">
<stop stop-color="#8046B9"/>
<stop offset="1" stop-color="#593BE7"/>
</linearGradient>
<linearGradient id="paint17_linear_345_810" x1="35.3345" y1="17.7068" x2="32.6534" y2="20.8095" gradientUnits="userSpaceOnUse">
<stop stop-color="#8046B9"/>
<stop offset="1" stop-color="#593BE7"/>
</linearGradient>
<linearGradient id="paint18_linear_345_810" x1="35.3345" y1="16.5771" x2="32.6534" y2="19.6797" gradientUnits="userSpaceOnUse">
<stop stop-color="#8046B9"/>
<stop offset="1" stop-color="#593BE7"/>
</linearGradient>
<linearGradient id="paint19_linear_345_810" x1="35.3345" y1="15.4471" x2="32.6534" y2="18.5497" gradientUnits="userSpaceOnUse">
<stop stop-color="#8046B9"/>
<stop offset="1" stop-color="#593BE7"/>
</linearGradient>
<linearGradient id="paint20_linear_345_810" x1="-0.565338" y1="6.15017" x2="0.615898" y2="1.82945" gradientUnits="userSpaceOnUse">
<stop stop-color="#121120"/>
<stop offset="1" stop-color="#2B2A37"/>
</linearGradient>
<linearGradient id="paint21_linear_345_810" x1="35.3345" y1="14.3521" x2="32.6534" y2="17.4547" gradientUnits="userSpaceOnUse">
<stop stop-color="#8046B9"/>
<stop offset="1" stop-color="#593BE7"/>
</linearGradient>
<linearGradient id="paint22_linear_345_810" x1="2.94586" y1="7.54532" x2="6.56257" y2="-5.76172" gradientUnits="userSpaceOnUse">
<stop stop-color="#E75778"/>
<stop offset="0.888634" stop-color="#8876FF"/>
</linearGradient>
</defs>
</svg>
