<svg width="86" height="35" viewBox="0 0 86 35" fill="none" xmlns="http://www.w3.org/2000/svg">
<rect width="86" height="35" rx="8" fill="#E25B72"/>
<path d="M19.96 23.112C19.1813 23.112 18.4773 22.9787 17.848 22.712C17.2293 22.4453 16.7387 22.0613 16.376 21.56C16.0133 21.0587 15.8267 20.4667 15.816 19.784H18.216C18.248 20.2427 18.408 20.6053 18.696 20.872C18.9947 21.1387 19.4 21.272 19.912 21.272C20.4347 21.272 20.8453 21.1493 21.144 20.904C21.4427 20.648 21.592 20.3173 21.592 19.912C21.592 19.5813 21.4907 19.3093 21.288 19.096C21.0853 18.8827 20.8293 18.7173 20.52 18.6C20.2213 18.472 19.8053 18.3333 19.272 18.184C18.5467 17.9707 17.9547 17.7627 17.496 17.56C17.048 17.3467 16.6587 17.032 16.328 16.616C16.008 16.1893 15.848 15.624 15.848 14.92C15.848 14.2587 16.0133 13.6827 16.344 13.192C16.6747 12.7013 17.1387 12.328 17.736 12.072C18.3333 11.8053 19.016 11.672 19.784 11.672C20.936 11.672 21.8693 11.9547 22.584 12.52C23.3093 13.0747 23.7093 13.8533 23.784 14.856H21.32C21.2987 14.472 21.1333 14.1573 20.824 13.912C20.5253 13.656 20.1253 13.528 19.624 13.528C19.1867 13.528 18.8347 13.64 18.568 13.864C18.312 14.088 18.184 14.4133 18.184 14.84C18.184 15.1387 18.28 15.3893 18.472 15.592C18.6747 15.784 18.92 15.944 19.208 16.072C19.5067 16.1893 19.9227 16.328 20.456 16.488C21.1813 16.7013 21.7733 16.9147 22.232 17.128C22.6907 17.3413 23.0853 17.6613 23.416 18.088C23.7467 18.5147 23.912 19.0747 23.912 19.768C23.912 20.3653 23.7573 20.92 23.448 21.432C23.1387 21.944 22.6853 22.3547 22.088 22.664C21.4907 22.9627 20.7813 23.112 19.96 23.112ZM27.6458 15.976V20.264C27.6458 20.5627 27.7151 20.7813 27.8538 20.92C28.0031 21.048 28.2484 21.112 28.5898 21.112H29.6298V23H28.2218C26.3338 23 25.3898 22.0827 25.3898 20.248V15.976H24.3338V14.136H25.3898V11.944H27.6458V14.136H29.6298V15.976H27.6458ZM38.6646 18.376C38.6646 18.696 38.6433 18.984 38.6006 19.24H32.1206C32.174 19.88 32.398 20.3813 32.7926 20.744C33.1873 21.1067 33.6726 21.288 34.2486 21.288C35.0806 21.288 35.6726 20.9307 36.0246 20.216H38.4406C38.1846 21.0693 37.694 21.7733 36.9686 22.328C36.2433 22.872 35.3526 23.144 34.2966 23.144C33.4433 23.144 32.6753 22.9573 31.9926 22.584C31.3206 22.2 30.7926 21.6613 30.4086 20.968C30.0353 20.2747 29.8486 19.4747 29.8486 18.568C29.8486 17.6507 30.0353 16.8453 30.4086 16.152C30.782 15.4587 31.3046 14.9253 31.9766 14.552C32.6486 14.1787 33.422 13.992 34.2966 13.992C35.1393 13.992 35.8913 14.1733 36.5526 14.536C37.2246 14.8987 37.742 15.416 38.1046 16.088C38.478 16.7493 38.6646 17.512 38.6646 18.376ZM36.3446 17.736C36.334 17.16 36.126 16.7013 35.7206 16.36C35.3153 16.008 34.8193 15.832 34.2326 15.832C33.678 15.832 33.2086 16.0027 32.8246 16.344C32.4513 16.6747 32.222 17.1387 32.1366 17.736H36.3446ZM41.7234 15.416C42.0114 15.0107 42.4061 14.6747 42.9074 14.408C43.4194 14.1307 44.0007 13.992 44.6514 13.992C45.4087 13.992 46.0914 14.1787 46.6994 14.552C47.3181 14.9253 47.8034 15.4587 48.1554 16.152C48.5181 16.8347 48.6994 17.6293 48.6994 18.536C48.6994 19.4427 48.5181 20.248 48.1554 20.952C47.8034 21.6453 47.3181 22.184 46.6994 22.568C46.0914 22.952 45.4087 23.144 44.6514 23.144C44.0007 23.144 43.4247 23.0107 42.9234 22.744C42.4327 22.4773 42.0327 22.1413 41.7234 21.736V27.224H39.4834V14.136H41.7234V15.416ZM46.4114 18.536C46.4114 18.0027 46.2994 17.544 46.0754 17.16C45.8621 16.7653 45.5741 16.4667 45.2114 16.264C44.8594 16.0613 44.4754 15.96 44.0594 15.96C43.6541 15.96 43.2701 16.0667 42.9074 16.28C42.5554 16.4827 42.2674 16.7813 42.0434 17.176C41.8301 17.5707 41.7234 18.0347 41.7234 18.568C41.7234 19.1013 41.8301 19.5653 42.0434 19.96C42.2674 20.3547 42.5554 20.6587 42.9074 20.872C43.2701 21.0747 43.6541 21.176 44.0594 21.176C44.4754 21.176 44.8594 21.0693 45.2114 20.856C45.5741 20.6427 45.8621 20.3387 46.0754 19.944C46.2994 19.5493 46.4114 19.08 46.4114 18.536ZM52.2512 17.016C52.2512 15.1707 52.5818 13.7253 53.2432 12.68C53.9152 11.6347 55.0245 11.112 56.5712 11.112C58.1178 11.112 59.2219 11.6347 59.8832 12.68C60.5552 13.7253 60.8912 15.1707 60.8912 17.016C60.8912 18.872 60.5552 20.328 59.8832 21.384C59.2219 22.44 58.1178 22.968 56.5712 22.968C55.0245 22.968 53.9152 22.44 53.2432 21.384C52.5818 20.328 52.2512 18.872 52.2512 17.016ZM58.6832 17.016C58.6832 16.2267 58.6298 15.5653 58.5232 15.032C58.4272 14.488 58.2245 14.0453 57.9152 13.704C57.6165 13.3627 57.1685 13.192 56.5712 13.192C55.9738 13.192 55.5205 13.3627 55.2112 13.704C54.9125 14.0453 54.7098 14.488 54.6032 15.032C54.5072 15.5653 54.4592 16.2267 54.4592 17.016C54.4592 17.8267 54.5072 18.5093 54.6032 19.064C54.6992 19.608 54.9018 20.0507 55.2112 20.392C55.5205 20.7227 55.9738 20.888 56.5712 20.888C57.1685 20.888 57.6218 20.7227 57.9312 20.392C58.2405 20.0507 58.4432 19.608 58.5392 19.064C58.6352 18.5093 58.6832 17.8267 58.6832 17.016ZM61.8107 14.408C61.864 13.3413 62.2374 12.52 62.9307 11.944C63.6347 11.3573 64.5574 11.064 65.6987 11.064C66.4774 11.064 67.144 11.2027 67.6987 11.48C68.2534 11.7467 68.6694 12.1147 68.9467 12.584C69.2347 13.0427 69.3787 13.5653 69.3787 14.152C69.3787 14.824 69.2027 15.3947 68.8507 15.864C68.5094 16.3227 68.0987 16.632 67.6187 16.792V16.856C68.2374 17.048 68.7174 17.3893 69.0587 17.88C69.4107 18.3707 69.5867 19 69.5867 19.768C69.5867 20.408 69.4374 20.9787 69.1387 21.48C68.8507 21.9813 68.4187 22.376 67.8427 22.664C67.2774 22.9413 66.5947 23.08 65.7947 23.08C64.5894 23.08 63.608 22.776 62.8507 22.168C62.0934 21.56 61.6934 20.664 61.6507 19.48H63.8267C63.848 20.0027 64.024 20.424 64.3547 20.744C64.696 21.0533 65.16 21.208 65.7467 21.208C66.2907 21.208 66.7067 21.0587 66.9947 20.76C67.2934 20.4507 67.4427 20.056 67.4427 19.576C67.4427 18.936 67.24 18.4773 66.8347 18.2C66.4294 17.9227 65.8 17.784 64.9467 17.784H64.4827V15.944H64.9467C66.4614 15.944 67.2187 15.4373 67.2187 14.424C67.2187 13.9653 67.08 13.608 66.8027 13.352C66.536 13.096 66.1467 12.968 65.6347 12.968C65.1334 12.968 64.744 13.1067 64.4667 13.384C64.2 13.6507 64.0454 13.992 64.0027 14.408H61.8107Z" fill="white"/>
</svg>
