<svg width="86" height="35" viewBox="0 0 86 35" fill="none" xmlns="http://www.w3.org/2000/svg">
<rect width="86" height="35" rx="8" fill="#E25B72"/>
<path d="M21.96 23.112C21.1813 23.112 20.4773 22.9787 19.848 22.712C19.2293 22.4453 18.7387 22.0613 18.376 21.56C18.0133 21.0587 17.8267 20.4667 17.816 19.784H20.216C20.248 20.2427 20.408 20.6053 20.696 20.872C20.9947 21.1387 21.4 21.272 21.912 21.272C22.4347 21.272 22.8453 21.1493 23.144 20.904C23.4427 20.648 23.592 20.3173 23.592 19.912C23.592 19.5813 23.4907 19.3093 23.288 19.096C23.0853 18.8827 22.8293 18.7173 22.52 18.6C22.2213 18.472 21.8053 18.3333 21.272 18.184C20.5467 17.9707 19.9547 17.7627 19.496 17.56C19.048 17.3467 18.6587 17.032 18.328 16.616C18.008 16.1893 17.848 15.624 17.848 14.92C17.848 14.2587 18.0133 13.6827 18.344 13.192C18.6747 12.7013 19.1387 12.328 19.736 12.072C20.3333 11.8053 21.016 11.672 21.784 11.672C22.936 11.672 23.8693 11.9547 24.584 12.52C25.3093 13.0747 25.7093 13.8533 25.784 14.856H23.32C23.2987 14.472 23.1333 14.1573 22.824 13.912C22.5253 13.656 22.1253 13.528 21.624 13.528C21.1867 13.528 20.8347 13.64 20.568 13.864C20.312 14.088 20.184 14.4133 20.184 14.84C20.184 15.1387 20.28 15.3893 20.472 15.592C20.6747 15.784 20.92 15.944 21.208 16.072C21.5067 16.1893 21.9227 16.328 22.456 16.488C23.1813 16.7013 23.7733 16.9147 24.232 17.128C24.6907 17.3413 25.0853 17.6613 25.416 18.088C25.7467 18.5147 25.912 19.0747 25.912 19.768C25.912 20.3653 25.7573 20.92 25.448 21.432C25.1387 21.944 24.6853 22.3547 24.088 22.664C23.4907 22.9627 22.7813 23.112 21.96 23.112ZM29.6458 15.976V20.264C29.6458 20.5627 29.7151 20.7813 29.8538 20.92C30.0031 21.048 30.2484 21.112 30.5898 21.112H31.6298V23H30.2218C28.3338 23 27.3898 22.0827 27.3898 20.248V15.976H26.3338V14.136H27.3898V11.944H29.6458V14.136H31.6298V15.976H29.6458ZM40.6646 18.376C40.6646 18.696 40.6433 18.984 40.6006 19.24H34.1206C34.174 19.88 34.398 20.3813 34.7926 20.744C35.1873 21.1067 35.6726 21.288 36.2486 21.288C37.0806 21.288 37.6726 20.9307 38.0246 20.216H40.4406C40.1846 21.0693 39.694 21.7733 38.9686 22.328C38.2433 22.872 37.3526 23.144 36.2966 23.144C35.4433 23.144 34.6753 22.9573 33.9926 22.584C33.3206 22.2 32.7926 21.6613 32.4086 20.968C32.0353 20.2747 31.8486 19.4747 31.8486 18.568C31.8486 17.6507 32.0353 16.8453 32.4086 16.152C32.782 15.4587 33.3046 14.9253 33.9766 14.552C34.6486 14.1787 35.422 13.992 36.2966 13.992C37.1393 13.992 37.8913 14.1733 38.5526 14.536C39.2246 14.8987 39.742 15.416 40.1046 16.088C40.478 16.7493 40.6646 17.512 40.6646 18.376ZM38.3446 17.736C38.334 17.16 38.126 16.7013 37.7206 16.36C37.3153 16.008 36.8193 15.832 36.2326 15.832C35.678 15.832 35.2086 16.0027 34.8246 16.344C34.4513 16.6747 34.222 17.1387 34.1366 17.736H38.3446ZM43.7234 15.416C44.0114 15.0107 44.4061 14.6747 44.9074 14.408C45.4194 14.1307 46.0007 13.992 46.6514 13.992C47.4087 13.992 48.0914 14.1787 48.6994 14.552C49.3181 14.9253 49.8034 15.4587 50.1554 16.152C50.5181 16.8347 50.6994 17.6293 50.6994 18.536C50.6994 19.4427 50.5181 20.248 50.1554 20.952C49.8034 21.6453 49.3181 22.184 48.6994 22.568C48.0914 22.952 47.4087 23.144 46.6514 23.144C46.0007 23.144 45.4247 23.0107 44.9234 22.744C44.4327 22.4773 44.0327 22.1413 43.7234 21.736V27.224H41.4834V14.136H43.7234V15.416ZM48.4114 18.536C48.4114 18.0027 48.2994 17.544 48.0754 17.16C47.8621 16.7653 47.5741 16.4667 47.2114 16.264C46.8594 16.0613 46.4754 15.96 46.0594 15.96C45.6541 15.96 45.2701 16.0667 44.9074 16.28C44.5554 16.4827 44.2674 16.7813 44.0434 17.176C43.8301 17.5707 43.7234 18.0347 43.7234 18.568C43.7234 19.1013 43.8301 19.5653 44.0434 19.96C44.2674 20.3547 44.5554 20.6587 44.9074 20.872C45.2701 21.0747 45.6541 21.176 46.0594 21.176C46.4754 21.176 46.8594 21.0693 47.2114 20.856C47.5741 20.6427 47.8621 20.3387 48.0754 19.944C48.2994 19.5493 48.4114 19.08 48.4114 18.536ZM54.2512 17.016C54.2512 15.1707 54.5818 13.7253 55.2432 12.68C55.9152 11.6347 57.0245 11.112 58.5712 11.112C60.1178 11.112 61.2219 11.6347 61.8832 12.68C62.5552 13.7253 62.8912 15.1707 62.8912 17.016C62.8912 18.872 62.5552 20.328 61.8832 21.384C61.2219 22.44 60.1178 22.968 58.5712 22.968C57.0245 22.968 55.9152 22.44 55.2432 21.384C54.5818 20.328 54.2512 18.872 54.2512 17.016ZM60.6832 17.016C60.6832 16.2267 60.6298 15.5653 60.5232 15.032C60.4272 14.488 60.2245 14.0453 59.9152 13.704C59.6165 13.3627 59.1685 13.192 58.5712 13.192C57.9738 13.192 57.5205 13.3627 57.2112 13.704C56.9125 14.0453 56.7098 14.488 56.6032 15.032C56.5072 15.5653 56.4592 16.2267 56.4592 17.016C56.4592 17.8267 56.5072 18.5093 56.6032 19.064C56.6992 19.608 56.9018 20.0507 57.2112 20.392C57.5205 20.7227 57.9738 20.888 58.5712 20.888C59.1685 20.888 59.6218 20.7227 59.9312 20.392C60.2405 20.0507 60.4432 19.608 60.5392 19.064C60.6352 18.5093 60.6832 17.8267 60.6832 17.016ZM63.5067 13.4V11.336H67.3627V23H65.0587V13.4H63.5067Z" fill="white"/>
</svg>
