<svg width="86" height="67" viewBox="0 0 86 67" fill="none" xmlns="http://www.w3.org/2000/svg">
<path fill-rule="evenodd" clip-rule="evenodd" d="M5.82292 0H80.1771C83.3825 0 86 2.6236 86 5.83646V61.1635C86 64.3694 83.3825 67 80.1771 67H5.82292C2.61751 67 0 64.3764 0 61.1635V5.83646C0 2.6236 2.61751 0 5.82292 0ZM8.81836 18.9053H76.5448V47.7229H8.81836V18.9053ZM22.5428 27.1269H26.728V35.8535C26.728 36.7164 26.6021 37.5371 26.3501 38.3017C26.0981 39.0734 25.7062 39.7468 25.1743 40.3221C24.6424 40.8973 24.0825 41.3042 23.4946 41.5356C22.6828 41.8583 21.703 42.0267 20.5622 42.0267C19.9043 42.0267 19.1834 41.9776 18.3996 41.8794C17.6227 41.7812 16.9648 41.5848 16.4399 41.2831C15.915 40.9885 15.4391 40.5676 15.0052 40.0204C14.5713 39.4732 14.2703 38.912 14.1094 38.3298C13.8504 37.3968 13.7174 36.5761 13.7174 35.8535V27.1269H17.9027V36.064C17.9027 36.8637 18.1056 37.488 18.5186 37.93C18.9315 38.3789 19.4984 38.6034 20.2262 38.6034C20.9401 38.6034 21.507 38.3789 21.9199 37.937C22.3258 37.495 22.5358 36.8707 22.5358 36.057V27.1269H22.5428ZM29.6675 27.1269H33.8737V41.7812H29.6675V27.1269ZM38.9058 26.8814H40.8094L37.387 42.0267H35.4834L38.9058 26.8814ZM50.9645 27.1269H55.1497V35.8535C55.1497 36.7164 55.0238 37.5371 54.7718 38.3017C54.5199 39.0734 54.1279 39.7468 53.596 40.3221C53.0641 40.8973 52.5042 41.3042 51.9163 41.5356C51.1045 41.8583 50.1247 42.0267 48.9839 42.0267C48.326 42.0267 47.6051 41.9776 46.8213 41.8794C46.0444 41.7812 45.3866 41.5848 44.8617 41.2831C44.3368 40.9885 43.8608 40.5676 43.4269 40.0204C42.993 39.4732 42.6921 38.912 42.5311 38.3298C42.2721 37.3968 42.1462 36.5761 42.1462 35.8535V27.1269H46.3314V36.064C46.3314 36.8637 46.5343 37.488 46.9473 37.93C47.3602 38.3789 47.9271 38.6034 48.6549 38.6034C49.3688 38.6034 49.9357 38.3789 50.3486 37.937C50.7546 37.495 50.9645 36.8707 50.9645 36.057V27.1269ZM56.9904 27.1269H61.6165L64.0171 31.6375L66.3477 27.1269H70.9108L66.6976 34.226L71.3097 41.7812H66.5926L63.9331 37.0741L61.2526 41.7812H56.5705L61.2456 34.1419L56.9904 27.1269ZM46.8003 58.7013C45.5545 58.7013 44.5467 57.5999 44.5467 56.246C44.5467 54.8851 45.5545 53.7908 46.8003 53.7908H74.5501C75.7959 53.7908 76.8037 54.8922 76.8037 56.246C76.8037 57.6069 75.7959 58.7013 74.5501 58.7013H46.8003ZM10.4701 58.7013C9.23828 58.7013 8.23747 57.5999 8.23747 56.246C8.23747 54.8851 9.23828 53.7908 10.4701 53.7908H36.1973C37.429 53.7908 38.4299 54.8922 38.4299 56.246C38.4299 57.6069 37.429 58.7013 36.1973 58.7013H10.4701ZM82.5636 14.1001H3.70231V61.7318C3.70231 62.1807 3.87728 62.5735 4.17122 62.8752C4.47217 63.1698 4.8641 63.3452 5.31201 63.3452H80.9259C81.3739 63.3452 81.7658 63.1698 82.0667 62.8752C82.3677 62.5735 82.5356 62.1807 82.5356 61.7318V14.1001H82.5636ZM74.6341 4.32122C76.2228 4.32122 77.5106 5.61198 77.5106 7.20438C77.5106 8.79677 76.2228 10.0875 74.6341 10.0875C73.0454 10.0875 71.7577 8.79677 71.7577 7.20438C71.7646 5.61198 73.0524 4.32122 74.6341 4.32122ZM55.1497 4.32122C56.7384 4.32122 58.0262 5.61198 58.0262 7.20438C58.0262 8.79677 56.7384 10.0875 55.1497 10.0875C53.561 10.0875 52.2733 8.79677 52.2733 7.20438C52.2733 5.61198 53.561 4.32122 55.1497 4.32122ZM64.8919 4.32122C66.4806 4.32122 67.7684 5.61198 67.7684 7.20438C67.7684 8.79677 66.4806 10.0875 64.8919 10.0875C63.3032 10.0875 62.0155 8.79677 62.0155 7.20438C62.0155 5.61198 63.3032 4.32122 64.8919 4.32122Z" fill="white"/>
</svg>
