<svg width="170" height="167" viewBox="0 0 170 167" fill="none" xmlns="http://www.w3.org/2000/svg">
<g filter="url(#filter0_d_345_230)">
<rect x="51.2617" y="46.5" width="67.3429" height="65.3714" rx="7.5" stroke="url(#paint0_linear_345_230)" shape-rendering="crispEdges"/>
</g>
<mask id="mask0_345_230" style="mask-type:alpha" maskUnits="userSpaceOnUse" x="51" y="46" width="69" height="67">
<rect x="51.5" y="46.5" width="67.3429" height="65.3714" rx="7.5" stroke="url(#paint1_linear_345_230)"/>
</mask>
<g mask="url(#mask0_345_230)">
</g>
<g clip-path="url(#clip0_345_230)">
<path fill-rule="evenodd" clip-rule="evenodd" d="M68.2041 73.0982H100.492V85.793H68.2041V73.0982ZM83.776 75.7182H86.185V80.3854C86.185 80.8478 86.1116 81.2833 85.9681 81.6954C85.8246 82.1075 85.6011 82.466 85.2941 82.7743C84.9871 83.0825 84.6668 83.2969 84.3298 83.4242C83.8627 83.5985 83.2988 83.6856 82.6415 83.6856C82.2612 83.6856 81.8474 83.6588 81.4003 83.6052C80.9532 83.5516 80.5762 83.4477 80.2759 83.2869C79.9756 83.1294 79.6986 82.9049 79.4484 82.6134C79.1982 82.322 79.028 82.0204 78.9346 81.7122C78.7844 81.213 78.711 80.7741 78.711 80.3888V75.7182H81.12V80.496C81.12 80.9215 81.2368 81.2565 81.4737 81.4944C81.7106 81.7356 82.0376 81.8562 82.4547 81.8562C82.8684 81.8562 83.1921 81.739 83.429 81.5011C83.6625 81.2666 83.7826 80.9315 83.7826 80.496V75.7182H83.776ZM87.8733 75.7182H90.2923V83.5516H87.8733V75.7182ZM66.776 63H102.224C103.752 63 105 64.2531 105 65.7876V92.2124C105 93.7436 103.752 95 102.224 95H66.776C65.2479 95 64 93.7469 64 92.2124V65.7876C64 64.2531 65.2479 63 66.776 63ZM103.362 70.8032H65.7651V92.4838C65.7651 92.6982 65.8485 92.8859 65.9886 93.0299C66.1287 93.174 66.3189 93.2544 66.5325 93.2544H102.581C102.795 93.2544 102.981 93.1707 103.125 93.0299C103.268 92.8859 103.348 92.6982 103.348 92.4838V70.8032H103.362ZM99.5814 66.1327C100.339 66.1327 100.953 66.7491 100.953 67.5097C100.953 68.2702 100.339 68.8867 99.5814 68.8867C98.824 68.8867 98.21 68.2702 98.21 67.5097C98.2134 66.7491 98.8273 66.1327 99.5814 66.1327ZM90.2923 66.1327C91.0497 66.1327 91.6637 66.7491 91.6637 67.5097C91.6637 68.2702 91.0497 68.8867 90.2923 68.8867C89.5349 68.8867 88.921 68.2702 88.921 67.5097C88.921 66.7491 89.5349 66.1327 90.2923 66.1327ZM94.9369 66.1327C95.6943 66.1327 96.3082 66.7491 96.3082 67.5097C96.3082 68.2702 95.6943 68.8867 94.9369 68.8867C94.1794 68.8867 93.5655 68.2702 93.5655 67.5097C93.5655 66.7491 94.1794 66.1327 94.9369 66.1327ZM86.3118 91.0364C85.7179 91.0364 85.2374 90.5104 85.2374 89.8638C85.2374 89.2138 85.7179 88.6911 86.3118 88.6911H99.5413C100.135 88.6911 100.616 89.2171 100.616 89.8638C100.616 90.5138 100.135 91.0364 99.5413 91.0364H86.3118ZM68.9915 91.0364C68.4043 91.0364 67.9272 90.5104 67.9272 89.8638C67.9272 89.2138 68.4043 88.6911 68.9915 88.6911H81.2568C81.8441 88.6911 82.3212 89.2171 82.3212 89.8638C82.3212 90.5138 81.8441 91.0364 81.2568 91.0364H68.9915Z" fill="black"/>
<path fill-rule="evenodd" clip-rule="evenodd" d="M68.2041 73.0982H100.492V85.793H68.2041V73.0982ZM83.776 75.7182H86.185V80.3854C86.185 80.8478 86.1116 81.2833 85.9681 81.6954C85.8246 82.1075 85.6011 82.466 85.2941 82.7743C84.9871 83.0825 84.6668 83.2969 84.3298 83.4242C83.8627 83.5985 83.2988 83.6856 82.6415 83.6856C82.2612 83.6856 81.8474 83.6588 81.4003 83.6052C80.9532 83.5516 80.5762 83.4477 80.2759 83.2869C79.9756 83.1294 79.6986 82.9049 79.4484 82.6134C79.1982 82.322 79.028 82.0204 78.9346 81.7122C78.7844 81.213 78.711 80.7741 78.711 80.3888V75.7182H81.12V80.496C81.12 80.9215 81.2368 81.2565 81.4737 81.4944C81.7106 81.7356 82.0376 81.8562 82.4547 81.8562C82.8684 81.8562 83.1921 81.739 83.429 81.5011C83.6625 81.2666 83.7826 80.9315 83.7826 80.496V75.7182H83.776ZM87.8733 75.7182H90.2923V83.5516H87.8733V75.7182ZM66.776 63H102.224C103.752 63 105 64.2531 105 65.7876V92.2124C105 93.7436 103.752 95 102.224 95H66.776C65.2479 95 64 93.7469 64 92.2124V65.7876C64 64.2531 65.2479 63 66.776 63ZM103.362 70.8032H65.7651V92.4838C65.7651 92.6982 65.8485 92.8859 65.9886 93.0299C66.1287 93.174 66.3189 93.2544 66.5325 93.2544H102.581C102.795 93.2544 102.981 93.1707 103.125 93.0299C103.268 92.8859 103.348 92.6982 103.348 92.4838V70.8032H103.362ZM99.5814 66.1327C100.339 66.1327 100.953 66.7491 100.953 67.5097C100.953 68.2702 100.339 68.8867 99.5814 68.8867C98.824 68.8867 98.21 68.2702 98.21 67.5097C98.2134 66.7491 98.8273 66.1327 99.5814 66.1327ZM90.2923 66.1327C91.0497 66.1327 91.6637 66.7491 91.6637 67.5097C91.6637 68.2702 91.0497 68.8867 90.2923 68.8867C89.5349 68.8867 88.921 68.2702 88.921 67.5097C88.921 66.7491 89.5349 66.1327 90.2923 66.1327ZM94.9369 66.1327C95.6943 66.1327 96.3082 66.7491 96.3082 67.5097C96.3082 68.2702 95.6943 68.8867 94.9369 68.8867C94.1794 68.8867 93.5655 68.2702 93.5655 67.5097C93.5655 66.7491 94.1794 66.1327 94.9369 66.1327ZM86.3118 91.0364C85.7179 91.0364 85.2374 90.5104 85.2374 89.8638C85.2374 89.2138 85.7179 88.6911 86.3118 88.6911H99.5413C100.135 88.6911 100.616 89.2171 100.616 89.8638C100.616 90.5138 100.135 91.0364 99.5413 91.0364H86.3118ZM68.9915 91.0364C68.4043 91.0364 67.9272 90.5104 67.9272 89.8638C67.9272 89.2138 68.4043 88.6911 68.9915 88.6911H81.2568C81.8441 88.6911 82.3212 89.2171 82.3212 89.8638C82.3212 90.5138 81.8441 91.0364 81.2568 91.0364H68.9915Z" fill="url(#paint2_linear_345_230)"/>
</g>
<defs>
<filter id="filter0_d_345_230" x="0.761719" y="0" width="168.343" height="166.371" filterUnits="userSpaceOnUse" color-interpolation-filters="sRGB">
<feFlood flood-opacity="0" result="BackgroundImageFix"/>
<feColorMatrix in="SourceAlpha" type="matrix" values="0 0 0 0 0 0 0 0 0 0 0 0 0 0 0 0 0 0 127 0" result="hardAlpha"/>
<feOffset dy="4"/>
<feGaussianBlur stdDeviation="25"/>
<feComposite in2="hardAlpha" operator="out"/>
<feColorMatrix type="matrix" values="0 0 0 0 0.416392 0 0 0 0 0.176471 0 0 0 0 0.807843 0 0 0 0.65 0"/>
<feBlend mode="normal" in2="BackgroundImageFix" result="effect1_dropShadow_345_230"/>
<feBlend mode="normal" in="SourceGraphic" in2="effect1_dropShadow_345_230" result="shape"/>
</filter>
<linearGradient id="paint0_linear_345_230" x1="51.7098" y1="46" x2="119.994" y2="51.9207" gradientUnits="userSpaceOnUse">
<stop stop-color="#702FD2"/>
<stop offset="1" stop-color="#5334A2"/>
</linearGradient>
<linearGradient id="paint1_linear_345_230" x1="51.9481" y1="46" x2="117.3" y2="51.9781" gradientUnits="userSpaceOnUse">
<stop stop-color="#702FD2"/>
<stop offset="1" stop-color="#6E2FC9"/>
</linearGradient>
<linearGradient id="paint2_linear_345_230" x1="66.255" y1="92.2308" x2="97.8437" y2="65.7413" gradientUnits="userSpaceOnUse">
<stop stop-color="#E75778"/>
<stop offset="0.888634" stop-color="#8876FF"/>
</linearGradient>
<clipPath id="clip0_345_230">
<rect width="41" height="32" fill="white" transform="translate(64 63)"/>
</clipPath>
</defs>
</svg>
