<svg width="77" height="77" viewBox="0 0 77 77" fill="none" xmlns="http://www.w3.org/2000/svg">
<path d="M38.5 0C17.2385 0 0 17.2385 0 38.5C0 59.7615 17.2385 77 38.5 77C59.7615 77 77 59.7615 77 38.5C77 17.2385 59.7615 0 38.5 0ZM66.6544 23.11C66.7922 24.1314 66.8674 25.228 66.8674 26.4061C66.8674 29.6583 66.2596 33.3178 64.4299 37.8984L54.6294 66.2283C64.1667 60.6701 70.5833 50.3307 70.5833 38.5C70.5833 32.923 69.1609 27.6781 66.6544 23.11ZM39.064 41.3073L29.439 69.2799C32.3152 70.1259 35.3543 70.5896 38.5 70.5896C42.2347 70.5896 45.819 69.9442 49.1527 68.7724C49.0649 68.6345 48.9897 68.4904 48.9208 68.3275L39.064 41.3073ZM60.1562 36.8833C60.1562 32.9167 58.7338 30.1721 57.5119 28.0353C55.8827 25.391 54.3599 23.1539 54.3599 20.5095C54.3599 17.5581 56.597 14.8135 59.7489 14.8135C59.8931 14.8135 60.0247 14.8323 60.1625 14.8385C54.4539 9.6062 46.8467 6.41667 38.5 6.41667C27.2896 6.41667 17.4328 12.1691 11.6929 20.8792C12.4448 20.9043 13.1529 20.9168 13.7607 20.9168C17.1132 20.9168 22.3142 20.5095 22.3142 20.5095C24.0437 20.4093 24.2442 22.9471 22.521 23.1539C22.521 23.1539 20.7852 23.3544 18.849 23.4609L30.5293 58.2137L37.5538 37.159L32.5533 23.4609C30.8238 23.3607 29.1883 23.1539 29.1883 23.1539C27.4588 23.0536 27.6593 20.4093 29.3888 20.5095C29.3888 20.5095 34.6838 20.9168 37.8358 20.9168C41.1882 20.9168 46.3892 20.5095 46.3892 20.5095C48.1187 20.4093 48.3193 22.9471 46.596 23.1539C46.596 23.1539 44.854 23.3544 42.924 23.4609L54.5166 57.9443L57.8252 47.4545C59.2978 42.8739 60.1562 39.6279 60.1562 36.8833ZM6.41667 38.5C6.41667 51.2017 13.7983 62.174 24.5011 67.375L9.19263 25.4411C7.413 29.4327 6.41667 33.8442 6.41667 38.5ZM38.5 2.31226C43.3877 2.31226 48.125 3.271 52.5866 5.15715C54.7297 6.06576 56.7975 7.18742 58.7338 8.4908C60.6513 9.78792 62.456 11.273 64.0915 12.9085C65.727 14.544 67.2183 16.3487 68.5092 18.2662C69.8188 20.2025 70.9405 22.2703 71.8429 24.4134C73.729 28.875 74.6878 33.6123 74.6878 38.5C74.6878 43.3877 73.729 48.125 71.8429 52.5866C70.9342 54.7297 69.8126 56.7975 68.5092 58.7338C67.2121 60.6513 65.727 62.456 64.0915 64.0915C62.456 65.727 60.6513 67.2183 58.7338 68.5092C56.7975 69.8188 54.7297 70.9405 52.5866 71.8429C48.125 73.729 43.3877 74.6878 38.5 74.6878C33.6123 74.6878 28.875 73.729 24.4134 71.8429C22.2703 70.9342 20.2025 69.8126 18.2662 68.5092C16.3487 67.2121 14.544 65.727 12.9085 64.0915C11.273 62.456 9.78166 60.6513 8.4908 58.7338C7.18115 56.7975 6.05949 54.7297 5.15715 52.5866C3.26473 48.125 2.31226 43.3877 2.31226 38.5C2.31226 33.6123 3.271 28.875 5.15715 24.4134C6.06576 22.2703 7.18742 20.2025 8.4908 18.2662C9.78792 16.3487 11.273 14.544 12.9085 12.9085C14.544 11.273 16.3487 9.78166 18.2662 8.4908C20.2025 7.18115 22.2703 6.05949 24.4134 5.15715C28.875 3.26473 33.6123 2.31226 38.5 2.31226Z" fill="white"/>
</svg>
