<svg width="41" height="31" viewBox="0 0 41 31" fill="none" xmlns="http://www.w3.org/2000/svg">
<path fill-rule="evenodd" clip-rule="evenodd" d="M30.1528 8.70037H38.6544C39.3017 8.70037 39.8923 8.95994 40.3127 9.37721C40.7397 9.79778 41 10.376 41 11.0102V28.6935C41 29.3309 40.7364 29.9125 40.3127 30.3264C39.8856 30.747 39.2983 31.0033 38.6544 31.0033H30.1528C29.5055 31.0033 28.9149 30.7437 28.4945 30.3264C28.0674 29.9059 27.8071 29.3276 27.8071 28.6935V11.0069C27.8071 10.3695 28.0707 9.78792 28.4945 9.37393C28.9216 8.95337 29.5055 8.70037 30.1528 8.70037ZM1.01766 0H36.4255C36.9861 0 37.4432 0.450132 37.4432 1.00212V7.06084H35.2811V2.77308C35.2811 2.2868 34.8774 1.88596 34.3802 1.88596H3.05965C2.56584 1.88596 2.15877 2.28352 2.15877 2.77308V20.0325C2.15877 20.5188 2.5625 20.9197 3.05965 20.9197H25.5916V25.1023H1.01766C0.457113 25.1023 0 24.6521 0 24.1002V1.00212C0 0.450132 0.457113 0 1.01766 0ZM14.1038 26.4855H23.3361C23.3595 28.0594 24.0168 29.4656 25.8018 30.5762H11.6414C13.0661 29.5576 14.1104 28.3189 14.1038 26.4855ZM18.7216 21.7246C19.4423 21.7246 20.0295 22.2996 20.0295 23.0126C20.0295 23.7223 19.4423 24.3006 18.7216 24.3006C18.0009 24.3006 17.4137 23.7256 17.4137 23.0126C17.4137 22.3029 17.9976 21.7246 18.7216 21.7246ZM34.4002 28.1645C34.9307 28.1645 35.3645 28.5851 35.3645 29.114C35.3645 29.6365 34.9374 30.0636 34.4002 30.0636C33.8697 30.0636 33.436 29.643 33.436 29.114C33.436 28.5916 33.863 28.1645 34.4002 28.1645ZM28.7948 27.4417H40.009V12.2784H28.7948V27.4417Z" fill="black"/>
<path fill-rule="evenodd" clip-rule="evenodd" d="M30.1528 8.70037H38.6544C39.3017 8.70037 39.8923 8.95994 40.3127 9.37721C40.7397 9.79778 41 10.376 41 11.0102V28.6935C41 29.3309 40.7364 29.9125 40.3127 30.3264C39.8856 30.747 39.2983 31.0033 38.6544 31.0033H30.1528C29.5055 31.0033 28.9149 30.7437 28.4945 30.3264C28.0674 29.9059 27.8071 29.3276 27.8071 28.6935V11.0069C27.8071 10.3695 28.0707 9.78792 28.4945 9.37393C28.9216 8.95337 29.5055 8.70037 30.1528 8.70037ZM1.01766 0H36.4255C36.9861 0 37.4432 0.450132 37.4432 1.00212V7.06084H35.2811V2.77308C35.2811 2.2868 34.8774 1.88596 34.3802 1.88596H3.05965C2.56584 1.88596 2.15877 2.28352 2.15877 2.77308V20.0325C2.15877 20.5188 2.5625 20.9197 3.05965 20.9197H25.5916V25.1023H1.01766C0.457113 25.1023 0 24.6521 0 24.1002V1.00212C0 0.450132 0.457113 0 1.01766 0ZM14.1038 26.4855H23.3361C23.3595 28.0594 24.0168 29.4656 25.8018 30.5762H11.6414C13.0661 29.5576 14.1104 28.3189 14.1038 26.4855ZM18.7216 21.7246C19.4423 21.7246 20.0295 22.2996 20.0295 23.0126C20.0295 23.7223 19.4423 24.3006 18.7216 24.3006C18.0009 24.3006 17.4137 23.7256 17.4137 23.0126C17.4137 22.3029 17.9976 21.7246 18.7216 21.7246ZM34.4002 28.1645C34.9307 28.1645 35.3645 28.5851 35.3645 29.114C35.3645 29.6365 34.9374 30.0636 34.4002 30.0636C33.8697 30.0636 33.436 29.643 33.436 29.114C33.436 28.5916 33.863 28.1645 34.4002 28.1645ZM28.7948 27.4417H40.009V12.2784H28.7948V27.4417Z" fill="url(#paint0_linear_380_405)"/>
<defs>
<linearGradient id="paint0_linear_380_405" x1="2.255" y1="28.3203" x2="33.014" y2="1.69731" gradientUnits="userSpaceOnUse">
<stop stop-color="#E75778"/>
<stop offset="0.888634" stop-color="#8876FF"/>
</linearGradient>
</defs>
</svg>
