<svg width="41" height="32" viewBox="0 0 41 32" fill="none" xmlns="http://www.w3.org/2000/svg">
<path fill-rule="evenodd" clip-rule="evenodd" d="M4.2041 10.0982H36.4923V22.793H4.2041V10.0982ZM17.5438 12.8992H19.8193V17.305C19.8193 17.7406 19.7493 18.1527 19.6158 18.5413C19.479 18.93 19.2688 19.2683 18.9785 19.5598C18.6882 19.8513 18.3846 20.0557 18.0676 20.173C17.6239 20.3371 17.0933 20.4209 16.4727 20.4209C16.1157 20.4209 15.722 20.3941 15.2983 20.3438C14.8745 20.2936 14.5208 20.1931 14.2339 20.0456C13.9503 19.8949 13.6867 19.6838 13.4531 19.4091C13.2162 19.1343 13.0561 18.8495 12.9693 18.5581C12.8292 18.089 12.7591 17.6702 12.7591 17.3083V12.8992H15.0347V17.4122C15.0347 17.8143 15.1448 18.1292 15.3683 18.357C15.5919 18.5849 15.8988 18.6988 16.2959 18.6988C16.6863 18.6988 16.9932 18.5882 17.2168 18.3637C17.437 18.1426 17.5505 17.8243 17.5505 17.4156V12.8992H17.5438ZM20.817 12.8992H23.3294L24.634 15.1775L25.9019 12.8992H28.381L26.0921 16.4841L28.5979 20.3003H26.0354L24.5907 17.9248L23.1359 20.3003H20.5934L23.1326 16.4439L20.817 12.8992ZM2.77604 0H38.224C39.7521 0 41 1.25306 41 2.78756V29.2124C41 30.7436 39.7521 32 38.224 32H2.77604C1.24788 32 0 30.7469 0 29.2124V2.78756C0 1.25306 1.24788 0 2.77604 0ZM39.3617 7.80316H1.76506V29.4838C1.76506 29.6982 1.84847 29.8859 1.98861 30.0299C2.13208 30.1707 2.31893 30.2544 2.53247 30.2544H38.581C38.7945 30.2544 38.9814 30.1707 39.1248 30.0299C39.2683 29.8859 39.3484 29.6982 39.3484 29.4838V7.80316H39.3617ZM35.5814 3.13266C36.3388 3.13266 36.9527 3.74914 36.9527 4.50968C36.9527 5.27023 36.3388 5.88671 35.5814 5.88671C34.824 5.88671 34.21 5.27023 34.21 4.50968C34.2134 3.74914 34.8273 3.13266 35.5814 3.13266ZM26.2923 3.13266C27.0497 3.13266 27.6637 3.74914 27.6637 4.50968C27.6637 5.27023 27.0497 5.88671 26.2923 5.88671C25.5349 5.88671 24.921 5.27023 24.921 4.50968C24.921 3.74914 25.5349 3.13266 26.2923 3.13266ZM30.9369 3.13266C31.6943 3.13266 32.3082 3.74914 32.3082 4.50968C32.3082 5.27023 31.6943 5.88671 30.9369 5.88671C30.1794 5.88671 29.5655 5.27023 29.5655 4.50968C29.5655 3.74914 30.1794 3.13266 30.9369 3.13266ZM22.3118 28.0364C21.7179 28.0364 21.2374 27.5104 21.2374 26.8638C21.2374 26.2138 21.7179 25.6911 22.3118 25.6911H35.5413C36.1353 25.6911 36.6157 26.2171 36.6157 26.8638C36.6157 27.5138 36.1353 28.0364 35.5413 28.0364H22.3118ZM4.99154 28.0364C4.4043 28.0364 3.92717 27.5104 3.92717 26.8638C3.92717 26.2138 4.4043 25.6911 4.99154 25.6911H17.2568C17.8441 25.6911 18.3212 26.2171 18.3212 26.8638C18.3212 27.5138 17.8441 28.0364 17.2568 28.0364H4.99154Z" fill="black"/>
<path fill-rule="evenodd" clip-rule="evenodd" d="M4.2041 10.0982H36.4923V22.793H4.2041V10.0982ZM17.5438 12.8992H19.8193V17.305C19.8193 17.7406 19.7493 18.1527 19.6158 18.5413C19.479 18.93 19.2688 19.2683 18.9785 19.5598C18.6882 19.8513 18.3846 20.0557 18.0676 20.173C17.6239 20.3371 17.0933 20.4209 16.4727 20.4209C16.1157 20.4209 15.722 20.3941 15.2983 20.3438C14.8745 20.2936 14.5208 20.1931 14.2339 20.0456C13.9503 19.8949 13.6867 19.6838 13.4531 19.4091C13.2162 19.1343 13.0561 18.8495 12.9693 18.5581C12.8292 18.089 12.7591 17.6702 12.7591 17.3083V12.8992H15.0347V17.4122C15.0347 17.8143 15.1448 18.1292 15.3683 18.357C15.5919 18.5849 15.8988 18.6988 16.2959 18.6988C16.6863 18.6988 16.9932 18.5882 17.2168 18.3637C17.437 18.1426 17.5505 17.8243 17.5505 17.4156V12.8992H17.5438ZM20.817 12.8992H23.3294L24.634 15.1775L25.9019 12.8992H28.381L26.0921 16.4841L28.5979 20.3003H26.0354L24.5907 17.9248L23.1359 20.3003H20.5934L23.1326 16.4439L20.817 12.8992ZM2.77604 0H38.224C39.7521 0 41 1.25306 41 2.78756V29.2124C41 30.7436 39.7521 32 38.224 32H2.77604C1.24788 32 0 30.7469 0 29.2124V2.78756C0 1.25306 1.24788 0 2.77604 0ZM39.3617 7.80316H1.76506V29.4838C1.76506 29.6982 1.84847 29.8859 1.98861 30.0299C2.13208 30.1707 2.31893 30.2544 2.53247 30.2544H38.581C38.7945 30.2544 38.9814 30.1707 39.1248 30.0299C39.2683 29.8859 39.3484 29.6982 39.3484 29.4838V7.80316H39.3617ZM35.5814 3.13266C36.3388 3.13266 36.9527 3.74914 36.9527 4.50968C36.9527 5.27023 36.3388 5.88671 35.5814 5.88671C34.824 5.88671 34.21 5.27023 34.21 4.50968C34.2134 3.74914 34.8273 3.13266 35.5814 3.13266ZM26.2923 3.13266C27.0497 3.13266 27.6637 3.74914 27.6637 4.50968C27.6637 5.27023 27.0497 5.88671 26.2923 5.88671C25.5349 5.88671 24.921 5.27023 24.921 4.50968C24.921 3.74914 25.5349 3.13266 26.2923 3.13266ZM30.9369 3.13266C31.6943 3.13266 32.3082 3.74914 32.3082 4.50968C32.3082 5.27023 31.6943 5.88671 30.9369 5.88671C30.1794 5.88671 29.5655 5.27023 29.5655 4.50968C29.5655 3.74914 30.1794 3.13266 30.9369 3.13266ZM22.3118 28.0364C21.7179 28.0364 21.2374 27.5104 21.2374 26.8638C21.2374 26.2138 21.7179 25.6911 22.3118 25.6911H35.5413C36.1353 25.6911 36.6157 26.2171 36.6157 26.8638C36.6157 27.5138 36.1353 28.0364 35.5413 28.0364H22.3118ZM4.99154 28.0364C4.4043 28.0364 3.92717 27.5104 3.92717 26.8638C3.92717 26.2138 4.4043 25.6911 4.99154 25.6911H17.2568C17.8441 25.6911 18.3212 26.2171 18.3212 26.8638C18.3212 27.5138 17.8441 28.0364 17.2568 28.0364H4.99154Z" fill="url(#paint0_linear_380_389)"/>
<defs>
<linearGradient id="paint0_linear_380_389" x1="2.255" y1="29.2308" x2="33.8437" y2="2.74126" gradientUnits="userSpaceOnUse">
<stop stop-color="#E75778"/>
<stop offset="0.888634" stop-color="#8876FF"/>
</linearGradient>
</defs>
</svg>
