<svg width="740" height="754" viewBox="0 0 740 754" fill="none" xmlns="http://www.w3.org/2000/svg">
<g filter="url(#filter0_d_380_1069)">
<rect x="46" y="42" width="648" height="662" rx="17" fill="#F8FAFC"/>
</g>
<path d="M543.566 308.413C546.57 306.6 549.803 305.196 553.179 304.238L555.16 294.718L571.248 294.439L573.561 303.879C576.976 304.718 580.263 306.01 583.334 307.722L591.458 302.403L603.039 313.585L597.999 321.895C599.815 324.898 601.22 328.131 602.174 331.508L611.694 333.489L611.973 349.577L602.533 351.891C601.691 355.3 600.399 358.582 598.691 361.65L604.009 369.787L592.827 381.355L584.517 376.316C581.514 378.133 578.281 379.542 574.904 380.504L572.923 390.024L556.835 390.303L554.522 380.863C551.112 380.021 547.831 378.729 544.762 377.02L536.625 382.339L525.045 371.157L530.084 362.847C528.27 359.843 526.866 356.61 525.909 353.234L516.389 351.239L516.123 335.165L525.563 332.838C526.41 329.43 527.702 326.149 529.406 323.079L524.087 314.955L535.269 303.374L543.579 308.413H543.566ZM552.142 329.846C549.761 332.303 548.163 335.411 547.549 338.777C546.936 342.143 547.336 345.615 548.697 348.753C550.058 351.892 552.321 354.556 555.197 356.408C558.074 358.26 561.435 359.217 564.856 359.157C568.276 359.097 571.602 358.024 574.412 356.073C577.223 354.122 579.39 351.38 580.642 348.196C581.893 345.012 582.171 341.528 581.441 338.186C580.71 334.844 579.005 331.793 576.54 329.421C573.244 326.249 568.826 324.513 564.253 324.593C559.68 324.673 555.325 326.562 552.142 329.846Z" fill="#E0E0E0"/>
<path d="M552.142 329.846C553.051 328.735 554.139 327.782 555.36 327.028C558.687 324.862 562.664 323.922 566.608 324.368C569.335 324.638 571.96 325.549 574.267 327.028C576.917 328.757 579.053 331.168 580.449 334.008C581.225 335.529 581.759 337.162 582.032 338.848C582.342 340.605 582.374 342.399 582.125 344.166C581.628 347.917 579.937 351.409 577.304 354.127C574.67 356.844 571.233 358.642 567.499 359.257C565.742 359.567 563.948 359.598 562.181 359.35C560.508 359.156 558.875 358.703 557.341 358.007C554.457 356.709 551.973 354.661 550.148 352.077C548.227 349.327 547.138 346.082 547.011 342.729C546.883 339.377 547.723 336.059 549.43 333.17C550.131 331.93 551.029 330.812 552.089 329.86C551.236 330.988 550.441 332.159 549.709 333.37C547.866 336.739 547.197 340.627 547.808 344.419C548.256 347.199 549.391 349.823 551.112 352.053C552.833 354.282 555.084 356.046 557.66 357.183C560.701 358.516 564.067 358.927 567.34 358.366C570.855 357.764 574.087 356.056 576.565 353.49C579.042 350.924 580.636 347.634 581.114 344.1C581.55 340.81 581.019 337.466 579.585 334.473C578.358 331.937 576.515 329.748 574.225 328.106C571.936 326.465 569.271 325.422 566.475 325.073C562.665 324.591 558.802 325.401 555.506 327.373C553.233 328.756 552.222 329.939 552.142 329.846Z" fill="#E0E0E0"/>
<path d="M543.567 308.413C543.378 308.336 543.195 308.242 543.022 308.134L541.386 307.217L535.164 303.494H535.363L524.261 315.128V314.822L529.58 322.919L529.673 323.065L529.593 323.225C527.906 326.272 526.636 329.532 525.817 332.918V333.117H525.631L516.191 335.457L516.456 335.112C516.563 340.182 516.669 345.544 516.776 351.2L516.47 350.827L525.99 352.782H526.242L526.309 353.021C527.258 356.362 528.653 359.56 530.457 362.528L530.59 362.754L530.457 362.98L525.431 371.383L525.365 370.838L536.946 382.006H536.374L544.498 376.688L544.737 376.542L544.99 376.675C548.019 378.362 551.261 379.637 554.629 380.464H554.908L554.988 380.743C555.706 383.708 556.504 386.926 557.302 390.183L556.823 389.824L572.911 389.532L572.432 389.917L574.413 380.397V380.105L574.706 380.025C578.037 379.085 581.226 377.698 584.186 375.903L584.439 375.744L584.704 375.903L593.014 380.943L592.403 381.022L603.571 369.442V370.053L598.253 361.916L598.08 361.677L598.226 361.424C599.917 358.394 601.196 355.153 602.029 351.785L602.096 351.492L602.375 351.426L611.828 349.125L611.469 349.591C611.372 344.104 611.283 338.741 611.203 333.503L611.562 333.942L602.042 331.947H601.776L601.71 331.681C600.762 328.34 599.376 325.139 597.588 322.161L597.455 321.949L597.588 321.723L602.641 313.413V313.931L591.087 302.736H591.565L583.415 308.054L583.242 308.174L583.056 308.068C580.016 306.371 576.766 305.084 573.39 304.238H573.19V304.052C572.353 300.609 571.608 297.524 570.903 294.599L571.196 294.825L555.108 295.038L555.321 294.851C554.496 298.654 553.831 301.765 553.273 304.358V304.464H553.18C550.642 305.177 548.176 306.125 545.814 307.296L544.085 308.201C543.903 308.313 543.712 308.411 543.514 308.493L544.046 308.134C544.418 307.908 544.976 307.562 545.747 307.15C548.085 305.904 550.544 304.901 553.087 304.159L552.98 304.278C553.499 301.686 554.124 298.561 554.895 294.745V294.572H555.068L571.156 294.227H571.382L571.448 294.453C572.166 297.378 572.938 300.462 573.789 303.893L573.549 303.653C576.992 304.495 580.309 305.787 583.415 307.496H583.042L591.153 302.178L591.406 302.018L591.632 302.231L603.226 313.373L603.465 313.599L603.292 313.891L598.359 322.108V321.669C600.181 324.718 601.589 327.996 602.548 331.415L602.215 331.109L611.735 333.077L612.094 333.144V333.516C612.2 338.737 612.302 344.1 612.4 349.604V349.976L612.041 350.069L602.588 352.383L602.947 352.037C602.095 355.487 600.789 358.809 599.064 361.916V361.411L604.382 369.548L604.595 369.867L604.316 370.146L593.147 381.727L592.882 382.02L592.536 381.807L584.226 376.768H584.731C581.688 378.601 578.415 380.023 574.998 380.996L575.344 380.61L573.363 390.13L573.283 390.516H572.884L556.796 390.795H556.411L556.318 390.423C555.52 387.165 554.735 383.934 554.017 380.969L554.363 381.328C550.913 380.471 547.591 379.161 544.484 377.433H544.976L536.839 382.751L536.533 382.95L536.267 382.698C532.279 378.802 528.29 375.013 524.7 371.503L524.447 371.263L524.633 370.957L529.686 362.661V363.099C527.856 360.056 526.439 356.784 525.471 353.367L525.79 353.659L516.27 351.652H515.965V351.346C515.876 345.7 515.792 340.337 515.712 335.258V334.979L515.978 334.912L525.431 332.625L525.192 332.865C526.057 329.432 527.371 326.128 529.101 323.039V323.331L523.783 315.181L523.676 315.021L523.822 314.875L535.057 303.361L535.151 303.268L535.257 303.334L541.373 307.15L542.955 308.147L543.567 308.413Z" fill="#E0E0E0"/>
<path d="M129.903 404.064C132.907 402.25 136.14 400.846 139.516 399.889L141.497 390.369L157.585 390.077L159.898 399.53C163.31 400.366 166.592 401.659 169.658 403.373L177.795 398.054L189.375 409.223L184.323 417.533C186.145 420.534 187.554 423.768 188.511 427.146L198.031 429.127L198.31 445.215L188.87 447.528C188.028 450.938 186.736 454.22 185.028 457.288L190.346 465.425L179.164 476.992L170.854 471.953C167.851 473.771 164.618 475.179 161.241 476.141L159.273 485.648L143.185 485.927L140.872 476.487C137.459 475.642 134.173 474.35 131.099 472.644L122.976 477.963L111.395 466.781L116.434 458.471C114.618 455.463 113.214 452.226 112.259 448.845L102.739 446.864L102.46 430.776L111.927 428.475C112.773 425.068 114.065 421.786 115.769 418.716L110.451 410.592L121.633 399.012L129.943 404.051L129.903 404.064ZM138.519 425.497C136.138 427.954 134.539 431.062 133.926 434.428C133.313 437.793 133.712 441.265 135.074 444.404C136.435 447.543 138.697 450.207 141.574 452.059C144.45 453.911 147.812 454.868 151.232 454.808C154.653 454.748 157.979 453.675 160.789 451.724C163.599 449.772 165.767 447.031 167.018 443.847C168.27 440.663 168.548 437.179 167.817 433.837C167.087 430.494 165.382 427.444 162.917 425.072C159.621 421.9 155.203 420.164 150.63 420.244C146.057 420.323 141.702 422.213 138.519 425.497Z" fill="#F5F5F5"/>
<path d="M138.52 425.497C139.425 424.387 140.508 423.435 141.724 422.678C145.057 420.515 149.037 419.575 152.986 420.019C155.712 420.289 158.337 421.2 160.644 422.678C163.294 424.407 165.43 426.819 166.827 429.659C168.39 432.8 168.974 436.339 168.502 439.817C168.005 443.568 166.315 447.06 163.681 449.777C161.048 452.494 157.61 454.293 153.876 454.908C152.119 455.22 150.324 455.246 148.558 454.987C146.867 454.803 145.216 454.355 143.665 453.658C140.777 452.359 138.292 450.306 136.472 447.714C134.551 444.967 133.461 441.724 133.334 438.373C133.207 435.023 134.047 431.707 135.754 428.821C136.455 427.581 137.353 426.462 138.413 425.51C137.561 426.635 136.767 427.802 136.033 429.007C134.189 432.377 133.521 436.264 134.132 440.056C134.576 442.655 135.624 445.114 137.19 447.236C138.953 449.672 141.329 451.598 144.077 452.82C147.118 454.153 150.484 454.565 153.757 454.003C157.268 453.396 160.493 451.686 162.966 449.12C165.438 446.555 167.028 443.268 167.505 439.737C167.744 438.068 167.717 436.372 167.425 434.711C167.183 433.112 166.694 431.56 165.976 430.111C164.659 427.417 162.649 425.122 160.152 423.463C157.966 422.016 155.47 421.105 152.866 420.803C149.055 420.321 145.193 421.131 141.897 423.104C139.57 424.486 138.52 425.59 138.52 425.497Z" fill="#F5F5F5"/>
<path d="M129.903 404.064C129.714 403.987 129.532 403.893 129.358 403.785L127.776 402.867L121.5 399.224H121.7L110.598 410.778V410.459L115.916 418.57L116.009 418.716L115.929 418.876C114.243 421.923 112.973 425.183 112.153 428.568V428.755H111.967L102.54 431.135L102.806 430.789C102.912 435.859 103.019 441.222 103.125 446.877L102.819 446.505L112.339 448.419H112.579L112.658 448.659C113.608 451.999 115.003 455.197 116.807 458.165L116.94 458.391L116.807 458.617C115.251 461.197 113.523 464.029 111.781 466.927L111.701 466.382L123.295 477.551H122.723L130.847 472.232L131.087 472.073L131.339 472.219C134.372 473.901 137.613 475.175 140.979 476.008L141.258 476.075V476.354C141.989 479.306 142.787 482.537 143.585 485.794L143.106 485.435L159.194 485.143L158.715 485.528L160.697 476.008V475.716L160.976 475.636C164.31 474.692 167.503 473.306 170.469 471.514L170.722 471.368L170.974 471.514L179.298 476.567L178.686 476.633L189.855 465.066V465.677L184.536 457.54L184.377 457.301L184.523 457.035C186.213 454.01 187.492 450.772 188.326 447.409V447.116L188.605 447.05L198.058 444.75L197.699 445.215C197.602 439.728 197.513 434.365 197.433 429.127L197.792 429.566L188.272 427.571H188.006V427.305C187.059 423.964 185.673 420.763 183.885 417.785L183.752 417.559L183.885 417.347L188.937 409.037V409.555L177.383 398.347H177.862L169.711 403.665L169.538 403.785L169.339 403.678C166.34 401.985 163.13 400.697 159.792 399.849H159.593V399.663C158.755 396.219 158.011 393.135 157.306 390.21L157.599 390.436L141.511 390.635L141.723 390.462C140.899 394.265 140.234 397.376 139.676 399.969V400.062H139.596C137.056 400.768 134.589 401.717 132.23 402.894L130.502 403.798C130.319 403.911 130.128 404.009 129.93 404.091L130.462 403.732C130.834 403.506 131.392 403.16 132.164 402.748C134.501 401.501 136.96 400.499 139.503 399.756L139.397 399.876C139.915 397.283 140.54 394.159 141.311 390.343V390.17H141.484L157.572 389.811H157.798V390.037C158.516 392.962 159.287 396.047 160.138 399.477L159.899 399.238C163.34 400.071 166.654 401.364 169.751 403.08H169.392L177.503 397.762L177.755 397.602L177.981 397.802C181.638 401.338 185.493 405.035 189.575 408.957L189.815 409.183L189.642 409.462C188.006 412.121 186.344 414.94 184.616 417.785V417.347C186.454 420.384 187.88 423.653 188.857 427.066L188.525 426.747L198.045 428.728L198.404 428.794V429.167C198.51 434.388 198.612 439.746 198.71 445.242V445.627L198.351 445.707L189.044 447.994L189.402 447.648C188.551 451.098 187.245 454.42 185.52 457.527V457.022L190.838 465.159L191.051 465.478L190.772 465.757L179.603 477.338L179.324 477.617L178.992 477.418L170.615 472.352H171.121C168.08 474.191 164.807 475.613 161.388 476.58L161.734 476.208L159.792 485.754L159.713 486.14H159.314L143.226 486.406H142.84L142.747 486.033C141.949 482.763 141.165 479.545 140.447 476.58L140.793 476.939C137.344 476.076 134.023 474.767 130.914 473.043H131.406L123.269 478.362L122.963 478.561L122.697 478.309L111.129 467.113L110.877 466.874L111.063 466.568L116.115 458.258V458.71C114.298 455.669 112.89 452.401 111.927 448.991L112.246 449.27L102.62 447.276H102.314V446.97C102.217 441.324 102.132 435.961 102.062 430.882V430.603L102.327 430.536L111.781 428.249L111.542 428.475C112.406 425.047 113.721 421.747 115.451 418.663V418.955L110.132 410.805L110.026 410.632L110.172 410.499L121.407 398.985L121.5 398.892L121.607 398.958L127.723 402.774L129.305 403.772L129.903 404.064Z" fill="#F5F5F5"/>
<path d="M573.496 220.514C575.675 219.2 578.017 218.181 580.463 217.482L581.899 210.582L593.56 210.382L595.235 217.23C597.706 217.836 600.085 218.77 602.308 220.009L608.199 216.139L616.588 224.25L612.945 230.26C614.26 232.441 615.275 234.788 615.963 237.24L622.864 238.676L623.077 250.337L616.229 252.012C615.621 254.483 614.687 256.861 613.45 259.085L617.306 264.975L609.196 273.365L603.173 269.709C600.994 271.022 598.652 272.041 596.206 272.74L594.77 279.641L583.109 279.84L581.434 272.993C578.962 272.387 576.583 271.452 574.36 270.214L568.47 274.083L560.081 265.973L563.724 259.95C562.41 257.77 561.399 255.421 560.719 252.969L553.818 251.533L553.605 239.873L560.453 238.197C561.059 235.726 561.993 233.347 563.232 231.124L559.376 225.234L567.473 216.844L573.496 220.501V220.514ZM579.705 236.043C577.992 237.829 576.847 240.082 576.415 242.518C575.982 244.954 576.281 247.463 577.275 249.729C578.268 251.995 579.911 253.916 581.996 255.248C584.08 256.581 586.513 257.265 588.987 257.215C591.461 257.165 593.864 256.382 595.893 254.966C597.922 253.55 599.485 251.565 600.386 249.26C601.287 246.956 601.484 244.436 600.953 242.02C600.422 239.604 599.186 237.399 597.402 235.684C596.217 234.545 594.819 233.651 593.288 233.053C591.757 232.454 590.123 232.164 588.479 232.197C586.836 232.23 585.215 232.587 583.71 233.247C582.204 233.907 580.843 234.857 579.705 236.043Z" fill="#F5F5F5"/>
<path d="M579.705 236.043C580.372 235.241 581.162 234.55 582.045 233.996C584.086 232.677 586.463 231.976 588.893 231.976C591.322 231.976 593.7 232.677 595.74 233.996C597.66 235.251 599.211 236.995 600.234 239.048C601.348 241.333 601.768 243.893 601.444 246.414C601.082 249.128 599.86 251.654 597.958 253.623C596.056 255.592 593.573 256.901 590.874 257.357C589.601 257.562 588.304 257.562 587.031 257.357C585.802 257.209 584.604 256.868 583.481 256.346C581.391 255.4 579.592 253.913 578.269 252.038C577.13 250.411 576.387 248.539 576.102 246.574C575.687 243.722 576.27 240.815 577.751 238.343C578.27 237.447 578.93 236.639 579.705 235.95C579.785 235.95 578.96 236.775 577.99 238.49C576.671 240.927 576.203 243.734 576.66 246.467C576.981 248.49 577.802 250.402 579.049 252.027C580.296 253.652 581.929 254.94 583.8 255.774C584.871 256.258 586.01 256.572 587.177 256.705C588.388 256.878 589.619 256.851 590.82 256.625C593.369 256.196 595.712 254.961 597.507 253.101C599.302 251.242 600.453 248.856 600.792 246.294C601.113 243.91 600.729 241.483 599.689 239.314C598.799 237.478 597.464 235.894 595.806 234.705C594.148 233.516 592.22 232.761 590.196 232.507C587.425 232.149 584.615 232.734 582.218 234.169C580.503 235.259 579.772 236.11 579.705 236.043Z" fill="#F5F5F5"/>
<path d="M573.496 220.514C573.36 220.463 573.231 220.396 573.111 220.314L571.954 219.636L567.407 216.977H567.553L559.509 225.42V225.194L563.405 231.071L563.471 231.177L563.405 231.284C562.19 233.495 561.27 235.855 560.666 238.304V238.45H560.519L553.685 240.152L553.871 239.899C553.951 243.569 554.031 247.465 554.111 251.56L553.885 251.281L560.785 252.703H560.958V252.876C561.648 255.296 562.658 257.612 563.963 259.763L564.069 259.923L563.963 260.096L560.32 266.119V265.72L568.723 273.804H568.311C570.146 272.594 572.153 271.264 574.201 269.935L574.374 269.815L574.547 269.922C576.746 271.14 579.098 272.061 581.54 272.661H581.74V272.86C582.272 275.001 582.843 277.341 583.428 279.707L583.069 279.441L594.73 279.229L594.384 279.508C594.836 277.327 595.328 274.987 595.82 272.607V272.395H596.019C598.439 271.71 600.755 270.704 602.907 269.403L603.093 269.297L603.279 269.403L609.302 273.059H608.863L616.961 264.67V265.108L613.185 259.272L613.078 259.099L613.171 258.913C614.376 256.718 615.275 254.37 615.844 251.932V251.719H616.056L622.904 250.057L622.638 250.39C622.571 246.401 622.505 242.519 622.438 238.729L622.704 239.048L615.844 237.559H615.658V237.373C614.975 234.955 613.974 232.639 612.679 230.486L612.573 230.313L612.679 230.153L616.336 224.144V224.516L607.959 216.392H608.305L602.402 220.235L602.269 220.314L602.136 220.248C599.935 219.013 597.578 218.078 595.129 217.469H594.996V217.336C594.397 214.85 593.852 212.603 593.347 210.489L593.546 210.648L581.899 210.795L582.045 210.675C581.46 213.427 580.968 215.674 580.57 217.562H580.503C578.668 218.075 576.887 218.766 575.185 219.623L573.855 220.275C573.726 220.361 573.588 220.432 573.443 220.487C573.563 220.387 573.692 220.298 573.829 220.221C574.094 220.062 574.507 219.809 575.065 219.517C576.757 218.611 578.54 217.885 580.383 217.349L580.304 217.429C580.676 215.555 581.141 213.281 581.633 210.529V210.396H581.766L593.427 210.143H593.586V210.303C594.105 212.417 594.663 214.65 595.275 217.137L595.115 216.964C597.609 217.573 600.01 218.512 602.255 219.756H601.989L607.866 215.874L608.052 215.754L608.212 215.913C610.871 218.466 613.672 221.157 616.615 223.984L616.788 224.157L616.655 224.356L613.185 230.433V230.1C614.507 232.307 615.539 234.676 616.256 237.147L616.003 236.921L622.93 238.344H623.196V238.596C623.263 242.399 623.343 246.281 623.409 250.257V250.536H623.143L616.296 252.211L616.548 251.959C615.94 254.463 614.996 256.873 613.743 259.125V258.753L617.599 264.643L617.758 264.882L617.559 265.082L609.462 273.472L609.262 273.684L609.023 273.538L603 269.882H603.359C601.157 271.214 598.787 272.247 596.312 272.953L596.565 272.674L595.129 279.574L595.062 279.854H594.783L583.122 280.053H582.843L582.777 279.774C582.205 277.42 581.633 275.08 581.101 272.94L581.354 273.192C578.854 272.573 576.448 271.62 574.201 270.36H574.626L568.723 274.216L568.51 274.362L568.311 274.176L559.934 266.066L559.748 265.88L559.881 265.667L563.551 259.644V259.976C562.225 257.768 561.197 255.394 560.493 252.916L560.719 253.129L553.818 251.68H553.605V251.467C553.605 247.372 553.486 243.489 553.433 239.806V239.673H553.632L560.479 238.011L560.307 238.184C560.923 235.695 561.875 233.302 563.139 231.071V231.284C561.809 229.156 560.479 227.162 559.296 225.38L559.23 225.247L559.323 225.154L567.473 216.804H567.54H567.606C569.534 218.001 571.023 218.918 572.047 219.57L573.19 220.288C573.295 220.359 573.397 220.434 573.496 220.514Z" fill="#F5F5F5"/>
<path d="M152.437 123.045C155.895 120.965 159.612 119.351 163.492 118.244L165.766 107.316L184.212 107L186.886 117.844C190.801 118.802 194.568 120.282 198.088 122.245L207.332 116.117L220.619 128.941L214.828 138.48C216.908 141.937 218.522 145.654 219.629 149.534L230.557 151.808L230.873 170.275L220.029 172.928C219.102 176.834 217.665 180.6 215.755 184.13L221.861 193.458L209.037 206.745L199.499 200.954C196.022 203.041 192.284 204.656 188.381 205.755L186.107 216.684L167.64 216.999L164.987 206.155C161.073 205.196 157.306 203.716 153.785 201.754L144.457 207.861L131.17 195.037L136.961 185.499C134.877 182.051 133.263 178.34 132.16 174.465L121.232 172.191L121 153.724L131.823 151.071C132.79 147.157 134.277 143.389 136.245 139.869L130.117 130.541L142.941 117.255L152.48 123.045H152.437ZM162.292 147.639C159.57 150.459 157.745 154.023 157.048 157.88C156.352 161.738 156.815 165.715 158.38 169.309C159.944 172.903 162.539 175.952 165.836 178.071C169.134 180.189 172.986 181.283 176.905 181.212C180.824 181.141 184.634 179.91 187.853 177.673C191.072 175.437 193.555 172.296 194.989 168.648C196.422 165 196.742 161.009 195.907 157.179C195.072 153.35 193.119 149.854 190.297 147.134C188.426 145.327 186.217 143.906 183.796 142.953C181.375 142 178.791 141.534 176.19 141.581C173.589 141.628 171.023 142.187 168.638 143.227C166.253 144.266 164.097 145.766 162.292 147.639Z" fill="#E0E0E0"/>
<path d="M162.293 147.639C163.331 146.343 164.576 145.226 165.978 144.333C169.213 142.246 172.982 141.136 176.832 141.136C180.683 141.136 184.451 142.246 187.687 144.333C190.727 146.317 193.177 149.08 194.783 152.335C196.635 155.97 197.34 160.082 196.805 164.127C196.237 168.442 194.29 172.458 191.255 175.577C188.219 178.696 184.257 180.751 179.959 181.435C175.988 182.108 171.906 181.587 168.231 179.94C164.924 178.446 162.08 176.09 159.998 173.118C157.785 169.967 156.529 166.245 156.379 162.398C156.23 158.551 157.194 154.742 159.155 151.429C159.973 149.999 161.027 148.718 162.272 147.639C161.297 148.932 160.391 150.274 159.556 151.661C157.467 155.521 156.726 159.967 157.45 164.295C157.915 167.268 159.076 170.09 160.84 172.528C162.879 175.292 165.609 177.471 168.757 178.845C170.447 179.608 172.244 180.105 174.085 180.319C176.002 180.592 177.951 180.55 179.854 180.193C183.864 179.491 187.55 177.537 190.382 174.613C193.209 171.654 195.035 167.884 195.604 163.832C195.899 161.92 195.899 159.974 195.604 158.062C195.322 156.223 194.754 154.44 193.92 152.777C192.473 149.902 190.334 147.433 187.694 145.591C185.055 143.749 181.999 142.594 178.801 142.228C174.414 141.664 169.964 142.591 166.167 144.86C164.827 145.717 163.534 146.645 162.293 147.639Z" fill="#E0E0E0"/>
<path d="M517.294 223.984L516.031 218.839C514.176 218.373 512.388 217.672 510.712 216.751L506.258 219.663L499.889 213.52L502.642 208.986C501.655 207.349 500.89 205.587 500.368 203.748L495.156 202.657L495.01 193.829L500.155 192.499C500.621 190.645 501.322 188.857 502.243 187.181L499.331 182.727L505.487 176.331L510.021 179.07C511.661 178.089 513.422 177.325 515.259 176.797L516.35 171.585L525.192 171.425L526.455 176.571C528.312 177.035 530.1 177.741 531.773 178.672L536.227 175.746L542.716 181.942L539.897 186.49C540.889 188.153 541.654 189.941 542.17 191.808L547.382 192.885L547.542 201.727L542.396 203.056C541.932 204.913 541.226 206.702 540.296 208.375L543.221 212.829L537.078 219.184L532.544 216.432C530.903 217.421 529.137 218.186 527.292 218.706L526.215 223.931L517.294 223.984ZM510.712 216.645C512.383 217.577 514.172 218.279 516.031 218.732L517.294 223.878L526.056 223.731L527.133 218.519C528.999 217.995 530.787 217.226 532.451 216.233L536.972 218.972L543.061 212.683L540.149 208.228C541.09 206.56 541.797 204.771 542.25 202.91L547.396 201.58L547.236 192.818L542.117 191.808C541.599 189.94 540.83 188.151 539.83 186.49L542.569 181.969L536.267 175.853L531.826 178.778C530.156 177.842 528.367 177.135 526.508 176.677L525.258 171.532L516.496 171.691L515.419 176.89C513.572 177.409 511.805 178.178 510.167 179.177L505.487 176.411L499.397 182.714L502.309 187.154C501.374 188.824 500.672 190.613 500.222 192.473L495.076 193.802L495.223 202.551L500.435 203.628C500.963 205.493 501.732 207.28 502.721 208.946L499.982 213.48L506.285 219.557L510.712 216.645ZM521.548 206.899C519.061 206.91 516.669 205.938 514.894 204.195C513.119 202.452 512.103 200.079 512.068 197.592C512.037 196.345 512.256 195.105 512.712 193.945C513.169 192.784 513.855 191.728 514.728 190.837C515.815 189.71 517.165 188.87 518.656 188.391C520.148 187.913 521.735 187.812 523.275 188.097C524.815 188.382 526.261 189.044 527.483 190.024C528.704 191.004 529.664 192.272 530.276 193.713C530.889 195.155 531.134 196.726 530.991 198.286C530.848 199.845 530.32 201.345 529.456 202.651C528.591 203.958 527.416 205.029 526.037 205.77C524.657 206.511 523.115 206.899 521.548 206.899ZM521.548 188.019C520.283 188.016 519.03 188.268 517.865 188.762C516.699 189.255 515.646 189.979 514.768 190.891C513.042 192.688 512.098 195.096 512.143 197.588C512.188 200.079 513.218 202.452 515.007 204.186C516.115 205.258 517.469 206.041 518.951 206.466C520.432 206.892 521.996 206.947 523.504 206.627C525.011 206.308 526.418 205.622 527.599 204.632C528.78 203.641 529.7 202.376 530.277 200.947C530.855 199.518 531.073 197.969 530.912 196.436C530.751 194.903 530.216 193.433 529.354 192.155C528.492 190.877 527.33 189.83 525.969 189.107C524.608 188.383 523.09 188.005 521.548 188.005V188.019Z" fill="#E0E0E0"/>
<path d="M514.794 190.864C515.287 190.253 515.881 189.732 516.549 189.321C518.375 188.135 520.555 187.618 522.719 187.859C524.328 188.035 525.866 188.614 527.191 189.544C528.516 190.474 529.585 191.724 530.297 193.177C530.713 194.016 531 194.912 531.148 195.836C531.308 196.796 531.308 197.775 531.148 198.735C530.882 200.787 529.963 202.699 528.526 204.189C527.09 205.678 525.212 206.665 523.171 207.005C521.279 207.333 519.333 207.082 517.586 206.287C515.986 205.583 514.608 204.457 513.598 203.03C512.543 201.526 511.945 199.751 511.874 197.916C511.804 196.082 512.263 194.265 513.199 192.685C513.62 191.99 514.16 191.373 514.794 190.864C514.316 191.477 513.872 192.116 513.465 192.778C512.6 194.325 512.194 196.086 512.295 197.854C512.396 199.623 513 201.326 514.036 202.764C515.002 204.099 516.305 205.155 517.812 205.822C518.617 206.186 519.474 206.424 520.352 206.526C521.268 206.666 522.201 206.666 523.117 206.526C525.044 206.198 526.814 205.262 528.17 203.855C529.527 202.449 530.398 200.645 530.656 198.708C530.803 197.797 530.803 196.868 530.656 195.956C530.518 195.083 530.249 194.236 529.858 193.443C529.136 191.961 528.035 190.695 526.667 189.774C525.47 188.98 524.104 188.475 522.679 188.298C520.592 188.03 518.476 188.47 516.669 189.547C516.022 189.954 515.396 190.394 514.794 190.864Z" fill="#EBEBEB"/>
<path d="M510.048 179.124L509.756 178.977L508.891 178.472L505.488 176.438H505.594L499.504 182.82V182.647C500.382 183.977 501.379 185.479 502.429 187.088V187.168V187.247C501.507 188.921 500.81 190.71 500.355 192.566V192.672H500.249L495.09 194.002L495.236 193.802C495.29 196.586 495.347 199.524 495.409 202.618L495.236 202.405L500.448 203.482H500.581V203.615C501.099 205.439 501.855 207.186 502.828 208.814L502.908 208.933L502.828 209.093L500.169 213.6V213.308L506.511 219.424H506.206L510.646 216.512L510.779 216.419L510.912 216.499C512.585 217.423 514.374 218.121 516.231 218.573H516.377V218.719L517.707 223.891L517.441 223.692L526.242 223.532L525.99 223.745C526.336 222.096 526.695 220.328 527.067 218.533V218.373H527.226C529.051 217.851 530.799 217.091 532.425 216.113L532.571 216.02L532.704 216.113L537.252 218.865H536.919L543.035 212.536V212.869L540.057 208.415L539.964 208.282L540.044 208.135C540.973 206.465 541.671 204.676 542.118 202.817V202.671H542.277L547.449 201.341L547.25 201.594C547.25 198.589 547.157 195.651 547.104 192.792L547.303 193.031L542.091 191.941H541.945V191.808C541.438 189.976 540.682 188.222 539.698 186.596L539.618 186.476L539.698 186.343L542.464 181.809V182.089L536.148 175.946H536.401L531.946 178.858L531.84 178.924L531.747 178.858C530.073 177.929 528.285 177.223 526.429 176.757H526.322V176.664L525.072 171.479L525.232 171.611L516.417 171.718L516.536 171.625C516.084 173.699 515.725 175.414 515.42 176.837C514.044 177.223 512.708 177.739 511.431 178.379L510.487 178.871L510.168 179.031L510.46 178.831L511.391 178.299C512.659 177.616 513.996 177.068 515.38 176.664H515.313C515.606 175.241 515.951 173.526 516.364 171.439V171.346H516.457L525.259 171.159H525.392V171.292L526.721 176.451L526.588 176.318C528.472 176.784 530.287 177.495 531.986 178.432H531.787L536.228 175.507L536.361 175.414L536.48 175.534L542.716 181.783L542.849 181.916L542.756 182.062L540.057 186.623V186.383C541.063 188.045 541.841 189.833 542.37 191.702L542.198 191.529L547.41 192.606H547.596V192.805C547.649 195.659 547.702 198.593 547.755 201.607V201.82H547.556L542.384 203.083L542.583 202.897C542.115 204.786 541.4 206.606 540.456 208.308V208.029L543.381 212.483L543.501 212.656L543.341 212.816L537.225 219.158L537.079 219.304L536.893 219.198L532.345 216.432H532.625C530.959 217.429 529.171 218.207 527.306 218.746L527.492 218.533C527.12 220.328 526.748 222.109 526.415 223.745V223.958H526.203L517.401 224.117H517.188V223.918C516.749 222.123 516.324 220.354 515.925 218.746L516.111 218.932C514.224 218.468 512.409 217.752 510.713 216.804H510.979L506.525 219.716L506.352 219.823L506.206 219.69L499.877 213.56L499.744 213.427L499.837 213.268C500.807 211.685 501.751 210.13 502.602 208.72V209.093C501.553 207.439 500.734 205.65 500.169 203.774L500.342 203.934L495.13 202.844H494.957V202.578C494.957 199.493 494.864 196.541 494.824 193.776V193.616H494.97L500.143 192.366L500.01 192.499C500.489 190.641 501.209 188.853 502.15 187.181V187.341L499.252 182.873V182.78L499.332 182.7L505.488 176.305L508.851 178.392L509.702 178.938L510.048 179.124Z" fill="#EBEBEB"/>
<path d="M107.167 382.897L105.838 377.751C103.981 377.287 102.193 376.581 100.519 375.651L96.0653 378.576L89.7098 372.433L92.4621 367.899C91.4706 366.264 90.7058 364.502 90.1885 362.661L84.9632 361.584L84.8701 352.689L90.0156 351.426C90.4811 349.571 91.1826 347.783 92.1031 346.107L89.1913 341.653L95.334 335.298L99.961 338.063C101.602 337.082 103.362 336.318 105.2 335.79L106.29 330.564L115.118 330.418L116.448 335.563C118.303 336.029 120.09 336.73 121.766 337.651L126.22 334.739L132.576 340.882L129.837 345.416C130.818 347.056 131.582 348.817 132.111 350.654L137.323 351.745L137.482 360.586L132.337 361.916C131.872 363.773 131.166 365.561 130.236 367.234L133.161 371.689L126.912 377.951L122.351 375.292C120.713 376.278 118.952 377.042 117.113 377.565L116.036 382.777L107.167 382.897ZM100.519 375.558C102.19 376.494 103.979 377.201 105.838 377.658L107.167 382.804L115.929 382.658L117.006 377.446C118.851 376.926 120.617 376.161 122.258 375.172L126.779 377.911L132.868 371.609L129.957 367.168C130.898 365.5 131.605 363.711 132.057 361.85L137.203 360.6L137.19 351.785L131.991 350.708C131.477 348.84 130.712 347.051 129.717 345.389L132.456 340.855L126.154 334.779L121.713 337.691C120.045 336.749 118.256 336.042 116.395 335.59L115.145 330.445L106.383 330.591L105.279 335.776C103.414 336.301 101.625 337.07 99.961 338.063L95.4271 335.324L89.3243 341.626L92.2095 346.041C91.2678 347.708 90.5609 349.498 90.1087 351.359L84.9366 352.689L85.0829 361.451L90.2949 362.528C90.8249 364.37 91.5937 366.136 92.5818 367.78L89.8428 372.3L96.1451 378.39L100.519 375.558ZM111.356 365.812C108.87 365.816 106.483 364.842 104.709 363.1C102.935 361.359 101.917 358.99 101.876 356.505C101.844 355.258 102.063 354.018 102.52 352.857C102.976 351.697 103.662 350.641 104.535 349.75C105.622 348.623 106.972 347.783 108.464 347.304C109.955 346.826 111.542 346.725 113.082 347.01C114.622 347.295 116.068 347.957 117.29 348.937C118.511 349.917 119.471 351.184 120.084 352.626C120.696 354.068 120.941 355.639 120.798 357.199C120.655 358.758 120.127 360.258 119.263 361.564C118.398 362.871 117.224 363.942 115.844 364.683C114.464 365.424 112.922 365.812 111.356 365.812ZM111.356 346.918H111.183C108.637 346.941 106.205 347.971 104.417 349.783C102.629 351.595 101.632 354.042 101.643 356.587C101.654 359.133 102.674 361.57 104.478 363.366C106.282 365.162 108.724 366.17 111.269 366.17C113.815 366.17 116.257 365.162 118.061 363.366C119.865 361.57 120.884 359.133 120.895 356.587C120.907 354.042 119.909 351.595 118.122 349.783C116.334 347.971 113.901 346.941 111.356 346.918Z" fill="#E0E0E0"/>
<path d="M104.628 349.777C105.122 349.164 105.716 348.638 106.383 348.221C108.211 347.041 110.39 346.528 112.553 346.772C114.046 346.932 115.481 347.442 116.741 348.261C118.188 349.211 119.358 350.528 120.131 352.077C120.547 352.915 120.834 353.812 120.982 354.736C121.142 355.7 121.142 356.684 120.982 357.648C120.716 359.7 119.797 361.612 118.36 363.101C116.924 364.591 115.046 365.578 113.005 365.918C111.113 366.228 109.172 365.978 107.42 365.2C105.818 364.498 104.439 363.372 103.432 361.942C102.377 360.439 101.779 358.664 101.708 356.829C101.638 354.994 102.097 353.178 103.033 351.598C103.423 350.916 103.927 350.304 104.522 349.79C104.04 350.4 103.596 351.04 103.192 351.705C102.564 352.834 102.177 354.081 102.057 355.368C101.937 356.654 102.087 357.952 102.496 359.177C102.905 360.403 103.564 361.53 104.433 362.487C105.301 363.444 106.359 364.209 107.54 364.735C108.344 365.103 109.201 365.346 110.08 365.453C110.999 365.576 111.932 365.554 112.845 365.386C114.771 365.062 116.542 364.129 117.899 362.725C119.256 361.32 120.127 359.517 120.384 357.581C120.53 356.67 120.53 355.741 120.384 354.829C120.246 353.952 119.977 353.1 119.586 352.303C118.909 350.918 117.899 349.722 116.646 348.824C115.392 347.926 113.936 347.353 112.406 347.157C110.318 346.9 108.204 347.344 106.397 348.42C105.781 348.838 105.191 349.291 104.628 349.777Z" fill="#EBEBEB"/>
<path d="M99.9614 338.063C99.8572 338.023 99.7588 337.97 99.6689 337.904L98.8046 337.412L95.3344 335.404H95.4408L89.3246 341.706V341.547C90.2022 342.876 91.1994 344.379 92.2497 345.974V346.054V346.147C91.3274 347.821 90.63 349.609 90.1756 351.465V351.572H90.0692L84.9104 352.901L85.0566 352.715C85.1098 355.49 85.1674 358.424 85.2295 361.517L85.0566 361.318L90.2686 362.395H90.4016V362.528C90.9239 364.354 91.6886 366.103 92.6752 367.726L92.755 367.846L92.6752 367.979L89.9229 372.526V372.234L96.2651 378.336H95.9593L100.4 375.411L100.533 375.332L100.666 375.411C102.339 376.332 104.128 377.025 105.984 377.472H106.131V377.632L107.46 382.804L107.194 382.605L115.996 382.445L115.744 382.658C116.089 381.009 116.448 379.227 116.821 377.446V377.286H116.98C118.802 376.763 120.549 376.008 122.179 375.039L122.325 374.959L122.458 375.039L127.005 377.805H126.673L132.789 371.476V371.808L129.891 367.314L129.797 367.181L129.877 367.035C130.807 365.365 131.505 363.575 131.951 361.717V361.57H132.111L137.283 360.307L137.084 360.56C137.084 357.555 136.991 354.617 136.937 351.745L137.137 351.984L131.925 350.894H131.779V350.747C131.266 348.918 130.51 347.165 129.532 345.535L129.452 345.416L129.532 345.296L132.297 340.722V341.002L125.982 334.872H126.234L121.78 337.784H121.674H121.581C119.909 336.85 118.121 336.143 116.262 335.683H116.156V335.577L114.906 330.405L115.066 330.524L106.25 330.644L106.37 330.551C105.918 332.625 105.559 334.327 105.253 335.75C103.876 336.136 102.54 336.657 101.264 337.305L100.32 337.797C100.217 337.905 100.095 337.995 99.9614 338.063L100.254 337.864L101.185 337.332C102.453 336.648 103.79 336.1 105.173 335.696L105.107 335.763C105.399 334.327 105.745 332.625 106.157 330.538V330.445H106.25L115.052 330.245H115.185V330.365L116.515 335.537L116.382 335.404C118.268 335.864 120.083 336.575 121.78 337.518H121.581L126.021 334.593L126.154 334.5L126.274 334.619L132.643 340.722L132.776 340.842L132.683 341.002L129.93 345.549V345.309C130.935 346.971 131.713 348.76 132.244 350.628L132.071 350.455L137.283 351.532H137.469V351.731C137.522 354.586 137.576 357.52 137.629 360.533V360.746H137.429L132.257 362.076L132.457 361.889C131.986 363.778 131.271 365.597 130.329 367.301V367.022C131.3 368.484 132.27 369.973 133.254 371.476L133.374 371.649L133.215 371.808L127.098 378.137L126.952 378.297L126.766 378.19L122.219 375.425H122.564C120.904 376.433 119.115 377.211 117.246 377.738L117.432 377.539C117.06 379.334 116.688 381.102 116.355 382.751V382.963H116.143L107.341 383.123H107.128V382.91C106.689 381.129 106.264 379.36 105.798 377.738L105.984 377.938C104.097 377.469 102.282 376.749 100.586 375.797H100.852L96.3981 378.709L96.2252 378.815L96.079 378.682L89.6304 372.633L89.4975 372.5L89.5905 372.327L92.3561 367.78V368.032C91.3527 366.371 90.579 364.582 90.0559 362.714L90.2288 362.873L85.0167 361.77H84.8439V361.597C84.8439 358.512 84.7508 355.561 84.7109 352.795V352.635H84.8572L90.0293 351.386L89.8964 351.519C90.3446 349.608 91.0466 347.765 91.9838 346.041V346.214L89.0853 341.746V341.653V341.573L95.2413 335.271L98.6052 337.358L99.4561 337.904C99.63 337.938 99.7995 337.991 99.9614 338.063Z" fill="#EBEBEB"/>
<path d="M539.738 562.538C541.387 558.775 542.544 554.707 544.046 550.798C545.39 546.846 547.46 543.18 550.149 539.988C552.874 536.777 556.751 534.762 560.945 534.377C559.608 540.281 557.053 545.841 553.442 550.699C549.831 555.558 545.245 559.609 539.978 562.591" fill="#E0E0E0"/>
<path d="M536.267 562.857C534.317 558.388 532.872 553.714 531.959 548.923C531.066 544.088 531.835 539.093 534.14 534.75C538.939 543.804 540.482 553.51 536.506 562.964" fill="#E0E0E0"/>
<path d="M539.79 534.75C542.449 525.775 550.719 519.167 559.588 516.136C560.685 515.682 561.876 515.503 563.058 515.617C563.646 515.68 564.203 515.915 564.657 516.294C565.111 516.672 565.443 517.177 565.611 517.744C565.943 519.273 564.68 520.643 563.497 521.653C556.562 527.578 548.497 532.033 539.79 534.75Z" fill="#E0E0E0"/>
<path d="M292.751 311.91C299.13 306.109 306.258 301.19 313.945 297.285L314.171 273.352L352.809 264.976L362.914 286.648C371.537 287.038 380.069 288.58 388.283 291.235L405.341 274.495L438.581 295.902L430.404 318.359C436.205 324.737 441.124 331.865 445.03 339.552L468.962 339.778L477.339 378.416L455.68 388.521C455.273 397.133 453.717 405.651 451.053 413.85L467.779 430.909L446.386 464.149L423.929 455.972C417.545 461.766 410.418 466.684 402.735 470.597L402.509 494.53L363.858 502.933L353.766 481.274C345.144 480.879 336.613 479.336 328.398 476.687L311.366 493.426L278.126 472.02L286.303 449.576C280.508 443.193 275.59 436.065 271.677 428.383L247.745 428.157L239.368 389.505L261.041 379.4C261.406 370.776 262.927 362.239 265.561 354.018L248.875 336.986L270.281 303.747L292.751 311.91ZM314.331 355.601C308.724 364.31 305.825 374.487 306.002 384.844C306.179 395.201 309.423 405.273 315.324 413.786C321.226 422.299 329.519 428.871 339.155 432.671C348.791 436.471 359.338 437.328 369.462 435.134C379.585 432.94 388.83 427.793 396.028 420.344C403.227 412.895 408.054 403.479 409.901 393.287C411.748 383.094 410.53 372.583 406.403 363.082C402.276 353.581 395.424 345.518 386.714 339.911C380.928 336.179 374.463 333.623 367.689 332.392C360.915 331.16 353.965 331.276 347.236 332.733C340.507 334.191 334.131 336.96 328.473 340.884C322.815 344.808 317.987 349.809 314.264 355.601H314.331Z" fill="#E0E0E0"/>
<path d="M314.265 355.6L314.73 354.896C315.076 354.417 315.541 353.726 316.166 352.848L317.216 351.346C317.642 350.801 318.147 350.269 318.666 349.657L320.368 347.703C321.036 346.98 321.742 346.292 322.482 345.642C326.146 342.124 330.33 339.191 334.887 336.946C340.91 333.921 347.461 332.088 354.179 331.548L357.011 331.349C357.969 331.349 358.926 331.349 359.91 331.349C360.894 331.349 361.878 331.349 362.875 331.482L365.88 331.841L367.409 332.04L368.924 332.372L371.996 333.064C373.033 333.33 374.03 333.715 375.067 334.034C376.113 334.343 377.139 334.716 378.138 335.151C380.213 335.988 382.226 336.969 384.161 338.09C385.132 338.661 386.156 339.193 387.113 339.831L389.959 341.852C390.424 342.211 390.929 342.517 391.381 342.903L392.711 344.073C393.588 344.871 394.519 345.628 395.37 346.479C397.091 348.21 398.695 350.053 400.17 351.997C401.694 353.991 403.084 356.083 404.331 358.26C404.93 359.363 405.448 360.533 406.033 361.677C406.299 362.262 406.618 362.82 406.844 363.432L407.522 365.24C408.452 367.69 409.216 370.2 409.809 372.752C410.333 375.385 410.679 378.05 410.846 380.73L410.993 382.751V384.785V386.819C410.991 387.504 410.942 388.188 410.846 388.867C410.674 390.196 410.501 391.526 410.341 392.962L409.424 397.017C406.625 408.037 400.303 417.841 391.421 424.939L388.097 427.452L384.494 429.659L383.616 430.191L382.686 430.643L380.851 431.533L379.016 432.424L377.128 433.129C374.63 434.075 372.072 434.853 369.469 435.456C366.902 435.97 364.304 436.316 361.691 436.493L359.75 436.626C359.112 436.626 358.421 436.626 357.822 436.626C356.493 436.626 355.269 436.626 354.006 436.493C351.514 436.264 349.04 435.868 346.6 435.31C344.218 434.764 341.873 434.067 339.58 433.222C338.45 432.783 337.373 432.251 336.283 431.773L334.661 431.055C334.129 430.802 333.637 430.47 333.118 430.191L330.114 428.475C329.13 427.864 328.239 427.146 327.308 426.494C325.487 425.199 323.759 423.777 322.136 422.24C321.327 421.506 320.564 420.725 319.849 419.9C319.131 419.088 318.36 418.344 317.695 417.506L315.794 414.993L314.863 413.757L314.052 412.427C313.52 411.563 313.002 410.699 312.47 409.848C311.938 408.997 311.579 408.066 311.14 407.189C310.701 406.311 310.276 405.447 309.89 404.529C309.505 403.612 309.239 402.748 308.907 401.87C306.617 395.531 305.574 388.808 305.835 382.073C305.998 376.996 306.935 371.974 308.614 367.181C308.973 366.211 309.199 365.24 309.611 364.402L310.688 362.049C311.034 361.318 311.313 360.64 311.632 360.041C311.951 359.443 312.284 358.924 312.563 358.446L313.892 356.305C314.185 355.826 314.345 355.587 314.345 355.587C314.345 355.587 314.225 355.853 313.959 356.345C313.693 356.837 313.268 357.582 312.749 358.526L311.845 360.121C311.539 360.719 311.273 361.451 310.941 362.142L309.904 364.495C309.534 365.405 309.21 366.332 308.933 367.274C307.308 372.05 306.411 377.043 306.274 382.086C306.053 388.765 307.123 395.424 309.425 401.697L310.409 404.357C310.795 405.221 311.233 406.072 311.659 407.016C312.084 407.96 312.457 408.797 312.988 409.675C313.52 410.553 314.025 411.377 314.557 412.228L315.355 413.557L316.286 414.781C316.911 415.605 317.615 416.429 318.174 417.267C318.732 418.105 319.596 418.823 320.314 419.62C321.02 420.433 321.775 421.201 322.575 421.921C324.187 423.438 325.901 424.842 327.707 426.122C328.624 426.774 329.515 427.452 330.486 428.077L333.477 429.792C333.983 430.071 334.475 430.39 335.006 430.643L336.629 431.135C337.706 431.6 338.769 432.132 339.873 432.557C342.141 433.386 344.459 434.07 346.813 434.605C349.225 435.161 351.673 435.548 354.139 435.762C355.389 435.868 356.652 435.841 357.915 435.895C358.54 435.895 359.178 435.895 359.817 435.895L361.731 435.762C364.308 435.59 366.871 435.248 369.403 434.738C371.971 434.141 374.494 433.368 376.955 432.424L378.83 431.72L380.638 430.855L382.46 429.965L383.364 429.526L384.228 429.007L387.698 426.867L390.969 424.394C399.751 417.382 405.995 407.687 408.746 396.791C409.051 395.462 409.344 394.132 409.65 392.802C409.956 391.473 409.982 390.143 410.142 388.814C410.243 388.149 410.292 387.478 410.288 386.806V384.785V382.777L410.142 380.783C409.976 378.153 409.634 375.536 409.118 372.952C408.536 370.435 407.785 367.961 406.871 365.546L406.206 363.751C405.993 363.153 405.674 362.594 405.408 362.022C404.837 360.892 404.331 359.735 403.733 358.645C402.511 356.493 401.143 354.427 399.638 352.463C398.181 350.535 396.6 348.705 394.905 346.985C394.054 346.147 393.136 345.402 392.245 344.618L390.916 343.448C390.464 343.076 389.972 342.757 389.506 342.411C388.576 341.733 387.632 341.081 386.714 340.39C385.797 339.698 384.747 339.246 383.789 338.675C381.877 337.557 379.886 336.579 377.833 335.75C376.846 335.315 375.834 334.942 374.801 334.633C373.777 334.314 372.793 333.928 371.77 333.662L368.738 332.984L367.236 332.638L365.72 332.439L362.742 332.067C361.771 331.92 360.774 331.974 359.817 331.92C358.859 331.867 357.889 331.854 356.945 331.92L354.139 332.107C347.475 332.614 340.971 334.396 334.98 337.358C330.439 339.562 326.261 342.445 322.588 345.908C321.845 346.545 321.135 347.219 320.461 347.929L318.746 349.857C318.214 350.455 317.695 350.987 317.283 351.519L316.193 352.994L314.717 355.002C314.576 355.209 314.425 355.408 314.265 355.6Z" fill="white"/>
<path d="M292.752 311.91L291.316 311.405L287.034 309.876L270.149 303.84H270.282L248.928 337.079V336.867L265.681 353.899L265.761 353.979V354.098C263.136 362.281 261.607 370.776 261.214 379.361V379.507H261.094L239.435 389.625L239.568 389.346C242.227 401.512 245.019 414.435 247.971 427.997L247.705 427.771L271.638 427.984H271.811L271.89 428.143C275.806 435.804 280.724 442.909 286.516 449.271L286.636 449.404V449.576L278.472 472.02L278.352 471.661L311.592 493.054H311.193L328.239 476.314L328.385 476.168H328.571C336.752 478.805 345.247 480.343 353.833 480.742H354.033L354.112 480.928C357.277 487.722 360.76 495.115 364.217 502.601L363.845 502.401L402.483 494.025L402.217 494.357C402.217 486.818 402.363 478.668 402.443 470.424V470.225L402.629 470.132C410.278 466.211 417.374 461.293 423.73 455.506L423.889 455.373H424.089L446.532 463.55L446.134 463.683L467.54 430.443V430.869L450.814 413.81L450.667 413.664V413.465C453.319 405.287 454.862 396.79 455.255 388.202V388.003L455.441 387.91L477.113 377.818L476.927 378.19C474.073 364.992 471.285 352.108 468.564 339.539L468.87 339.792L444.937 339.553H444.737L444.658 339.38C440.747 331.716 435.828 324.611 430.032 318.252L429.913 318.119V317.947L438.09 295.503L438.209 295.835L404.969 274.416H405.302L388.23 291.142L388.123 291.248H387.977C379.799 288.596 371.303 287.049 362.715 286.648H362.582V286.528L352.583 265.042L352.809 265.148L314.145 273.472L314.264 273.325C314.158 282.899 314.078 290.73 313.999 297.258V297.325C308.215 300.269 302.737 303.779 297.645 307.802C295.969 309.131 294.759 310.182 293.948 310.873C293.137 311.565 292.752 311.91 292.752 311.91C292.752 311.91 294.241 310.421 297.578 307.722C302.639 303.63 308.106 300.066 313.892 297.085V297.192C313.892 290.69 314.012 282.859 314.078 273.259V273.139H314.198L352.836 264.71H352.996V264.856C356.133 271.504 359.444 278.631 363.127 286.502L362.928 286.382C371.572 286.766 380.126 288.304 388.363 290.956H388.11L405.089 274.243L405.235 274.097L405.421 274.203L438.661 295.596L438.861 295.716L438.781 295.942C436.122 303.228 433.463 310.687 430.617 318.385L430.551 318.08C436.39 324.483 441.349 331.637 445.296 339.353L445.017 339.18L468.949 339.406H469.202V339.659C471.932 352.219 474.729 365.098 477.592 378.297V378.563L477.352 378.669L455.693 388.774L455.879 388.482C455.491 397.136 453.943 405.7 451.279 413.943L451.199 413.598L467.939 430.656L468.125 430.842L467.979 431.082L446.572 464.322L446.426 464.548L446.173 464.454L423.717 456.278L424.076 456.211C417.671 462.042 410.517 466.992 402.802 470.93L402.988 470.624C402.908 478.827 402.829 486.978 402.762 494.557V494.822L402.483 494.889L363.845 503.252L363.579 503.319L363.459 503.066L353.368 481.407L353.647 481.593C344.997 481.196 336.438 479.644 328.199 476.979L328.531 476.9L311.565 493.626L311.379 493.799L311.167 493.666L277.927 472.246L277.714 472.113L277.794 471.874C280.652 464.069 283.445 456.384 285.984 449.43V449.736C280.158 443.33 275.213 436.176 271.279 428.462L271.531 428.609L247.599 428.369H247.386V428.157C244.461 414.595 241.669 401.671 239.036 389.505V389.319L239.209 389.226L260.881 379.148L260.762 379.347C261.167 370.738 262.714 362.22 265.362 354.018V354.218L248.649 337.146L248.543 337.053L248.622 336.933L270.082 303.693V303.614H270.162L286.848 309.756L291.13 311.339L292.752 311.91Z" fill="white"/>
<path d="M470.146 513.118L393.162 562.313H645.532V513.118H470.146Z" fill="#455A64"/>
<path d="M470.146 513.118L393.162 562.313H645.532V513.118H470.146Z" fill="url(#paint0_linear_380_1069)"/>
<path d="M612.492 482.736V487.682V592.68L684.157 537.702L612.492 482.736Z" fill="#455A64"/>
<path d="M612.492 482.736V487.682V592.68L684.157 537.702L612.492 482.736Z" fill="url(#paint1_linear_380_1069)"/>
<path d="M518.782 535.508H520.856V542.821H525.43V544.509H518.782V535.508Z" fill="white"/>
<path d="M532.531 542.568H528.356L527.558 544.483H525.431L529.419 535.508H531.48L535.469 544.483H533.289L532.531 542.568ZM531.866 540.986L530.443 537.502L529.021 540.933L531.866 540.986Z" fill="white"/>
<path d="M536.161 540.534V535.508H538.235V540.454C538.235 542.169 538.98 542.874 540.243 542.874C541.506 542.874 542.237 542.169 542.237 540.454V535.508H544.298V540.534C544.298 541.613 543.87 542.648 543.107 543.411C542.344 544.174 541.309 544.602 540.23 544.602C539.151 544.602 538.116 544.174 537.353 543.411C536.59 542.648 536.161 541.613 536.161 540.534Z" fill="white"/>
<path d="M554.575 535.508V544.483H552.873L548.392 539.031V544.483H546.345V535.508H548.033L552.487 540.959V535.508H554.575Z" fill="white"/>
<path d="M556.131 540.002C556.191 539.036 556.533 538.109 557.115 537.335C557.696 536.561 558.492 535.976 559.404 535.65C560.315 535.324 561.303 535.273 562.243 535.503C563.183 535.733 564.035 536.234 564.693 536.944L563.364 538.18C563.09 537.848 562.744 537.58 562.353 537.399C561.962 537.217 561.535 537.125 561.104 537.13C560.342 537.13 559.611 537.433 559.073 537.971C558.534 538.51 558.232 539.24 558.232 540.002C558.232 540.764 558.534 541.494 559.073 542.033C559.611 542.571 560.342 542.874 561.104 542.874C561.536 542.879 561.964 542.786 562.356 542.602C562.748 542.418 563.092 542.147 563.364 541.81L564.693 543.033C564.039 543.748 563.189 544.254 562.25 544.489C561.31 544.724 560.322 544.676 559.408 544.353C558.495 544.03 557.697 543.445 557.115 542.671C556.532 541.897 556.19 540.969 556.131 540.002Z" fill="white"/>
<path d="M574.32 535.508V544.483H572.246V540.813H568.164V544.483H566.09V535.508H568.164V539.045H572.246V535.508H574.32Z" fill="white"/>
<path d="M159.46 390.33C167.358 490.488 251.388 569.559 353.58 569.559V520.364C315.001 520.332 278.009 504.996 250.724 477.721C223.439 450.446 208.089 413.46 208.043 374.88C208.043 374.88 210.237 349.484 211.766 341.839L163.329 332.745C161.561 341.427 158.755 381.501 159.46 390.33Z" fill="#FF725E"/>
<path d="M159.46 390.33C167.358 490.488 251.388 569.559 353.58 569.559V520.364C315.001 520.332 278.009 504.996 250.724 477.721C223.439 450.446 208.089 413.46 208.043 374.88C208.043 374.88 210.237 349.484 211.766 341.839L163.329 332.745C161.561 341.427 158.755 381.501 159.46 390.33Z" fill="url(#paint2_linear_380_1069)"/>
<path d="M221.951 474.865L221.113 477.777V477.857L222.256 479.266L224.198 477.684L225.527 479.279L218.587 484.97L216.127 481.965C214.611 480.104 214.624 478.163 216.127 476.886C216.58 476.483 217.147 476.231 217.75 476.164C218.352 476.097 218.961 476.22 219.491 476.514L220.448 473.137L221.951 474.865ZM217.55 480.981L218.627 482.311L221.046 480.33L219.969 479C219.172 478.016 218.307 477.897 217.55 478.508C216.792 479.12 216.752 479.997 217.55 480.981Z" fill="white"/>
<path d="M214.305 467.433L215.635 466.436L219.757 472.02L212.55 477.338L208.562 471.887L209.891 470.89L212.683 474.692L214.252 473.536L211.779 470.185L213.109 469.228L215.582 472.578L217.244 471.342L214.305 467.433Z" fill="white"/>
<path d="M202.525 463.045L212.138 461.277L213.282 462.979L207.963 471.182L206.714 469.321L210.516 463.484L203.656 464.747L202.525 463.045Z" fill="white"/>
<path d="M202.047 462.261L200.943 460.492L208.562 455.746L209.665 457.501L202.047 462.261Z" fill="white"/>
<path d="M202.538 448.819L203.987 447.981L207.471 453.991L199.679 458.498L196.275 452.635L197.725 451.797L200.091 455.879L201.78 454.895L199.679 451.292L201.089 450.481L203.176 454.084L204.971 453.047L202.538 448.819Z" fill="white"/>
<path d="M189.044 438.78L198.351 437.331L199.375 439.312L194.854 443.833L201.196 442.889L202.194 444.856L195.546 451.504L194.575 449.59L199.269 444.923L192.687 445.893L191.823 444.192L196.543 439.471L189.895 440.495L189.044 438.78Z" fill="white"/>
<path d="M241.975 329.66L145.273 303.135L176.559 378.616L241.975 329.66Z" fill="#E25B72"/>
<path d="M217.324 327.785C227.602 299.817 246.205 275.67 270.627 258.599C295.049 241.528 324.116 232.352 353.913 232.307V183.112C269.737 183.112 197.872 236.801 170.762 311.737L217.324 327.785Z" fill="#E25B72"/>
<path d="M224.105 260.734L227.469 258.434C229.902 256.772 232.562 257.104 234.117 259.351C235.673 261.598 234.982 264.191 232.562 265.84L229.198 268.14L224.105 260.734ZM231.485 264.497C231.817 264.305 232.107 264.046 232.335 263.737C232.563 263.428 232.725 263.075 232.811 262.7C232.896 262.325 232.903 261.937 232.832 261.559C232.76 261.182 232.612 260.823 232.395 260.506C232.179 260.188 231.899 259.919 231.573 259.714C231.248 259.51 230.884 259.375 230.504 259.318C230.124 259.261 229.736 259.283 229.365 259.382C228.994 259.482 228.647 259.657 228.347 259.897L226.778 260.974L229.916 265.561L231.485 264.497Z" fill="white"/>
<path d="M242.706 256.878L243.65 258.208L237.906 262.117L232.92 254.764L238.518 250.935L239.462 252.264L235.566 254.924L236.656 256.532L240.033 254.299L240.937 255.628L237.507 257.982L238.677 259.697L242.706 256.878Z" fill="white"/>
<path d="M248.211 248.209C249.341 249.871 248.809 251.746 246.881 253.089L245.392 254.113L246.722 256.16L245.02 257.33L239.954 249.911L243.158 247.717C245.14 246.321 247.081 246.547 248.211 248.209ZM246.482 249.406C245.924 248.582 245.073 248.475 244.023 249.18L242.693 250.137L244.448 252.717L245.778 251.759C246.828 251.041 247.028 250.204 246.482 249.406Z" fill="white"/>
<path d="M247.546 244.699L249.261 243.529L253.37 249.539L257.079 247L258.036 248.329L252.598 252.039L247.546 244.699Z" fill="white"/>
<path d="M255.922 244.447C255.319 243.667 254.964 242.723 254.903 241.739C254.842 240.754 255.079 239.774 255.582 238.926C256.085 238.078 256.832 237.4 257.725 236.982C258.618 236.563 259.616 236.423 260.59 236.578C261.564 236.734 262.469 237.179 263.187 237.856C263.905 238.532 264.403 239.408 264.616 240.371C264.829 241.334 264.748 242.339 264.384 243.256C264.019 244.172 263.387 244.958 262.57 245.51C262.069 245.891 261.496 246.166 260.886 246.32C260.275 246.473 259.64 246.5 259.019 246.401C258.397 246.301 257.802 246.077 257.27 245.741C256.738 245.405 256.279 244.965 255.922 244.447ZM262.304 240.086C261.98 239.642 261.532 239.303 261.016 239.112C260.501 238.921 259.941 238.885 259.405 239.01C258.869 239.134 258.382 239.413 258.004 239.812C257.626 240.211 257.373 240.713 257.278 241.254C257.182 241.796 257.248 242.353 257.466 242.858C257.685 243.362 258.047 243.791 258.507 244.092C258.968 244.392 259.506 244.551 260.056 244.548C260.606 244.545 261.143 244.38 261.6 244.074C261.922 243.871 262.198 243.602 262.411 243.285C262.623 242.969 262.767 242.611 262.833 242.236C262.9 241.86 262.887 241.475 262.796 241.105C262.705 240.735 262.537 240.387 262.304 240.086Z" fill="white"/>
<path d="M269.311 236.894L271.093 239.554L269.377 240.724L267.583 238.065L261.453 235.259L263.275 234.023L267.489 235.937L267.224 231.284L268.912 230.14L269.311 236.894Z" fill="white"/>
<path d="M381.675 268.379L317.615 198.296L399.359 152L381.675 268.379Z" fill="#8876FF"/>
<path d="M470.066 279.162C456.407 263.528 439.562 250.998 420.661 242.412C401.76 233.826 381.24 229.383 360.48 229.382V180.187C388.255 180.19 415.709 186.132 440.998 197.617C466.288 209.101 488.828 225.861 507.108 246.773L470.066 279.162Z" fill="#8876FF"/>
<path d="M414.702 213.082L412.043 212.058L412.641 210.476L419.954 213.268L419.342 214.85L416.683 213.826L414.024 220.62L412.096 219.876L414.702 213.082Z" fill="white"/>
<path d="M424.833 222.947L424.248 224.516L417.733 222.017L420.951 213.64L427.28 216.073L426.682 217.629L422.281 215.94L421.576 217.762L425.472 219.251L424.9 220.753L421.004 219.264L420.26 221.206L424.833 222.947Z" fill="white"/>
<path d="M425.445 224.024L426.655 222.814C427.257 223.684 428.104 224.356 429.088 224.742C430.245 225.181 430.857 224.981 431.056 224.463C431.655 222.894 426.363 222.109 427.559 218.998C428.105 217.575 429.713 216.831 432.093 217.669C433.131 218.038 434.05 218.681 434.752 219.53L433.596 220.78C433.048 220.093 432.334 219.557 431.522 219.224C430.378 218.785 429.766 219.051 429.567 219.57C428.969 221.125 434.247 221.923 433.077 224.995C432.532 226.324 430.923 227.149 428.517 226.231C427.291 225.828 426.218 225.057 425.445 224.024Z" fill="white"/>
<path d="M437.678 221.844L435.019 220.82L435.617 219.238L442.916 222.03L442.318 223.612L439.659 222.588L437 229.382L435.019 228.651L437.678 221.844Z" fill="white"/>
<path d="M533.129 464.574L488.587 443.686C497.655 424.341 505.978 396.446 505.978 374.88C506.048 352.073 500.703 329.576 490.382 309.238C488.587 305.688 482.072 293.894 480.277 290.929L522.372 265.454C524.952 269.736 532.078 282.739 534.259 287.007C548.095 314.227 555.264 344.345 555.173 374.88C555.173 403.719 545.294 438.634 533.129 464.574Z" fill="#FF725E"/>
<path d="M533.129 464.574L488.587 443.686C497.655 424.341 505.978 396.446 505.978 374.88C506.048 352.073 500.703 329.576 490.382 309.238C488.587 305.688 482.072 293.894 480.277 290.929L522.372 265.454C524.952 269.736 532.078 282.739 534.259 287.007C548.095 314.227 555.264 344.345 555.173 374.88C555.173 403.719 545.294 438.634 533.129 464.574Z" fill="url(#paint3_linear_380_1069)"/>
<path d="M462.953 313.373L546.731 258.248L469.388 231.909L462.953 313.373Z" fill="#FF725E"/>
<path d="M462.953 313.373L546.731 258.248L469.388 231.909L462.953 313.373Z" fill="url(#paint4_linear_380_1069)"/>
<path d="M525.816 322.48L526.919 326.403C527.717 329.235 526.56 331.721 523.954 332.386C521.348 333.051 519.088 331.668 518.29 328.849L517.187 324.86L525.816 322.48ZM519.899 328.277C519.951 328.675 520.089 329.056 520.301 329.395C520.514 329.734 520.797 330.024 521.132 330.244C521.467 330.464 521.845 330.61 522.24 330.671C522.636 330.732 523.041 330.708 523.426 330.599C523.812 330.49 524.169 330.299 524.474 330.04C524.78 329.781 525.026 329.459 525.195 329.096C525.365 328.734 525.455 328.339 525.459 327.938C525.463 327.538 525.38 327.141 525.217 326.775L524.699 324.94L519.38 326.456L519.899 328.277Z" fill="white"/>
<path d="M523.091 341.414L521.468 341.773L519.939 335.005L528.675 333.024L530.177 339.672L528.555 340.044L527.518 335.444L525.617 335.883L526.534 339.871L524.952 340.23L524.035 336.162L522.014 336.627L523.091 341.414Z" fill="white"/>
<path d="M532.078 350.096L522.572 347.849L522.213 345.841L530.363 340.523L530.749 342.73L524.925 346.533L531.72 348.142L532.078 350.096Z" fill="white"/>
<path d="M525.923 358.991L524.261 359.217L523.33 352.33L532.225 351.133L533.129 357.781L531.48 357.994L530.842 353.327L528.914 353.593L529.473 357.715L527.877 357.928L527.319 353.806L525.258 354.085L525.923 358.991Z" fill="white"/>
<path d="M533.409 359.922L533.608 361.996L526.362 362.674L526.774 367.155L525.099 367.314L524.474 360.773L533.409 359.922Z" fill="white"/>
<path d="M529.579 367.434C530.558 367.329 531.547 367.52 532.417 367.983C533.286 368.446 533.997 369.159 534.456 370.031C534.916 370.902 535.103 371.891 534.994 372.87C534.885 373.849 534.484 374.773 533.844 375.522C533.204 376.271 532.354 376.81 531.403 377.07C530.453 377.33 529.447 377.299 528.515 376.981C527.582 376.662 526.767 376.071 526.175 375.284C525.582 374.497 525.24 373.55 525.191 372.566C525.122 371.937 525.182 371.301 525.368 370.696C525.554 370.091 525.862 369.53 526.273 369.049C526.684 368.568 527.19 368.177 527.759 367.899C528.327 367.621 528.947 367.463 529.579 367.434ZM529.965 375.132C530.515 375.092 531.042 374.891 531.479 374.553C531.915 374.215 532.242 373.756 532.419 373.233C532.596 372.71 532.615 372.146 532.473 371.613C532.331 371.079 532.034 370.599 531.621 370.233C531.207 369.867 530.695 369.632 530.148 369.556C529.601 369.479 529.044 369.566 528.547 369.806C528.049 370.045 527.633 370.425 527.351 370.9C527.068 371.374 526.932 371.922 526.96 372.473C526.971 372.849 527.059 373.218 527.218 373.559C527.378 373.899 527.605 374.204 527.887 374.453C528.168 374.702 528.498 374.891 528.855 375.008C529.213 375.125 529.59 375.167 529.965 375.132Z" fill="white"/>
<path d="M531.361 386.686C529.354 386.686 528.104 385.197 528.104 382.804V380.996H525.631V378.922H534.592V382.804C534.606 385.171 533.409 386.673 531.361 386.686ZM531.361 384.586C532.345 384.586 532.917 383.934 532.917 382.671V380.983H529.806V382.684C529.793 383.947 530.378 384.599 531.348 384.599L531.361 384.586Z" fill="white"/>
<path d="M360.481 569.559H203.496V520.364H360.481C382.873 520.445 404.978 515.322 425.052 505.401C445.126 495.479 462.62 481.029 476.156 463.191L515.233 493.081C497.122 516.941 473.717 536.269 446.862 549.541C420.007 562.813 390.436 569.665 360.481 569.559Z" fill="#FF725E"/>
<path d="M451.278 450.853L534.75 506.416L528.767 424.939L451.278 450.853Z" fill="#FF725E"/>
<g opacity="0.3">
<path d="M534.739 506.416L528.755 424.939L451.267 450.853L473.87 465.944C460.288 482.987 443.025 496.737 423.375 506.161C403.724 515.586 382.196 520.441 360.402 520.364H203.497V569.559H360.482C390.387 569.663 419.908 562.831 446.725 549.597C473.542 536.364 496.925 517.091 515.034 493.293L534.739 506.416Z" fill="black"/>
<path d="M534.739 506.416L528.755 424.939L451.267 450.853L473.87 465.944C460.288 482.987 443.025 496.737 423.375 506.161C403.724 515.586 382.196 520.441 360.402 520.364H203.497V569.559H360.482C390.387 569.663 419.908 562.831 446.725 549.597C473.542 536.364 496.925 517.091 515.034 493.293L534.739 506.416Z" fill="url(#paint5_linear_380_1069)"/>
</g>
<path d="M450.11 516.84C451.306 518.436 450.854 520.337 448.953 521.773L447.504 522.863L448.993 524.831L447.331 526.081L441.933 518.888L445.031 516.548C446.985 515.138 448.9 515.232 450.11 516.84ZM448.421 518.17C447.836 517.385 446.972 517.306 445.961 518.064L444.632 519.087L446.506 521.574L447.836 520.563C448.847 519.726 449.019 518.888 448.421 518.103V518.17Z" fill="white"/>
<path d="M449.324 513.357L450.986 512.107L455.361 517.917L458.95 515.258L459.974 516.588L454.722 520.577L449.324 513.357Z" fill="white"/>
<path d="M464.536 510.724L461.212 513.237L461.73 515.245L460.028 516.574L457.821 507.001L459.457 505.765L468.072 510.525L466.331 511.854L464.536 510.724ZM463.06 509.86L459.856 507.972L460.786 511.575L463.06 509.86Z" fill="white"/>
<path d="M469.986 497.787L475.384 504.954L474.054 505.991L467.194 504.329L470.478 508.677L468.842 509.913L463.444 502.747L464.774 501.71L471.608 503.372L468.337 499.024L469.986 497.787Z" fill="white"/>
<path d="M190.427 489.982V599.94L261.174 544.961L190.427 489.982Z" fill="#E0E0E0"/>
<path d="M190.427 489.982V599.94L261.174 544.961L190.427 489.982Z" fill="url(#paint6_linear_380_1069)"/>
<path d="M203.509 520.364H56.6426V569.559H203.509V520.364Z" fill="#E0E0E0"/>
<path d="M203.509 520.364H56.6426V569.559H203.509V520.364Z" fill="url(#paint7_linear_380_1069)"/>
<path d="M119.586 543.299C119.586 545.294 118.084 546.544 115.677 546.544H113.869V549.017H111.795V540.042H115.677C118.084 540.042 119.586 541.292 119.586 543.299ZM117.472 543.299C117.472 542.316 116.834 541.731 115.571 541.731H113.869V544.855H115.571C116.834 544.855 117.472 544.27 117.472 543.299Z" fill="white"/>
<path d="M121.048 540.042H123.122V547.328H127.629V549.017H120.981L121.048 540.042Z" fill="white"/>
<path d="M134.783 547.102H130.608L129.823 549.017H127.683L131.671 540.042H133.732L137.721 549.017H135.58L134.783 547.102ZM134.131 545.48L132.708 542.036L131.273 545.48H134.131Z" fill="white"/>
<path d="M146.922 540.042V549.017H145.167L140.686 543.565V549.017H138.691V540.042H140.407L144.861 545.493V540.042H146.922Z" fill="white"/>
<path d="M314.331 341.906L299.706 338.635C293.923 345.212 285.889 349.388 277.184 350.342C268.478 351.296 259.731 348.958 252.661 343.789C245.592 338.62 240.712 330.993 238.981 322.409C237.25 313.824 238.793 304.902 243.307 297.397C247.821 289.893 254.979 284.348 263.374 281.854C271.769 279.36 280.793 280.096 288.673 283.918C296.552 287.741 302.717 294.373 305.954 302.51C309.191 310.647 309.267 319.701 306.167 327.892L314.331 341.906Z" fill="white"/>
<path d="M314.33 341.906L306.353 327.812C306.327 327.79 306.294 327.779 306.26 327.779C306.226 327.779 306.193 327.79 306.167 327.812L306.406 327.932C308.623 322.168 309.27 315.919 308.281 309.823C308.001 308.013 307.556 306.233 306.951 304.504C306.619 303.6 306.313 302.683 305.954 301.765L304.624 299.106C300.412 291.145 293.307 285.101 284.774 282.22C280.076 280.613 275.091 280.024 270.148 280.492C264.925 281.029 259.886 282.714 255.39 285.425C250.682 288.241 246.712 292.138 243.809 296.793C240.807 301.527 238.983 306.911 238.49 312.495C238.062 317.834 238.839 323.2 240.764 328.198C242.561 332.933 245.385 337.21 249.034 340.722C255.589 347.034 264.319 350.585 273.419 350.641C277.264 350.597 281.08 349.965 284.734 348.766C290.554 346.804 295.751 343.336 299.798 338.715H299.678L314.304 341.866L299.678 338.462C299.657 338.453 299.635 338.448 299.612 338.448C299.589 338.448 299.566 338.453 299.545 338.462C295.507 343.017 290.338 346.425 284.561 348.341C280.943 349.51 277.168 350.12 273.366 350.149C264.384 350.059 255.778 346.533 249.313 340.297C245.734 336.819 242.961 332.598 241.189 327.932C239.296 323.005 238.537 317.715 238.969 312.455C239.442 306.964 241.225 301.666 244.168 297.005C247.018 292.414 250.925 288.571 255.562 285.797C260.014 283.15 264.994 281.516 270.148 281.01C275.025 280.531 279.947 281.098 284.587 282.672C292.972 285.518 299.969 291.432 304.172 299.226C304.598 300.13 305.023 301.021 305.502 301.885C305.981 302.749 306.167 303.693 306.499 304.544C307.096 306.275 307.541 308.055 307.829 309.863C308.824 315.897 308.214 322.088 306.06 327.812C306.054 327.829 306.051 327.846 306.052 327.864C306.052 327.882 306.056 327.899 306.064 327.915C306.071 327.931 306.082 327.946 306.095 327.958C306.108 327.97 306.123 327.979 306.14 327.985C306.161 328.001 306.187 328.01 306.213 328.01C306.24 328.01 306.265 328.001 306.286 327.985H306.047L314.33 341.906Z" fill="white"/>
<path d="M254.221 316.218L259.233 311.205L268.913 319.808L287.913 301.526L292.566 306.538L268.195 329.474L254.221 316.218Z" fill="#FF725E"/>
<path d="M254.221 316.218L259.233 311.205L268.913 319.808L287.913 301.526L292.566 306.538L268.195 329.474L254.221 316.218Z" fill="url(#paint8_linear_380_1069)"/>
<path d="M652.042 133.57L637.417 130.299C631.634 136.876 623.6 141.052 614.895 142.006C606.189 142.96 597.442 140.622 590.372 135.453C583.303 130.284 578.423 122.657 576.692 114.073C574.961 105.488 576.504 96.566 581.018 89.0613C585.532 81.5566 592.69 76.0121 601.085 73.5179C609.48 71.0236 618.504 71.7601 626.384 75.5825C634.263 79.405 640.428 86.0368 643.665 94.174C646.902 102.311 646.978 111.365 643.878 119.556L652.042 133.57Z" fill="white"/>
<path d="M652.041 133.57L644.064 119.476C644.038 119.455 644.005 119.443 643.971 119.443C643.937 119.443 643.904 119.455 643.878 119.476L644.117 119.596C646.334 113.832 646.981 107.583 645.992 101.487C645.712 99.677 645.267 97.8968 644.662 96.1684C644.33 95.2642 644.024 94.3468 643.665 93.4294L642.335 90.7702C638.123 82.8088 631.018 76.7655 622.484 73.8844C617.787 72.2769 612.802 71.6877 607.859 72.1559C602.636 72.6932 597.597 74.3776 593.1 77.0887C588.393 79.9055 584.423 83.8022 581.52 88.4567C578.518 93.1909 576.694 98.5754 576.201 104.159C575.773 109.498 576.55 114.864 578.475 119.862C580.272 124.597 583.096 128.874 586.745 132.386C593.3 138.698 602.03 142.249 611.13 142.305C614.975 142.261 618.791 141.629 622.445 140.431C628.265 138.468 633.462 135 637.509 130.379H637.389L652.015 133.53L637.389 130.126C637.368 130.117 637.346 130.112 637.323 130.112C637.3 130.112 637.277 130.117 637.256 130.126C633.218 134.681 628.049 138.089 622.272 140.005C618.654 141.174 614.879 141.784 611.077 141.813C602.095 141.723 593.489 138.197 587.024 131.961C583.445 128.483 580.672 124.262 578.9 119.596C577.007 114.669 576.248 109.379 576.68 104.119C577.153 98.6279 578.936 93.3298 581.879 88.6695C584.729 84.078 588.636 80.2349 593.273 77.461C597.725 74.8145 602.705 73.1803 607.859 72.6745C612.736 72.1952 617.658 72.7619 622.298 74.3365C630.683 77.1821 637.68 83.0962 641.883 90.8899C642.309 91.794 642.734 92.6848 643.213 93.5491C643.691 94.4133 643.878 95.3573 644.21 96.2083C644.807 97.9391 645.252 99.7186 645.54 101.527C646.535 107.561 645.925 113.752 643.771 119.476C643.765 119.493 643.762 119.51 643.763 119.528C643.763 119.546 643.767 119.563 643.775 119.579C643.782 119.595 643.793 119.61 643.806 119.622C643.819 119.634 643.834 119.643 643.851 119.649C643.872 119.665 643.898 119.674 643.924 119.674C643.951 119.674 643.976 119.665 643.997 119.649H643.758L652.041 133.57Z" fill="white"/>
<path d="M591.932 107.882L596.944 102.869L606.624 111.472L625.624 93.1899L630.277 98.2025L605.906 121.138L591.932 107.882Z" fill="#FF725E"/>
<path d="M591.932 107.882L596.944 102.869L606.624 111.472L625.624 93.1899L630.277 98.2025L605.906 121.138L591.932 107.882Z" fill="url(#paint9_linear_380_1069)"/>
<rect x="55.5" y="53.5" width="629" height="640" rx="16.5" stroke="#D2D2D2"/>
<defs>
<filter id="filter0_d_380_1069" x="0.200001" y="0.200001" width="739.6" height="753.6" filterUnits="userSpaceOnUse" color-interpolation-filters="sRGB">
<feFlood flood-opacity="0" result="BackgroundImageFix"/>
<feColorMatrix in="SourceAlpha" type="matrix" values="0 0 0 0 0 0 0 0 0 0 0 0 0 0 0 0 0 0 127 0" result="hardAlpha"/>
<feOffset dy="4"/>
<feGaussianBlur stdDeviation="22.9"/>
<feComposite in2="hardAlpha" operator="out"/>
<feColorMatrix type="matrix" values="0 0 0 0 0.3375 0 0 0 0 0.3375 0 0 0 0 0.3375 0 0 0 0.15 0"/>
<feBlend mode="normal" in2="BackgroundImageFix" result="effect1_dropShadow_380_1069"/>
<feBlend mode="normal" in="SourceGraphic" in2="effect1_dropShadow_380_1069" result="shape"/>
</filter>
<linearGradient id="paint0_linear_380_1069" x1="407.042" y1="558.055" x2="434.026" y2="467.458" gradientUnits="userSpaceOnUse">
<stop stop-color="#E75778"/>
<stop offset="0.888634" stop-color="#8876FF"/>
</linearGradient>
<linearGradient id="paint1_linear_380_1069" x1="616.434" y1="583.166" x2="695.995" y2="549.223" gradientUnits="userSpaceOnUse">
<stop stop-color="#E75778"/>
<stop offset="0.888634" stop-color="#8876FF"/>
</linearGradient>
<linearGradient id="paint2_linear_380_1069" x1="170.031" y1="549.065" x2="367.894" y2="442.85" gradientUnits="userSpaceOnUse">
<stop stop-color="#E75778"/>
<stop offset="0.888634" stop-color="#8876FF"/>
</linearGradient>
<linearGradient id="paint3_linear_380_1069" x1="484.397" y1="447.343" x2="577.064" y2="424.53" gradientUnits="userSpaceOnUse">
<stop stop-color="#E75778"/>
<stop offset="0.888634" stop-color="#8876FF"/>
</linearGradient>
<linearGradient id="paint4_linear_380_1069" x1="467.561" y1="306.323" x2="543.221" y2="255.398" gradientUnits="userSpaceOnUse">
<stop stop-color="#E75778"/>
<stop offset="0.888634" stop-color="#8876FF"/>
</linearGradient>
<linearGradient id="paint5_linear_380_1069" x1="221.715" y1="557.045" x2="355.575" y2="356.38" gradientUnits="userSpaceOnUse">
<stop stop-color="#E75778"/>
<stop offset="0.888634" stop-color="#8876FF"/>
</linearGradient>
<linearGradient id="paint6_linear_380_1069" x1="194.318" y1="590.424" x2="273.173" y2="557.218" gradientUnits="userSpaceOnUse">
<stop stop-color="#E75778"/>
<stop offset="0.888634" stop-color="#8876FF"/>
</linearGradient>
<linearGradient id="paint7_linear_380_1069" x1="64.7203" y1="565.301" x2="104.722" y2="487.14" gradientUnits="userSpaceOnUse">
<stop stop-color="#E75778"/>
<stop offset="0.888634" stop-color="#8876FF"/>
</linearGradient>
<linearGradient id="paint8_linear_380_1069" x1="256.33" y1="327.055" x2="284.186" y2="302.041" gradientUnits="userSpaceOnUse">
<stop stop-color="#E75778"/>
<stop offset="0.888634" stop-color="#8876FF"/>
</linearGradient>
<linearGradient id="paint9_linear_380_1069" x1="594.041" y1="118.719" x2="621.897" y2="93.705" gradientUnits="userSpaceOnUse">
<stop stop-color="#E75778"/>
<stop offset="0.888634" stop-color="#8876FF"/>
</linearGradient>
</defs>
</svg>
