<svg width="740" height="754" viewBox="0 0 740 754" fill="none" xmlns="http://www.w3.org/2000/svg">
<g filter="url(#filter0_d_411_883)">
<rect x="46" y="42" width="648" height="662" rx="17" fill="#F8FAFC"/>
</g>
<path d="M565.135 125.595H653.544V253.779H565.727L565.135 125.595Z" fill="#E0E0E0"/>
<path d="M565.135 125.595H653.544V253.779H565.727L565.135 125.595Z" fill="url(#paint0_linear_411_883)"/>
<path d="M558.509 253.175H646.111V126.187L558.509 126.187V253.175Z" fill="white"/>
<path d="M558.509 253.175H646.111V126.187L558.509 126.187V253.175Z" fill="url(#paint1_linear_411_883)"/>
<path d="M646.703 125.595V253.779H557.891V125.595H646.703ZM645.506 252.582V126.804H559.1V252.582H645.506Z" fill="#E0E0E0"/>
<path d="M635.226 139.945H569.383V239.429H635.226V139.945Z" fill="white"/>
<path d="M635.226 139.945H569.383V239.429H635.226V139.945Z" fill="url(#paint2_linear_411_883)"/>
<path d="M569.382 139.945C569.382 139.945 569.382 140.122 569.382 140.437C569.382 140.752 569.382 141.243 569.382 141.86C569.382 143.12 569.382 144.947 569.382 147.316C569.382 152.091 569.382 159.046 569.47 167.815C569.47 185.366 569.545 210.186 569.608 239.429L569.319 239.139H635.15L634.835 239.454C634.835 201.934 634.835 167.324 634.898 139.92L635.15 140.172L587.336 140.109H574.081H570.604C569.81 140.109 569.344 140.109 569.344 140.109H570.503H573.93H587.121L635.187 139.983H635.427V140.235C635.427 167.588 635.427 202.198 635.49 239.769V240.084H635.213H569.382H569.092V239.794C569.155 210.476 569.205 185.618 569.23 167.979C569.23 159.235 569.293 152.305 569.319 147.543C569.319 145.199 569.319 143.385 569.319 142.138C569.319 141.545 569.319 141.092 569.319 140.764C569.319 140.437 569.382 139.945 569.382 139.945Z" fill="#E0E0E0"/>
<path d="M558.257 253.187C558.607 252.393 559.065 251.652 559.618 250.982C560.55 249.722 561.885 247.921 563.397 246.006C564.909 244.091 566.371 242.415 567.454 241.231C567.992 240.546 568.619 239.935 569.319 239.416C567.629 241.834 565.816 244.163 563.889 246.396C562.152 248.773 560.271 251.041 558.257 253.187Z" fill="#E0E0E0"/>
<path d="M558.496 126.25C560.552 128.337 562.455 130.568 564.191 132.928C566.083 135.161 567.817 137.523 569.382 139.996C567.328 137.911 565.429 135.679 563.7 133.318C561.798 131.09 560.059 128.728 558.496 126.25Z" fill="#E0E0E0"/>
<path d="M646.125 126.25L634.647 140.399L646.125 126.25Z" fill="white"/>
<path d="M634.647 140.45C636.308 137.902 638.143 135.473 640.141 133.18C641.969 130.731 643.969 128.416 646.125 126.25C644.455 128.791 642.62 131.219 640.632 133.52C638.799 135.965 636.799 138.28 634.647 140.45Z" fill="#E0E0E0"/>
<path d="M646.111 253.187C644.08 251.118 642.198 248.908 640.479 246.573C638.599 244.365 636.881 242.024 635.339 239.568C637.374 241.633 639.256 243.844 640.971 246.182C642.849 248.392 644.567 250.733 646.111 253.187Z" fill="#E0E0E0"/>
<path d="M606.549 191.136H594.958L593.635 194.286C593.239 195.111 593.008 196.006 592.954 196.919C592.929 197.328 593.019 197.735 593.216 198.094C593.412 198.453 593.706 198.749 594.063 198.948C595.095 199.332 596.187 199.529 597.288 199.527V200.422H586.327V199.527C587.433 199.389 588.457 198.873 589.225 198.066C590.4 196.567 591.347 194.903 592.035 193.127L603.714 166.996H604.168L615.998 193.895C616.645 195.647 617.587 197.275 618.783 198.708C619.436 199.25 620.253 199.556 621.101 199.578V200.472H605.289V199.578H605.944C606.87 199.652 607.799 199.469 608.628 199.049C608.803 198.924 608.944 198.757 609.037 198.563C609.129 198.369 609.171 198.154 609.157 197.94C609.153 197.637 609.106 197.335 609.018 197.045C609.018 196.894 608.741 196.289 608.288 195.231L606.549 191.136ZM605.73 189.347L600.841 178.008L595.802 189.347H605.73Z" fill="#E0E0E0"/>
<path d="M203.173 446.977H103.563C93.8634 446.977 86 454.84 86 464.54V465.119C86 474.819 93.8634 482.683 103.563 482.683H203.173C212.873 482.683 220.736 474.819 220.736 465.119V464.54C220.736 454.84 212.873 446.977 203.173 446.977Z" fill="#E0E0E0"/>
<path d="M203.173 446.977H103.563C93.8634 446.977 86 454.84 86 464.54V465.119C86 474.819 93.8634 482.683 103.563 482.683H203.173C212.873 482.683 220.736 474.819 220.736 465.119V464.54C220.736 454.84 212.873 446.977 203.173 446.977Z" fill="url(#paint3_linear_411_883)"/>
<path d="M115.129 463.141C115.054 463.141 115.129 462.36 114.726 461.024C114.207 459.151 113.076 457.506 111.513 456.35C110.451 455.554 109.217 455.019 107.91 454.788C106.415 454.526 104.877 454.66 103.45 455.178C101.872 455.756 100.504 456.791 99.5188 458.152C98.4543 459.602 97.8804 461.354 97.8804 463.154C97.8804 464.953 98.4543 466.705 99.5188 468.155C100.504 469.516 101.872 470.552 103.45 471.129C104.877 471.647 106.415 471.782 107.91 471.519C109.217 471.288 110.451 470.753 111.513 469.957C113.076 468.796 114.207 467.147 114.726 465.27C115.091 463.935 115.054 463.154 115.129 463.154C115.162 463.341 115.162 463.533 115.129 463.721C115.13 464.264 115.067 464.805 114.94 465.333C114.56 467.01 113.698 468.539 112.46 469.732C111.222 470.925 109.662 471.73 107.973 472.049C106.662 472.301 105.312 472.261 104.018 471.931C102.725 471.601 101.52 470.989 100.491 470.139C99.4611 469.289 98.6323 468.222 98.0633 467.015C97.4943 465.807 97.1992 464.489 97.1992 463.154C97.1992 461.819 97.4943 460.5 98.0633 459.293C98.6323 458.085 99.4611 457.018 100.491 456.168C101.52 455.318 102.725 454.706 104.018 454.376C105.312 454.046 106.662 454.006 107.973 454.259C109.662 454.577 111.222 455.382 112.46 456.575C113.698 457.768 114.56 459.297 114.94 460.974C115.067 461.502 115.13 462.043 115.129 462.587C115.161 462.77 115.161 462.958 115.129 463.141Z" fill="white"/>
<path d="M121.707 475.324C120.061 474.549 118.513 473.581 117.096 472.439C115.554 471.468 114.133 470.318 112.862 469.012C114.512 469.781 116.061 470.75 117.474 471.897C119.015 472.869 120.436 474.019 121.707 475.324Z" fill="white"/>
<path d="M395.89 134.414C398.118 133.06 400.516 132.009 403.021 131.29L404.483 124.234L416.414 124.02L418.128 131.025C420.654 131.649 423.086 132.606 425.36 133.873L431.382 129.916L439.925 138.232L436.145 144.393C437.49 146.622 438.533 149.02 439.244 151.524L446.3 152.986L446.501 164.917L439.509 166.631C438.885 169.157 437.928 171.589 436.661 173.863L440.605 179.885L432.365 188.465L426.204 184.685C423.975 186.031 421.577 187.073 419.073 187.785L417.599 194.84L405.68 195.042L403.966 188.049C401.439 187.428 399.007 186.47 396.734 185.202L390.788 189.246L382.208 180.969L385.987 174.808C384.642 172.579 383.599 170.181 382.888 167.676L375.832 166.215L375.618 154.283L382.623 152.57C383.245 150.043 384.202 147.61 385.471 145.338L381.515 139.315L389.805 130.735L395.966 134.515L395.89 134.414ZM402.19 150.302C400.434 152.122 399.258 154.421 398.809 156.91C398.359 159.398 398.658 161.964 399.667 164.283C400.676 166.602 402.35 168.569 404.476 169.937C406.603 171.305 409.088 172.011 411.616 171.967C414.144 171.923 416.603 171.131 418.681 169.69C420.759 168.249 422.363 166.224 423.29 163.872C424.218 161.519 424.427 158.945 423.892 156.473C423.356 154.002 422.1 151.745 420.282 149.987C417.846 147.64 414.579 146.355 411.196 146.414C407.814 146.474 404.593 147.872 402.24 150.302H402.19Z" fill="#E0E0E0"/>
<path d="M402.241 150.302C402.92 149.476 403.734 148.769 404.647 148.21C407.12 146.607 410.071 145.909 413 146.232C415.177 146.467 417.258 147.249 419.052 148.505C420.845 149.76 422.291 151.449 423.256 153.414C423.829 154.542 424.221 155.754 424.415 157.005C424.655 158.306 424.68 159.638 424.491 160.948C424.125 163.723 422.879 166.307 420.935 168.321C418.992 170.335 416.453 171.672 413.693 172.136C412.387 172.35 411.055 172.35 409.75 172.136C408.495 171.976 407.272 171.628 406.121 171.103C403.986 170.136 402.149 168.613 400.804 166.694C399.376 164.664 398.562 162.265 398.462 159.784C398.361 157.304 398.978 154.847 400.237 152.708C400.763 151.787 401.44 150.961 402.241 150.264C401.613 151.099 401.029 151.965 400.489 152.86C399.106 155.351 398.609 158.238 399.078 161.049C399.383 162.968 400.134 164.789 401.27 166.366C402.574 168.175 404.335 169.605 406.373 170.511C407.468 171.006 408.632 171.329 409.825 171.469C411.081 171.644 412.357 171.618 413.605 171.393C416.18 170.937 418.549 169.691 420.383 167.828C422.222 165.924 423.405 163.483 423.76 160.86C423.949 159.628 423.949 158.375 423.76 157.143C423.573 155.957 423.208 154.806 422.676 153.729C421.701 151.721 420.21 150.007 418.355 148.765C416.739 147.684 414.892 146.998 412.962 146.762C410.136 146.409 407.272 147.007 404.823 148.462C403.059 149.496 402.304 150.365 402.241 150.302Z" fill="#E0E0E0"/>
<path d="M395.891 134.415C395.75 134.356 395.615 134.284 395.487 134.2L394.316 133.52L389.667 130.786H389.805L381.578 139.417V139.177C382.838 141.004 384.098 143.033 385.547 145.187L385.622 145.3L385.559 145.414C384.309 147.676 383.369 150.096 382.762 152.608V152.747H382.624L375.669 154.485L375.87 154.233C375.946 158.013 376.022 161.969 376.11 166.152L375.883 165.875L382.939 167.336H383.115V167.525C383.83 169.999 384.868 172.367 386.202 174.568L386.29 174.732L386.202 174.896L382.422 181.057V180.654L391.002 188.932H390.586L396.609 184.975L396.785 184.862L396.962 184.963C399.212 186.209 401.619 187.15 404.118 187.76H404.319V187.974C404.861 190.166 405.453 192.56 406.046 194.979L405.693 194.702L417.612 194.488L417.259 194.778L418.733 187.722V187.508L418.947 187.445C421.418 186.746 423.783 185.717 425.978 184.383L426.167 184.27L426.356 184.383L432.517 188.163L432.063 188.226L440.353 179.646V180.1L436.448 174.127L436.334 173.938L436.435 173.749C437.688 171.492 438.633 169.077 439.245 166.568L439.308 166.366H439.509L446.514 164.653L446.25 164.993C446.174 160.928 446.107 156.955 446.048 153.074L446.313 153.402L439.257 151.915H439.068V151.726C438.366 149.249 437.336 146.876 436.007 144.67L435.906 144.507L436.007 144.343L439.786 138.182V138.56L431.231 130.27H431.584L425.549 134.2L425.411 134.289L425.272 134.213C423.012 132.92 420.588 131.937 418.065 131.29H417.927V131.151C417.322 128.632 416.768 126.301 416.238 124.146L416.453 124.31L404.534 124.461L404.685 124.335L403.135 131.29V131.366H403.06C401.18 131.884 399.356 132.589 397.617 133.47L396.357 134.137C396.219 134.219 396.076 134.291 395.928 134.352L396.319 134.087C396.596 133.911 397.012 133.659 397.579 133.356C399.312 132.431 401.136 131.688 403.022 131.139L402.946 131.227C403.324 129.299 403.79 126.981 404.37 124.159V124.033H404.496L416.415 123.768H416.591V123.932L418.33 130.925L418.153 130.748C420.706 131.37 423.164 132.332 425.461 133.608H425.196L431.206 129.652L431.395 129.526L431.559 129.677L440.152 137.942L440.328 138.119L440.202 138.32L436.422 144.494V144.166C437.788 146.418 438.847 148.842 439.572 151.373L439.32 151.134L446.376 152.595H446.64V152.873C446.707 156.753 446.779 160.726 446.855 164.791V165.069L446.577 165.144L439.585 166.858L439.837 166.606C439.21 169.163 438.244 171.625 436.964 173.926V173.548L440.908 179.583L441.071 179.822L440.87 180.024L432.592 188.617L432.391 188.818L432.139 188.667L425.978 184.887H426.356C424.098 186.247 421.67 187.302 419.136 188.024L419.401 187.747C418.884 190.166 418.393 192.573 417.927 194.803L417.864 195.08H417.574L405.655 195.282H405.365L405.29 195.004C404.71 192.585 404.118 190.204 403.589 188.012L403.841 188.264C401.284 187.63 398.822 186.66 396.521 185.379H396.886L390.851 189.322L390.624 189.473L390.435 189.284L381.968 181.158L381.779 180.969L381.905 180.755C383.165 178.6 384.488 176.496 385.685 174.594V174.921C384.327 172.669 383.276 170.245 382.561 167.714L382.787 167.929L375.669 166.442H375.442V166.215C375.379 162.032 375.316 158.051 375.266 154.296V154.082H375.467L382.472 152.381L382.309 152.558C382.931 149.967 383.906 147.474 385.206 145.149V145.363L381.275 139.328L381.2 139.202L381.301 139.089L389.629 130.559L389.692 130.496H389.78L394.316 133.319L395.475 134.062L395.891 134.415Z" fill="#E0E0E0"/>
<path d="M456.606 112.19C457.501 111.639 458.468 111.214 459.479 110.93L460.071 108.082L464.872 108.007L465.565 110.816C466.581 111.069 467.559 111.455 468.475 111.963L470.907 110.375L474.359 113.714L472.847 116.234C473.398 117.124 473.822 118.087 474.107 119.094L476.954 119.686L477.042 124.486L474.22 125.179C473.969 126.196 473.584 127.175 473.074 128.09L474.661 130.521L471.322 133.974L468.803 132.474C467.901 133.012 466.936 133.436 465.93 133.734L465.338 136.569L460.537 136.657L459.882 133.81C458.864 133.564 457.884 133.178 456.972 132.663L454.54 134.263L451.088 130.925L452.587 128.405C452.047 127.505 451.623 126.539 451.327 125.532L448.505 124.99L448.417 120.19L451.239 119.497C451.495 118.482 451.88 117.503 452.386 116.587L450.798 114.168L454.124 110.703L456.644 112.215L456.606 112.19ZM459.126 118.577C458.418 119.31 457.942 120.237 457.76 121.24C457.578 122.243 457.698 123.277 458.104 124.212C458.51 125.147 459.184 125.941 460.042 126.493C460.899 127.045 461.9 127.33 462.92 127.312C463.939 127.294 464.93 126.975 465.768 126.394C466.605 125.813 467.252 124.996 467.625 124.048C467.999 123.099 468.083 122.061 467.866 121.065C467.649 120.069 467.142 119.159 466.409 118.451C465.428 117.515 464.117 117.003 462.761 117.026C461.404 117.05 460.112 117.607 459.164 118.577H459.126Z" fill="#F5F5F5"/>
<path d="M459.166 118.577C459.439 118.251 459.762 117.97 460.123 117.745C461.116 117.093 462.308 116.812 463.487 116.952C464.302 117.031 465.084 117.308 465.768 117.758C466.568 118.271 467.216 118.989 467.645 119.837C467.873 120.294 468.03 120.782 468.111 121.286C468.2 121.811 468.2 122.348 468.111 122.873C467.967 123.988 467.468 125.026 466.688 125.834C465.902 126.645 464.878 127.183 463.765 127.371C463.239 127.459 462.703 127.459 462.177 127.371C461.671 127.31 461.178 127.17 460.715 126.956C459.855 126.567 459.114 125.953 458.574 125.179C458.107 124.512 457.804 123.743 457.692 122.936C457.513 121.763 457.75 120.565 458.359 119.547C458.575 119.176 458.847 118.84 459.166 118.552C459.166 118.552 458.863 118.892 458.46 119.598C457.91 120.604 457.71 121.766 457.893 122.899C458.017 123.671 458.319 124.405 458.775 125.04C459.3 125.768 460.009 126.342 460.829 126.704C461.268 126.904 461.736 127.036 462.215 127.094C462.991 127.194 463.78 127.112 464.52 126.854C465.259 126.596 465.928 126.169 466.473 125.607C467.21 124.842 467.687 123.863 467.834 122.81C467.916 122.314 467.916 121.807 467.834 121.311C467.76 120.835 467.616 120.372 467.406 119.938C467.008 119.131 466.409 118.441 465.667 117.934C465.012 117.503 464.266 117.227 463.487 117.128C462.35 116.989 461.199 117.228 460.212 117.808C459.493 118.262 459.191 118.615 459.166 118.577Z" fill="#F5F5F5"/>
<path d="M456.605 112.189L456.442 112.101L455.975 111.824L454.098 110.728H454.161L450.848 114.205V114.104C451.326 114.848 451.868 115.654 452.448 116.523C451.939 117.429 451.558 118.4 451.314 119.409L448.491 120.102L448.567 120.001C448.567 121.513 448.63 123.113 448.668 124.801L448.58 124.688L451.414 125.28H451.49V125.356C451.783 126.352 452.206 127.305 452.75 128.19V128.253L451.251 130.773V130.609L454.715 133.948H454.539L456.895 132.55H456.971C457.879 133.049 458.849 133.426 459.856 133.671H459.932V133.759C460.146 134.641 460.385 135.599 460.624 136.569L460.486 136.468L465.286 136.38L465.135 136.493C465.324 135.599 465.526 134.629 465.727 133.646V133.558H465.803C466.8 133.266 467.753 132.842 468.638 132.298H468.726H468.801L471.422 133.81H471.246L474.584 130.357V130.534C474.055 129.727 473.526 128.909 472.997 128.115V128.039V127.964C473.493 127.057 473.874 126.092 474.131 125.091V124.99H474.219L477.041 124.31L476.928 124.448C476.928 122.811 476.928 121.198 476.852 119.648L476.966 119.774L474.118 119.182H474.043V119.106C473.746 118.111 473.322 117.159 472.783 116.272V116.196C473.299 115.352 473.803 114.533 474.282 113.676V113.827C473.022 112.643 471.926 111.534 470.83 110.488H470.969L468.549 112.063C467.642 111.556 466.672 111.171 465.664 110.917H465.601C465.362 109.896 465.135 108.977 464.921 108.095L465.009 108.17H460.209H460.272L459.667 111.018C458.912 111.231 458.178 111.513 457.475 111.862L456.958 112.139L456.782 112.227L456.946 112.114L457.45 111.824C458.148 111.452 458.883 111.152 459.642 110.929C459.806 110.148 459.995 109.216 460.221 108.082L465.022 107.981H465.085L465.778 110.791L465.715 110.728C466.739 110.981 467.725 111.367 468.65 111.874H468.537L470.969 110.287H471.044V110.35L474.433 113.651H474.509V113.739L473.01 116.259V116.171C473.561 117.078 473.985 118.058 474.269 119.081L474.169 118.98L477.016 119.573H477.117V119.673C477.117 121.236 477.117 122.836 477.205 124.474V124.587H477.092L474.282 125.28L474.383 125.179C474.128 126.209 473.738 127.2 473.224 128.127V127.976L474.824 130.408V130.496L474.736 130.584L471.422 134.049L471.334 134.137H471.233L468.713 132.638H468.902C467.998 133.187 467.023 133.611 466.004 133.898L466.105 133.784C465.904 134.767 465.702 135.725 465.513 136.632V136.745H465.4L460.599 136.821H460.486V136.707L459.743 133.81L459.843 133.91C458.813 133.658 457.821 133.269 456.895 132.751H457.046L454.615 134.339H454.526L454.451 134.263L450.999 130.924L450.923 130.861V130.761L452.435 128.241V128.367C451.884 127.463 451.46 126.488 451.175 125.469L451.263 125.557L448.428 124.952H448.34V124.99C448.34 123.314 448.34 121.702 448.265 120.19V120.114H448.34L451.162 119.434L451.087 119.51C451.344 118.483 451.738 117.495 452.259 116.574V116.662L450.684 114.23L454.048 110.803L455.875 111.95L456.353 112.24L456.605 112.189Z" fill="#F5F5F5"/>
<path d="M489.239 228.153L487.059 219.245C483.847 218.45 480.755 217.234 477.862 215.629L470.163 220.669L459.202 210.073L463.965 202.223C462.252 199.388 460.926 196.338 460.021 193.152L451.013 191.287L450.748 176.042L459.656 173.85C460.453 170.639 461.669 167.547 463.272 164.652L458.232 156.954L468.815 145.993L476.665 150.743C479.503 149.04 482.553 147.718 485.736 146.812L487.613 137.803L502.922 137.451L505.101 146.409C508.315 147.198 511.408 148.414 514.299 150.025L521.997 144.985L532.958 155.568L528.208 163.405C529.915 166.243 531.241 169.293 532.152 172.477L541.16 174.354L541.425 189.586L532.517 191.766C531.718 194.982 530.498 198.079 528.889 200.976L533.928 208.662L523.345 219.623L515.508 214.86C512.673 216.573 509.623 217.899 506.437 218.804L504.559 227.812L489.239 228.153ZM477.836 215.553C480.735 217.166 483.837 218.382 487.059 219.169L489.251 228.077L504.37 227.812L506.248 218.817C509.442 217.907 512.501 216.577 515.344 214.86L523.181 219.61L533.714 208.712L528.674 201.026C530.291 198.133 531.511 195.035 532.303 191.816L541.211 189.624L540.946 174.505L531.95 172.64C531.092 169.421 529.803 166.331 528.12 163.456L532.87 155.619L521.959 145.086L514.273 150.126C511.384 148.479 508.286 147.229 505.063 146.409L502.922 137.514L487.802 137.778L485.925 146.787C482.732 147.695 479.674 149.021 476.828 150.73L468.904 145.98L458.371 156.891L463.41 164.577C461.796 167.476 460.575 170.577 459.782 173.799L450.874 175.979L451.139 191.098L460.084 193.026C460.981 196.223 462.308 199.283 464.028 202.123L459.278 209.959L470.189 220.492L477.836 215.553ZM496.546 198.683C492.382 198.462 488.459 196.662 485.577 193.648C482.695 190.635 481.07 186.636 481.035 182.466C481 178.296 482.556 174.27 485.387 171.208C488.217 168.146 492.109 166.279 496.269 165.988H496.622C500.966 165.951 505.147 167.642 508.244 170.687C511.342 173.733 513.103 177.884 513.139 182.228C513.176 186.572 511.486 190.753 508.44 193.851C505.394 196.948 501.243 198.709 496.899 198.746L496.546 198.683ZM484.816 170.965C481.821 174.076 480.183 178.248 480.261 182.566C480.339 186.884 482.127 190.995 485.232 193.996C488.264 196.951 492.338 198.594 496.571 198.57H496.861C501.068 198.376 505.037 196.56 507.935 193.504C510.832 190.448 512.434 186.388 512.403 182.176C512.372 177.965 510.711 173.929 507.769 170.915C504.826 167.902 500.831 166.145 496.622 166.013H496.332C494.192 166.045 492.079 166.499 490.116 167.351C488.152 168.203 486.377 169.436 484.892 170.977L484.816 170.965Z" fill="#E0E0E0"/>
<path d="M484.817 170.977C485.655 169.926 486.665 169.023 487.803 168.306C490.954 166.262 494.716 165.372 498.449 165.786C501.227 166.087 503.885 167.086 506.174 168.689C508.462 170.293 510.308 172.45 511.54 174.959C513.01 177.93 513.558 181.274 513.114 184.559C512.65 188.102 511.06 191.401 508.578 193.971C506.097 196.541 502.855 198.246 499.331 198.834C496.06 199.373 492.703 198.935 489.68 197.574C486.954 196.343 484.608 194.403 482.889 191.955C481.082 189.358 480.062 186.295 479.951 183.134C479.839 179.972 480.64 176.845 482.259 174.127C482.923 172.955 483.774 171.9 484.779 171.002C483.975 172.064 483.226 173.165 482.536 174.303C480.782 177.489 480.143 181.17 480.722 184.761C481.146 187.391 482.222 189.872 483.85 191.98C485.479 194.088 487.608 195.756 490.045 196.831C492.918 198.094 496.099 198.484 499.192 197.952C502.519 197.386 505.577 195.771 507.921 193.343C510.264 190.916 511.771 187.803 512.22 184.458C512.451 182.882 512.43 181.278 512.157 179.709C511.923 178.197 511.456 176.73 510.771 175.362C509.611 172.965 507.87 170.896 505.707 169.343C503.544 167.789 501.028 166.801 498.386 166.467C494.781 166.018 491.129 166.78 488.004 168.634C486.899 169.356 485.835 170.138 484.817 170.977Z" fill="#EBEBEB"/>
<path d="M476.703 150.705C476.529 150.629 476.36 150.541 476.199 150.441L474.687 149.571L468.766 146.069H468.954L458.447 157.08V156.778L463.486 164.451L463.575 164.59L463.486 164.741C461.898 167.623 460.699 170.703 459.921 173.9V174.089H459.744L450.824 176.307L451.076 175.979C451.169 180.767 451.269 185.836 451.379 191.187L451.089 190.834L460.085 192.686H460.324L460.387 192.913C461.29 196.071 462.608 199.096 464.305 201.909L464.431 202.11L464.305 202.324L459.555 210.186V209.67L470.504 220.228H469.962L477.648 215.188L477.875 215.05L478.114 215.176C480.981 216.77 484.049 217.974 487.236 218.754L487.501 218.817V219.081C488.181 221.878 488.937 224.94 489.693 228.014L489.239 227.661L504.447 227.397L504.006 227.762L505.883 218.766V218.489L506.16 218.401C509.309 217.506 512.326 216.197 515.131 214.508L515.37 214.357L515.609 214.508L523.471 219.27L522.892 219.346L533.463 208.397V208.977L528.423 201.291L528.272 201.052L528.41 200.812C530.006 197.968 531.222 194.927 532.026 191.766V191.489H532.291L541.224 189.309L540.884 189.75C540.8 184.559 540.716 179.49 540.632 174.543L540.972 174.959L531.976 173.069H531.724L531.661 172.817C530.761 169.661 529.453 166.637 527.768 163.821L527.629 163.607L527.768 163.405L532.543 155.556L532.606 156.035L521.682 145.439H522.123L514.425 150.478L514.249 150.592L514.072 150.491C511.201 148.884 508.13 147.664 504.938 146.862H504.762V146.673L502.62 137.589L502.884 137.804L487.677 138.005L487.879 137.829C487.11 141.42 486.48 144.368 485.951 146.825V146.913H485.863C483.465 147.581 481.136 148.475 478.908 149.584L477.27 150.441C477.097 150.547 476.916 150.64 476.728 150.718L477.232 150.378C477.585 150.163 478.114 149.836 478.845 149.458C481.053 148.271 483.38 147.321 485.787 146.623L485.674 146.736C486.178 144.217 486.77 141.319 487.488 137.728V137.564H487.652L502.922 137.211H503.136V137.438C503.829 140.197 504.547 143.108 505.354 146.358L505.14 146.132C508.393 146.921 511.525 148.145 514.45 149.773H514.11L521.783 144.733L522.022 144.582L522.224 144.771C525.689 148.11 529.33 151.612 533.198 155.317L533.412 155.531L533.261 155.808C531.711 158.328 530.136 160.974 528.498 163.67V163.254C530.24 166.124 531.592 169.212 532.518 172.439L532.19 172.149L541.199 174.014H541.539V174.367C541.639 179.305 541.736 184.375 541.828 189.574V189.927L541.488 190.015L532.555 192.207L532.883 191.88C532.086 195.142 530.853 198.282 529.217 201.216V200.749L534.256 208.435L534.458 208.737L534.206 209.002C530.729 212.605 527.205 216.255 523.635 219.951L523.383 220.228L523.056 220.026L515.206 215.264H515.672C512.796 216.994 509.703 218.337 506.475 219.258L506.803 218.905L504.925 227.901L504.85 228.266H504.484L489.264 228.518H488.899L488.811 228.153C488.068 225.079 487.312 222.03 486.631 219.22L486.959 219.56C483.698 218.752 480.558 217.515 477.623 215.881H478.089L470.391 220.921L470.101 221.11L469.849 220.87L458.925 210.287L458.686 210.048L458.85 209.77L463.625 201.921V202.337C461.896 199.463 460.561 196.369 459.656 193.139L459.946 193.404L450.95 191.514H450.66V191.224C450.585 185.882 450.509 180.813 450.434 176.017V175.74H450.686L459.618 173.585L459.404 173.812C460.215 170.564 461.453 167.438 463.083 164.514V164.804L458.044 157.093L457.943 156.929L458.069 156.803L468.702 145.918L468.778 145.829H468.879L474.675 149.433L476.161 150.378C476.35 150.473 476.531 150.582 476.703 150.705Z" fill="#EBEBEB"/>
<path d="M469.293 642L306.209 641.911C296.79 641.905 287.759 638.159 281.102 631.496C274.444 624.834 270.704 615.8 270.704 606.382L270.78 197.499C270.78 192.828 271.701 188.203 273.491 183.889C275.28 179.575 277.903 175.656 281.209 172.357C284.515 169.058 288.44 166.444 292.757 164.663C297.075 162.883 301.702 161.971 306.373 161.981L469.47 162.082C478.888 162.089 487.919 165.835 494.577 172.497C501.234 179.16 504.974 188.193 504.974 197.612L504.886 606.482C504.886 611.153 503.965 615.778 502.175 620.092C500.386 624.406 497.763 628.325 494.457 631.624C491.151 634.923 487.226 637.537 482.908 639.318C478.59 641.098 473.964 642.01 469.293 642Z" fill="#263238"/>
<path d="M469.293 642L306.209 641.911C296.79 641.905 287.759 638.159 281.102 631.496C274.444 624.834 270.704 615.8 270.704 606.382L270.78 197.499C270.78 192.828 271.701 188.203 273.491 183.889C275.28 179.575 277.903 175.656 281.209 172.357C284.515 169.058 288.44 166.444 292.757 164.663C297.075 162.883 301.702 161.971 306.373 161.981L469.47 162.082C478.888 162.089 487.919 165.835 494.577 172.497C501.234 179.16 504.974 188.193 504.974 197.612L504.886 606.482C504.886 611.153 503.965 615.778 502.175 620.092C500.386 624.406 497.763 628.325 494.457 631.624C491.151 634.923 487.226 637.537 482.908 639.318C478.59 641.098 473.964 642.01 469.293 642Z" fill="url(#paint4_linear_411_883)"/>
<path d="M469.243 176.546H437.619C435.538 176.596 433.562 177.468 432.124 178.973C430.685 180.477 429.902 182.491 429.946 184.572V190.304C429.99 192.388 429.205 194.403 427.764 195.908C426.323 197.413 424.344 198.284 422.261 198.33H360.625C358.544 198.281 356.568 197.408 355.13 195.903C353.691 194.399 352.908 192.385 352.952 190.304V184.559C352.996 182.478 352.213 180.465 350.775 178.96C349.336 177.456 347.36 176.583 345.279 176.533H306.474C303.206 176.532 299.97 177.174 296.95 178.423C293.931 179.672 291.186 181.503 288.875 183.813C286.563 186.122 284.729 188.864 283.477 191.883C282.224 194.901 281.579 198.137 281.578 201.404L281.502 600.498C281.522 607.081 284.151 613.388 288.813 618.035C293.475 622.683 299.79 625.293 306.373 625.293L469.142 625.394C472.41 625.396 475.645 624.754 478.664 623.504C481.683 622.255 484.426 620.424 486.737 618.114C489.048 615.804 490.881 613.062 492.132 610.044C493.382 607.025 494.026 603.79 494.026 600.523L494.102 201.43C494.103 198.163 493.462 194.929 492.213 191.911C490.965 188.893 489.134 186.15 486.826 183.839C484.518 181.529 481.777 179.695 478.76 178.444C475.743 177.193 472.509 176.548 469.243 176.546Z" fill="white"/>
<path d="M472.078 402.652C473.502 402.322 474.968 402.212 476.425 402.325C477.13 402.325 477.798 402.325 478.378 402.325L478.075 402.614C478.021 401.796 478.123 400.975 478.378 400.195C478.624 400.977 478.722 401.797 478.668 402.614V402.892H478.365C477.786 402.892 477.105 402.892 476.412 402.892C474.964 403.024 473.503 402.944 472.078 402.652Z" fill="#E0E0E0"/>
<path d="M459.479 402.652C461.557 402.215 463.702 402.215 465.779 402.652C463.702 403.089 461.557 403.089 459.479 402.652Z" fill="#E0E0E0"/>
<path d="M446.88 402.652C448.957 402.215 451.102 402.215 453.18 402.652C451.102 403.089 448.957 403.089 446.88 402.652Z" fill="#E0E0E0"/>
<path d="M434.28 402.652C436.357 402.215 438.503 402.215 440.58 402.652C438.503 403.089 436.357 403.089 434.28 402.652Z" fill="#E0E0E0"/>
<path d="M421.681 402.652C423.758 402.215 425.903 402.215 427.98 402.652C425.903 403.089 423.758 403.089 421.681 402.652Z" fill="#E0E0E0"/>
<path d="M409.082 402.652C411.159 402.215 413.304 402.215 415.382 402.652C413.304 403.089 411.159 403.089 409.082 402.652Z" fill="#E0E0E0"/>
<path d="M396.482 402.652C398.56 402.215 400.705 402.215 402.782 402.652C400.705 403.089 398.56 403.089 396.482 402.652Z" fill="#E0E0E0"/>
<path d="M383.884 402.652C385.961 402.215 388.106 402.215 390.183 402.652C388.106 403.089 385.961 403.089 383.884 402.652Z" fill="#E0E0E0"/>
<path d="M371.284 402.652C373.361 402.215 375.507 402.215 377.584 402.652C375.507 403.089 373.361 403.089 371.284 402.652Z" fill="#E0E0E0"/>
<path d="M358.686 402.652C360.763 402.215 362.908 402.215 364.985 402.652C362.908 403.089 360.763 403.089 358.686 402.652Z" fill="#E0E0E0"/>
<path d="M346.085 402.652C348.162 402.215 350.307 402.215 352.385 402.652C350.307 403.089 348.162 403.089 346.085 402.652Z" fill="#E0E0E0"/>
<path d="M338.613 397.511C338.94 398.527 339.051 399.6 338.941 400.661C338.941 401.417 338.941 402.11 338.865 402.652L338.613 402.4C339.332 402.4 339.785 402.551 339.785 402.652C339.785 402.753 339.332 402.841 338.613 402.904H338.387V402.639C338.387 402.097 338.311 401.379 338.311 400.648C338.201 399.593 338.304 398.526 338.613 397.511Z" fill="#E0E0E0"/>
<path d="M338.614 384.912C339.05 386.99 339.05 389.135 338.614 391.212C338.177 389.135 338.177 386.99 338.614 384.912Z" fill="#E0E0E0"/>
<path d="M338.614 372.313C339.05 374.39 339.05 376.536 338.614 378.613C338.177 376.536 338.177 374.39 338.614 372.313Z" fill="#E0E0E0"/>
<path d="M338.614 359.714C339.05 361.791 339.05 363.937 338.614 366.014C338.177 363.937 338.177 361.791 338.614 359.714Z" fill="#E0E0E0"/>
<path d="M338.614 347.115C339.05 349.192 339.05 351.337 338.614 353.414C338.177 351.337 338.177 349.192 338.614 347.115Z" fill="#E0E0E0"/>
<path d="M343.704 339.605C342.689 339.932 341.616 340.043 340.555 339.933C339.824 339.933 339.143 339.933 338.614 339.933L338.879 339.668C338.816 340.412 338.728 340.928 338.614 340.928C338.501 340.928 338.425 340.462 338.362 339.668V339.442H338.639C339.169 339.442 339.899 339.366 340.58 339.366C341.627 339.238 342.689 339.319 343.704 339.605Z" fill="#E0E0E0"/>
<path d="M356.304 339.605C354.226 340.042 352.081 340.042 350.004 339.605C352.081 339.168 354.226 339.168 356.304 339.605Z" fill="#E0E0E0"/>
<path d="M368.903 339.605C366.826 340.042 364.681 340.042 362.604 339.605C364.681 339.168 366.826 339.168 368.903 339.605Z" fill="#E0E0E0"/>
<path d="M381.502 339.605C379.425 340.042 377.279 340.042 375.202 339.605C377.279 339.168 379.425 339.168 381.502 339.605Z" fill="#E0E0E0"/>
<path d="M394.102 339.605C392.025 340.042 389.88 340.042 387.803 339.605C389.88 339.168 392.025 339.168 394.102 339.605Z" fill="#E0E0E0"/>
<path d="M406.701 339.605C404.624 340.042 402.479 340.042 400.401 339.605C402.479 339.168 404.624 339.168 406.701 339.605Z" fill="#E0E0E0"/>
<path d="M419.301 339.605C417.223 340.042 415.078 340.042 413.001 339.605C415.078 339.168 417.223 339.168 419.301 339.605Z" fill="#E0E0E0"/>
<path d="M431.899 339.605C429.822 340.042 427.677 340.042 425.6 339.605C427.677 339.168 429.822 339.168 431.899 339.605Z" fill="#E0E0E0"/>
<path d="M444.499 339.605C442.422 340.042 440.276 340.042 438.199 339.605C440.276 339.168 442.422 339.168 444.499 339.605Z" fill="#E0E0E0"/>
<path d="M457.097 339.605C455.02 340.042 452.875 340.042 450.798 339.605C452.875 339.168 455.02 339.168 457.097 339.605Z" fill="#E0E0E0"/>
<path d="M469.697 339.605C467.62 340.042 465.475 340.042 463.397 339.605C465.475 339.168 467.62 339.168 469.697 339.605Z" fill="#E0E0E0"/>
<path d="M478.377 343.536C478.051 342.521 477.939 341.448 478.05 340.387V339.605L478.377 339.933C477.569 340.005 476.755 339.893 475.996 339.605C476.757 339.326 477.57 339.219 478.377 339.29H478.68V340.437C478.784 341.48 478.681 342.533 478.377 343.536Z" fill="#E0E0E0"/>
<path d="M478.377 356.136C477.941 354.058 477.941 351.913 478.377 349.836C478.814 351.913 478.814 354.058 478.377 356.136Z" fill="#E0E0E0"/>
<path d="M478.377 368.735C477.941 366.658 477.941 364.512 478.377 362.435C478.814 364.512 478.814 366.658 478.377 368.735Z" fill="#E0E0E0"/>
<path d="M478.377 381.334C477.941 379.257 477.941 377.112 478.377 375.035C478.814 377.112 478.814 379.257 478.377 381.334Z" fill="#E0E0E0"/>
<path d="M478.377 393.933C477.941 391.856 477.941 389.711 478.377 387.634C478.814 389.711 478.814 391.856 478.377 393.933Z" fill="#E0E0E0"/>
<path d="M456.681 374.745C456.681 375.545 456.444 376.327 456 376.992C455.555 377.657 454.924 378.175 454.185 378.481C453.446 378.787 452.633 378.868 451.848 378.711C451.064 378.555 450.343 378.17 449.777 377.605C449.212 377.039 448.827 376.318 448.67 375.534C448.514 374.749 448.595 373.936 448.901 373.197C449.207 372.458 449.725 371.826 450.39 371.382C451.055 370.938 451.837 370.7 452.637 370.7C453.169 370.699 453.695 370.802 454.187 371.005C454.678 371.208 455.125 371.505 455.501 371.881C455.877 372.257 456.174 372.704 456.377 373.195C456.58 373.687 456.683 374.213 456.681 374.745Z" fill="#263238"/>
<path d="M453.269 374.745H452.009V365.421C452.005 361.726 450.536 358.182 447.924 355.567C445.312 352.953 441.77 351.481 438.074 351.474H291.003V350.214H438.074C442.104 350.221 445.967 351.826 448.815 354.676C451.664 357.527 453.265 361.391 453.269 365.421V374.745Z" fill="#263238"/>
<path d="M353.443 288.251C354.459 287.924 355.532 287.813 356.593 287.923C355.938 288.578 356.417 288.1 356.266 288.238V287.621C356.266 287.432 356.266 287.243 356.266 287.029C356.266 286.814 356.266 286.31 356.341 286.033C356.341 285.466 356.48 285.114 356.568 285.114C356.656 285.114 356.744 285.466 356.807 286.033C356.807 286.31 356.807 286.651 356.807 287.029V287.621V288.238C356.669 288.389 357.135 287.923 356.48 288.578C355.456 288.666 354.425 288.555 353.443 288.251Z" fill="#E0E0E0"/>
<path d="M340.87 288.251C342.947 287.812 345.093 287.812 347.17 288.251C345.093 288.69 342.947 288.69 340.87 288.251Z" fill="#E0E0E0"/>
<path d="M328.296 288.251C330.373 287.812 332.519 287.812 334.596 288.251C332.519 288.69 330.373 288.69 328.296 288.251Z" fill="#E0E0E0"/>
<path d="M315.722 288.251C317.799 287.812 319.944 287.812 322.021 288.251C319.944 288.69 317.799 288.69 315.722 288.251Z" fill="#E0E0E0"/>
<path d="M303.147 288.251C305.224 287.812 307.37 287.812 309.447 288.251C307.37 288.69 305.224 288.69 303.147 288.251Z" fill="#E0E0E0"/>
<path d="M293.773 285.101C294.092 286.118 294.204 287.19 294.101 288.251L293.773 287.923H294.403H294.995H296.003C296.57 287.986 296.923 288.062 296.923 288.163C296.923 288.263 296.57 288.326 296.003 288.389L294.995 288.465H293.735L293.408 288.137C293.325 287.111 293.449 286.079 293.773 285.101Z" fill="#E0E0E0"/>
<path d="M293.773 273.182C294.092 274.139 294.204 275.152 294.1 276.156C294.203 277.163 294.091 278.181 293.773 279.142C293.446 278.182 293.334 277.163 293.445 276.156C293.334 275.152 293.446 274.137 293.773 273.182Z" fill="#E0E0E0"/>
<path d="M293.774 261.251C294.211 263.217 294.211 265.256 293.774 267.223C293.337 265.256 293.337 263.217 293.774 261.251Z" fill="#E0E0E0"/>
<path d="M293.773 249.332C294.091 250.293 294.203 251.311 294.1 252.318C294.204 253.321 294.092 254.335 293.773 255.291C293.446 254.337 293.334 253.321 293.445 252.318C293.334 251.311 293.446 250.291 293.773 249.332Z" fill="#E0E0E0"/>
<path d="M293.774 237.413C294.092 238.374 294.204 239.392 294.101 240.399C294.212 241.419 294.1 242.451 293.774 243.423C293.447 242.468 293.335 241.453 293.446 240.45C293.328 239.426 293.44 238.388 293.774 237.413Z" fill="#E0E0E0"/>
<path d="M296.86 228.304C295.844 228.63 294.772 228.742 293.71 228.631L294.038 228.304V229.564C294.038 229.942 294.038 230.282 293.962 230.559C293.962 231.126 293.824 231.479 293.735 231.479C293.647 231.479 293.559 231.126 293.496 230.559C293.496 230.282 293.496 229.942 293.496 229.564V228.972V228.304L293.824 227.976C294.847 227.888 295.879 227.999 296.86 228.304Z" fill="#E0E0E0"/>
<path d="M309.435 228.304C307.358 228.742 305.213 228.742 303.136 228.304C305.213 227.865 307.358 227.865 309.435 228.304Z" fill="#E0E0E0"/>
<path d="M322.009 228.304C319.932 228.742 317.786 228.742 315.709 228.304C317.786 227.865 319.932 227.865 322.009 228.304Z" fill="#E0E0E0"/>
<path d="M334.583 228.304C332.506 228.742 330.36 228.742 328.283 228.304C330.36 227.865 332.506 227.865 334.583 228.304Z" fill="#E0E0E0"/>
<path d="M347.156 228.304C345.079 228.742 342.933 228.742 340.856 228.304C342.933 227.865 345.079 227.865 347.156 228.304Z" fill="#E0E0E0"/>
<path d="M356.593 231.454C356.274 230.436 356.162 229.365 356.266 228.304L356.593 228.631H355.963H355.371L354.363 228.568C353.796 228.505 353.443 228.43 353.443 228.329C353.443 228.228 353.796 228.165 354.363 228.102L355.371 228.027H356.631L356.959 228.354C357.05 229.401 356.925 230.456 356.593 231.454Z" fill="#E0E0E0"/>
<path d="M356.593 243.423C356.273 242.466 356.161 241.453 356.265 240.449C356.162 239.442 356.274 238.424 356.593 237.463C356.919 238.423 357.031 239.442 356.92 240.449C357.031 241.453 356.92 242.468 356.593 243.423Z" fill="#E0E0E0"/>
<path d="M356.593 255.291C356.273 254.335 356.161 253.321 356.265 252.318C356.162 251.311 356.274 250.293 356.593 249.332C356.919 250.291 357.031 251.311 356.92 252.318C357.031 253.321 356.92 254.337 356.593 255.291Z" fill="#E0E0E0"/>
<path d="M356.593 267.223C356.156 265.256 356.156 263.217 356.593 261.251C357.03 263.217 357.03 265.256 356.593 267.223Z" fill="#E0E0E0"/>
<path d="M356.593 279.142C356.274 278.181 356.162 277.163 356.265 276.156C356.161 275.152 356.273 274.139 356.593 273.182C356.92 274.137 357.031 275.152 356.92 276.156C357.031 277.163 356.919 278.182 356.593 279.142Z" fill="#E0E0E0"/>
<path d="M479.524 328.178C480.54 327.852 481.613 327.74 482.674 327.851C482.019 328.506 482.485 328.027 482.347 328.166V327.548V326.956C482.347 326.578 482.347 326.238 482.41 325.961C482.473 325.394 482.561 325.041 482.649 325.041C482.737 325.041 482.825 325.394 482.876 325.961C482.876 326.238 482.876 326.578 482.951 326.956C483.027 327.334 482.951 327.359 482.951 327.548V328.166C482.8 328.317 483.279 327.851 482.624 328.506C481.579 328.602 480.526 328.491 479.524 328.178Z" fill="#E0E0E0"/>
<path d="M466.635 328.178C468.759 327.741 470.949 327.741 473.073 328.178C470.949 328.615 468.759 328.615 466.635 328.178Z" fill="#E0E0E0"/>
<path d="M453.783 328.178C455.911 327.741 458.106 327.741 460.234 328.178C458.106 328.615 455.911 328.615 453.783 328.178Z" fill="#E0E0E0"/>
<path d="M440.845 328.178C442.973 327.741 445.167 327.741 447.296 328.178C445.167 328.615 442.973 328.615 440.845 328.178Z" fill="#E0E0E0"/>
<path d="M427.955 328.178C430.083 327.741 432.278 327.741 434.406 328.178C432.278 328.615 430.083 328.615 427.955 328.178Z" fill="#E0E0E0"/>
<path d="M415.066 328.178C417.194 327.741 419.389 327.741 421.517 328.178C419.389 328.615 417.194 328.615 415.066 328.178Z" fill="#E0E0E0"/>
<path d="M402.126 328.178C404.25 327.741 406.44 327.741 408.564 328.178C406.44 328.615 404.25 328.615 402.126 328.178Z" fill="#E0E0E0"/>
<path d="M389.289 328.178C391.413 327.741 393.603 327.741 395.727 328.178C393.603 328.615 391.413 328.615 389.289 328.178Z" fill="#E0E0E0"/>
<path d="M376.387 328.178C378.515 327.741 380.709 327.741 382.838 328.178C380.709 328.615 378.515 328.615 376.387 328.178Z" fill="#E0E0E0"/>
<path d="M366.849 325.028C367.17 326.045 367.281 327.117 367.177 328.178L366.849 327.838H367.479H368.071L369.079 327.901C369.646 327.901 369.999 328.039 369.999 328.14C369.999 328.241 369.646 328.304 369.079 328.367L368.071 328.442H366.811L366.484 328.115C366.393 327.072 366.517 326.021 366.849 325.028Z" fill="#E0E0E0"/>
<path d="M366.85 312.479C367.29 314.556 367.29 316.702 366.85 318.779C366.409 316.702 366.409 314.556 366.85 312.479Z" fill="#E0E0E0"/>
<path d="M366.85 299.943C367.29 302.02 367.29 304.166 366.85 306.242C366.409 304.166 366.409 302.02 366.85 299.943Z" fill="#E0E0E0"/>
<path d="M366.85 287.407C367.29 289.484 367.29 291.63 366.85 293.706C366.409 291.63 366.409 289.484 366.85 287.407Z" fill="#E0E0E0"/>
<path d="M366.85 274.921C367.29 276.998 367.29 279.144 366.85 281.221C366.409 279.144 366.409 276.998 366.85 274.921Z" fill="#E0E0E0"/>
<path d="M366.85 262.322C367.29 264.399 367.29 266.545 366.85 268.621C366.409 266.545 366.409 264.399 366.85 262.322Z" fill="#E0E0E0"/>
<path d="M366.85 249.798C367.29 251.875 367.29 254.021 366.85 256.097C366.409 254.021 366.409 251.875 366.85 249.798Z" fill="#E0E0E0"/>
<path d="M366.85 237.262C367.29 239.338 367.29 241.485 366.85 243.561C366.409 241.485 366.409 239.338 366.85 237.262Z" fill="#E0E0E0"/>
<path d="M369.948 227.85C368.931 228.17 367.86 228.281 366.799 228.178L367.126 227.85V229.11C367.126 229.488 367.126 229.828 367.051 230.106C367.051 230.685 366.912 231.038 366.824 231.038C366.736 231.038 366.647 230.685 366.584 230.106C366.584 229.828 366.584 229.488 366.521 229.11V228.518V227.901L366.849 227.573C367.89 227.454 368.945 227.548 369.948 227.85Z" fill="#E0E0E0"/>
<path d="M382.838 227.85C380.709 228.287 378.515 228.287 376.387 227.85C378.515 227.413 380.709 227.413 382.838 227.85Z" fill="#E0E0E0"/>
<path d="M395.727 227.85C393.603 228.287 391.413 228.287 389.289 227.85C391.413 227.413 393.603 227.413 395.727 227.85Z" fill="#E0E0E0"/>
<path d="M408.615 227.85C406.491 228.287 404.301 228.287 402.177 227.85C404.301 227.413 406.491 227.413 408.615 227.85Z" fill="#E0E0E0"/>
<path d="M421.517 227.85C419.389 228.287 417.194 228.287 415.066 227.85C417.194 227.413 419.389 227.413 421.517 227.85Z" fill="#E0E0E0"/>
<path d="M434.406 227.85C432.278 228.287 430.083 228.287 427.955 227.85C430.083 227.413 432.278 227.413 434.406 227.85Z" fill="#E0E0E0"/>
<path d="M447.296 227.85C445.167 228.287 442.973 228.287 440.845 227.85C442.973 227.413 445.167 227.413 447.296 227.85Z" fill="#E0E0E0"/>
<path d="M460.184 227.85C458.056 228.287 455.861 228.287 453.733 227.85C455.861 227.413 458.056 227.413 460.184 227.85Z" fill="#E0E0E0"/>
<path d="M473.073 227.85C470.949 228.287 468.759 228.287 466.635 227.85C468.759 227.413 470.949 227.413 473.073 227.85Z" fill="#E0E0E0"/>
<path d="M482.674 231C482.348 229.984 482.236 228.912 482.346 227.85L482.674 228.178H481.414L480.406 228.102C479.839 228.102 479.486 227.964 479.486 227.876C479.486 227.787 479.839 227.699 480.406 227.636H481.414H481.994H482.636L482.964 227.964C483.064 228.985 482.966 230.016 482.674 231Z" fill="#E0E0E0"/>
<path d="M482.673 243.536C482.233 241.459 482.233 239.313 482.673 237.237C483.114 239.313 483.114 241.459 482.673 243.536Z" fill="#E0E0E0"/>
<path d="M482.673 256.022C482.233 253.945 482.233 251.799 482.673 249.722C483.114 251.799 483.114 253.945 482.673 256.022Z" fill="#E0E0E0"/>
<path d="M482.673 268.621C482.233 266.545 482.233 264.399 482.673 262.322C483.114 264.399 483.114 266.545 482.673 268.621Z" fill="#E0E0E0"/>
<path d="M482.673 281.145C482.233 279.068 482.233 276.922 482.673 274.845C483.114 276.922 483.114 279.068 482.673 281.145Z" fill="#E0E0E0"/>
<path d="M482.673 293.681C482.233 291.604 482.233 289.458 482.673 287.381C483.114 289.458 483.114 291.604 482.673 293.681Z" fill="#E0E0E0"/>
<path d="M482.673 306.217C482.233 304.141 482.233 301.995 482.673 299.918C483.114 301.995 483.114 304.141 482.673 306.217Z" fill="#E0E0E0"/>
<path d="M482.673 318.753C482.233 316.677 482.233 314.531 482.673 312.454C483.114 314.531 483.114 316.677 482.673 318.753Z" fill="#E0E0E0"/>
<path d="M473.376 605.223C475.453 604.786 477.598 604.786 479.676 605.223C477.598 605.659 475.453 605.659 473.376 605.223Z" fill="#E0E0E0"/>
<path d="M460.777 605.223C462.855 604.786 465 604.786 467.077 605.223C465 605.659 462.855 605.659 460.777 605.223Z" fill="#E0E0E0"/>
<path d="M448.178 605.223C450.255 604.786 452.4 604.786 454.477 605.223C452.4 605.659 450.255 605.659 448.178 605.223Z" fill="#E0E0E0"/>
<path d="M435.579 605.223C437.656 604.786 439.802 604.786 441.879 605.223C439.802 605.659 437.656 605.659 435.579 605.223Z" fill="#E0E0E0"/>
<path d="M422.979 605.223C425.056 604.786 427.201 604.786 429.278 605.223C427.201 605.659 425.056 605.659 422.979 605.223Z" fill="#E0E0E0"/>
<path d="M410.38 605.223C412.457 604.786 414.602 604.786 416.68 605.223C414.602 605.659 412.457 605.659 410.38 605.223Z" fill="#E0E0E0"/>
<path d="M397.78 605.223C399.857 604.786 402.003 604.786 404.08 605.223C402.003 605.659 399.857 605.659 397.78 605.223Z" fill="#E0E0E0"/>
<path d="M385.182 605.223C387.259 604.786 389.404 604.786 391.481 605.223C389.404 605.659 387.259 605.659 385.182 605.223Z" fill="#E0E0E0"/>
<path d="M372.582 605.223C374.659 604.786 376.804 604.786 378.882 605.223C376.804 605.659 374.659 605.659 372.582 605.223Z" fill="#E0E0E0"/>
<path d="M359.983 605.223C362.061 604.786 364.206 604.786 366.283 605.223C364.206 605.659 362.061 605.659 359.983 605.223Z" fill="#E0E0E0"/>
<path d="M347.384 605.223C349.461 604.786 351.606 604.786 353.683 605.223C351.606 605.659 349.461 605.659 347.384 605.223Z" fill="#E0E0E0"/>
<path d="M334.785 605.223C336.862 604.786 339.008 604.786 341.085 605.223C339.008 605.659 336.862 605.659 334.785 605.223Z" fill="#E0E0E0"/>
<path d="M322.185 605.223C324.262 604.786 326.407 604.786 328.484 605.223C326.407 605.659 324.262 605.659 322.185 605.223Z" fill="#E0E0E0"/>
<path d="M309.586 605.223C311.663 604.786 313.808 604.786 315.886 605.223C313.808 605.659 311.663 605.659 309.586 605.223Z" fill="#E0E0E0"/>
<path d="M302.807 599.402C303.133 600.417 303.245 601.49 303.134 602.551C303.146 603.444 303.096 604.337 302.983 605.222L302.807 605.059C303.109 605.059 303.286 605.159 303.286 605.222C303.286 605.285 303.109 605.348 302.807 605.399H302.668V605.197C302.544 604.313 302.489 603.419 302.504 602.526C302.397 601.475 302.499 600.413 302.807 599.402Z" fill="#E0E0E0"/>
<path d="M302.807 586.802C303.244 588.88 303.244 591.025 302.807 593.102C302.37 591.025 302.37 588.88 302.807 586.802Z" fill="#E0E0E0"/>
<path d="M302.807 574.203C303.244 576.28 303.244 578.426 302.807 580.503C302.37 578.426 302.37 576.28 302.807 574.203Z" fill="#E0E0E0"/>
<path d="M303.739 562.524C303.739 562.612 303.386 562.701 302.806 562.751L303.046 562.524C303.113 563.266 303.142 564.01 303.134 564.754C303.244 565.816 303.133 566.888 302.806 567.904C302.487 566.887 302.376 565.816 302.479 564.754C302.474 564.01 302.507 563.265 302.579 562.524V562.272H302.781C303.386 562.348 303.739 562.436 303.739 562.524Z" fill="#E0E0E0"/>
<path d="M316.339 562.524C314.262 562.961 312.116 562.961 310.039 562.524C312.116 562.087 314.262 562.087 316.339 562.524Z" fill="#E0E0E0"/>
<path d="M328.937 562.524C326.86 562.961 324.715 562.961 322.638 562.524C324.715 562.087 326.86 562.087 328.937 562.524Z" fill="#E0E0E0"/>
<path d="M341.537 562.524C339.46 562.961 337.314 562.961 335.237 562.524C337.314 562.087 339.46 562.087 341.537 562.524Z" fill="#E0E0E0"/>
<path d="M354.136 562.524C352.058 562.961 349.913 562.961 347.836 562.524C349.913 562.087 352.058 562.087 354.136 562.524Z" fill="#E0E0E0"/>
<path d="M366.736 562.524C364.659 562.961 362.514 562.961 360.437 562.524C362.514 562.087 364.659 562.087 366.736 562.524Z" fill="#E0E0E0"/>
<path d="M379.335 562.524C377.258 562.961 375.112 562.961 373.035 562.524C375.112 562.087 377.258 562.087 379.335 562.524Z" fill="#E0E0E0"/>
<path d="M391.934 562.524C389.857 562.961 387.712 562.961 385.635 562.524C387.712 562.087 389.857 562.087 391.934 562.524Z" fill="#E0E0E0"/>
<path d="M404.533 562.524C402.456 562.961 400.311 562.961 398.233 562.524C400.311 562.087 402.456 562.087 404.533 562.524Z" fill="#E0E0E0"/>
<path d="M417.133 562.524C415.055 562.961 412.91 562.961 410.833 562.524C412.91 562.087 415.055 562.087 417.133 562.524Z" fill="#E0E0E0"/>
<path d="M429.731 562.524C427.654 562.961 425.509 562.961 423.432 562.524C425.509 562.087 427.654 562.087 429.731 562.524Z" fill="#E0E0E0"/>
<path d="M442.331 562.524C440.254 562.961 438.108 562.961 436.031 562.524C438.108 562.087 440.254 562.087 442.331 562.524Z" fill="#E0E0E0"/>
<path d="M454.93 562.524C452.852 562.961 450.707 562.961 448.63 562.524C450.707 562.087 452.852 562.087 454.93 562.524Z" fill="#E0E0E0"/>
<path d="M467.529 562.524C465.452 562.961 463.307 562.961 461.229 562.524C463.307 562.087 465.452 562.087 467.529 562.524Z" fill="#E0E0E0"/>
<path d="M479.675 562.977C479.612 562.977 479.562 562.814 479.511 562.524L479.675 562.688C478.782 562.813 477.881 562.867 476.979 562.851C475.918 562.956 474.846 562.844 473.829 562.524C474.846 562.203 475.918 562.092 476.979 562.196C477.881 562.18 478.782 562.235 479.675 562.36H479.864V562.499C479.789 562.814 479.738 562.977 479.675 562.977Z" fill="#E0E0E0"/>
<path d="M479.674 575.576C479.237 573.499 479.237 571.354 479.674 569.277C480.111 571.354 480.111 573.499 479.674 575.576Z" fill="#E0E0E0"/>
<path d="M479.674 588.176C479.237 586.099 479.237 583.953 479.674 581.876C480.111 583.953 480.111 586.099 479.674 588.176Z" fill="#E0E0E0"/>
<path d="M479.674 600.775C479.237 598.698 479.237 596.553 479.674 594.476C480.111 596.553 480.111 598.698 479.674 600.775Z" fill="#E0E0E0"/>
<path d="M429.33 422.269H237.494C232.017 422.269 227.578 426.709 227.578 432.185V543.55C227.578 549.026 232.017 553.465 237.494 553.465H429.33C434.806 553.465 439.245 549.026 439.245 543.55V432.185C439.245 426.709 434.806 422.269 429.33 422.269Z" fill="#455A64"/>
<path d="M357.67 490.396C360.758 477.999 353.213 465.446 340.816 462.357C328.42 459.269 315.866 466.815 312.778 479.211C309.689 491.608 317.235 504.161 329.632 507.249C342.028 510.338 354.581 502.792 357.67 490.396Z" fill="#FF725E"/>
<path d="M357.67 490.396C360.758 477.999 353.213 465.446 340.816 462.357C328.42 459.269 315.866 466.815 312.778 479.211C309.689 491.608 317.235 504.161 329.632 507.249C342.028 510.338 354.581 502.792 357.67 490.396Z" fill="url(#paint5_linear_411_883)"/>
<path d="M329.645 491.54V477.882C329.645 477.734 329.683 477.589 329.756 477.46C329.829 477.331 329.934 477.224 330.06 477.147C330.187 477.071 330.332 477.029 330.48 477.026C330.628 477.022 330.774 477.057 330.904 477.126L343.113 484.005C343.247 484.081 343.358 484.191 343.435 484.324C343.512 484.457 343.553 484.608 343.553 484.761C343.553 484.915 343.512 485.066 343.435 485.199C343.358 485.331 343.247 485.441 343.113 485.517L330.917 492.296C330.786 492.364 330.639 492.399 330.49 492.395C330.342 492.391 330.197 492.349 330.07 492.273C329.942 492.197 329.836 492.09 329.762 491.962C329.687 491.833 329.647 491.688 329.645 491.54Z" fill="white"/>
<path d="M411.238 537.375H247.297V538.119H411.238V537.375Z" fill="white"/>
<path d="M298.398 536.569H247.17V538.56H298.398V536.569Z" fill="#FF725E"/>
<path d="M298.398 536.569H247.17V538.56H298.398V536.569Z" fill="url(#paint6_linear_411_883)"/>
<path d="M300.075 537.754C300.075 538.252 299.927 538.739 299.65 539.154C299.373 539.568 298.98 539.891 298.519 540.082C298.059 540.273 297.552 540.322 297.063 540.225C296.575 540.128 296.126 539.888 295.773 539.536C295.421 539.183 295.181 538.734 295.084 538.245C294.986 537.757 295.036 537.25 295.227 536.789C295.418 536.329 295.741 535.935 296.155 535.659C296.569 535.382 297.057 535.234 297.555 535.234C298.223 535.234 298.864 535.499 299.337 535.972C299.809 536.445 300.075 537.085 300.075 537.754Z" fill="#FF725E"/>
<path d="M300.075 537.754C300.075 538.252 299.927 538.739 299.65 539.154C299.373 539.568 298.98 539.891 298.519 540.082C298.059 540.273 297.552 540.322 297.063 540.225C296.575 540.128 296.126 539.888 295.773 539.536C295.421 539.183 295.181 538.734 295.084 538.245C294.986 537.757 295.036 537.25 295.227 536.789C295.418 536.329 295.741 535.935 296.155 535.659C296.569 535.382 297.057 535.234 297.555 535.234C298.223 535.234 298.864 535.499 299.337 535.972C299.809 536.445 300.075 537.085 300.075 537.754Z" fill="url(#paint7_linear_411_883)"/>
<path d="M423.685 537.187H422.941V535.032H425.096V535.776H423.685V537.187Z" fill="white"/>
<path d="M425.096 539.997H422.941V537.842H423.685V539.253H425.096V539.997Z" fill="white"/>
<path d="M428.525 539.997H426.37V539.253H427.781V537.842H428.525V539.997Z" fill="white"/>
<path d="M428.525 537.187H427.781V535.776H426.37V535.032H428.525V537.187Z" fill="white"/>
<path d="M462.604 516.373C462.604 517.173 462.367 517.955 461.923 518.62C461.478 519.285 460.847 519.803 460.108 520.109C459.369 520.416 458.555 520.496 457.771 520.34C456.986 520.184 456.266 519.798 455.7 519.233C455.135 518.667 454.749 517.947 454.593 517.162C454.437 516.377 454.517 515.564 454.823 514.825C455.13 514.086 455.648 513.455 456.313 513.01C456.978 512.566 457.76 512.329 458.56 512.329C459.633 512.329 460.661 512.755 461.42 513.513C462.178 514.272 462.604 515.3 462.604 516.373Z" fill="#263238"/>
<path d="M385.321 594.236C385.321 595.036 385.084 595.818 384.64 596.483C384.195 597.148 383.563 597.667 382.824 597.973C382.085 598.279 381.272 598.359 380.488 598.203C379.703 598.047 378.983 597.662 378.417 597.096C377.851 596.53 377.466 595.81 377.31 595.025C377.154 594.241 377.234 593.428 377.54 592.689C377.846 591.95 378.365 591.318 379.03 590.873C379.695 590.429 380.477 590.192 381.277 590.192C382.349 590.192 383.378 590.618 384.137 591.376C384.895 592.135 385.321 593.164 385.321 594.236Z" fill="#263238"/>
<path d="M434.484 579.42H353.345C346.793 579.413 340.511 576.808 335.877 572.177C331.243 567.545 328.635 561.265 328.625 554.713V553.453H329.885V554.713C329.895 560.93 332.37 566.89 336.768 571.286C341.166 575.681 347.127 578.153 353.345 578.16H434.484C440.7 578.153 446.66 575.681 451.056 571.285C455.452 566.889 457.924 560.929 457.931 554.713V514.886H459.191V554.713C459.184 561.263 456.579 567.544 451.947 572.176C447.315 576.808 441.034 579.413 434.484 579.42Z" fill="#263238"/>
<path d="M381.906 578.323H380.646V593.329H381.906V578.323Z" fill="#263238"/>
<path d="M315.054 238.711C317.531 238.711 319.539 236.703 319.539 234.226C319.539 231.749 317.531 229.74 315.054 229.74C312.577 229.74 310.568 231.749 310.568 234.226C310.568 236.703 312.577 238.711 315.054 238.711Z" fill="#FF725E"/>
<path d="M315.054 238.711C317.531 238.711 319.539 236.703 319.539 234.226C319.539 231.749 317.531 229.74 315.054 229.74C312.577 229.74 310.568 231.749 310.568 234.226C310.568 236.703 312.577 238.711 315.054 238.711Z" fill="url(#paint8_linear_411_883)"/>
<path d="M315.255 233.079C313.298 233.114 311.357 232.724 309.567 231.934C307.776 231.144 306.179 229.974 304.886 228.506C295.247 217.91 297.515 192.724 297.616 191.653C297.616 181.259 294.63 173.245 288.796 167.903C279.41 159.374 265.715 160.583 265.576 160.596L211.248 160.142V158.882L265.5 159.348C266.017 159.348 279.826 158.089 289.628 166.908C295.789 172.502 298.914 180.767 298.914 191.666C298.914 191.981 296.595 217.431 305.856 227.611C307.033 228.947 308.487 230.011 310.116 230.729C311.746 231.447 313.512 231.802 315.293 231.769L315.255 233.079Z" fill="#FF725E"/>
<path d="M315.255 233.079C313.298 233.114 311.357 232.724 309.567 231.934C307.776 231.144 306.179 229.974 304.886 228.506C295.247 217.91 297.515 192.724 297.616 191.653C297.616 181.259 294.63 173.245 288.796 167.903C279.41 159.374 265.715 160.583 265.576 160.596L211.248 160.142V158.882L265.5 159.348C266.017 159.348 279.826 158.089 289.628 166.908C295.789 172.502 298.914 180.767 298.914 191.666C298.914 191.981 296.595 217.431 305.856 227.611C307.033 228.947 308.487 230.011 310.116 230.729C311.746 231.447 313.512 231.802 315.293 231.769L315.255 233.079Z" fill="url(#paint9_linear_411_883)"/>
<path d="M250.37 104H205.579C200.145 104 195.739 108.406 195.739 113.84V158.63C195.739 164.065 200.145 168.47 205.579 168.47H250.37C255.804 168.47 260.21 164.065 260.21 158.63V113.84C260.21 108.406 255.804 104 250.37 104Z" fill="#FF725E"/>
<path d="M250.37 104H205.579C200.145 104 195.739 108.406 195.739 113.84V158.63C195.739 164.065 200.145 168.47 205.579 168.47H250.37C255.804 168.47 260.21 164.065 260.21 158.63V113.84C260.21 108.406 255.804 104 250.37 104Z" fill="url(#paint10_linear_411_883)"/>
<path d="M231.08 136.796C232.655 136.1 233.991 134.958 234.925 133.512C235.858 132.066 236.348 130.378 236.334 128.657C236.416 127.526 236.264 126.39 235.889 125.32C235.513 124.25 234.922 123.268 234.151 122.436C233.38 121.604 232.447 120.94 231.409 120.483C230.371 120.027 229.25 119.789 228.116 119.784C226.982 119.778 225.859 120.006 224.817 120.453C223.774 120.9 222.835 121.556 222.057 122.381C221.279 123.206 220.678 124.182 220.293 125.248C219.908 126.315 219.745 127.449 219.817 128.581C219.789 130.317 220.274 132.022 221.21 133.483C222.147 134.944 223.494 136.097 225.083 136.796C212.383 138.711 212.95 152.52 212.95 152.52L242.987 152.658C242.987 152.658 243.68 138.698 231.08 136.796Z" fill="white"/>
<path d="M423.068 264.388C423.068 265.151 422.842 265.897 422.418 266.532C421.993 267.166 421.39 267.66 420.685 267.951C419.98 268.243 419.204 268.318 418.456 268.169C417.708 268.019 417.021 267.65 416.482 267.11C415.943 266.57 415.577 265.881 415.43 265.133C415.283 264.384 415.361 263.608 415.655 262.904C415.948 262.2 416.444 261.599 417.08 261.177C417.716 260.754 418.462 260.53 419.225 260.533C419.731 260.533 420.232 260.633 420.699 260.827C421.166 261.021 421.59 261.305 421.947 261.663C422.304 262.021 422.587 262.446 422.779 262.914C422.972 263.382 423.07 263.883 423.068 264.388Z" fill="#263238"/>
<path d="M552.299 372.704L549.187 290.507C549.187 276.219 539.485 264.603 527.566 264.603H421.519V263.343H527.566C540.166 263.343 550.447 275.514 550.447 290.482L553.559 372.654L552.299 372.704Z" fill="#263238"/>
<path d="M638.1 291.187H486.682C477.928 291.187 470.832 298.283 470.832 307.037V402.829C470.832 411.582 477.928 418.679 486.682 418.679H638.1C646.853 418.679 653.949 411.582 653.949 402.829V307.037C653.949 298.283 646.853 291.187 638.1 291.187Z" fill="#FAFAFA"/>
<path d="M638.086 418.679C640.102 418.61 642.09 418.183 643.957 417.419C646.621 416.322 648.937 414.522 650.658 412.212C652.38 409.903 653.443 407.169 653.734 404.303C653.873 402.451 653.734 400.448 653.797 398.369C653.86 396.29 653.797 394.098 653.797 391.817C653.797 387.244 653.797 382.28 653.797 376.938C653.797 366.266 653.797 354.108 653.797 340.677C653.797 333.957 653.797 326.927 653.797 319.586V308.36C653.889 306.462 653.681 304.561 653.18 302.728C652.375 299.886 650.776 297.332 648.572 295.366C646.367 293.4 643.647 292.103 640.732 291.628C638.703 291.404 636.66 291.332 634.621 291.414H602.279H486.693C484.179 291.427 481.706 292.049 479.485 293.228C477.265 294.406 475.363 296.105 473.943 298.18C472.533 300.223 471.63 302.572 471.31 305.034C471.175 306.268 471.128 307.51 471.171 308.751V312.53C471.171 322.509 471.171 332.336 471.171 342.013C471.171 361.352 471.171 379.999 471.171 397.777V401.09C471.171 402.199 471.171 403.295 471.247 404.366C471.444 406.501 472.088 408.57 473.137 410.439C474.169 412.27 475.558 413.875 477.222 415.158C478.887 416.442 480.792 417.378 482.825 417.91C484.842 418.361 486.91 418.535 488.974 418.427H507.192H551.151L614.79 418.528L632.089 418.591H636.599C637.607 418.591 638.124 418.591 638.124 418.591H636.599H632.089L614.79 418.654L551.151 418.767H507.192H488.936C486.822 418.878 484.702 418.7 482.636 418.238C480.522 417.694 478.539 416.729 476.807 415.399C475.075 414.07 473.629 412.404 472.557 410.502C471.466 408.563 470.792 406.417 470.579 404.202C470.503 403.081 470.491 401.972 470.503 400.876V397.563C470.503 379.785 470.503 361.138 470.503 341.798V308.751C470.468 307.489 470.518 306.226 470.655 304.971C470.988 302.409 471.93 299.963 473.401 297.84C474.89 295.692 476.877 293.938 479.192 292.727C481.507 291.516 484.081 290.884 486.693 290.885H602.279H634.508C636.577 290.814 638.649 290.894 640.706 291.124C643.724 291.624 646.538 292.972 648.818 295.011C651.098 297.05 652.751 299.696 653.583 302.64C654.092 304.523 654.3 306.475 654.2 308.423V319.649C654.2 326.982 654.2 334.012 654.2 340.74C654.2 354.171 654.2 366.329 654.2 377.001C654.2 382.343 654.2 387.303 654.2 391.88C654.2 394.161 654.2 396.353 654.2 398.432C654.2 400.511 654.2 402.501 654.099 404.391C653.755 407.755 652.352 410.922 650.093 413.438C648.459 415.277 646.413 416.702 644.121 417.595C642.716 418.15 641.24 418.503 639.736 418.641C638.602 418.679 638.086 418.679 638.086 418.679Z" fill="#263238"/>
<path d="M522.739 297.6H483.253C481.736 297.6 480.281 298.203 479.209 299.275C478.136 300.348 477.533 301.803 477.533 303.32V367.576H539.458L522.739 297.6Z" fill="#455A64"/>
<path d="M528.271 297.537L546.339 367.501H616.869L595.022 297.537H528.271Z" fill="#FF725E"/>
<path d="M528.271 297.537L546.339 367.501H616.869L595.022 297.537H528.271Z" fill="url(#paint11_linear_411_883)"/>
<path d="M603.351 297.6L617.348 341.193L645.76 303.307C645.76 301.794 645.158 300.342 644.088 299.272C643.018 298.201 641.566 297.6 640.052 297.6H603.351Z" fill="#E0E0E0"/>
<path d="M645.759 310.917L619.427 347.354L640.052 409.733C641.565 409.733 643.017 409.132 644.087 408.062C645.158 406.991 645.759 405.54 645.759 404.026V310.917Z" fill="#455A64"/>
<path d="M631.811 409.721L619.728 371.671L531.269 373.006L515.583 410.061L631.811 409.721Z" fill="#263238"/>
<path d="M509.22 409.733L525.599 373.019H477.533V404.013C477.533 404.764 477.681 405.508 477.969 406.202C478.256 406.896 478.677 407.527 479.209 408.058C479.74 408.589 480.37 409.01 481.064 409.298C481.758 409.585 482.502 409.733 483.253 409.733H509.22Z" fill="#E0E0E0"/>
<g opacity="0.3">
<path d="M579.248 334.138C579.248 335.498 574.309 336.595 568.211 336.595C562.113 336.595 557.161 335.498 557.161 334.138C557.161 332.777 562.113 331.618 568.211 331.618C574.309 331.618 579.248 332.878 579.248 334.138Z" fill="black"/>
</g>
<path d="M589.025 302.337C589.034 299.133 588.302 295.969 586.888 293.093C585.474 290.217 583.416 287.706 580.873 285.756C578.33 283.805 575.371 282.468 572.226 281.849C569.082 281.229 565.837 281.343 562.744 282.182C559.651 283.022 556.794 284.563 554.394 286.688C551.994 288.812 550.117 291.461 548.909 294.43C547.701 297.398 547.194 300.605 547.428 303.801C547.661 306.998 548.63 310.097 550.257 312.858L550.32 312.946C551.114 314.282 552.122 315.252 553.13 316.663L565.213 332.676C565.565 333.139 566.02 333.513 566.541 333.771C567.062 334.029 567.636 334.163 568.217 334.163C568.799 334.163 569.373 334.029 569.894 333.771C570.415 333.513 570.87 333.139 571.222 332.676L583.103 316.927C584.19 315.65 585.204 314.313 586.14 312.921C588.036 309.717 589.033 306.061 589.025 302.337ZM568.211 311.459C566.396 311.462 564.621 310.926 563.111 309.919C561.6 308.912 560.423 307.48 559.727 305.803C559.031 304.126 558.848 302.281 559.202 300.501C559.555 298.72 560.429 297.085 561.713 295.801C562.996 294.518 564.632 293.644 566.412 293.29C568.193 292.937 570.038 293.12 571.714 293.815C573.391 294.511 574.823 295.689 575.83 297.199C576.837 298.709 577.373 300.485 577.371 302.3C577.367 304.728 576.401 307.056 574.684 308.773C572.967 310.49 570.639 311.456 568.211 311.459Z" fill="#455A64"/>
<rect x="55.5" y="53.5" width="629" height="640" rx="16.5" stroke="#D2D2D2"/>
<defs>
<filter id="filter0_d_411_883" x="0.200001" y="0.200001" width="739.6" height="753.6" filterUnits="userSpaceOnUse" color-interpolation-filters="sRGB">
<feFlood flood-opacity="0" result="BackgroundImageFix"/>
<feColorMatrix in="SourceAlpha" type="matrix" values="0 0 0 0 0 0 0 0 0 0 0 0 0 0 0 0 0 0 127 0" result="hardAlpha"/>
<feOffset dy="4"/>
<feGaussianBlur stdDeviation="22.9"/>
<feComposite in2="hardAlpha" operator="out"/>
<feColorMatrix type="matrix" values="0 0 0 0 0.3375 0 0 0 0 0.3375 0 0 0 0 0.3375 0 0 0 0.15 0"/>
<feBlend mode="normal" in2="BackgroundImageFix" result="effect1_dropShadow_411_883"/>
<feBlend mode="normal" in="SourceGraphic" in2="effect1_dropShadow_411_883" result="shape"/>
</filter>
<linearGradient id="paint0_linear_411_883" x1="569.997" y1="242.686" x2="666.373" y2="199.182" gradientUnits="userSpaceOnUse">
<stop stop-color="#E75778"/>
<stop offset="0.888634" stop-color="#8876FF"/>
</linearGradient>
<linearGradient id="paint1_linear_411_883" x1="641.293" y1="137.177" x2="545.803" y2="180.291" gradientUnits="userSpaceOnUse">
<stop stop-color="#E75778"/>
<stop offset="0.888634" stop-color="#8876FF"/>
</linearGradient>
<linearGradient id="paint2_linear_411_883" x1="573.004" y1="230.82" x2="645.756" y2="199.305" gradientUnits="userSpaceOnUse">
<stop stop-color="#E75778"/>
<stop offset="0.888634" stop-color="#8876FF"/>
</linearGradient>
<linearGradient id="paint3_linear_411_883" x1="93.4105" y1="479.593" x2="118.314" y2="418.087" gradientUnits="userSpaceOnUse">
<stop stop-color="#E75778"/>
<stop offset="0.888634" stop-color="#8876FF"/>
</linearGradient>
<linearGradient id="paint4_linear_411_883" x1="283.589" y1="600.46" x2="562.547" y2="511.354" gradientUnits="userSpaceOnUse">
<stop stop-color="#E75778"/>
<stop offset="0.888634" stop-color="#8876FF"/>
</linearGradient>
<linearGradient id="paint5_linear_411_883" x1="348.808" y1="509.405" x2="332.09" y2="461.437" gradientUnits="userSpaceOnUse">
<stop stop-color="#E75778"/>
<stop offset="0.888634" stop-color="#8876FF"/>
</linearGradient>
<linearGradient id="paint6_linear_411_883" x1="249.987" y1="538.388" x2="250.224" y2="534.411" gradientUnits="userSpaceOnUse">
<stop stop-color="#E75778"/>
<stop offset="0.888634" stop-color="#8876FF"/>
</linearGradient>
<linearGradient id="paint7_linear_411_883" x1="295.312" y1="539.837" x2="299.942" y2="536.807" gradientUnits="userSpaceOnUse">
<stop stop-color="#E75778"/>
<stop offset="0.888634" stop-color="#8876FF"/>
</linearGradient>
<linearGradient id="paint8_linear_411_883" x1="311.062" y1="237.935" x2="319.303" y2="232.541" gradientUnits="userSpaceOnUse">
<stop stop-color="#E75778"/>
<stop offset="0.888634" stop-color="#8876FF"/>
</linearGradient>
<linearGradient id="paint9_linear_411_883" x1="216.97" y1="226.66" x2="291.081" y2="158.645" gradientUnits="userSpaceOnUse">
<stop stop-color="#E75778"/>
<stop offset="0.888634" stop-color="#8876FF"/>
</linearGradient>
<linearGradient id="paint10_linear_411_883" x1="199.285" y1="162.891" x2="258.514" y2="124.126" gradientUnits="userSpaceOnUse">
<stop stop-color="#E75778"/>
<stop offset="0.888634" stop-color="#8876FF"/>
</linearGradient>
<linearGradient id="paint11_linear_411_883" x1="533.144" y1="361.446" x2="602.063" y2="304.325" gradientUnits="userSpaceOnUse">
<stop stop-color="#E75778"/>
<stop offset="0.888634" stop-color="#8876FF"/>
</linearGradient>
</defs>
</svg>
