<svg width="1287" height="313" viewBox="0 0 1287 313" fill="none" xmlns="http://www.w3.org/2000/svg">
<g opacity="0.09">
<path d="M1209.81 257H1196.96L1195.35 245.767C1190.06 244.712 1185.03 242.612 1180.56 239.589L1171.57 246.373L1162.48 237.284L1169.28 228.209C1166.3 223.732 1164.24 218.709 1163.21 213.429L1152 211.818V198.975L1163.25 197.364C1164.3 192.073 1166.4 187.047 1169.43 182.584L1162.59 173.554L1171.66 164.464L1180.75 171.278C1185.23 168.281 1190.25 166.211 1195.54 165.188L1197.14 154H1210.01L1211.61 165.233C1216.9 166.285 1221.93 168.386 1226.39 171.411L1235.44 164.627L1244.52 173.716L1237.72 182.791C1240.7 187.268 1242.77 192.291 1243.81 197.571L1255 199.167V211.981L1243.76 213.577C1242.7 218.862 1240.6 223.885 1237.58 228.357L1244.37 237.402L1235.28 246.492L1226.27 239.722C1221.8 242.713 1216.77 244.783 1211.49 245.812L1209.81 257ZM1198.23 255.522H1208.58L1210.16 244.541L1210.68 244.452C1216.14 243.471 1221.33 241.34 1225.91 238.2L1226.33 237.905L1235.2 244.585L1242.49 237.299L1235.84 228.431L1236.14 228.002C1239.3 223.449 1241.46 218.275 1242.48 212.823L1242.58 212.306L1253.6 210.725V200.379L1242.54 198.871L1242.45 198.339C1241.46 192.885 1239.33 187.701 1236.19 183.131L1235.9 182.687L1242.57 173.82L1235.29 166.548L1226.42 173.199L1225.99 172.889C1221.44 169.731 1216.26 167.57 1210.81 166.548L1210.28 166.459L1208.71 155.448H1198.36L1196.8 166.415L1196.26 166.504C1190.8 167.492 1185.61 169.622 1181.04 172.755L1180.61 173.051L1171.74 166.385L1164.46 173.657L1171.12 182.525L1170.81 182.968C1167.64 187.523 1165.48 192.696 1164.46 198.147L1164.36 198.664L1153.42 200.157V210.503L1164.4 212.07L1164.49 212.587C1165.48 218.045 1167.61 223.233 1170.75 227.81L1171.04 228.239L1164.37 237.106L1171.65 244.393L1180.52 237.742L1180.96 238.038C1185.51 241.206 1190.69 243.368 1196.14 244.378L1196.66 244.482L1198.23 255.522ZM1203.49 234.254C1197.8 234.254 1192.23 232.565 1187.49 229.402C1182.76 226.238 1179.07 221.742 1176.89 216.481C1174.71 211.22 1174.14 205.431 1175.25 199.846C1176.36 194.261 1179.1 189.131 1183.13 185.105C1187.16 181.078 1192.29 178.336 1197.87 177.225C1203.46 176.114 1209.25 176.685 1214.51 178.864C1219.78 181.043 1224.27 184.733 1227.44 189.468C1230.6 194.202 1232.29 199.769 1232.29 205.463C1232.28 213.096 1229.25 220.415 1223.85 225.813C1218.45 231.21 1211.13 234.246 1203.49 234.254ZM1203.49 178.091C1198.09 178.091 1192.81 179.693 1188.31 182.694C1183.82 185.695 1180.32 189.961 1178.25 194.952C1176.18 199.943 1175.64 205.434 1176.7 210.732C1177.75 216.031 1180.35 220.897 1184.17 224.717C1187.99 228.537 1192.86 231.138 1198.16 232.192C1203.46 233.246 1208.96 232.705 1213.95 230.638C1218.94 228.571 1223.21 225.07 1226.21 220.578C1229.21 216.087 1230.81 210.806 1230.81 205.404C1230.79 198.173 1227.9 191.245 1222.78 186.138C1217.66 181.03 1210.73 178.158 1203.49 178.15V178.091Z" fill="#263238"/>
<path d="M1254.75 313H1245.2L1244.05 304.935C1240.36 304.181 1236.84 302.711 1233.71 300.608L1227.22 305.482L1220.41 298.717L1225.3 292.203C1223.22 289.065 1221.77 285.554 1221.03 281.864L1213 280.727V271.17L1221.06 270.018C1221.83 266.326 1223.3 262.816 1225.39 259.679L1220.56 253.165L1227.31 246.415L1233.82 251.304C1236.95 249.224 1240.46 247.774 1244.15 247.035L1245.3 239H1254.86L1256.01 247.065C1259.7 247.825 1263.21 249.295 1266.34 251.392L1272.83 246.533L1279.59 253.283L1274.7 259.797C1276.77 262.94 1278.22 266.449 1278.97 270.136L1287 271.288V280.845L1278.94 281.997C1278.17 285.692 1276.7 289.203 1274.6 292.336L1279.47 298.82L1272.72 305.57L1266.21 300.696C1263.05 302.773 1259.51 304.222 1255.8 304.965L1254.75 313ZM1246.49 311.523H1253.47L1254.59 303.724L1255.11 303.621C1258.98 302.923 1262.66 301.412 1265.9 299.19L1266.33 298.894L1272.66 303.636L1277.61 298.702L1272.87 292.38L1273.18 291.952C1275.4 288.714 1276.91 285.045 1277.61 281.184L1277.71 280.667L1285.55 279.545V272.558L1277.74 271.436L1277.64 270.919C1276.94 267.047 1275.43 263.368 1273.21 260.122L1272.91 259.679L1277.67 253.342L1272.72 248.409L1266.48 253.165L1266.03 252.869C1262.8 250.627 1259.14 249.091 1255.27 248.364L1254.75 248.276L1253.63 240.433H1246.65L1245.53 248.246L1245.01 248.335C1241.14 249.033 1237.46 250.543 1234.22 252.766L1233.77 253.076L1227.45 248.32L1222.51 253.268L1227.25 259.575L1226.94 260.018C1224.71 263.25 1223.2 266.922 1222.51 270.786L1222.41 271.303L1214.51 272.366V279.353L1222.32 280.461L1222.42 280.992C1223.11 284.866 1224.62 288.547 1226.85 291.79L1227.14 292.218L1222.39 298.554L1227.34 303.503L1233.64 298.761L1234.08 299.071C1237.32 301.291 1240.99 302.801 1244.85 303.503L1245.36 303.606L1246.49 311.523ZM1250.06 296.752C1245.95 296.752 1241.93 295.534 1238.52 293.25C1235.1 290.966 1232.44 287.721 1230.87 283.923C1229.29 280.126 1228.88 275.947 1229.68 271.916C1230.49 267.885 1232.46 264.182 1235.37 261.275C1238.28 258.369 1241.98 256.39 1246.01 255.588C1250.04 254.786 1254.21 255.197 1258.01 256.77C1261.8 258.343 1265.05 261.007 1267.33 264.425C1269.61 267.842 1270.83 271.86 1270.83 275.97C1270.83 281.481 1268.64 286.765 1264.74 290.661C1260.85 294.558 1255.57 296.749 1250.06 296.752ZM1250.06 256.665C1246.24 256.665 1242.51 257.798 1239.34 259.919C1236.16 262.04 1233.69 265.055 1232.23 268.583C1230.77 272.11 1230.39 275.992 1231.13 279.737C1231.88 283.481 1233.72 286.921 1236.41 289.621C1239.11 292.321 1242.55 294.16 1246.29 294.904C1250.04 295.649 1253.92 295.267 1257.44 293.806C1260.97 292.345 1263.98 289.87 1266.1 286.696C1268.22 283.521 1269.36 279.789 1269.36 275.97C1269.35 270.852 1267.32 265.944 1263.7 262.324C1260.08 258.705 1255.18 256.669 1250.06 256.665Z" fill="#263238"/>
<path d="M52.2175 154H40.6359L39.1831 143.865C34.4159 142.907 29.8859 141.013 25.8555 138.291L17.6457 144.399L9.44927 136.211L15.58 128.01C12.8873 123.972 11.0252 119.439 10.1023 114.674L0 113.234V101.632L10.1823 100.099C11.1422 95.3275 13.0404 90.7946 15.7666 86.7637L9.64918 78.6425L17.8457 70.4547L26.0288 76.5889C30.0657 73.896 34.5952 72.0288 39.3564 71.0948L40.7958 61H52.3908L53.8302 71.1348C58.5962 72.0966 63.1254 73.9909 67.1578 76.7089L75.3143 70.588L83.5507 78.7626L77.42 86.9637C80.1114 91.003 81.9775 95.535 82.911 100.299L93 101.739V113.434L82.871 114.888C81.9196 119.66 80.0256 124.193 77.3001 128.223L83.4174 136.384L75.221 144.585L67.0245 138.451C62.9892 141.144 58.4587 143.007 53.6969 143.932L52.2175 154ZM41.782 152.666H51.1113L52.4841 142.772L52.9506 142.692C57.8725 141.8 62.5506 139.878 66.678 137.051L67.0645 136.784L75.0611 142.798L81.6182 136.224L75.6208 128.223L75.8874 127.823C78.7493 123.718 80.7031 119.049 81.6182 114.128L81.7115 113.661L91.6406 112.247V102.913L81.7382 101.486L81.6582 101.019C80.7673 96.0943 78.8462 91.4136 76.0206 87.2838L75.7541 86.8971L81.7648 78.8959L75.2076 72.3216L67.2111 78.3225L66.8246 78.0558C62.7179 75.2016 58.0527 73.2517 53.1371 72.335L52.6574 72.2416L51.2446 62.3069H41.9153L40.5026 72.2149L40.0228 72.295C35.1042 73.1839 30.43 75.1064 26.3087 77.9358L25.9089 78.2025L17.9123 72.1883L11.4084 78.7626L17.4058 86.7637L17.126 87.1638C14.2765 91.2696 12.328 95.9325 11.4084 100.846L11.3151 101.326L1.38607 102.766V112.101L11.2885 113.434L11.3684 113.914C12.2568 118.836 14.1783 123.513 17.006 127.636L17.2726 128.036L11.2618 136.037L17.819 142.598L25.8156 136.598L26.2154 136.878C30.3161 139.751 34.9826 141.715 39.9028 142.638L40.3693 142.732L41.782 152.666ZM46.5266 133.437C40.5233 133.435 34.7063 131.351 30.0667 127.539C25.427 123.727 22.2519 118.424 21.0822 112.532C19.9124 106.641 20.8206 100.525 23.6518 95.2286C26.483 89.9318 31.0621 85.7811 36.609 83.4837C42.1559 81.1863 48.3273 80.8843 54.0717 82.6293C59.8161 84.3742 64.7782 88.0581 68.1124 93.0532C71.4466 98.0484 72.9467 104.046 72.357 110.023C71.7674 116.001 69.1246 121.589 64.8788 125.836C62.4716 128.251 59.6109 130.166 56.4613 131.47C53.3117 132.775 49.9354 133.443 46.5266 133.437ZM46.5266 82.8431C40.8319 82.8491 35.3154 84.8306 30.917 88.4498C26.5186 92.069 23.5104 97.1022 22.4048 102.692C21.2993 108.281 22.1649 114.082 24.8541 119.104C27.5433 124.127 31.8897 128.061 37.1529 130.237C42.4161 132.413 48.2705 132.696 53.7186 131.037C59.1666 129.378 63.8714 125.881 67.0314 121.14C70.1913 116.4 71.6109 110.71 71.0482 105.04C70.4856 99.3698 67.9756 94.0703 63.9458 90.0442C61.6578 87.7591 58.9411 85.949 55.9518 84.7178C52.9624 83.4865 49.7593 82.8585 46.5266 82.8698V82.8431Z" fill="#263238"/>
<path d="M65.7067 67H57.1194L56.0761 59.7011C52.7328 59.0069 49.5542 57.6772 46.7129 55.7843L40.8275 60.1824L34.7147 54.0732L39.1421 48.178C37.2587 45.3388 35.9457 42.1606 35.2765 38.8204L28 37.7777V29.1287L35.3033 28.086C35.9918 24.7429 37.3228 21.565 39.2224 18.7284L34.7281 12.8198L40.8409 6.71069L46.7397 11.1221C49.5861 9.25015 52.7641 7.93886 56.1028 7.25877L57.1461 0H65.8004L66.8437 7.28551C70.1888 7.98097 73.368 9.31546 76.2068 11.2157L82.0789 6.80427L88.2719 12.8198L83.8712 18.7819C85.7481 21.6246 87.0605 24.8015 87.7369 28.1395L95 29.1688V37.8178L87.7101 38.8605C87.0168 42.2044 85.6814 45.3823 83.7776 48.2181L88.1917 54.1L82.0655 60.2091L76.1667 55.7843C73.327 57.6688 70.1464 58.9811 66.8036 59.6476L65.7067 67ZM58.2162 65.6632H64.543L65.5462 58.5916L66.0278 58.5114C69.5354 57.8851 72.8689 56.5178 75.8056 54.501L76.1935 54.2336L81.9317 58.5381L86.4127 54.0599L82.119 48.3518L82.3999 47.9507C84.4101 45.0215 85.7777 41.7004 86.4127 38.2055L86.5063 37.7376L93.5955 36.7217V30.3986L86.5464 29.3693V28.8613C85.9142 25.3574 84.5466 22.027 82.5336 19.0894L82.2661 18.7017L86.5464 13.007L82.0789 8.52873L76.3138 12.8198L75.9259 12.5391C72.9938 10.5322 69.6712 9.16568 66.1749 8.52873L65.7067 8.43515L64.6902 1.35015H58.3633L57.3468 8.40841L56.8786 8.50199C53.3726 9.13378 50.0402 10.5006 47.1008 12.5124L46.6995 12.7797L40.9613 8.48863L36.4937 12.9535L40.774 18.675L40.5065 19.0626C38.4991 21.9934 37.1318 25.3139 36.4937 28.8079L36.4135 29.2757L29.3108 30.2917V36.6147L36.3867 37.6307L36.467 38.0986C37.0991 41.6025 38.4667 44.9329 40.4797 47.8705L40.7606 48.2716L36.4536 54.0064L40.9345 58.4713L46.646 54.1935L47.0473 54.4609C49.9776 56.4714 53.3009 57.8382 56.7984 58.4713L57.2665 58.5515L58.2162 65.6632ZM61.4532 52.2953C57.102 52.2792 52.8909 50.7569 49.5363 47.9873C46.1818 45.2177 43.8911 41.372 43.0542 37.1047C42.2172 32.8373 42.8856 28.4119 44.9458 24.5816C47.0059 20.7513 50.3303 17.7528 54.3534 16.0962C58.3766 14.4397 62.8497 14.2276 67.0117 15.4959C71.1737 16.7642 74.7674 19.4346 77.1812 23.0527C79.595 26.6708 80.6798 31.013 80.2509 35.3405C79.8221 39.6679 77.9061 43.7131 74.8291 46.7877C73.0753 48.5439 70.9896 49.9341 68.6932 50.8773C66.3969 51.8205 63.9358 52.298 61.4532 52.2819V52.2953ZM61.4532 16.0148C57.4049 16.0123 53.4811 17.413 50.3504 19.978C47.2197 22.543 45.076 26.1137 44.2845 30.0815C43.4931 34.0493 44.1029 38.1685 46.01 41.7373C47.9171 45.306 51.0036 48.1034 54.7433 49.6526C58.483 51.2018 62.6446 51.407 66.5187 50.2331C70.3928 49.0593 73.7398 46.5791 75.9891 43.2152C78.2384 39.8514 79.2509 35.8121 78.854 31.7857C78.4571 27.7594 76.6754 23.9952 73.8125 21.1347C72.1939 19.5055 70.2682 18.2131 68.1468 17.332C66.0255 16.4509 63.7504 15.9987 61.4532 16.0014V16.0148Z" fill="#263238"/>
</g>
</svg>
