<svg width="170" height="167" viewBox="0 0 170 167" fill="none" xmlns="http://www.w3.org/2000/svg">
<g filter="url(#filter0_d_7_199)">
<rect x="51.262" y="46.5" width="67.3429" height="65.3714" rx="7.5" stroke="url(#paint0_linear_7_199)" shape-rendering="crispEdges"/>
</g>
<path d="M87.194 94.5073C87.194 94.6267 87.1471 94.7411 87.0635 94.8255C86.9799 94.9099 86.8665 94.9573 86.7483 94.9573H83.3909C83.2727 94.9573 83.1594 94.9099 83.0758 94.8255C82.9922 94.7411 82.9452 94.6267 82.9452 94.5073C82.9452 94.388 82.9922 94.2735 83.0758 94.1891C83.1594 94.1047 83.2727 94.0573 83.3909 94.0573H86.7483C86.8665 94.0573 86.9799 94.1047 87.0635 94.1891C87.1471 94.2735 87.194 94.388 87.194 94.5073ZM105.634 91.1153V96.289C105.634 98.0044 104.252 99.3999 102.553 99.3999H92.8766C91.7215 99.3999 90.7133 98.7545 90.1859 97.8024H79.0868C76.8487 97.8024 75.0278 95.9641 75.0278 93.7045V81.2268H72.6674C72.5492 81.2268 72.4358 81.1794 72.3522 81.095C72.2687 81.0106 72.2217 80.8962 72.2217 80.7768V69.7053H67.7877C66.0457 69.7053 64.6286 68.2745 64.6286 66.5158V61.1894C64.6286 59.4307 66.0457 58 67.7876 58H77.547C79.2889 58 80.7061 59.4307 80.7061 61.1894V63.8743H91.0523C92.4126 63.8743 93.6795 64.5758 94.4271 65.703L99.5186 60.5626C99.6022 60.4782 99.7155 60.4308 99.8337 60.4308C99.952 60.4308 100.065 60.4782 100.149 60.5626L102.156 62.5887C102.197 62.6304 102.23 62.68 102.252 62.7346C102.275 62.7892 102.286 62.8477 102.286 62.9068C102.286 62.9659 102.275 63.0244 102.252 63.079C102.23 63.1336 102.197 63.1832 102.156 63.225L95.1114 70.3373V84.917H97.7148C97.833 84.917 97.9464 84.9644 98.0299 85.0488C98.1135 85.1332 98.1605 85.2477 98.1605 85.367V88.0046H102.553C104.252 88.0044 105.634 89.4 105.634 91.1153ZM95.1114 85.8168V88.0044H97.2691V85.8168H95.1114ZM88.7181 72.7396L88.0928 74.7607L90.0947 74.1294L101.21 62.9067L99.8339 61.5171L88.7181 72.7396ZM88.787 75.4847L87.5467 75.8758C87.4691 75.9003 87.3863 75.9029 87.3073 75.8833C87.2283 75.8637 87.1562 75.8226 87.0987 75.7645C87.0411 75.7064 87.0005 75.6336 86.981 75.5538C86.9616 75.4741 86.9641 75.3905 86.9884 75.3121L87.4404 73.8512C86.7474 73.3552 85.9191 73.0884 85.0697 73.0877C82.9607 73.0877 81.2188 74.7045 80.9959 76.7749H89.1432C89.0947 76.3281 88.9744 75.8924 88.787 75.4847ZM85.0696 72.1877C86.0473 72.1877 86.8427 71.3846 86.8427 70.3975C86.8427 69.4104 86.0473 68.6073 85.0696 68.6073C84.092 68.6073 83.2965 69.4104 83.2965 70.3975C83.2965 71.3846 84.0919 72.1877 85.0696 72.1877ZM67.7876 68.8053H77.547C78.7974 68.8053 79.8147 67.7782 79.8147 66.5159V61.1894C79.8147 59.9271 78.7974 58.9 77.547 58.9H67.7876C66.5373 58.9 65.52 59.9271 65.52 61.1894V66.5158C65.52 67.7781 66.5373 68.8053 67.7876 68.8053ZM75.0278 80.3268V69.7053H73.1131V80.3269H75.0278V80.3268ZM78.9848 81.9748V81.2268H75.9192V91.4976H89.7952V91.1153C89.7952 89.3999 91.1775 88.0044 92.8765 88.0044H94.2198V85.8168H91.1543V86.5648C91.1543 86.6842 91.1073 86.7986 91.0238 86.883C90.9402 86.9674 90.8268 87.0148 90.7086 87.0148H79.4305C79.3123 87.0148 79.1989 86.9674 79.1153 86.883C79.0317 86.7986 78.9848 86.6842 78.9848 86.5648V84.1689C78.9848 84.0495 79.0317 83.935 79.1153 83.8507C79.1989 83.7663 79.3123 83.7189 79.4305 83.7189H90.7087C90.7672 83.7189 90.8252 83.7305 90.8792 83.7531C90.9333 83.7757 90.9825 83.8089 91.0238 83.8507C91.0652 83.8924 91.0981 83.942 91.1205 83.9966C91.1429 84.0512 91.1544 84.1098 91.1544 84.1689V84.9169H94.2199V71.2372L90.6474 74.844C90.5965 74.8955 90.5339 74.9337 90.4651 74.9554L89.6444 75.2142C89.9176 75.8486 90.0586 76.533 90.0588 77.2248C90.0588 77.3442 90.0119 77.4586 89.9283 77.543C89.8447 77.6274 89.7313 77.6748 89.6131 77.6748H80.5261C80.4079 77.6748 80.2945 77.6274 80.2109 77.543C80.1273 77.4586 80.0804 77.3442 80.0804 77.2248C80.0804 75.0427 81.4621 73.1809 83.3884 72.4826C82.7888 71.9889 82.405 71.2376 82.405 70.3974C82.405 68.9141 83.6003 67.7072 85.0695 67.7072C86.5387 67.7072 87.7341 68.914 87.7341 70.3974C87.7341 71.2376 87.3503 71.989 86.7507 72.4826C87.0888 72.6047 87.413 72.7632 87.7175 72.9553L87.9 72.3654C87.9215 72.296 87.9593 72.2329 88.0102 72.1815L93.7801 66.3561C93.2127 65.3868 92.1737 64.7741 91.0524 64.7741H80.7061V66.5157C80.7061 68.2744 79.2889 69.7051 77.547 69.7051H75.9192V80.3268H78.9848V79.5787C78.9848 79.4593 79.0317 79.3449 79.1153 79.2605C79.1989 79.1761 79.3123 79.1287 79.4305 79.1287H90.7087C90.8269 79.1287 90.9403 79.1761 91.0238 79.2605C91.1074 79.3449 91.1544 79.4593 91.1544 79.5787V81.9747C91.1544 82.094 91.1074 82.2085 91.0238 82.2928C90.9403 82.3772 90.8269 82.4247 90.7087 82.4247H79.4305C79.372 82.4247 79.314 82.4131 79.26 82.3905C79.2059 82.3679 79.1567 82.3347 79.1153 82.293C79.074 82.2512 79.0411 82.2016 79.0187 82.147C78.9963 82.0924 78.9848 82.0339 78.9848 81.9748ZM90.263 81.5248V80.0289H79.8762V81.5248H90.263ZM79.8762 84.6189V86.1148H90.263V84.6189H79.8762ZM89.8558 96.9025C89.8156 96.7005 89.7953 96.4951 89.7953 96.2891V92.3976H75.9193V93.7046C75.9193 95.468 77.3402 96.9025 79.0868 96.9025H89.8558ZM104.743 91.1153C104.743 89.8962 103.76 88.9044 102.553 88.9044H92.8766C91.6691 88.9044 90.6868 89.8963 90.6868 91.1153V96.289C90.6868 97.5081 91.6692 98.4999 92.8766 98.4999H102.553C103.76 98.5 104.743 97.5081 104.743 96.2891V91.1153ZM76.8126 61.7489H68.5223C68.4041 61.7489 68.2907 61.7963 68.2071 61.8807C68.1235 61.9651 68.0766 62.0795 68.0766 62.1989C68.0766 62.3182 68.1235 62.4327 68.2071 62.5171C68.2907 62.6014 68.4041 62.6489 68.5223 62.6489H76.8126C76.9308 62.6489 77.0441 62.6014 77.1277 62.5171C77.2113 62.4327 77.2583 62.3182 77.2583 62.1989C77.2583 62.0795 77.2113 61.9651 77.1277 61.8807C77.0441 61.7963 76.9308 61.7489 76.8126 61.7489ZM76.8126 65.0564H68.5223C68.4041 65.0564 68.2907 65.1038 68.2071 65.1882C68.1235 65.2726 68.0766 65.387 68.0766 65.5064C68.0766 65.6257 68.1235 65.7402 68.2071 65.8246C68.2907 65.9089 68.4041 65.9564 68.5223 65.9564H76.8126C76.9308 65.9564 77.0441 65.9089 77.1277 65.8246C77.2113 65.7402 77.2583 65.6257 77.2583 65.5064C77.2583 65.387 77.2113 65.2726 77.1277 65.1882C77.0441 65.1038 76.9308 65.0564 76.8126 65.0564ZM101.86 94.9059H93.5696C93.4514 94.9059 93.3381 94.9533 93.2545 95.0377C93.1709 95.122 93.1239 95.2365 93.1239 95.3559C93.1239 95.4752 93.1709 95.5897 93.2545 95.674C93.3381 95.7584 93.4514 95.8059 93.5696 95.8059H101.86C101.978 95.8059 102.091 95.7584 102.175 95.674C102.259 95.5897 102.306 95.4752 102.306 95.3559C102.306 95.2365 102.259 95.122 102.175 95.0377C102.091 94.9533 101.978 94.9059 101.86 94.9059ZM101.86 91.5984H93.5696C93.4514 91.5984 93.3381 91.6458 93.2545 91.7302C93.1709 91.8145 93.1239 91.929 93.1239 92.0484C93.1239 92.1677 93.1709 92.2822 93.2545 92.3666C93.3381 92.4509 93.4514 92.4984 93.5696 92.4984H101.86C101.978 92.4984 102.091 92.4509 102.175 92.3666C102.259 92.2822 102.306 92.1677 102.306 92.0484C102.306 91.929 102.259 91.8145 102.175 91.7302C102.091 91.6458 101.978 91.5984 101.86 91.5984Z" fill="url(#paint1_linear_7_199)"/>
<defs>
<filter id="filter0_d_7_199" x="0.761963" y="0" width="168.343" height="166.371" filterUnits="userSpaceOnUse" color-interpolation-filters="sRGB">
<feFlood flood-opacity="0" result="BackgroundImageFix"/>
<feColorMatrix in="SourceAlpha" type="matrix" values="0 0 0 0 0 0 0 0 0 0 0 0 0 0 0 0 0 0 127 0" result="hardAlpha"/>
<feOffset dy="4"/>
<feGaussianBlur stdDeviation="25"/>
<feComposite in2="hardAlpha" operator="out"/>
<feColorMatrix type="matrix" values="0 0 0 0 0.416392 0 0 0 0 0.176471 0 0 0 0 0.807843 0 0 0 0.65 0"/>
<feBlend mode="normal" in2="BackgroundImageFix" result="effect1_dropShadow_7_199"/>
<feBlend mode="normal" in="SourceGraphic" in2="effect1_dropShadow_7_199" result="shape"/>
</filter>
<linearGradient id="paint0_linear_7_199" x1="51.7101" y1="46" x2="119.994" y2="51.9207" gradientUnits="userSpaceOnUse">
<stop stop-color="#702FD2"/>
<stop offset="1" stop-color="#5334A2"/>
</linearGradient>
<linearGradient id="paint1_linear_7_199" x1="66.8839" y1="95.8172" x2="104.771" y2="71.2561" gradientUnits="userSpaceOnUse">
<stop stop-color="#E75778"/>
<stop offset="0.888634" stop-color="#8876FF"/>
</linearGradient>
</defs>
</svg>
