<svg width="42" height="42" viewBox="0 0 42 42" fill="none" xmlns="http://www.w3.org/2000/svg">
<path d="M23.194 36.5073C23.194 36.6267 23.1471 36.7411 23.0635 36.8255C22.9799 36.9099 22.8665 36.9573 22.7483 36.9573H19.3909C19.2727 36.9573 19.1594 36.9099 19.0758 36.8255C18.9922 36.7411 18.9452 36.6267 18.9452 36.5073C18.9452 36.388 18.9922 36.2735 19.0758 36.1891C19.1594 36.1047 19.2727 36.0573 19.3909 36.0573H22.7483C22.8665 36.0573 22.9799 36.1047 23.0635 36.1891C23.1471 36.2735 23.194 36.388 23.194 36.5073ZM41.6343 33.1153V38.289C41.6343 40.0044 40.252 41.3999 38.5529 41.3999H28.8766C27.7215 41.3999 26.7133 40.7545 26.1859 39.8024H15.0868C12.8487 39.8024 11.0278 37.9641 11.0278 35.7045V23.2268H8.66741C8.5492 23.2268 8.43583 23.1794 8.35225 23.095C8.26866 23.0106 8.2217 22.8962 8.2217 22.7768V11.7053H3.78773C2.04571 11.7053 0.628601 10.2745 0.628601 8.5158V3.18942C0.628601 1.43073 2.04571 0 3.78765 0H13.547C15.2889 0 16.7061 1.43073 16.7061 3.18942V5.8743H27.0523C28.4126 5.8743 29.6795 6.57576 30.4271 7.70301L35.5186 2.56257C35.6022 2.47818 35.7155 2.43077 35.8337 2.43077C35.952 2.43077 36.0653 2.47818 36.1489 2.56257L38.1558 4.58865C38.1972 4.63042 38.23 4.68002 38.2524 4.7346C38.2748 4.78919 38.2864 4.84769 38.2864 4.90678C38.2864 4.96587 38.2749 5.02438 38.2525 5.07897C38.2301 5.13356 38.1973 5.18317 38.1559 5.22495L31.1114 12.3373V26.917H33.7148C33.833 26.917 33.9464 26.9644 34.0299 27.0488C34.1135 27.1332 34.1605 27.2477 34.1605 27.367V30.0046H38.5529C40.252 30.0044 41.6343 31.4 41.6343 33.1153ZM31.1114 27.8168V30.0044H33.2691V27.8168H31.1114ZM24.7181 14.7396L24.0928 16.7607L26.0947 16.1294L37.2104 4.90671L35.8339 3.51711L24.7181 14.7396ZM24.787 17.4847L23.5467 17.8758C23.4691 17.9003 23.3863 17.9029 23.3073 17.8833C23.2283 17.8637 23.1562 17.8226 23.0987 17.7645C23.0411 17.7064 23.0005 17.6336 22.981 17.5538C22.9616 17.4741 22.9641 17.3905 22.9884 17.3121L23.4404 15.8512C22.7474 15.3552 21.9191 15.0884 21.0697 15.0877C18.9607 15.0877 17.2188 16.7045 16.9959 18.7749H25.1432C25.0947 18.3281 24.9744 17.8924 24.787 17.4847ZM21.0696 14.1877C22.0473 14.1877 22.8427 13.3846 22.8427 12.3975C22.8427 11.4104 22.0473 10.6073 21.0696 10.6073C20.092 10.6073 19.2965 11.4104 19.2965 12.3975C19.2965 13.3846 20.0919 14.1877 21.0696 14.1877ZM3.78765 10.8053H13.547C14.7974 10.8053 15.8147 9.77823 15.8147 8.51589V3.18942C15.8147 1.92708 14.7974 0.9 13.547 0.9H3.78765C2.53733 0.9 1.52003 1.92708 1.52003 3.18942V8.5158C1.52003 9.77814 2.53733 10.8053 3.78765 10.8053ZM11.0278 22.3268V11.7053H9.11313V22.3269H11.0278V22.3268ZM14.9848 23.9748V23.2268H11.9192V33.4976H25.7952V33.1153C25.7952 31.3999 27.1775 30.0044 28.8765 30.0044H30.2198V27.8168H27.1543V28.5648C27.1543 28.6842 27.1073 28.7986 27.0238 28.883C26.9402 28.9674 26.8268 29.0148 26.7086 29.0148H15.4305C15.3123 29.0148 15.1989 28.9674 15.1153 28.883C15.0317 28.7986 14.9848 28.6842 14.9848 28.5648V26.1689C14.9848 26.0495 15.0317 25.935 15.1153 25.8507C15.1989 25.7663 15.3123 25.7189 15.4305 25.7189H26.7087C26.7672 25.7189 26.8252 25.7305 26.8792 25.7531C26.9333 25.7757 26.9825 25.8089 27.0238 25.8507C27.0652 25.8924 27.0981 25.942 27.1205 25.9966C27.1429 26.0512 27.1544 26.1098 27.1544 26.1689V26.9169H30.2199V13.2372L26.6474 16.844C26.5965 16.8955 26.5339 16.9337 26.4651 16.9554L25.6444 17.2142C25.9176 17.8486 26.0586 18.533 26.0588 19.2248C26.0588 19.3442 26.0119 19.4586 25.9283 19.543C25.8447 19.6274 25.7313 19.6748 25.6131 19.6748H16.5261C16.4079 19.6748 16.2945 19.6274 16.2109 19.543C16.1273 19.4586 16.0804 19.3442 16.0804 19.2248C16.0804 17.0427 17.4621 15.1809 19.3884 14.4826C18.7888 13.9889 18.405 13.2376 18.405 12.3974C18.405 10.9141 19.6003 9.70722 21.0695 9.70722C22.5387 9.70722 23.7341 10.914 23.7341 12.3974C23.7341 13.2376 23.3503 13.989 22.7507 14.4826C23.0888 14.6047 23.413 14.7632 23.7175 14.9553L23.9 14.3654C23.9215 14.296 23.9593 14.2329 24.0102 14.1815L29.7801 8.35614C29.2127 7.38675 28.1737 6.77412 27.0524 6.77412H16.7061V8.51571C16.7061 10.2744 15.2889 11.7051 13.547 11.7051H11.9192V22.3268H14.9848V21.5787C14.9848 21.4593 15.0317 21.3449 15.1153 21.2605C15.1989 21.1761 15.3123 21.1287 15.4305 21.1287H26.7087C26.8269 21.1287 26.9403 21.1761 27.0238 21.2605C27.1074 21.3449 27.1544 21.4593 27.1544 21.5787V23.9747C27.1544 24.094 27.1074 24.2085 27.0238 24.2928C26.9403 24.3772 26.8269 24.4247 26.7087 24.4247H15.4305C15.372 24.4247 15.314 24.4131 15.26 24.3905C15.2059 24.3679 15.1567 24.3347 15.1153 24.293C15.074 24.2512 15.0411 24.2016 15.0187 24.147C14.9963 24.0924 14.9848 24.0339 14.9848 23.9748ZM26.263 23.5248V22.0289H15.8762V23.5248H26.263ZM15.8762 26.6189V28.1148H26.263V26.6189H15.8762ZM25.8558 38.9025C25.8156 38.7005 25.7953 38.4951 25.7953 38.2891V34.3976H11.9193V35.7046C11.9193 37.468 13.3402 38.9025 15.0868 38.9025H25.8558ZM40.7429 33.1153C40.7429 31.8962 39.7604 30.9044 38.5529 30.9044H28.8766C27.6691 30.9044 26.6868 31.8963 26.6868 33.1153V38.289C26.6868 39.5081 27.6692 40.4999 28.8766 40.4999H38.5529C39.7604 40.5 40.7429 39.5081 40.7429 38.2891V33.1153ZM12.8126 3.74886H4.52227C4.40406 3.74886 4.29069 3.79627 4.2071 3.88066C4.12352 3.96505 4.07656 4.07951 4.07656 4.19886C4.07656 4.31821 4.12352 4.43267 4.2071 4.51706C4.29069 4.60145 4.40406 4.64886 4.52227 4.64886H12.8126C12.9308 4.64886 13.0441 4.60145 13.1277 4.51706C13.2113 4.43267 13.2583 4.31821 13.2583 4.19886C13.2583 4.07951 13.2113 3.96505 13.1277 3.88066C13.0441 3.79627 12.9308 3.74886 12.8126 3.74886ZM12.8126 7.05636H4.52227C4.40406 7.05636 4.29069 7.10377 4.2071 7.18816C4.12352 7.27255 4.07656 7.38701 4.07656 7.50636C4.07656 7.62571 4.12352 7.74017 4.2071 7.82456C4.29069 7.90895 4.40406 7.95636 4.52227 7.95636H12.8126C12.9308 7.95636 13.0441 7.90895 13.1277 7.82456C13.2113 7.74017 13.2583 7.62571 13.2583 7.50636C13.2583 7.38701 13.2113 7.27255 13.1277 7.18816C13.0441 7.10377 12.9308 7.05636 12.8126 7.05636ZM37.8599 36.9059H29.5696C29.4514 36.9059 29.3381 36.9533 29.2545 37.0377C29.1709 37.122 29.1239 37.2365 29.1239 37.3559C29.1239 37.4752 29.1709 37.5897 29.2545 37.674C29.3381 37.7584 29.4514 37.8059 29.5696 37.8059H37.8599C37.9781 37.8059 38.0915 37.7584 38.1751 37.674C38.2587 37.5897 38.3056 37.4752 38.3056 37.3559C38.3056 37.2365 38.2587 37.122 38.1751 37.0377C38.0915 36.9533 37.9781 36.9059 37.8599 36.9059ZM37.8599 33.5984H29.5696C29.4514 33.5984 29.3381 33.6458 29.2545 33.7302C29.1709 33.8145 29.1239 33.929 29.1239 34.0484C29.1239 34.1677 29.1709 34.2822 29.2545 34.3666C29.3381 34.4509 29.4514 34.4984 29.5696 34.4984H37.8599C37.9781 34.4984 38.0915 34.4509 38.1751 34.3666C38.2587 34.2822 38.3056 34.1677 38.3056 34.0484C38.3056 33.929 38.2587 33.8145 38.1751 33.7302C38.0915 33.6458 37.9781 33.5984 37.8599 33.5984Z" fill="url(#paint0_linear_7_197)"/>
<defs>
<linearGradient id="paint0_linear_7_197" x1="2.88392" y1="37.8172" x2="40.7714" y2="13.2561" gradientUnits="userSpaceOnUse">
<stop stop-color="#E75778"/>
<stop offset="0.888634" stop-color="#8876FF"/>
</linearGradient>
</defs>
</svg>
