<svg width="42" height="51" viewBox="0 0 42 51" fill="none" xmlns="http://www.w3.org/2000/svg">
<rect x="15.8184" y="41.5144" width="9.81021" height="4.20438" rx="2.10219" fill="url(#paint0_linear_7_320)" fill-opacity="0.5"/>
<path d="M15.8413 43.1132C15.8413 42.5565 15.8413 42.2782 15.9497 42.0656C16.045 41.8786 16.197 41.7265 16.3841 41.6312C16.5967 41.5229 16.875 41.5229 17.4317 41.5229H24.0908C24.6474 41.5229 24.9258 41.5229 25.1384 41.6312C25.3254 41.7265 25.4775 41.8786 25.5728 42.0656C25.6811 42.2782 25.6811 42.5565 25.6811 43.1132V44.1496C25.6811 44.7062 25.6811 44.9846 25.5728 45.1972C25.4775 45.3842 25.3254 45.5363 25.1384 45.6316C24.9258 45.7399 24.6474 45.7399 24.0908 45.7399L17.4317 45.7399C16.875 45.7399 16.5967 45.7399 16.3841 45.6316C16.197 45.5363 16.045 45.3842 15.9497 45.1972C15.8413 44.9846 15.8413 44.7062 15.8413 44.1496V43.1132Z" fill="url(#paint1_linear_7_320)"/>
<path d="M20.7612 22.5461V33.2097V22.5461Z" fill="url(#paint2_linear_7_320)"/>
<path d="M19.3555 36.603C20.1319 37.3793 21.3906 37.3793 22.1669 36.603C22.9433 35.8266 22.9433 34.5679 22.1669 33.7916C21.3906 33.0153 20.1319 33.0153 19.3555 33.7916C18.5792 34.5679 18.5792 35.8266 19.3555 36.603Z" fill="url(#paint3_linear_7_320)"/>
<path d="M24.2754 41.5229L27.9292 36.0422C28.1333 35.7361 28.2353 35.583 28.2772 35.4171C28.3142 35.2704 28.3172 35.1172 28.286 34.9692C28.2508 34.8017 28.1548 34.6448 27.963 34.3308L20.7612 22.5461M20.7612 22.5461L13.5595 34.3308C13.3676 34.6448 13.2717 34.8017 13.2364 34.9692C13.2053 35.1172 13.2083 35.2704 13.2453 35.4171C13.2871 35.583 13.3892 35.7361 13.5933 36.0422L17.247 41.5229M20.7612 22.5461V33.2097M17.4317 45.7399L24.0908 45.7399C24.6474 45.7399 24.9258 45.7399 25.1384 45.6316C25.3254 45.5363 25.4775 45.3842 25.5728 45.1972C25.6811 44.9846 25.6811 44.7062 25.6811 44.1496L25.6811 43.1132C25.6811 42.5565 25.6811 42.2782 25.5728 42.0656C25.4775 41.8786 25.3254 41.7265 25.1384 41.6312C24.9258 41.5229 24.6474 41.5229 24.0908 41.5229H17.4317C16.875 41.5229 16.5967 41.5229 16.3841 41.6312C16.197 41.7265 16.045 41.8786 15.9497 42.0656C15.8413 42.2782 15.8413 42.5565 15.8413 43.1132L15.8413 44.1496C15.8413 44.7062 15.8413 44.9846 15.9497 45.1972C16.045 45.3842 16.197 45.5363 16.3841 45.6316C16.5967 45.7399 16.875 45.7399 17.4317 45.7399ZM22.1669 36.603C21.3906 37.3793 20.1319 37.3793 19.3555 36.603C18.5792 35.8266 18.5792 34.5679 19.3555 33.7916C20.1319 33.0153 21.3906 33.0153 22.1669 33.7916C22.9433 34.5679 22.9433 35.8266 22.1669 36.603Z" stroke="url(#paint4_linear_7_320)" stroke-width="0.8" stroke-linecap="round" stroke-linejoin="round"/>
<path d="M24.2754 41.5229L27.9292 36.0422C28.1333 35.7361 28.2353 35.583 28.2772 35.4171C28.3142 35.2704 28.3172 35.1172 28.286 34.9692C28.2508 34.8017 28.1548 34.6448 27.963 34.3308L20.7612 22.5461M20.7612 22.5461L13.5595 34.3308C13.3676 34.6448 13.2717 34.8017 13.2364 34.9692C13.2053 35.1172 13.2083 35.2704 13.2453 35.4171C13.2871 35.583 13.3892 35.7361 13.5933 36.0422L17.247 41.5229M20.7612 22.5461V33.2097M17.4317 45.7399L24.0908 45.7399C24.6474 45.7399 24.9258 45.7399 25.1384 45.6316C25.3254 45.5363 25.4775 45.3842 25.5728 45.1972C25.6811 44.9846 25.6811 44.7062 25.6811 44.1496L25.6811 43.1132C25.6811 42.5565 25.6811 42.2782 25.5728 42.0656C25.4775 41.8786 25.3254 41.7265 25.1384 41.6312C24.9258 41.5229 24.6474 41.5229 24.0908 41.5229H17.4317C16.875 41.5229 16.5967 41.5229 16.3841 41.6312C16.197 41.7265 16.045 41.8786 15.9497 42.0656C15.8413 42.2782 15.8413 42.5565 15.8413 43.1132L15.8413 44.1496C15.8413 44.7062 15.8413 44.9846 15.9497 45.1972C16.045 45.3842 16.197 45.5363 16.3841 45.6316C16.5967 45.7399 16.875 45.7399 17.4317 45.7399ZM22.1669 36.603C21.3906 37.3793 20.1319 37.3793 19.3555 36.603C18.5792 35.8266 18.5792 34.5679 19.3555 33.7916C20.1319 33.0153 21.3906 33.0153 22.1669 33.7916C22.9433 34.5679 22.9433 35.8266 22.1669 36.603Z" stroke="url(#paint5_linear_7_320)" stroke-width="0.8" stroke-linecap="round" stroke-linejoin="round"/>
<path d="M0.742432 21.0978C0.742432 21.0978 11.1785 10.475 21.0554 19.4205C30.9324 28.3661 40.8093 17.557 40.8093 17.557" stroke="url(#paint6_linear_7_320)"/>
<path d="M0.742432 21.0978C0.742432 21.0978 11.1785 10.475 21.0554 19.4205C30.9324 28.3661 40.8093 17.557 40.8093 17.557" stroke="url(#paint7_linear_7_320)"/>
<path d="M0.742554 19.819C0.742554 19.819 11.1786 9.19619 21.0555 18.1417C30.9325 27.0873 40.8094 16.2782 40.8094 16.2782" stroke="url(#paint8_linear_7_320)" stroke-opacity="0.9" stroke-width="0.5"/>
<path d="M0.742554 18.6891C0.742554 18.6891 11.1786 8.06631 21.0555 17.0119C30.9325 25.9574 40.8094 15.1483 40.8094 15.1483" stroke="url(#paint9_linear_7_320)" stroke-opacity="0.8" stroke-width="0.5"/>
<path d="M0.742554 17.5592C0.742554 17.5592 11.1786 6.93643 21.0555 15.882C30.9325 24.8275 40.8094 14.0184 40.8094 14.0184" stroke="url(#paint10_linear_7_320)" stroke-opacity="0.7" stroke-width="0.5"/>
<path d="M0.742554 16.4293C0.742554 16.4293 11.1786 5.80654 21.0555 14.7521C30.9325 23.6976 40.8094 12.8885 40.8094 12.8885" stroke="url(#paint11_linear_7_320)" stroke-opacity="0.6" stroke-width="0.5"/>
<path d="M0.742554 15.2994C0.742554 15.2994 11.1786 4.67666 21.0555 13.6222C30.9325 22.5677 40.8094 11.7586 40.8094 11.7586" stroke="url(#paint12_linear_7_320)" stroke-opacity="0.5" stroke-width="0.5"/>
<path d="M0.742554 14.1695C0.742554 14.1695 11.1786 3.54678 21.0555 12.4923C30.9325 21.4379 40.8094 10.6287 40.8094 10.6287" stroke="url(#paint13_linear_7_320)" stroke-opacity="0.4" stroke-width="0.5"/>
<path d="M0.742554 13.0397C0.742554 13.0397 11.1786 2.4169 21.0555 11.3624C30.9325 20.308 40.8094 9.49886 40.8094 9.49886" stroke="url(#paint14_linear_7_320)" stroke-opacity="0.3" stroke-width="0.5"/>
<path d="M0.742554 11.9098C0.742554 11.9098 11.1786 1.28701 21.0555 10.2326C30.9325 19.1781 40.8094 8.36898 40.8094 8.36898" stroke="url(#paint15_linear_7_320)" stroke-opacity="0.2" stroke-width="0.5"/>
<path d="M0.742554 10.7799C0.742554 10.7799 11.1786 0.15713 21.0555 9.10267C30.9325 18.0482 40.8094 7.2391 40.8094 7.2391" stroke="url(#paint16_linear_7_320)" stroke-opacity="0.2" stroke-width="0.5"/>
<path d="M0.742554 9.65001C0.742554 9.65001 11.1786 -0.972753 21.0555 7.97279C30.9325 16.9183 40.8094 6.10921 40.8094 6.10921" stroke="url(#paint17_linear_7_320)" stroke-opacity="0.2" stroke-width="0.5"/>
<path d="M0.742554 8.52012C0.742554 8.52012 11.1786 -2.10264 21.0555 6.84291C30.9325 15.7884 40.8094 4.97933 40.8094 4.97933" stroke="url(#paint18_linear_7_320)" stroke-opacity="0.2" stroke-width="0.5"/>
<path d="M0.742554 7.39024C0.742554 7.39024 11.1786 -3.23252 21.0555 5.71302C30.9325 14.6586 40.8094 3.84945 40.8094 3.84945" stroke="url(#paint19_linear_7_320)" stroke-opacity="0.2" stroke-width="0.5"/>
<path d="M0.742554 6.26036C0.742554 6.26036 11.1786 -4.3624 21.0555 4.58314C30.9325 13.5287 40.8094 2.71957 40.8094 2.71957" stroke="url(#paint20_linear_7_320)" stroke-opacity="0.95" stroke-width="0.5"/>
<path d="M0.742554 6.29527C0.742554 6.29527 11.1786 -4.32749 21.0555 4.61805C30.9325 13.5636 40.8094 2.75448 40.8094 2.75448" stroke="url(#paint21_linear_7_320)" stroke-opacity="0.2" stroke-width="0.5"/>
<path d="M0.742554 6.29527C0.742554 6.29527 11.1786 -4.32749 21.0555 4.61805C30.9325 13.5636 40.8094 2.75448 40.8094 2.75448" stroke="url(#paint22_linear_7_320)" stroke-width="0.5"/>
<path d="M14.5354 11.365L27.3941 27.9508" stroke="#5D35C7"/>
<rect x="0.372715" y="20.683" width="0.74543" height="0.74543" fill="#181726" stroke="#593BE7" stroke-width="0.74543"/>
<rect x="20.5009" y="19.1921" width="0.74543" height="0.74543" fill="#181726" stroke="#6744D4" stroke-width="0.74543"/>
<rect x="39.8819" y="17.7016" width="0.74543" height="0.74543" stroke="#5D35C7" stroke-width="0.74543"/>
<ellipse cx="14.5382" cy="11.3654" rx="0.372715" ry="0.372715" fill="#5D35C7"/>
<ellipse cx="27.2106" cy="27.765" rx="0.372715" ry="0.372715" fill="#5D35C7"/>
<defs>
<linearGradient id="paint0_linear_7_320" x1="23.9166" y1="45.5483" x2="22.9054" y2="41.4821" gradientUnits="userSpaceOnUse">
<stop stop-color="#5E00A8"/>
<stop offset="1" stop-color="#4729D3"/>
</linearGradient>
<linearGradient id="paint1_linear_7_320" x1="8.9439" y1="35.8777" x2="29.8677" y2="40.2471" gradientUnits="userSpaceOnUse">
<stop stop-color="#E75778"/>
<stop offset="0.888634" stop-color="#8876FF"/>
</linearGradient>
<linearGradient id="paint2_linear_7_320" x1="8.9439" y1="35.8777" x2="29.8677" y2="40.2471" gradientUnits="userSpaceOnUse">
<stop stop-color="#E75778"/>
<stop offset="0.888634" stop-color="#8876FF"/>
</linearGradient>
<linearGradient id="paint3_linear_7_320" x1="8.9439" y1="35.8777" x2="29.8677" y2="40.2471" gradientUnits="userSpaceOnUse">
<stop stop-color="#E75778"/>
<stop offset="0.888634" stop-color="#8876FF"/>
</linearGradient>
<linearGradient id="paint4_linear_7_320" x1="20.8221" y1="26.7451" x2="20.8221" y2="45.9531" gradientUnits="userSpaceOnUse">
<stop stop-color="#6744D4"/>
<stop offset="1" stop-color="#6525AC"/>
</linearGradient>
<linearGradient id="paint5_linear_7_320" x1="8.9439" y1="35.8777" x2="29.8677" y2="40.2471" gradientUnits="userSpaceOnUse">
<stop stop-color="#E75778"/>
<stop offset="0.888634" stop-color="#8876FF"/>
</linearGradient>
<linearGradient id="paint6_linear_7_320" x1="35.3348" y1="29.1547" x2="32.6536" y2="32.2573" gradientUnits="userSpaceOnUse">
<stop stop-color="#8046B9"/>
<stop offset="1" stop-color="#593BE7"/>
</linearGradient>
<linearGradient id="paint7_linear_7_320" x1="2.94611" y1="22.3479" x2="6.56282" y2="9.04089" gradientUnits="userSpaceOnUse">
<stop stop-color="#E75778"/>
<stop offset="0.888634" stop-color="#8876FF"/>
</linearGradient>
<linearGradient id="paint8_linear_7_320" x1="35.3349" y1="27.8759" x2="32.6538" y2="30.9785" gradientUnits="userSpaceOnUse">
<stop stop-color="#8046B9"/>
<stop offset="1" stop-color="#593BE7"/>
</linearGradient>
<linearGradient id="paint9_linear_7_320" x1="35.3349" y1="26.746" x2="32.6538" y2="29.8487" gradientUnits="userSpaceOnUse">
<stop stop-color="#8046B9"/>
<stop offset="1" stop-color="#593BE7"/>
</linearGradient>
<linearGradient id="paint10_linear_7_320" x1="35.3349" y1="25.6161" x2="32.6538" y2="28.7188" gradientUnits="userSpaceOnUse">
<stop stop-color="#8046B9"/>
<stop offset="1" stop-color="#593BE7"/>
</linearGradient>
<linearGradient id="paint11_linear_7_320" x1="35.3349" y1="24.4862" x2="32.6538" y2="27.5889" gradientUnits="userSpaceOnUse">
<stop stop-color="#8046B9"/>
<stop offset="1" stop-color="#593BE7"/>
</linearGradient>
<linearGradient id="paint12_linear_7_320" x1="35.3349" y1="23.3564" x2="32.6538" y2="26.459" gradientUnits="userSpaceOnUse">
<stop stop-color="#8046B9"/>
<stop offset="1" stop-color="#593BE7"/>
</linearGradient>
<linearGradient id="paint13_linear_7_320" x1="35.3349" y1="22.2265" x2="32.6538" y2="25.3291" gradientUnits="userSpaceOnUse">
<stop stop-color="#8046B9"/>
<stop offset="1" stop-color="#593BE7"/>
</linearGradient>
<linearGradient id="paint14_linear_7_320" x1="35.3349" y1="21.0966" x2="32.6538" y2="24.1992" gradientUnits="userSpaceOnUse">
<stop stop-color="#8046B9"/>
<stop offset="1" stop-color="#593BE7"/>
</linearGradient>
<linearGradient id="paint15_linear_7_320" x1="35.3349" y1="19.9667" x2="32.6538" y2="23.0694" gradientUnits="userSpaceOnUse">
<stop stop-color="#8046B9"/>
<stop offset="1" stop-color="#593BE7"/>
</linearGradient>
<linearGradient id="paint16_linear_7_320" x1="35.3349" y1="18.8368" x2="32.6538" y2="21.9395" gradientUnits="userSpaceOnUse">
<stop stop-color="#8046B9"/>
<stop offset="1" stop-color="#593BE7"/>
</linearGradient>
<linearGradient id="paint17_linear_7_320" x1="35.3349" y1="17.707" x2="32.6538" y2="20.8096" gradientUnits="userSpaceOnUse">
<stop stop-color="#8046B9"/>
<stop offset="1" stop-color="#593BE7"/>
</linearGradient>
<linearGradient id="paint18_linear_7_320" x1="35.3349" y1="16.5771" x2="32.6538" y2="19.6797" gradientUnits="userSpaceOnUse">
<stop stop-color="#8046B9"/>
<stop offset="1" stop-color="#593BE7"/>
</linearGradient>
<linearGradient id="paint19_linear_7_320" x1="35.3349" y1="15.4472" x2="32.6538" y2="18.5498" gradientUnits="userSpaceOnUse">
<stop stop-color="#8046B9"/>
<stop offset="1" stop-color="#593BE7"/>
</linearGradient>
<linearGradient id="paint20_linear_7_320" x1="-0.564972" y1="6.15017" x2="0.616264" y2="1.82945" gradientUnits="userSpaceOnUse">
<stop stop-color="#121120"/>
<stop offset="1" stop-color="#2B2A37"/>
</linearGradient>
<linearGradient id="paint21_linear_7_320" x1="35.3349" y1="14.3522" x2="32.6538" y2="17.4549" gradientUnits="userSpaceOnUse">
<stop stop-color="#8046B9"/>
<stop offset="1" stop-color="#593BE7"/>
</linearGradient>
<linearGradient id="paint22_linear_7_320" x1="2.94623" y1="7.54544" x2="6.56294" y2="-5.7616" gradientUnits="userSpaceOnUse">
<stop stop-color="#E75778"/>
<stop offset="0.888634" stop-color="#8876FF"/>
</linearGradient>
</defs>
</svg>
