<svg width="41" height="41" viewBox="0 0 41 41" fill="none" xmlns="http://www.w3.org/2000/svg">
<path d="M22.55 4.10007H18.45C18.2688 4.10007 18.0949 4.02807 17.9668 3.89992C17.8386 3.77177 17.7667 3.59796 17.7667 3.41673C17.7667 3.2355 17.8386 3.06169 17.9668 2.93354C18.0949 2.80539 18.2688 2.7334 18.45 2.7334H22.55C22.7312 2.7334 22.905 2.80539 23.0332 2.93354C23.1613 3.06169 23.2333 3.2355 23.2333 3.41673C23.2333 3.59796 23.1613 3.77177 23.0332 3.89992C22.905 4.02807 22.7312 4.10007 22.55 4.10007ZM28.0167 41.0001H12.9833C12.0775 40.999 11.2091 40.6387 10.5686 39.9981C9.92805 39.3576 9.56774 38.4892 9.56665 37.5834V14.3501C9.56665 14.1688 9.63864 13.995 9.76679 13.8669C9.89494 13.7387 10.0688 13.6667 10.25 13.6667C10.4312 13.6667 10.605 13.7387 10.7332 13.8669C10.8613 13.995 10.9333 14.1688 10.9333 14.3501V37.5834C10.9333 38.7136 11.8531 39.6334 12.9833 39.6334H28.0167C29.1469 39.6334 30.0667 38.7136 30.0667 37.5834V14.3501C30.0667 14.1688 30.1386 13.995 30.2668 13.8669C30.3949 13.7387 30.5688 13.6667 30.75 13.6667C30.9312 13.6667 31.105 13.7387 31.2332 13.8669C31.3613 13.995 31.4333 14.1688 31.4333 14.3501V37.5834C31.4333 39.4667 29.9013 41.0001 28.0167 41.0001Z" fill="url(#paint0_linear_7_312)"/>
<path d="M30.75 19.1333C30.5688 19.1333 30.395 19.0613 30.2668 18.9332C30.1387 18.805 30.0667 18.6312 30.0667 18.45V3.41667C30.0667 2.28643 29.1469 1.36667 28.0167 1.36667H12.9833C11.8531 1.36667 10.9333 2.28643 10.9333 3.41667V18.45C10.9333 18.6312 10.8613 18.805 10.7332 18.9332C10.605 19.0613 10.4312 19.1333 10.25 19.1333C10.0688 19.1333 9.89497 19.0613 9.76682 18.9332C9.63867 18.805 9.56667 18.6312 9.56667 18.45V3.41667C9.56667 1.5334 11.0987 0 12.9833 0H28.0167C29.9013 0 31.4333 1.5334 31.4333 3.41667V18.45C31.4333 18.6312 31.3613 18.805 31.2332 18.9332C31.105 19.0613 30.9312 19.1333 30.75 19.1333ZM34.85 6.90167C34.4728 6.90167 34.1667 6.66387 34.1667 6.28667V6.15C34.1667 5.96877 34.2387 5.79496 34.3668 5.66681C34.495 5.53866 34.6688 5.46667 34.85 5.46667C35.0312 5.46667 35.205 5.53866 35.3332 5.66681C35.4613 5.79496 35.5333 5.96877 35.5333 6.15C35.5333 6.5272 35.2272 6.90167 34.85 6.90167ZM34.85 9.635C34.4728 9.635 34.1667 9.3972 34.1667 9.02V8.88333C34.1667 8.7021 34.2387 8.52829 34.3668 8.40014C34.495 8.27199 34.6688 8.2 34.85 8.2C35.0312 8.2 35.205 8.27199 35.3332 8.40014C35.4613 8.52829 35.5333 8.7021 35.5333 8.88333C35.5333 9.26053 35.2272 9.635 34.85 9.635ZM34.85 12.3683C34.4728 12.3683 34.1667 12.1305 34.1667 11.7533V11.6167C34.1667 11.4354 34.2387 11.2616 34.3668 11.1335C34.495 11.0053 34.6688 10.9333 34.85 10.9333C35.0312 10.9333 35.205 11.0053 35.3332 11.1335C35.4613 11.2616 35.5333 11.4354 35.5333 11.6167C35.5333 11.9939 35.2272 12.3683 34.85 12.3683ZM6.15001 29.9983C5.77281 29.9983 5.46667 29.7605 5.46667 29.3833V29.2467C5.46667 29.0654 5.53867 28.8916 5.66682 28.7635C5.79497 28.6353 5.96878 28.5633 6.15001 28.5633C6.33124 28.5633 6.50505 28.6353 6.6332 28.7635C6.76135 28.8916 6.83334 29.0654 6.83334 29.2467C6.83334 29.6239 6.52721 29.9983 6.15001 29.9983ZM6.15001 32.7317C5.77281 32.7317 5.46667 32.4939 5.46667 32.1167V31.98C5.46667 31.7988 5.53867 31.625 5.66682 31.4968C5.79497 31.3687 5.96878 31.2967 6.15001 31.2967C6.33124 31.2967 6.50505 31.3687 6.6332 31.4968C6.76135 31.625 6.83334 31.7988 6.83334 31.98C6.83334 32.3572 6.52721 32.7317 6.15001 32.7317ZM6.15001 35.465C5.77281 35.465 5.46667 35.2272 5.46667 34.85V34.7133C5.46667 34.5321 5.53867 34.3583 5.66682 34.2301C5.79497 34.102 5.96878 34.03 6.15001 34.03C6.33124 34.03 6.50505 34.102 6.6332 34.2301C6.76135 34.3583 6.83334 34.5321 6.83334 34.7133C6.83334 35.0905 6.52721 35.465 6.15001 35.465Z" fill="url(#paint1_linear_7_312)"/>
<path d="M32.5827 35.5332C32.4808 35.5333 32.3801 35.5105 32.2881 35.4666C32.1961 35.4227 32.1151 35.3587 32.0511 35.2794C31.987 35.2002 31.9414 35.1076 31.9178 35.0084C31.8942 34.9093 31.893 34.8061 31.9144 34.7064L32.3654 32.6154C32.3923 32.4898 32.4542 32.3744 32.5439 32.2825C32.6336 32.1906 32.7475 32.126 32.8724 32.0961C33.5319 31.9344 34.1621 31.6711 34.7407 31.3157C34.8498 31.2491 34.9753 31.2145 35.1031 31.2157C35.2309 31.2169 35.3558 31.2539 35.4636 31.3225L36.8166 32.1876L37.6544 31.343L36.7893 30.001C36.7199 29.8931 36.6821 29.7678 36.6805 29.6395C36.6788 29.5112 36.7132 29.385 36.7797 29.2753C37.1353 28.697 37.3981 28.0666 37.5587 27.407C37.5888 27.2825 37.6531 27.1689 37.7444 27.079C37.8357 26.9892 37.9503 26.9267 38.0753 26.8986L39.6333 26.5529V25.3816L38.0767 25.0359C37.9517 25.0078 37.8371 24.9453 37.7458 24.8555C37.6545 24.7656 37.5902 24.652 37.5601 24.5275C37.3989 23.8681 37.1361 23.2378 36.7811 22.6592C36.714 22.55 36.6791 22.4241 36.6806 22.2959C36.682 22.1677 36.7197 22.0426 36.7893 21.9349L37.6558 20.5805L36.8194 19.7441L35.465 20.6106C35.3573 20.6795 35.2324 20.7167 35.1045 20.718C34.9766 20.7192 34.851 20.6843 34.742 20.6174C34.1633 20.2625 33.5331 19.9993 32.8738 19.8371C32.7489 19.8072 32.635 19.7425 32.5453 19.6506C32.4556 19.5587 32.3937 19.4433 32.3668 19.3177L32.0306 17.7666H31.4333C31.2521 17.7666 31.0783 17.6946 30.9501 17.5664C30.822 17.4383 30.75 17.2645 30.75 17.0832C30.75 16.902 30.822 16.7282 30.9501 16.6C31.0783 16.4719 31.2521 16.3999 31.4333 16.3999H32.5813C32.7374 16.4002 32.8888 16.4539 33.0101 16.5521C33.1314 16.6503 33.2155 16.7871 33.2483 16.9397L33.6132 18.6248C34.1134 18.7765 34.604 18.9815 35.0769 19.2371L36.5447 18.2982C36.6759 18.2143 36.8319 18.1778 36.9868 18.1947C37.1416 18.2116 37.286 18.2809 37.3961 18.3911L39.0101 20.0038C39.1201 20.114 39.1892 20.2586 39.2058 20.4134C39.2225 20.5682 39.1857 20.7241 39.1017 20.8552L38.1628 22.323C38.4184 22.7973 38.6234 23.2879 38.7751 23.7895L40.4629 24.1639C40.7772 24.2336 41 24.5124 41 24.8322V27.1009C40.9999 27.2564 40.9468 27.4073 40.8494 27.5286C40.752 27.6498 40.6161 27.7342 40.4643 27.7678L38.7764 28.1423C38.6222 28.65 38.4171 29.1409 38.1642 29.6074L39.1017 31.0615C39.1866 31.1922 39.2241 31.348 39.2079 31.5029C39.1917 31.6579 39.1229 31.8026 39.0129 31.9129L37.3988 33.5393C37.2887 33.6498 37.1441 33.7194 36.989 33.7366C36.8339 33.7537 36.6777 33.7174 36.546 33.6336L35.0782 32.6947C34.612 32.9471 34.1216 33.1522 33.6145 33.3069L33.2496 34.992C33.2169 35.1448 33.1329 35.2818 33.0116 35.3802C32.8903 35.4787 32.7389 35.5327 32.5827 35.5332Z" fill="url(#paint2_linear_7_312)"/>
<path d="M33.3344 29.4901C33.1881 29.4898 33.0457 29.4426 32.9282 29.3554C32.8107 29.2681 32.7244 29.1454 32.6818 29.0054C32.6393 28.8654 32.6428 28.7154 32.6919 28.5775C32.741 28.4397 32.833 28.3212 32.9545 28.2396C33.479 27.8861 33.8649 27.3618 34.0464 26.7559C34.2279 26.15 34.1939 25.5 33.9502 24.9163C33.7064 24.3327 33.268 23.8515 32.7095 23.5546C32.151 23.2578 31.5069 23.1636 30.8867 23.2882C30.7988 23.3062 30.7082 23.3067 30.62 23.2898C30.5319 23.2728 30.4479 23.2386 30.373 23.1891C30.298 23.1397 30.2336 23.076 30.1833 23.0017C30.1329 22.9273 30.0978 22.8438 30.0797 22.7558C30.0617 22.6679 30.0611 22.5773 30.0781 22.4891C30.0951 22.401 30.1293 22.317 30.1787 22.2421C30.2282 22.1672 30.2919 22.1027 30.3662 22.0524C30.4406 22.0021 30.5241 21.9669 30.612 21.9488C31.2078 21.828 31.8229 21.841 32.413 21.9869C33.0031 22.1327 33.5535 22.4078 34.0244 22.7922C34.4952 23.1767 34.8748 23.6609 35.1358 24.2099C35.3968 24.7589 35.5326 25.359 35.5334 25.9668C35.5336 26.6405 35.3676 27.3038 35.0504 27.8981C34.7331 28.4923 34.2742 28.9993 33.7144 29.3739C33.6021 29.4495 33.4698 29.4899 33.3344 29.4901ZM9.56674 19.1335C8.68583 19.1347 7.82798 18.852 7.12033 18.3274C6.41268 17.8027 5.89288 17.0641 5.63798 16.2208C5.38308 15.3776 5.40664 14.4747 5.70517 13.6459C6.00369 12.8171 6.56129 12.1066 7.29534 11.6196C7.44612 11.5254 7.62766 11.4937 7.80142 11.5313C7.97518 11.5688 8.12748 11.6725 8.226 11.8205C8.32452 11.9684 8.36151 12.149 8.32911 12.3238C8.29671 12.4985 8.19748 12.6538 8.05247 12.7566C7.52796 13.1087 7.14145 13.6315 6.95855 14.2362C6.77565 14.8408 6.80763 15.4902 7.04906 16.074C7.29049 16.6577 7.7265 17.14 8.28307 17.4388C8.83964 17.7377 9.48248 17.8348 10.1025 17.7135C10.2802 17.6785 10.4646 17.7151 10.6154 17.8155C10.7662 17.9158 10.8712 18.0718 10.9074 18.2493C10.9252 18.3372 10.9253 18.4278 10.908 18.5158C10.8906 18.6039 10.8561 18.6876 10.8063 18.7622C10.7566 18.8369 10.6926 18.901 10.618 18.9509C10.5434 19.0007 10.4597 19.0354 10.3717 19.0529C10.1068 19.1068 9.83709 19.1338 9.56674 19.1335Z" fill="url(#paint3_linear_7_312)"/>
<path d="M9.56667 24.5998H8.41867C8.26256 24.5995 8.11125 24.5458 7.98991 24.4476C7.86857 24.3494 7.78452 24.2126 7.75173 24.0599L7.38683 22.3748C6.87964 22.2203 6.38927 22.0152 5.92313 21.7626L4.45533 22.7015C4.32407 22.7853 4.1681 22.8219 4.01325 22.805C3.8584 22.788 3.71398 22.7188 3.6039 22.6085L1.98987 20.9959C1.87987 20.8856 1.81082 20.7411 1.79417 20.5863C1.77752 20.4314 1.81425 20.2755 1.8983 20.1444L2.8372 18.6766C2.58454 18.2096 2.37942 17.7183 2.22493 17.2102L0.5371 16.8357C0.384867 16.8021 0.24866 16.7176 0.150999 16.5961C0.0533372 16.4745 6.87135e-05 16.3233 0 16.1674V13.8988C6.11869e-05 13.7432 0.0531847 13.5924 0.150593 13.4711C0.248001 13.3498 0.383864 13.2654 0.535733 13.2318L2.22357 12.8574C2.37527 12.3558 2.58027 11.8652 2.83583 11.3923L1.89967 9.9368C1.81478 9.80615 1.77729 9.65033 1.79346 9.49537C1.80963 9.34041 1.87847 9.19568 1.9885 9.08537L3.60253 7.45904C3.71226 7.34783 3.85692 7.27775 4.0122 7.26058C4.16749 7.24341 4.32396 7.28019 4.45533 7.36474L5.92313 8.30364C6.38939 8.05123 6.87973 7.84612 7.38683 7.69137L7.75173 6.00627C7.76828 5.91627 7.80274 5.83051 7.85307 5.75408C7.90339 5.67765 7.96855 5.61211 8.04469 5.56134C8.12082 5.51057 8.20638 5.47561 8.29628 5.45854C8.38618 5.44146 8.4786 5.44261 8.56805 5.46193C8.6575 5.48125 8.74215 5.51834 8.81699 5.57099C8.89184 5.62365 8.95534 5.6908 9.00374 5.76846C9.05214 5.84613 9.08444 5.93272 9.09874 6.02311C9.11304 6.11349 9.10903 6.20583 9.08697 6.29464L8.63597 8.38564C8.60906 8.51122 8.54718 8.62663 8.45745 8.71853C8.36773 8.81043 8.25384 8.87507 8.12893 8.90497C7.46915 9.0669 6.83846 9.33015 6.25933 9.68534C6.15024 9.75192 6.02467 9.78658 5.89687 9.78537C5.76907 9.78416 5.64418 9.74714 5.53637 9.6785L4.18337 8.8134L3.34423 9.658L4.20933 11.0001C4.27939 11.1077 4.31747 11.2331 4.31917 11.3615C4.32086 11.49 4.28609 11.6163 4.2189 11.7258C3.86335 12.3041 3.6005 12.9344 3.4399 13.594C3.40984 13.7185 3.34552 13.8321 3.25422 13.922C3.16292 14.0118 3.04829 14.0743 2.9233 14.1024L1.36667 14.4468V15.618L2.9233 15.9638C3.04829 15.9919 3.16292 16.0544 3.25422 16.1442C3.34552 16.2341 3.40984 16.3477 3.4399 16.4722C3.59433 17.1173 3.8581 17.7459 4.2189 18.3404C4.35557 18.5632 4.35283 18.8447 4.2107 19.0648L3.34423 20.4178L4.18063 21.2542L5.535 20.3877C5.64292 20.3194 5.76778 20.2825 5.89551 20.2813C6.02324 20.2801 6.14877 20.3146 6.25797 20.3809C6.85383 20.743 7.4825 21.0054 8.1262 21.1612C8.2511 21.1911 8.365 21.2558 8.45472 21.3477C8.54444 21.4396 8.60633 21.555 8.63323 21.6806L8.96943 23.2331H9.56667C9.7479 23.2331 9.92171 23.3051 10.0499 23.4332C10.178 23.5614 10.25 23.7352 10.25 23.9164C10.25 24.0977 10.178 24.2715 10.0499 24.3996C9.92171 24.5278 9.7479 24.5998 9.56667 24.5998ZM19.8167 23.9164C19.7128 23.9167 19.6102 23.8932 19.5168 23.8477C19.4234 23.8023 19.3416 23.7361 19.2776 23.6542C19.2137 23.5724 19.1693 23.477 19.1478 23.3753C19.1264 23.2737 19.1284 23.1685 19.1538 23.0677L20.5205 17.6011C20.5416 17.5137 20.5798 17.4313 20.633 17.3589C20.6863 17.2864 20.7534 17.2252 20.8304 17.1789C20.9075 17.1326 20.993 17.1021 21.082 17.0892C21.171 17.0763 21.2616 17.0812 21.3487 17.1036C21.4358 17.1252 21.5178 17.1637 21.59 17.2171C21.6622 17.2704 21.7232 17.3375 21.7694 17.4144C21.8156 17.4914 21.8462 17.5767 21.8593 17.6655C21.8725 17.7542 21.868 17.8448 21.8462 17.9318L20.4795 23.3985C20.443 23.5466 20.3579 23.6782 20.2377 23.7721C20.1175 23.866 19.9692 23.9169 19.8167 23.9164ZM23.9167 23.9164C23.7816 23.9164 23.6496 23.8764 23.5373 23.8014C23.425 23.7264 23.3374 23.6198 23.2857 23.495C23.2339 23.3703 23.2203 23.233 23.2465 23.1005C23.2727 22.9681 23.3375 22.8463 23.4329 22.7507L25.6838 20.4998L23.4342 18.2502C23.3098 18.1214 23.2409 17.9487 23.2424 17.7696C23.244 17.5904 23.3159 17.419 23.4426 17.2923C23.5693 17.1656 23.7406 17.0938 23.9198 17.0922C24.099 17.0907 24.2716 17.1595 24.4005 17.284L27.1338 20.0173C27.2619 20.1455 27.3339 20.3193 27.3339 20.5005C27.3339 20.6816 27.2619 20.8554 27.1338 20.9836L24.4005 23.7169C24.2719 23.8447 24.098 23.9165 23.9167 23.9164ZM17.0833 23.9164C16.902 23.9165 16.7281 23.8447 16.5995 23.7169L13.8662 20.9836C13.7381 20.8554 13.6661 20.6816 13.6661 20.5005C13.6661 20.3193 13.7381 20.1455 13.8662 20.0173L16.5995 17.284C16.7284 17.1595 16.901 17.0907 17.0802 17.0922C17.2594 17.0938 17.4307 17.1656 17.5574 17.2923C17.6841 17.419 17.756 17.5904 17.7576 17.7696C17.7591 17.9487 17.6902 18.1214 17.5658 18.2502L15.3162 20.4998L17.5658 22.7493C17.6615 22.8448 17.7267 22.9665 17.7533 23.0991C17.7798 23.2317 17.7663 23.3692 17.7147 23.4941C17.663 23.6191 17.5755 23.7259 17.4631 23.8011C17.3507 23.8763 17.2185 23.9164 17.0833 23.9164Z" fill="url(#paint4_linear_7_312)"/>
<defs>
<linearGradient id="paint0_linear_7_312" x1="10.7693" y1="37.6885" x2="35.9427" y2="28.2737" gradientUnits="userSpaceOnUse">
<stop stop-color="#E75778"/>
<stop offset="0.888634" stop-color="#8876FF"/>
</linearGradient>
<linearGradient id="paint1_linear_7_312" x1="7.12034" y1="32.3959" x2="37.2873" y2="15.6571" gradientUnits="userSpaceOnUse">
<stop stop-color="#E75778"/>
<stop offset="0.888634" stop-color="#8876FF"/>
</linearGradient>
<linearGradient id="paint2_linear_7_312" x1="31.3137" y1="33.8775" x2="43.2917" y2="29.6777" gradientUnits="userSpaceOnUse">
<stop stop-color="#E75778"/>
<stop offset="0.888634" stop-color="#8876FF"/>
</linearGradient>
<linearGradient id="paint3_linear_7_312" x1="7.11654" y1="27.9346" x2="25.0615" y2="8.28543" gradientUnits="userSpaceOnUse">
<stop stop-color="#E75778"/>
<stop offset="0.888634" stop-color="#8876FF"/>
</linearGradient>
<linearGradient id="paint4_linear_7_312" x1="1.50336" y1="22.9423" x2="20.6595" y2="5.04954" gradientUnits="userSpaceOnUse">
<stop stop-color="#E75778"/>
<stop offset="0.888634" stop-color="#8876FF"/>
</linearGradient>
</defs>
</svg>
