<svg width="42" height="42" viewBox="0 0 42 42" fill="none" xmlns="http://www.w3.org/2000/svg">
<path d="M23.1941 36.5073C23.1941 36.6267 23.1471 36.7411 23.0636 36.8255C22.98 36.9099 22.8666 36.9573 22.7484 36.9573H19.391C19.2728 36.9573 19.1594 36.9099 19.0758 36.8255C18.9923 36.7411 18.9453 36.6267 18.9453 36.5073C18.9453 36.388 18.9923 36.2735 19.0758 36.1891C19.1594 36.1047 19.2728 36.0573 19.391 36.0573H22.7484C22.8666 36.0573 22.98 36.1047 23.0636 36.1891C23.1471 36.2735 23.1941 36.388 23.1941 36.5073ZM41.6344 33.1153V38.289C41.6344 40.0044 40.252 41.3999 38.553 41.3999H28.8767C27.7216 41.3999 26.7134 40.7545 26.1859 39.8024H15.0868C12.8487 39.8024 11.0279 37.9641 11.0279 35.7045V23.2268H8.66748C8.54927 23.2268 8.4359 23.1794 8.35231 23.095C8.26872 23.0106 8.22176 22.8962 8.22176 22.7768V11.7053H3.7878C2.04577 11.7053 0.628662 10.2745 0.628662 8.5158V3.18942C0.628662 1.43073 2.04577 0 3.78771 0H13.5471C15.289 0 16.7062 1.43073 16.7062 3.18942V5.8743H27.0524C28.4127 5.8743 29.6796 6.57576 30.4272 7.70301L35.5186 2.56257C35.6022 2.47818 35.7156 2.43077 35.8338 2.43077C35.952 2.43077 36.0654 2.47818 36.149 2.56257L38.1558 4.58865C38.1972 4.63042 38.2301 4.68002 38.2525 4.7346C38.2749 4.78919 38.2864 4.84769 38.2864 4.90678C38.2864 4.96587 38.2749 5.02438 38.2525 5.07897C38.2301 5.13356 38.1973 5.18317 38.1559 5.22495L31.1114 12.3373V26.917H33.7148C33.833 26.917 33.9464 26.9644 34.03 27.0488C34.1136 27.1332 34.1605 27.2477 34.1605 27.367V30.0046H38.553C40.252 30.0044 41.6344 31.4 41.6344 33.1153ZM31.1114 27.8168V30.0044H33.2691V27.8168H31.1114ZM24.7182 14.7396L24.0928 16.7607L26.0947 16.1294L37.2105 4.90671L35.8339 3.51711L24.7182 14.7396ZM24.7871 17.4847L23.5468 17.8758C23.4691 17.9003 23.3863 17.9029 23.3073 17.8833C23.2284 17.8637 23.1562 17.8226 23.0987 17.7645C23.0412 17.7064 23.0005 17.6336 22.9811 17.5538C22.9616 17.4741 22.9642 17.3905 22.9885 17.3121L23.4405 15.8512C22.7475 15.3552 21.9192 15.0884 21.0697 15.0877C18.9608 15.0877 17.2189 16.7045 16.996 18.7749H25.1433C25.0947 18.3281 24.9744 17.8924 24.7871 17.4847ZM21.0697 14.1877C22.0474 14.1877 22.8428 13.3846 22.8428 12.3975C22.8428 11.4104 22.0474 10.6073 21.0697 10.6073C20.092 10.6073 19.2966 11.4104 19.2966 12.3975C19.2966 13.3846 20.0919 14.1877 21.0697 14.1877ZM3.78771 10.8053H13.5471C14.7975 10.8053 15.8148 9.77823 15.8148 8.51589V3.18942C15.8148 1.92708 14.7975 0.9 13.5471 0.9H3.78771C2.53739 0.9 1.52009 1.92708 1.52009 3.18942V8.5158C1.52009 9.77814 2.53739 10.8053 3.78771 10.8053ZM11.0279 22.3268V11.7053H9.11319V22.3269H11.0279V22.3268ZM14.9849 23.9748V23.2268H11.9192V33.4976H25.7953V33.1153C25.7953 31.3999 27.1775 30.0044 28.8766 30.0044H30.2199V27.8168H27.1544V28.5648C27.1544 28.6842 27.1074 28.7986 27.0238 28.883C26.9402 28.9674 26.8269 29.0148 26.7087 29.0148H15.4306C15.3124 29.0148 15.199 28.9674 15.1154 28.883C15.0318 28.7986 14.9849 28.6842 14.9849 28.5648V26.1689C14.9849 26.0495 15.0318 25.935 15.1154 25.8507C15.199 25.7663 15.3124 25.7189 15.4306 25.7189H26.7087C26.7673 25.7189 26.8252 25.7305 26.8793 25.7531C26.9334 25.7757 26.9825 25.8089 27.0239 25.8507C27.0653 25.8924 27.0981 25.942 27.1205 25.9966C27.1429 26.0512 27.1545 26.1098 27.1545 26.1689V26.9169H30.22V13.2372L26.6475 16.844C26.5966 16.8955 26.534 16.9337 26.4652 16.9554L25.6445 17.2142C25.9176 17.8486 26.0587 18.533 26.0589 19.2248C26.0589 19.3442 26.0119 19.4586 25.9283 19.543C25.8448 19.6274 25.7314 19.6748 25.6132 19.6748H16.5261C16.4079 19.6748 16.2946 19.6274 16.211 19.543C16.1274 19.4586 16.0804 19.3442 16.0804 19.2248C16.0804 17.0427 17.4621 15.1809 19.3884 14.4826C18.7888 13.9889 18.4051 13.2376 18.4051 12.3974C18.4051 10.9141 19.6004 9.70722 21.0696 9.70722C22.5387 9.70722 23.7341 10.914 23.7341 12.3974C23.7341 13.2376 23.3504 13.989 22.7507 14.4826C23.0889 14.6047 23.413 14.7632 23.7176 14.9553L23.9 14.3654C23.9215 14.296 23.9594 14.2329 24.0103 14.1815L29.7802 8.35614C29.2128 7.38675 28.1737 6.77412 27.0525 6.77412H16.7062V8.51571C16.7062 10.2744 15.289 11.7051 13.5471 11.7051H11.9192V22.3268H14.9849V21.5787C14.9849 21.4593 15.0318 21.3449 15.1154 21.2605C15.199 21.1761 15.3124 21.1287 15.4306 21.1287H26.7087C26.827 21.1287 26.9403 21.1761 27.0239 21.2605C27.1075 21.3449 27.1545 21.4593 27.1545 21.5787V23.9747C27.1545 24.094 27.1075 24.2085 27.0239 24.2928C26.9403 24.3772 26.827 24.4247 26.7087 24.4247H15.4306C15.372 24.4247 15.3141 24.4131 15.26 24.3905C15.2059 24.3679 15.1568 24.3347 15.1154 24.293C15.074 24.2512 15.0412 24.2016 15.0188 24.147C14.9964 24.0924 14.9849 24.0339 14.9849 23.9748ZM26.263 23.5248V22.0289H15.8763V23.5248H26.263ZM15.8763 26.6189V28.1148H26.263V26.6189H15.8763ZM25.8558 38.9025C25.8156 38.7005 25.7954 38.4951 25.7954 38.2891V34.3976H11.9193V35.7046C11.9193 37.468 13.3403 38.9025 15.0868 38.9025H25.8558ZM40.743 33.1153C40.743 31.8962 39.7605 30.9044 38.553 30.9044H28.8767C27.6692 30.9044 26.6868 31.8963 26.6868 33.1153V38.289C26.6868 39.5081 27.6693 40.4999 28.8767 40.4999H38.553C39.7605 40.5 40.743 39.5081 40.743 38.2891V33.1153ZM12.8126 3.74886H4.52233C4.40412 3.74886 4.29075 3.79627 4.20717 3.88066C4.12358 3.96505 4.07662 4.07951 4.07662 4.19886C4.07662 4.31821 4.12358 4.43267 4.20717 4.51706C4.29075 4.60145 4.40412 4.64886 4.52233 4.64886H12.8126C12.9308 4.64886 13.0442 4.60145 13.1278 4.51706C13.2114 4.43267 13.2583 4.31821 13.2583 4.19886C13.2583 4.07951 13.2114 3.96505 13.1278 3.88066C13.0442 3.79627 12.9308 3.74886 12.8126 3.74886ZM12.8126 7.05636H4.52233C4.40412 7.05636 4.29075 7.10377 4.20717 7.18816C4.12358 7.27255 4.07662 7.38701 4.07662 7.50636C4.07662 7.62571 4.12358 7.74017 4.20717 7.82456C4.29075 7.90895 4.40412 7.95636 4.52233 7.95636H12.8126C12.9308 7.95636 13.0442 7.90895 13.1278 7.82456C13.2114 7.74017 13.2583 7.62571 13.2583 7.50636C13.2583 7.38701 13.2114 7.27255 13.1278 7.18816C13.0442 7.10377 12.9308 7.05636 12.8126 7.05636ZM37.86 36.9059H29.5697C29.4515 36.9059 29.3381 36.9533 29.2545 37.0377C29.1709 37.122 29.124 37.2365 29.124 37.3559C29.124 37.4752 29.1709 37.5897 29.2545 37.674C29.3381 37.7584 29.4515 37.8059 29.5697 37.8059H37.86C37.9782 37.8059 38.0916 37.7584 38.1751 37.674C38.2587 37.5897 38.3057 37.4752 38.3057 37.3559C38.3057 37.2365 38.2587 37.122 38.1751 37.0377C38.0916 36.9533 37.9782 36.9059 37.86 36.9059ZM37.86 33.5984H29.5697C29.4515 33.5984 29.3381 33.6458 29.2545 33.7302C29.1709 33.8145 29.124 33.929 29.124 34.0484C29.124 34.1677 29.1709 34.2822 29.2545 34.3666C29.3381 34.4509 29.4515 34.4984 29.5697 34.4984H37.86C37.9782 34.4984 38.0916 34.4509 38.1751 34.3666C38.2587 34.2822 38.3057 34.1677 38.3057 34.0484C38.3057 33.929 38.2587 33.8145 38.1751 33.7302C38.0916 33.6458 37.9782 33.5984 37.86 33.5984Z" fill="url(#paint0_linear_7_272)"/>
<defs>
<linearGradient id="paint0_linear_7_272" x1="2.88398" y1="37.8172" x2="40.7714" y2="13.2561" gradientUnits="userSpaceOnUse">
<stop stop-color="#E75778"/>
<stop offset="0.888634" stop-color="#8876FF"/>
</linearGradient>
</defs>
</svg>
