<svg width="130" height="130" viewBox="0 0 130 130" fill="none" xmlns="http://www.w3.org/2000/svg">
<path fill-rule="evenodd" clip-rule="evenodd" d="M5 0C5.98891 0 6.95561 0.293244 7.77785 0.842651C8.6001 1.39206 9.24096 2.17295 9.6194 3.08658C9.99784 4.00021 10.0969 5.00555 9.90393 5.97545C9.711 6.94536 9.2348 7.83627 8.53553 8.53553C7.83627 9.2348 6.94536 9.711 5.97545 9.90393C5.00555 10.0969 4.00021 9.99783 3.08658 9.6194C2.17295 9.24096 1.39206 8.6001 0.842652 7.77785C0.293245 6.95561 0 5.98891 0 5C0 3.67392 0.526784 2.40215 1.46447 1.46447C2.40215 0.526784 3.67392 0 5 0ZM25 0C25.9889 0 26.9556 0.293244 27.7779 0.842651C28.6001 1.39206 29.241 2.17295 29.6194 3.08658C29.9978 4.00021 30.0969 5.00555 29.9039 5.97545C29.711 6.94536 29.2348 7.83627 28.5355 8.53553C27.8363 9.2348 26.9454 9.711 25.9755 9.90393C25.0055 10.0969 24.0002 9.99783 23.0866 9.6194C22.173 9.24096 21.3921 8.6001 20.8427 7.77785C20.2932 6.95561 20 5.98891 20 5C20 3.67392 20.5268 2.40215 21.4645 1.46447C22.4021 0.526784 23.6739 0 25 0ZM45 0C45.9889 0 46.9556 0.293244 47.7779 0.842651C48.6001 1.39206 49.241 2.17295 49.6194 3.08658C49.9978 4.00021 50.0969 5.00555 49.9039 5.97545C49.711 6.94536 49.2348 7.83627 48.5355 8.53553C47.8363 9.2348 46.9454 9.711 45.9755 9.90393C45.0055 10.0969 44.0002 9.99783 43.0866 9.6194C42.173 9.24096 41.3921 8.6001 40.8427 7.77785C40.2932 6.95561 40 5.98891 40 5C40 3.67392 40.5268 2.40215 41.4645 1.46447C42.4021 0.526784 43.6739 0 45 0ZM65 0C65.9889 0 66.9556 0.293244 67.7779 0.842651C68.6001 1.39206 69.241 2.17295 69.6194 3.08658C69.9978 4.00021 70.0968 5.00555 69.9039 5.97545C69.711 6.94536 69.2348 7.83627 68.5355 8.53553C67.8363 9.2348 66.9454 9.711 65.9754 9.90393C65.0055 10.0969 64.0002 9.99783 63.0866 9.6194C62.173 9.24096 61.3921 8.6001 60.8427 7.77785C60.2932 6.95561 60 5.98891 60 5C60 3.67392 60.5268 2.40215 61.4645 1.46447C62.4021 0.526784 63.6739 0 65 0ZM85 0C85.9889 0 86.9556 0.293244 87.7779 0.842651C88.6001 1.39206 89.241 2.17295 89.6194 3.08658C89.9978 4.00021 90.0968 5.00555 89.9039 5.97545C89.711 6.94536 89.2348 7.83627 88.5355 8.53553C87.8363 9.2348 86.9454 9.711 85.9754 9.90393C85.0055 10.0969 84.0002 9.99783 83.0866 9.6194C82.173 9.24096 81.3921 8.6001 80.8427 7.77785C80.2932 6.95561 80 5.98891 80 5C80 3.67392 80.5268 2.40215 81.4645 1.46447C82.4021 0.526784 83.6739 0 85 0ZM105 0C105.989 0 106.956 0.293244 107.778 0.842651C108.6 1.39206 109.241 2.17295 109.619 3.08658C109.998 4.00021 110.097 5.00555 109.904 5.97545C109.711 6.94536 109.235 7.83627 108.536 8.53553C107.836 9.2348 106.945 9.711 105.975 9.90393C105.006 10.0969 104 9.99783 103.087 9.6194C102.173 9.24096 101.392 8.6001 100.843 7.77785C100.293 6.95561 100 5.98891 100 5C100 3.67392 100.527 2.40215 101.464 1.46447C102.402 0.526784 103.674 0 105 0ZM125 0C125.989 0 126.956 0.293244 127.778 0.842651C128.6 1.39206 129.241 2.17295 129.619 3.08658C129.998 4.00021 130.097 5.00555 129.904 5.97545C129.711 6.94536 129.235 7.83627 128.536 8.53553C127.836 9.2348 126.945 9.711 125.975 9.90393C125.006 10.0969 124 9.99783 123.087 9.6194C122.173 9.24096 121.392 8.6001 120.843 7.77785C120.293 6.95561 120 5.98891 120 5C120 3.67392 120.527 2.40215 121.464 1.46447C122.402 0.526784 123.674 0 125 0ZM5 20C5.98891 20 6.95561 20.2932 7.77785 20.8427C8.6001 21.3921 9.24096 22.173 9.6194 23.0866C9.99784 24.0002 10.0969 25.0055 9.90393 25.9754C9.711 26.9454 9.2348 27.8363 8.53553 28.5355C7.83627 29.2348 6.94536 29.711 5.97545 29.9039C5.00555 30.0968 4.00021 29.9978 3.08658 29.6194C2.17295 29.241 1.39206 28.6001 0.842652 27.7779C0.293245 26.9556 0 25.9889 0 25C0 23.6739 0.526784 22.4021 1.46447 21.4645C2.40215 20.5268 3.67392 20 5 20ZM25 20C25.9889 20 26.9556 20.2932 27.7779 20.8427C28.6001 21.3921 29.241 22.173 29.6194 23.0866C29.9978 24.0002 30.0969 25.0055 29.9039 25.9754C29.711 26.9454 29.2348 27.8363 28.5355 28.5355C27.8363 29.2348 26.9454 29.711 25.9755 29.9039C25.0055 30.0968 24.0002 29.9978 23.0866 29.6194C22.173 29.241 21.3921 28.6001 20.8427 27.7779C20.2932 26.9556 20 25.9889 20 25C20 23.6739 20.5268 22.4021 21.4645 21.4645C22.4021 20.5268 23.6739 20 25 20ZM45 20C45.9889 20 46.9556 20.2932 47.7779 20.8427C48.6001 21.3921 49.241 22.173 49.6194 23.0866C49.9978 24.0002 50.0969 25.0055 49.9039 25.9754C49.711 26.9454 49.2348 27.8363 48.5355 28.5355C47.8363 29.2348 46.9454 29.711 45.9755 29.9039C45.0055 30.0968 44.0002 29.9978 43.0866 29.6194C42.173 29.241 41.3921 28.6001 40.8427 27.7779C40.2932 26.9556 40 25.9889 40 25C40 23.6739 40.5268 22.4021 41.4645 21.4645C42.4021 20.5268 43.6739 20 45 20ZM65 20C65.9889 20 66.9556 20.2932 67.7779 20.8427C68.6001 21.3921 69.241 22.173 69.6194 23.0866C69.9978 24.0002 70.0968 25.0055 69.9039 25.9754C69.711 26.9454 69.2348 27.8363 68.5355 28.5355C67.8363 29.2348 66.9454 29.711 65.9754 29.9039C65.0055 30.0968 64.0002 29.9978 63.0866 29.6194C62.173 29.241 61.3921 28.6001 60.8427 27.7779C60.2932 26.9556 60 25.9889 60 25C60 23.6739 60.5268 22.4021 61.4645 21.4645C62.4021 20.5268 63.6739 20 65 20ZM85 20C85.9889 20 86.9556 20.2932 87.7779 20.8427C88.6001 21.3921 89.241 22.173 89.6194 23.0866C89.9978 24.0002 90.0968 25.0055 89.9039 25.9754C89.711 26.9454 89.2348 27.8363 88.5355 28.5355C87.8363 29.2348 86.9454 29.711 85.9754 29.9039C85.0055 30.0968 84.0002 29.9978 83.0866 29.6194C82.173 29.241 81.3921 28.6001 80.8427 27.7779C80.2932 26.9556 80 25.9889 80 25C80 23.6739 80.5268 22.4021 81.4645 21.4645C82.4021 20.5268 83.6739 20 85 20ZM105 20C105.989 20 106.956 20.2932 107.778 20.8427C108.6 21.3921 109.241 22.173 109.619 23.0866C109.998 24.0002 110.097 25.0055 109.904 25.9754C109.711 26.9454 109.235 27.8363 108.536 28.5355C107.836 29.2348 106.945 29.711 105.975 29.9039C105.006 30.0968 104 29.9978 103.087 29.6194C102.173 29.241 101.392 28.6001 100.843 27.7779C100.293 26.9556 100 25.9889 100 25C100 23.6739 100.527 22.4021 101.464 21.4645C102.402 20.5268 103.674 20 105 20ZM125 20C125.989 20 126.956 20.2932 127.778 20.8427C128.6 21.3921 129.241 22.173 129.619 23.0866C129.998 24.0002 130.097 25.0055 129.904 25.9754C129.711 26.9454 129.235 27.8363 128.536 28.5355C127.836 29.2348 126.945 29.711 125.975 29.9039C125.006 30.0968 124 29.9978 123.087 29.6194C122.173 29.241 121.392 28.6001 120.843 27.7779C120.293 26.9556 120 25.9889 120 25C120 23.6739 120.527 22.4021 121.464 21.4645C122.402 20.5268 123.674 20 125 20ZM5 40C5.98891 40 6.95561 40.2932 7.77785 40.8427C8.6001 41.3921 9.24096 42.173 9.6194 43.0866C9.99784 44.0002 10.0969 45.0055 9.90393 45.9754C9.711 46.9454 9.2348 47.8363 8.53553 48.5355C7.83627 49.2348 6.94536 49.711 5.97545 49.9039C5.00555 50.0968 4.00021 49.9978 3.08658 49.6194C2.17295 49.241 1.39206 48.6001 0.842652 47.7779C0.293245 46.9556 0 45.9889 0 45C0 43.6739 0.526784 42.4021 1.46447 41.4645C2.40215 40.5268 3.67392 40 5 40ZM25 40C25.9889 40 26.9556 40.2932 27.7779 40.8427C28.6001 41.3921 29.241 42.173 29.6194 43.0866C29.9978 44.0002 30.0969 45.0055 29.9039 45.9754C29.711 46.9454 29.2348 47.8363 28.5355 48.5355C27.8363 49.2348 26.9454 49.711 25.9755 49.9039C25.0055 50.0968 24.0002 49.9978 23.0866 49.6194C22.173 49.241 21.3921 48.6001 20.8427 47.7779C20.2932 46.9556 20 45.9889 20 45C20 43.6739 20.5268 42.4021 21.4645 41.4645C22.4021 40.5268 23.6739 40 25 40ZM45 40C45.9889 40 46.9556 40.2932 47.7779 40.8427C48.6001 41.3921 49.241 42.173 49.6194 43.0866C49.9978 44.0002 50.0969 45.0055 49.9039 45.9754C49.711 46.9454 49.2348 47.8363 48.5355 48.5355C47.8363 49.2348 46.9454 49.711 45.9755 49.9039C45.0055 50.0968 44.0002 49.9978 43.0866 49.6194C42.173 49.241 41.3921 48.6001 40.8427 47.7779C40.2932 46.9556 40 45.9889 40 45C40 43.6739 40.5268 42.4021 41.4645 41.4645C42.4021 40.5268 43.6739 40 45 40ZM65 40C65.9889 40 66.9556 40.2932 67.7779 40.8427C68.6001 41.3921 69.241 42.173 69.6194 43.0866C69.9978 44.0002 70.0968 45.0055 69.9039 45.9754C69.711 46.9454 69.2348 47.8363 68.5355 48.5355C67.8363 49.2348 66.9454 49.711 65.9754 49.9039C65.0055 50.0968 64.0002 49.9978 63.0866 49.6194C62.173 49.241 61.3921 48.6001 60.8427 47.7779C60.2932 46.9556 60 45.9889 60 45C60 43.6739 60.5268 42.4021 61.4645 41.4645C62.4021 40.5268 63.6739 40 65 40ZM85 40C85.9889 40 86.9556 40.2932 87.7779 40.8427C88.6001 41.3921 89.241 42.173 89.6194 43.0866C89.9978 44.0002 90.0968 45.0055 89.9039 45.9754C89.711 46.9454 89.2348 47.8363 88.5355 48.5355C87.8363 49.2348 86.9454 49.711 85.9754 49.9039C85.0055 50.0968 84.0002 49.9978 83.0866 49.6194C82.173 49.241 81.3921 48.6001 80.8427 47.7779C80.2932 46.9556 80 45.9889 80 45C80 43.6739 80.5268 42.4021 81.4645 41.4645C82.4021 40.5268 83.6739 40 85 40ZM105 40C105.989 40 106.956 40.2932 107.778 40.8427C108.6 41.3921 109.241 42.173 109.619 43.0866C109.998 44.0002 110.097 45.0055 109.904 45.9754C109.711 46.9454 109.235 47.8363 108.536 48.5355C107.836 49.2348 106.945 49.711 105.975 49.9039C105.006 50.0968 104 49.9978 103.087 49.6194C102.173 49.241 101.392 48.6001 100.843 47.7779C100.293 46.9556 100 45.9889 100 45C100 43.6739 100.527 42.4021 101.464 41.4645C102.402 40.5268 103.674 40 105 40ZM125 40C125.989 40 126.956 40.2932 127.778 40.8427C128.6 41.3921 129.241 42.173 129.619 43.0866C129.998 44.0002 130.097 45.0055 129.904 45.9754C129.711 46.9454 129.235 47.8363 128.536 48.5355C127.836 49.2348 126.945 49.711 125.975 49.9039C125.006 50.0968 124 49.9978 123.087 49.6194C122.173 49.241 121.392 48.6001 120.843 47.7779C120.293 46.9556 120 45.9889 120 45C120 43.6739 120.527 42.4021 121.464 41.4645C122.402 40.5268 123.674 40 125 40ZM5 60C5.98891 60 6.95561 60.2932 7.77785 60.8427C8.6001 61.3921 9.24096 62.173 9.6194 63.0866C9.99784 64.0002 10.0969 65.0055 9.90393 65.9754C9.711 66.9454 9.2348 67.8363 8.53553 68.5355C7.83627 69.2348 6.94536 69.711 5.97545 69.9039C5.00555 70.0968 4.00021 69.9978 3.08658 69.6194C2.17295 69.241 1.39206 68.6001 0.842652 67.7779C0.293245 66.9556 0 65.9889 0 65C0 63.6739 0.526784 62.4021 1.46447 61.4645C2.40215 60.5268 3.67392 60 5 60ZM25 60C25.9889 60 26.9556 60.2932 27.7779 60.8427C28.6001 61.3921 29.241 62.173 29.6194 63.0866C29.9978 64.0002 30.0969 65.0055 29.9039 65.9754C29.711 66.9454 29.2348 67.8363 28.5355 68.5355C27.8363 69.2348 26.9454 69.711 25.9755 69.9039C25.0055 70.0968 24.0002 69.9978 23.0866 69.6194C22.173 69.241 21.3921 68.6001 20.8427 67.7779C20.2932 66.9556 20 65.9889 20 65C20 63.6739 20.5268 62.4021 21.4645 61.4645C22.4021 60.5268 23.6739 60 25 60ZM45 60C45.9889 60 46.9556 60.2932 47.7779 60.8427C48.6001 61.3921 49.241 62.173 49.6194 63.0866C49.9978 64.0002 50.0969 65.0055 49.9039 65.9754C49.711 66.9454 49.2348 67.8363 48.5355 68.5355C47.8363 69.2348 46.9454 69.711 45.9755 69.9039C45.0055 70.0968 44.0002 69.9978 43.0866 69.6194C42.173 69.241 41.3921 68.6001 40.8427 67.7779C40.2932 66.9556 40 65.9889 40 65C40 63.6739 40.5268 62.4021 41.4645 61.4645C42.4021 60.5268 43.6739 60 45 60ZM65 60C65.9889 60 66.9556 60.2932 67.7779 60.8427C68.6001 61.3921 69.241 62.173 69.6194 63.0866C69.9978 64.0002 70.0968 65.0055 69.9039 65.9754C69.711 66.9454 69.2348 67.8363 68.5355 68.5355C67.8363 69.2348 66.9454 69.711 65.9754 69.9039C65.0055 70.0968 64.0002 69.9978 63.0866 69.6194C62.173 69.241 61.3921 68.6001 60.8427 67.7779C60.2932 66.9556 60 65.9889 60 65C60 63.6739 60.5268 62.4021 61.4645 61.4645C62.4021 60.5268 63.6739 60 65 60ZM85 60C85.9889 60 86.9556 60.2932 87.7779 60.8427C88.6001 61.3921 89.241 62.173 89.6194 63.0866C89.9978 64.0002 90.0968 65.0055 89.9039 65.9754C89.711 66.9454 89.2348 67.8363 88.5355 68.5355C87.8363 69.2348 86.9454 69.711 85.9754 69.9039C85.0055 70.0968 84.0002 69.9978 83.0866 69.6194C82.173 69.241 81.3921 68.6001 80.8427 67.7779C80.2932 66.9556 80 65.9889 80 65C80 63.6739 80.5268 62.4021 81.4645 61.4645C82.4021 60.5268 83.6739 60 85 60ZM105 60C105.989 60 106.956 60.2932 107.778 60.8427C108.6 61.3921 109.241 62.173 109.619 63.0866C109.998 64.0002 110.097 65.0055 109.904 65.9754C109.711 66.9454 109.235 67.8363 108.536 68.5355C107.836 69.2348 106.945 69.711 105.975 69.9039C105.006 70.0968 104 69.9978 103.087 69.6194C102.173 69.241 101.392 68.6001 100.843 67.7779C100.293 66.9556 100 65.9889 100 65C100 63.6739 100.527 62.4021 101.464 61.4645C102.402 60.5268 103.674 60 105 60ZM125 60C125.989 60 126.956 60.2932 127.778 60.8427C128.6 61.3921 129.241 62.173 129.619 63.0866C129.998 64.0002 130.097 65.0055 129.904 65.9754C129.711 66.9454 129.235 67.8363 128.536 68.5355C127.836 69.2348 126.945 69.711 125.975 69.9039C125.006 70.0968 124 69.9978 123.087 69.6194C122.173 69.241 121.392 68.6001 120.843 67.7779C120.293 66.9556 120 65.9889 120 65C120 63.6739 120.527 62.4021 121.464 61.4645C122.402 60.5268 123.674 60 125 60ZM5 80C5.98891 80 6.95561 80.2932 7.77785 80.8427C8.6001 81.3921 9.24096 82.173 9.6194 83.0866C9.99784 84.0002 10.0969 85.0055 9.90393 85.9754C9.711 86.9454 9.2348 87.8363 8.53553 88.5355C7.83627 89.2348 6.94536 89.711 5.97545 89.9039C5.00555 90.0969 4.00021 89.9978 3.08658 89.6194C2.17295 89.241 1.39206 88.6001 0.842652 87.7779C0.293245 86.9556 0 85.9889 0 85C0 83.6739 0.526784 82.4021 1.46447 81.4645C2.40215 80.5268 3.67392 80 5 80ZM25 80C25.9889 80 26.9556 80.2932 27.7779 80.8427C28.6001 81.3921 29.241 82.173 29.6194 83.0866C29.9978 84.0002 30.0969 85.0055 29.9039 85.9754C29.711 86.9454 29.2348 87.8363 28.5355 88.5355C27.8363 89.2348 26.9454 89.711 25.9755 89.9039C25.0055 90.0969 24.0002 89.9978 23.0866 89.6194C22.173 89.241 21.3921 88.6001 20.8427 87.7779C20.2932 86.9556 20 85.9889 20 85C20 83.6739 20.5268 82.4021 21.4645 81.4645C22.4021 80.5268 23.6739 80 25 80ZM45 80C45.9889 80 46.9556 80.2932 47.7779 80.8427C48.6001 81.3921 49.241 82.173 49.6194 83.0866C49.9978 84.0002 50.0969 85.0055 49.9039 85.9754C49.711 86.9454 49.2348 87.8363 48.5355 88.5355C47.8363 89.2348 46.9454 89.711 45.9755 89.9039C45.0055 90.0969 44.0002 89.9978 43.0866 89.6194C42.173 89.241 41.3921 88.6001 40.8427 87.7779C40.2932 86.9556 40 85.9889 40 85C40 83.6739 40.5268 82.4021 41.4645 81.4645C42.4021 80.5268 43.6739 80 45 80ZM65 80C65.9889 80 66.9556 80.2932 67.7779 80.8427C68.6001 81.3921 69.241 82.173 69.6194 83.0866C69.9978 84.0002 70.0968 85.0055 69.9039 85.9754C69.711 86.9454 69.2348 87.8363 68.5355 88.5355C67.8363 89.2348 66.9454 89.711 65.9754 89.9039C65.0055 90.0969 64.0002 89.9978 63.0866 89.6194C62.173 89.241 61.3921 88.6001 60.8427 87.7779C60.2932 86.9556 60 85.9889 60 85C60 83.6739 60.5268 82.4021 61.4645 81.4645C62.4021 80.5268 63.6739 80 65 80ZM85 80C85.9889 80 86.9556 80.2932 87.7779 80.8427C88.6001 81.3921 89.241 82.173 89.6194 83.0866C89.9978 84.0002 90.0968 85.0055 89.9039 85.9754C89.711 86.9454 89.2348 87.8363 88.5355 88.5355C87.8363 89.2348 86.9454 89.711 85.9754 89.9039C85.0055 90.0969 84.0002 89.9978 83.0866 89.6194C82.173 89.241 81.3921 88.6001 80.8427 87.7779C80.2932 86.9556 80 85.9889 80 85C80 83.6739 80.5268 82.4021 81.4645 81.4645C82.4021 80.5268 83.6739 80 85 80ZM105 80C105.989 80 106.956 80.2932 107.778 80.8427C108.6 81.3921 109.241 82.173 109.619 83.0866C109.998 84.0002 110.097 85.0055 109.904 85.9754C109.711 86.9454 109.235 87.8363 108.536 88.5355C107.836 89.2348 106.945 89.711 105.975 89.9039C105.006 90.0969 104 89.9978 103.087 89.6194C102.173 89.241 101.392 88.6001 100.843 87.7779C100.293 86.9556 100 85.9889 100 85C100 83.6739 100.527 82.4021 101.464 81.4645C102.402 80.5268 103.674 80 105 80ZM125 80C125.989 80 126.956 80.2932 127.778 80.8427C128.6 81.3921 129.241 82.173 129.619 83.0866C129.998 84.0002 130.097 85.0055 129.904 85.9754C129.711 86.9454 129.235 87.8363 128.536 88.5355C127.836 89.2348 126.945 89.711 125.975 89.9039C125.006 90.0969 124 89.9978 123.087 89.6194C122.173 89.241 121.392 88.6001 120.843 87.7779C120.293 86.9556 120 85.9889 120 85C120 83.6739 120.527 82.4021 121.464 81.4645C122.402 80.5268 123.674 80 125 80ZM5 100C5.98891 100 6.95561 100.293 7.77785 100.843C8.6001 101.392 9.24096 102.173 9.6194 103.087C9.99784 104 10.0969 105.006 9.90393 105.975C9.711 106.945 9.2348 107.836 8.53553 108.536C7.83627 109.235 6.94536 109.711 5.97545 109.904C5.00555 110.097 4.00021 109.998 3.08658 109.619C2.17295 109.241 1.39206 108.6 0.842652 107.778C0.293245 106.956 0 105.989 0 105C0 103.674 0.526784 102.402 1.46447 101.464C2.40215 100.527 3.67392 100 5 100ZM25 100C25.9889 100 26.9556 100.293 27.7779 100.843C28.6001 101.392 29.241 102.173 29.6194 103.087C29.9978 104 30.0969 105.006 29.9039 105.975C29.711 106.945 29.2348 107.836 28.5355 108.536C27.8363 109.235 26.9454 109.711 25.9755 109.904C25.0055 110.097 24.0002 109.998 23.0866 109.619C22.173 109.241 21.3921 108.6 20.8427 107.778C20.2932 106.956 20 105.989 20 105C20 103.674 20.5268 102.402 21.4645 101.464C22.4021 100.527 23.6739 100 25 100ZM45 100C45.9889 100 46.9556 100.293 47.7779 100.843C48.6001 101.392 49.241 102.173 49.6194 103.087C49.9978 104 50.0969 105.006 49.9039 105.975C49.711 106.945 49.2348 107.836 48.5355 108.536C47.8363 109.235 46.9454 109.711 45.9755 109.904C45.0055 110.097 44.0002 109.998 43.0866 109.619C42.173 109.241 41.3921 108.6 40.8427 107.778C40.2932 106.956 40 105.989 40 105C40 103.674 40.5268 102.402 41.4645 101.464C42.4021 100.527 43.6739 100 45 100ZM65 100C65.9889 100 66.9556 100.293 67.7779 100.843C68.6001 101.392 69.241 102.173 69.6194 103.087C69.9978 104 70.0968 105.006 69.9039 105.975C69.711 106.945 69.2348 107.836 68.5355 108.536C67.8363 109.235 66.9454 109.711 65.9754 109.904C65.0055 110.097 64.0002 109.998 63.0866 109.619C62.173 109.241 61.3921 108.6 60.8427 107.778C60.2932 106.956 60 105.989 60 105C60 103.674 60.5268 102.402 61.4645 101.464C62.4021 100.527 63.6739 100 65 100ZM85 100C85.9889 100 86.9556 100.293 87.7779 100.843C88.6001 101.392 89.241 102.173 89.6194 103.087C89.9978 104 90.0968 105.006 89.9039 105.975C89.711 106.945 89.2348 107.836 88.5355 108.536C87.8363 109.235 86.9454 109.711 85.9754 109.904C85.0055 110.097 84.0002 109.998 83.0866 109.619C82.173 109.241 81.3921 108.6 80.8427 107.778C80.2932 106.956 80 105.989 80 105C80 103.674 80.5268 102.402 81.4645 101.464C82.4021 100.527 83.6739 100 85 100ZM105 100C105.989 100 106.956 100.293 107.778 100.843C108.6 101.392 109.241 102.173 109.619 103.087C109.998 104 110.097 105.006 109.904 105.975C109.711 106.945 109.235 107.836 108.536 108.536C107.836 109.235 106.945 109.711 105.975 109.904C105.006 110.097 104 109.998 103.087 109.619C102.173 109.241 101.392 108.6 100.843 107.778C100.293 106.956 100 105.989 100 105C100 103.674 100.527 102.402 101.464 101.464C102.402 100.527 103.674 100 105 100ZM125 100C125.989 100 126.956 100.293 127.778 100.843C128.6 101.392 129.241 102.173 129.619 103.087C129.998 104 130.097 105.006 129.904 105.975C129.711 106.945 129.235 107.836 128.536 108.536C127.836 109.235 126.945 109.711 125.975 109.904C125.006 110.097 124 109.998 123.087 109.619C122.173 109.241 121.392 108.6 120.843 107.778C120.293 106.956 120 105.989 120 105C120 103.674 120.527 102.402 121.464 101.464C122.402 100.527 123.674 100 125 100ZM5 120C5.98891 120 6.95561 120.293 7.77785 120.843C8.6001 121.392 9.24096 122.173 9.6194 123.087C9.99784 124 10.0969 125.006 9.90393 125.975C9.711 126.945 9.2348 127.836 8.53553 128.536C7.83627 129.235 6.94536 129.711 5.97545 129.904C5.00555 130.097 4.00021 129.998 3.08658 129.619C2.17295 129.241 1.39206 128.6 0.842652 127.778C0.293245 126.956 0 125.989 0 125C0 123.674 0.526784 122.402 1.46447 121.464C2.40215 120.527 3.67392 120 5 120ZM25 120C25.9889 120 26.9556 120.293 27.7779 120.843C28.6001 121.392 29.241 122.173 29.6194 123.087C29.9978 124 30.0969 125.006 29.9039 125.975C29.711 126.945 29.2348 127.836 28.5355 128.536C27.8363 129.235 26.9454 129.711 25.9755 129.904C25.0055 130.097 24.0002 129.998 23.0866 129.619C22.173 129.241 21.3921 128.6 20.8427 127.778C20.2932 126.956 20 125.989 20 125C20 123.674 20.5268 122.402 21.4645 121.464C22.4021 120.527 23.6739 120 25 120ZM45 120C45.9889 120 46.9556 120.293 47.7779 120.843C48.6001 121.392 49.241 122.173 49.6194 123.087C49.9978 124 50.0969 125.006 49.9039 125.975C49.711 126.945 49.2348 127.836 48.5355 128.536C47.8363 129.235 46.9454 129.711 45.9755 129.904C45.0055 130.097 44.0002 129.998 43.0866 129.619C42.173 129.241 41.3921 128.6 40.8427 127.778C40.2932 126.956 40 125.989 40 125C40 123.674 40.5268 122.402 41.4645 121.464C42.4021 120.527 43.6739 120 45 120ZM65 120C65.9889 120 66.9556 120.293 67.7779 120.843C68.6001 121.392 69.241 122.173 69.6194 123.087C69.9978 124 70.0968 125.006 69.9039 125.975C69.711 126.945 69.2348 127.836 68.5355 128.536C67.8363 129.235 66.9454 129.711 65.9754 129.904C65.0055 130.097 64.0002 129.998 63.0866 129.619C62.173 129.241 61.3921 128.6 60.8427 127.778C60.2932 126.956 60 125.989 60 125C60 123.674 60.5268 122.402 61.4645 121.464C62.4021 120.527 63.6739 120 65 120ZM85 120C85.9889 120 86.9556 120.293 87.7779 120.843C88.6001 121.392 89.241 122.173 89.6194 123.087C89.9978 124 90.0968 125.006 89.9039 125.975C89.711 126.945 89.2348 127.836 88.5355 128.536C87.8363 129.235 86.9454 129.711 85.9754 129.904C85.0055 130.097 84.0002 129.998 83.0866 129.619C82.173 129.241 81.3921 128.6 80.8427 127.778C80.2932 126.956 80 125.989 80 125C80 123.674 80.5268 122.402 81.4645 121.464C82.4021 120.527 83.6739 120 85 120ZM105 120C105.989 120 106.956 120.293 107.778 120.843C108.6 121.392 109.241 122.173 109.619 123.087C109.998 124 110.097 125.006 109.904 125.975C109.711 126.945 109.235 127.836 108.536 128.536C107.836 129.235 106.945 129.711 105.975 129.904C105.006 130.097 104 129.998 103.087 129.619C102.173 129.241 101.392 128.6 100.843 127.778C100.293 126.956 100 125.989 100 125C100 123.674 100.527 122.402 101.464 121.464C102.402 120.527 103.674 120 105 120ZM125 120C125.989 120 126.956 120.293 127.778 120.843C128.6 121.392 129.241 122.173 129.619 123.087C129.998 124 130.097 125.006 129.904 125.975C129.711 126.945 129.235 127.836 128.536 128.536C127.836 129.235 126.945 129.711 125.975 129.904C125.006 130.097 124 129.998 123.087 129.619C122.173 129.241 121.392 128.6 120.843 127.778C120.293 126.956 120 125.989 120 125C120 123.674 120.527 122.402 121.464 121.464C122.402 120.527 123.674 120 125 120Z" fill="#E1E2E6"/>
</svg>
