<svg xmlns="http://www.w3.org/2000/svg" xmlns:xlink="http://www.w3.org/1999/xlink" width="321" zoomAndPan="magnify" viewBox="0 0 240.75 141.750002" height="189" preserveAspectRatio="xMidYMid meet" version="1.0"><defs><g/></defs><g fill="#000000" fill-opacity="1"><g transform="translate(9.113633, 99.578069)"><g><path d="M 8.359375 -20.234375 L 1 -20.234375 L 1 -22.40625 L 18.0625 -22.40625 L 18.0625 -20.234375 L 10.703125 -20.234375 L 10.703125 0 L 8.359375 0 Z M 8.359375 -20.234375 "/></g></g></g><g fill="#000000" fill-opacity="1"><g transform="translate(28.010689, 99.578069)"><g><path d="M 3.015625 -22.40625 L 14.546875 -22.40625 L 14.546875 -20.234375 L 5.359375 -20.234375 L 5.359375 -12.71875 L 12.375 -12.71875 L 12.375 -10.53125 L 5.359375 -10.53125 L 5.359375 -2.171875 L 14.71875 -2.171875 L 14.71875 0 L 3.015625 0 Z M 3.015625 -22.40625 "/></g></g></g><g fill="#000000" fill-opacity="1"><g transform="translate(44.566502, 99.578069)"><g><path d="M 12.78125 0.328125 C 11.195312 0.328125 9.726562 0.0351562 8.375 -0.546875 C 7.03125 -1.140625 5.859375 -1.941406 4.859375 -2.953125 C 3.867188 -3.972656 3.085938 -5.179688 2.515625 -6.578125 C 1.953125 -7.972656 1.671875 -9.472656 1.671875 -11.078125 C 1.671875 -12.722656 1.96875 -14.253906 2.5625 -15.671875 C 3.15625 -17.085938 3.957031 -18.316406 4.96875 -19.359375 C 5.976562 -20.410156 7.164062 -21.238281 8.53125 -21.84375 C 9.894531 -22.445312 11.34375 -22.75 12.875 -22.75 C 14.550781 -22.75 16.113281 -22.394531 17.5625 -21.6875 C 19.007812 -20.988281 20.257812 -20.035156 21.3125 -18.828125 L 19.53125 -17.328125 C 18.664062 -18.328125 17.660156 -19.09375 16.515625 -19.625 C 15.378906 -20.164062 14.144531 -20.4375 12.8125 -20.4375 C 11.5625 -20.4375 10.410156 -20.207031 9.359375 -19.75 C 8.316406 -19.289062 7.410156 -18.648438 6.640625 -17.828125 C 5.867188 -17.003906 5.265625 -16.035156 4.828125 -14.921875 C 4.398438 -13.804688 4.1875 -12.578125 4.1875 -11.234375 C 4.1875 -9.898438 4.398438 -8.664062 4.828125 -7.53125 C 5.265625 -6.394531 5.875 -5.414062 6.65625 -4.59375 C 7.4375 -3.78125 8.363281 -3.140625 9.4375 -2.671875 C 10.507812 -2.203125 11.679688 -1.96875 12.953125 -1.96875 C 14.347656 -1.96875 15.613281 -2.242188 16.75 -2.796875 C 17.894531 -3.359375 18.859375 -4.109375 19.640625 -5.046875 L 21.3125 -3.609375 C 20.257812 -2.378906 19.007812 -1.414062 17.5625 -0.71875 C 16.113281 -0.0195312 14.519531 0.328125 12.78125 0.328125 Z M 12.78125 0.328125 "/></g></g></g><g fill="#000000" fill-opacity="1"><g transform="translate(67.209534, 99.578069)"><g><path d="M 3.015625 -22.40625 L 5.359375 -22.40625 L 5.359375 -12.375 L 17.390625 -12.375 L 17.390625 -22.40625 L 19.734375 -22.40625 L 19.734375 0 L 17.390625 0 L 17.390625 -10.203125 L 5.359375 -10.203125 L 5.359375 0 L 3.015625 0 Z M 3.015625 -22.40625 "/></g></g></g><g fill="#000000" fill-opacity="1"><g transform="translate(89.785677, 99.578069)"><g><path d="M 5.28125 -17.421875 L 5.28125 0 L 3.015625 0 L 3.015625 -23.078125 L 3.6875 -23.078125 L 18.796875 -4.984375 L 18.796875 -22.40625 L 21.078125 -22.40625 L 21.078125 0.671875 L 20.40625 0.671875 Z M 5.28125 -17.421875 "/></g></g></g><g fill="#000000" fill-opacity="1"><g transform="translate(113.69967, 99.578069)"><g><path d="M 12.875 0.328125 C 11.34375 0.328125 9.894531 0.03125 8.53125 -0.5625 C 7.164062 -1.164062 5.976562 -1.988281 4.96875 -3.03125 C 3.957031 -4.082031 3.15625 -5.304688 2.5625 -6.703125 C 1.96875 -8.097656 1.671875 -9.597656 1.671875 -11.203125 C 1.671875 -12.785156 1.96875 -14.28125 2.5625 -15.6875 C 3.15625 -17.09375 3.957031 -18.316406 4.96875 -19.359375 C 5.976562 -20.410156 7.164062 -21.238281 8.53125 -21.84375 C 9.894531 -22.445312 11.34375 -22.75 12.875 -22.75 C 14.414062 -22.75 15.863281 -22.445312 17.21875 -21.84375 C 18.582031 -21.238281 19.769531 -20.410156 20.78125 -19.359375 C 21.800781 -18.316406 22.609375 -17.097656 23.203125 -15.703125 C 23.796875 -14.304688 24.09375 -12.804688 24.09375 -11.203125 C 24.09375 -9.617188 23.796875 -8.128906 23.203125 -6.734375 C 22.609375 -5.347656 21.800781 -4.128906 20.78125 -3.078125 C 19.769531 -2.023438 18.582031 -1.191406 17.21875 -0.578125 C 15.863281 0.0234375 14.414062 0.328125 12.875 0.328125 Z M 12.875 -1.96875 C 14.101562 -1.96875 15.253906 -2.203125 16.328125 -2.671875 C 17.398438 -3.140625 18.316406 -3.785156 19.078125 -4.609375 C 19.847656 -5.441406 20.457031 -6.421875 20.90625 -7.546875 C 21.351562 -8.671875 21.578125 -9.890625 21.578125 -11.203125 C 21.578125 -12.523438 21.351562 -13.75 20.90625 -14.875 C 20.457031 -16 19.847656 -16.972656 19.078125 -17.796875 C 18.316406 -18.617188 17.398438 -19.265625 16.328125 -19.734375 C 15.253906 -20.203125 14.101562 -20.4375 12.875 -20.4375 C 11.625 -20.4375 10.46875 -20.203125 9.40625 -19.734375 C 8.351562 -19.265625 7.441406 -18.617188 6.671875 -17.796875 C 5.898438 -16.972656 5.289062 -16 4.84375 -14.875 C 4.40625 -13.75 4.1875 -12.523438 4.1875 -11.203125 C 4.1875 -9.890625 4.40625 -8.671875 4.84375 -7.546875 C 5.289062 -6.421875 5.898438 -5.441406 6.671875 -4.609375 C 7.441406 -3.785156 8.351562 -3.140625 9.40625 -2.671875 C 10.46875 -2.203125 11.625 -1.96875 12.875 -1.96875 Z M 12.875 -1.96875 "/></g></g></g><g fill="#000000" fill-opacity="1"><g transform="translate(139.285971, 99.578069)"><g><path d="M 3.015625 -22.40625 L 5.359375 -22.40625 L 5.359375 -2.171875 L 14.390625 -2.171875 L 14.390625 0 L 3.015625 0 Z M 3.015625 -22.40625 "/></g></g></g><g fill="#000000" fill-opacity="1"><g transform="translate(155.005634, 99.578069)"><g><path d="M 12.875 0.328125 C 11.34375 0.328125 9.894531 0.03125 8.53125 -0.5625 C 7.164062 -1.164062 5.976562 -1.988281 4.96875 -3.03125 C 3.957031 -4.082031 3.15625 -5.304688 2.5625 -6.703125 C 1.96875 -8.097656 1.671875 -9.597656 1.671875 -11.203125 C 1.671875 -12.785156 1.96875 -14.28125 2.5625 -15.6875 C 3.15625 -17.09375 3.957031 -18.316406 4.96875 -19.359375 C 5.976562 -20.410156 7.164062 -21.238281 8.53125 -21.84375 C 9.894531 -22.445312 11.34375 -22.75 12.875 -22.75 C 14.414062 -22.75 15.863281 -22.445312 17.21875 -21.84375 C 18.582031 -21.238281 19.769531 -20.410156 20.78125 -19.359375 C 21.800781 -18.316406 22.609375 -17.097656 23.203125 -15.703125 C 23.796875 -14.304688 24.09375 -12.804688 24.09375 -11.203125 C 24.09375 -9.617188 23.796875 -8.128906 23.203125 -6.734375 C 22.609375 -5.347656 21.800781 -4.128906 20.78125 -3.078125 C 19.769531 -2.023438 18.582031 -1.191406 17.21875 -0.578125 C 15.863281 0.0234375 14.414062 0.328125 12.875 0.328125 Z M 12.875 -1.96875 C 14.101562 -1.96875 15.253906 -2.203125 16.328125 -2.671875 C 17.398438 -3.140625 18.316406 -3.785156 19.078125 -4.609375 C 19.847656 -5.441406 20.457031 -6.421875 20.90625 -7.546875 C 21.351562 -8.671875 21.578125 -9.890625 21.578125 -11.203125 C 21.578125 -12.523438 21.351562 -13.75 20.90625 -14.875 C 20.457031 -16 19.847656 -16.972656 19.078125 -17.796875 C 18.316406 -18.617188 17.398438 -19.265625 16.328125 -19.734375 C 15.253906 -20.203125 14.101562 -20.4375 12.875 -20.4375 C 11.625 -20.4375 10.46875 -20.203125 9.40625 -19.734375 C 8.351562 -19.265625 7.441406 -18.617188 6.671875 -17.796875 C 5.898438 -16.972656 5.289062 -16 4.84375 -14.875 C 4.40625 -13.75 4.1875 -12.523438 4.1875 -11.203125 C 4.1875 -9.890625 4.40625 -8.671875 4.84375 -7.546875 C 5.289062 -6.421875 5.898438 -5.441406 6.671875 -4.609375 C 7.441406 -3.785156 8.351562 -3.140625 9.40625 -2.671875 C 10.46875 -2.203125 11.625 -1.96875 12.875 -1.96875 Z M 12.875 -1.96875 "/></g></g></g><g fill="#000000" fill-opacity="1"><g transform="translate(180.591935, 99.578069)"><g><path d="M 12.78125 0.328125 C 11.238281 0.328125 9.789062 0.0351562 8.4375 -0.546875 C 7.09375 -1.140625 5.914062 -1.953125 4.90625 -2.984375 C 3.90625 -4.023438 3.113281 -5.238281 2.53125 -6.625 C 1.957031 -8.007812 1.671875 -9.503906 1.671875 -11.109375 C 1.671875 -12.710938 1.96875 -14.222656 2.5625 -15.640625 C 3.15625 -17.054688 3.957031 -18.289062 4.96875 -19.34375 C 5.976562 -20.40625 7.164062 -21.238281 8.53125 -21.84375 C 9.894531 -22.445312 11.34375 -22.75 12.875 -22.75 C 14.550781 -22.75 16.113281 -22.394531 17.5625 -21.6875 C 19.007812 -20.988281 20.257812 -20.035156 21.3125 -18.828125 L 19.53125 -17.328125 C 18.664062 -18.328125 17.65625 -19.09375 16.5 -19.625 C 15.351562 -20.164062 14.132812 -20.4375 12.84375 -20.4375 C 11.59375 -20.4375 10.441406 -20.203125 9.390625 -19.734375 C 8.347656 -19.265625 7.4375 -18.617188 6.65625 -17.796875 C 5.875 -16.972656 5.265625 -16 4.828125 -14.875 C 4.398438 -13.75 4.1875 -12.523438 4.1875 -11.203125 C 4.1875 -9.890625 4.398438 -8.671875 4.828125 -7.546875 C 5.265625 -6.421875 5.875 -5.441406 6.65625 -4.609375 C 7.4375 -3.785156 8.363281 -3.140625 9.4375 -2.671875 C 10.507812 -2.203125 11.664062 -1.96875 12.90625 -1.96875 C 14.3125 -1.96875 15.585938 -2.242188 16.734375 -2.796875 C 17.890625 -3.359375 18.859375 -4.109375 19.640625 -5.046875 L 19.640625 -9.875 L 12.875 -9.875 L 12.875 -12.046875 L 21.984375 -12.046875 L 21.984375 -4.609375 C 20.890625 -3.023438 19.546875 -1.804688 17.953125 -0.953125 C 16.359375 -0.0976562 14.632812 0.328125 12.78125 0.328125 Z M 12.78125 0.328125 "/></g></g></g><g fill="#000000" fill-opacity="1"><g transform="translate(204.572809, 99.578069)"><g><path d="M 7.53125 -8.703125 L 0.671875 -22.40625 L 3.3125 -22.40625 L 8.859375 -11.3125 L 14.515625 -22.40625 L 16.953125 -22.40625 L 9.875 -8.703125 L 9.875 0 L 7.53125 0 Z M 7.53125 -8.703125 "/></g></g></g><g fill="#0e1429" fill-opacity="1"><g transform="translate(9.113633, 68.356011)"><g><path d="M 3.171875 -28.375 L 9.359375 -28.375 L 9.359375 0 L 3.171875 0 Z M 3.171875 -28.375 "/></g></g></g><g fill="#0e1429" fill-opacity="1"><g transform="translate(21.647526, 68.356011)"><g><path d="M 9.015625 -16.890625 L 9.015625 0 L 3.171875 0 L 3.171875 -28.875 L 6.390625 -28.875 L 22.234375 -11.46875 L 22.234375 -28.375 L 28.078125 -28.375 L 28.078125 0.515625 L 24.859375 0.515625 Z M 9.015625 -16.890625 "/></g></g></g><g fill="#0e1429" fill-opacity="1"><g transform="translate(52.897574, 68.356011)"><g><path d="M 3.171875 -28.375 L 19.1875 -28.375 L 19.1875 -22.5625 L 9.359375 -22.5625 L 9.359375 -16.140625 L 16.46875 -16.140625 L 16.46875 -10.328125 L 9.359375 -10.328125 L 9.359375 0 L 3.171875 0 Z M 3.171875 -28.375 "/></g></g></g><g fill="#0e1429" fill-opacity="1"><g transform="translate(73.349846, 68.356011)"><g><path d="M 3.171875 -28.375 L 9.359375 -28.375 L 9.359375 0 L 3.171875 0 Z M 3.171875 -28.375 "/></g></g></g><g fill="#0e1429" fill-opacity="1"><g transform="translate(85.883739, 68.356011)"><g><path d="M 9.015625 -16.890625 L 9.015625 0 L 3.171875 0 L 3.171875 -28.875 L 6.390625 -28.875 L 22.234375 -11.46875 L 22.234375 -28.375 L 28.078125 -28.375 L 28.078125 0.515625 L 24.859375 0.515625 Z M 9.015625 -16.890625 "/></g></g></g><g fill="#0e1429" fill-opacity="1"><g transform="translate(117.133787, 68.356011)"><g><path d="M 3.171875 -28.375 L 9.359375 -28.375 L 9.359375 0 L 3.171875 0 Z M 3.171875 -28.375 "/></g></g></g><g fill="#0e1429" fill-opacity="1"><g transform="translate(129.66768, 68.356011)"><g><path d="M 10.796875 0.765625 C 8.597656 0.765625 6.625 0.269531 4.875 -0.71875 C 3.125 -1.707031 1.710938 -3.132812 0.640625 -5 L 4.953125 -8.59375 C 6.421875 -5.96875 8.351562 -4.65625 10.75 -4.65625 C 11.820312 -4.65625 12.691406 -4.914062 13.359375 -5.4375 C 14.023438 -5.957031 14.359375 -6.644531 14.359375 -7.5 C 14.359375 -8.289062 14.03125 -8.972656 13.375 -9.546875 C 12.726562 -10.128906 11.554688 -10.785156 9.859375 -11.515625 C 7.234375 -12.671875 5.320312 -13.960938 4.125 -15.390625 C 2.925781 -16.816406 2.328125 -18.519531 2.328125 -20.5 C 2.328125 -21.738281 2.550781 -22.878906 3 -23.921875 C 3.457031 -24.960938 4.09375 -25.859375 4.90625 -26.609375 C 5.726562 -27.359375 6.703125 -27.9375 7.828125 -28.34375 C 8.960938 -28.757812 10.207031 -28.96875 11.5625 -28.96875 C 15.144531 -28.96875 18.175781 -27.425781 20.65625 -24.34375 L 16.5625 -20.625 C 15.769531 -21.664062 14.976562 -22.429688 14.1875 -22.921875 C 13.394531 -23.421875 12.519531 -23.671875 11.5625 -23.671875 C 10.625 -23.671875 9.878906 -23.4375 9.328125 -22.96875 C 8.785156 -22.5 8.515625 -21.875 8.515625 -21.09375 C 8.515625 -20.21875 8.878906 -19.492188 9.609375 -18.921875 C 10.347656 -18.359375 11.453125 -17.753906 12.921875 -17.109375 C 15.597656 -15.921875 17.535156 -14.597656 18.734375 -13.140625 C 19.929688 -11.691406 20.53125 -9.976562 20.53125 -8 C 20.53125 -6.707031 20.289062 -5.523438 19.8125 -4.453125 C 19.332031 -3.378906 18.671875 -2.453125 17.828125 -1.671875 C 16.984375 -0.898438 15.957031 -0.300781 14.75 0.125 C 13.550781 0.550781 12.234375 0.765625 10.796875 0.765625 Z M 10.796875 0.765625 "/></g></g></g><g fill="#0e1429" fill-opacity="1"><g transform="translate(151.813718, 68.356011)"><g><path d="M 16.140625 0.59375 C 14.046875 0.59375 12.109375 0.210938 10.328125 -0.546875 C 8.554688 -1.304688 7.007812 -2.347656 5.6875 -3.671875 C 4.375 -5.003906 3.34375 -6.566406 2.59375 -8.359375 C 1.851562 -10.148438 1.484375 -12.09375 1.484375 -14.1875 C 1.484375 -16.269531 1.851562 -18.210938 2.59375 -20.015625 C 3.34375 -21.828125 4.375 -23.394531 5.6875 -24.71875 C 7.007812 -26.050781 8.554688 -27.09375 10.328125 -27.84375 C 12.109375 -28.59375 14.046875 -28.96875 16.140625 -28.96875 C 18.191406 -28.96875 20.113281 -28.59375 21.90625 -27.84375 C 23.707031 -27.09375 25.265625 -26.050781 26.578125 -24.71875 C 27.890625 -23.394531 28.914062 -21.828125 29.65625 -20.015625 C 30.40625 -18.210938 30.78125 -16.269531 30.78125 -14.1875 C 30.78125 -12.09375 30.40625 -10.148438 29.65625 -8.359375 C 28.914062 -6.566406 27.890625 -5.003906 26.578125 -3.671875 C 25.265625 -2.347656 23.707031 -1.304688 21.90625 -0.546875 C 20.113281 0.210938 18.191406 0.59375 16.140625 0.59375 Z M 16.140625 -5.421875 C 17.316406 -5.421875 18.398438 -5.640625 19.390625 -6.078125 C 20.378906 -6.515625 21.234375 -7.128906 21.953125 -7.921875 C 22.671875 -8.710938 23.234375 -9.644531 23.640625 -10.71875 C 24.054688 -11.789062 24.265625 -12.945312 24.265625 -14.1875 C 24.265625 -15.425781 24.054688 -16.582031 23.640625 -17.65625 C 23.234375 -18.726562 22.671875 -19.648438 21.953125 -20.421875 C 21.234375 -21.203125 20.378906 -21.816406 19.390625 -22.265625 C 18.398438 -22.722656 17.316406 -22.953125 16.140625 -22.953125 C 14.953125 -22.953125 13.863281 -22.722656 12.875 -22.265625 C 11.882812 -21.816406 11.03125 -21.203125 10.3125 -20.421875 C 9.59375 -19.648438 9.023438 -18.726562 8.609375 -17.65625 C 8.203125 -16.582031 8 -15.425781 8 -14.1875 C 8 -12.945312 8.203125 -11.789062 8.609375 -10.71875 C 9.023438 -9.644531 9.59375 -8.71875 10.3125 -7.9375 C 11.03125 -7.164062 11.882812 -6.550781 12.875 -6.09375 C 13.863281 -5.644531 14.953125 -5.421875 16.140625 -5.421875 Z M 16.140625 -5.421875 "/></g></g></g><g fill="#0e1429" fill-opacity="1"><g transform="translate(184.080041, 68.356011)"><g><path d="M 3.171875 -28.375 L 19.1875 -28.375 L 19.1875 -22.5625 L 9.359375 -22.5625 L 9.359375 -16.140625 L 16.46875 -16.140625 L 16.46875 -10.328125 L 9.359375 -10.328125 L 9.359375 0 L 3.171875 0 Z M 3.171875 -28.375 "/></g></g></g><g fill="#0e1429" fill-opacity="1"><g transform="translate(204.532313, 68.356011)"><g><path d="M 9.109375 -22.5625 L 0.84375 -22.5625 L 0.84375 -28.375 L 23.546875 -28.375 L 23.546875 -22.5625 L 15.28125 -22.5625 L 15.28125 0 L 9.109375 0 Z M 9.109375 -22.5625 "/></g></g></g></svg>