<svg xmlns="http://www.w3.org/2000/svg" enable-background="new 0 0 24 24" viewBox="0 0 24 24" id="medal">
  <path fill="#FFF" d="M18.53,8.53c0,0.76-0.44,1.35-0.76,1.78c-0.13,0.17-0.27,0.36-0.32,0.48c-0.05,0.13-0.09,0.37-0.12,0.59
	c-0.09,0.55-0.19,1.24-0.72,1.76c-0.52,0.53-1.2,0.63-1.75,0.71c-0.23,0.04-0.46,0.07-0.6,0.13c-0.12,0.05-0.3,0.18-0.48,0.32
	c-0.43,0.32-1.01,0.75-1.78,0.75s-1.35-0.43-1.78-0.75c-0.18-0.14-0.36-0.27-0.48-0.32c-0.14-0.06-0.37-0.09-0.6-0.13
	c-0.55-0.08-1.23-0.18-1.76-0.71c-0.52-0.52-0.62-1.21-0.71-1.76c-0.03-0.22-0.07-0.46-0.12-0.59c-0.05-0.12-0.19-0.31-0.32-0.48
	C5.91,9.88,5.47,9.29,5.47,8.53c0-0.77,0.44-1.36,0.76-1.79C6.36,6.57,6.5,6.39,6.55,6.27C6.6,6.13,6.64,5.9,6.67,5.67
	c0.09-0.55,0.19-1.23,0.72-1.76c0.52-0.52,1.2-0.63,1.75-0.71c0.23-0.03,0.46-0.07,0.6-0.13c0.12-0.05,0.3-0.18,0.48-0.31
	C10.65,2.44,11.23,2,12,2s1.35,0.44,1.78,0.76c0.18,0.13,0.36,0.26,0.48,0.31c0.14,0.06,0.37,0.1,0.6,0.13
	c0.55,0.08,1.23,0.19,1.76,0.71c0.52,0.53,0.62,1.21,0.71,1.76c0.03,0.23,0.07,0.46,0.12,0.6c0.05,0.12,0.19,0.3,0.32,0.47
	C18.09,7.17,18.53,7.76,18.53,8.53z"></path>
  <path fill="#FF981E" d="M21.63,16.22l-5.36-4.33L12,13.62l-4.27-1.72l-5.36,4.33c-0.29,0.24-0.43,0.62-0.35,0.99
	c0.08,0.37,0.37,0.66,0.73,0.75l3.51,0.88l1.04,2.53c0.13,0.31,0.41,0.54,0.74,0.6c0.34,0.06,0.68-0.05,0.91-0.3L12,18.46l3.04,3.23
	c0.19,0.2,0.46,0.31,0.73,0.31c0.06,0,0.12-0.01,0.18-0.02c0.33-0.06,0.61-0.29,0.74-0.6l1.04-2.53l3.51-0.88
	c0.37-0.09,0.65-0.38,0.73-0.75C22.06,16.85,21.92,16.46,21.63,16.22z"></path>
  <polygon fill="#FFC432" points="12 5.62 11.19 7.27 9 7.62 10.69 8.81 10 10.62 12 9.77 14 10.62 13.31 8.81 15 7.62 12.81 7.27"></polygon>
  <path d="M21.63,16.22l-3.86-3.12l0,0l-1.49-1.21l-0.58,0.23l0,0l-0.41,0.17c0,0,0,0,0,0l-2.79,1.13h0l-0.5,0.2v0.09
	c-0.09,0-0.31-0.15-0.5-0.29l-2.79-1.13c-0.17-0.03-0.34-0.07-0.39-0.11c-0.01-0.01-0.01-0.04-0.02-0.05l-0.58-0.23l-1.5,1.21
	c0.11,0.25,0.25,0.49,0.46,0.71c0.61,0.6,1.39,0.71,2.02,0.82c0.26,0.03,0.53,0.08,0.69,0.14c0.14,0.06,0.34,0.22,0.55,0.37
	C10.45,15.49,11.12,16,12,16v2.46l3.04,3.23c0.19,0.2,0.46,0.31,0.73,0.31c0.06,0,0.12-0.01,0.18-0.02c0.33-0.06,0.61-0.29,0.74-0.6
	l1.04-2.53l3.51-0.88c0.37-0.09,0.65-0.38,0.73-0.75C22.06,16.85,21.92,16.46,21.63,16.22z" opacity=".1"></path>
  <path fill="#FFC432" d="M17.77,6.74c-0.13-0.17-0.27-0.35-0.32-0.47c-0.05-0.14-0.09-0.37-0.12-0.6c-0.09-0.55-0.19-1.23-0.71-1.76
	c-0.53-0.52-1.21-0.63-1.76-0.71c-0.23-0.03-0.46-0.07-0.6-0.13c-0.12-0.05-0.3-0.18-0.48-0.31C13.35,2.44,12.77,2,12,2
	s-1.35,0.44-1.78,0.76c-0.18,0.13-0.36,0.26-0.48,0.31C9.6,3.13,9.37,3.17,9.14,3.2C8.59,3.28,7.91,3.39,7.39,3.91
	C6.86,4.44,6.76,5.12,6.67,5.67C6.64,5.9,6.6,6.13,6.55,6.27C6.5,6.39,6.36,6.57,6.23,6.74C5.91,7.17,5.47,7.76,5.47,8.53
	c0,0.76,0.44,1.35,0.76,1.78c0.13,0.17,0.27,0.36,0.32,0.48c0.05,0.13,0.09,0.37,0.12,0.59c0.09,0.55,0.19,1.24,0.71,1.76
	c0.53,0.53,1.21,0.63,1.76,0.71c0.23,0.04,0.46,0.07,0.6,0.13c0.12,0.05,0.3,0.18,0.48,0.32c0.43,0.32,1.01,0.75,1.78,0.75
	s1.35-0.43,1.78-0.75c0.18-0.14,0.36-0.27,0.48-0.32c0.14-0.06,0.37-0.09,0.6-0.13c0.55-0.08,1.23-0.18,1.75-0.71
	c0.53-0.52,0.63-1.21,0.72-1.76c0.03-0.22,0.07-0.46,0.12-0.59c0.05-0.12,0.19-0.31,0.32-0.48c0.32-0.43,0.76-1.02,0.76-1.78
	C18.53,7.76,18.09,7.17,17.77,6.74z M16.17,9.11c-0.2,0.26-0.42,0.56-0.56,0.91c-0.15,0.36-0.21,0.73-0.26,1.06
	c-0.03,0.21-0.09,0.57-0.15,0.65c-0.08,0.06-0.43,0.11-0.64,0.15c-0.33,0.04-0.71,0.1-1.07,0.25c-0.35,0.15-0.64,0.37-0.91,0.56
	c-0.16,0.13-0.48,0.36-0.58,0.36s-0.42-0.23-0.58-0.36c-0.27-0.19-0.56-0.41-0.91-0.56c-0.36-0.15-0.74-0.21-1.07-0.25
	c-0.21-0.04-0.56-0.09-0.64-0.15c-0.06-0.08-0.12-0.43-0.15-0.64c-0.05-0.33-0.11-0.71-0.26-1.07C8.25,9.67,8.03,9.37,7.83,9.11
	C7.71,8.94,7.47,8.63,7.47,8.53c0-0.11,0.24-0.42,0.36-0.59c0.2-0.26,0.42-0.56,0.56-0.91C8.54,6.67,8.6,6.3,8.65,5.97
	C8.68,5.76,8.74,5.41,8.8,5.33c0.08-0.07,0.43-0.12,0.64-0.15c0.33-0.05,0.71-0.11,1.07-0.26c0.35-0.14,0.64-0.37,0.91-0.56
	C11.58,4.23,11.9,4,12,4s0.42,0.23,0.58,0.36c0.27,0.19,0.56,0.42,0.91,0.56c0.36,0.15,0.74,0.21,1.07,0.26
	c0.21,0.03,0.56,0.08,0.64,0.14c0.06,0.09,0.12,0.44,0.15,0.65c0.05,0.33,0.11,0.7,0.26,1.06c0.14,0.35,0.36,0.65,0.56,0.91
	c0.12,0.17,0.36,0.48,0.36,0.59C16.53,8.63,16.29,8.94,16.17,9.11z"></path>
</svg>
