<svg width="37" height="30" viewBox="0 0 37 30" fill="none" xmlns="http://www.w3.org/2000/svg">
<path d="M9.55471 29.0317C10.4527 29.0318 11.2829 28.8767 12.0499 28.57C12.7222 28.301 13.3614 27.912 13.9679 27.3992L14.2267 27.1716C14.8865 26.5669 15.3711 25.9119 15.6916 25.2088C16.0125 24.5049 16.1741 23.7504 16.1742 22.9403C16.1742 22.5581 16.1424 22.1752 16.0785 21.7918C16.0147 21.4085 15.9183 21.0239 15.7895 20.6375L15.7876 20.6307L15.7856 20.6229C15.6817 20.2764 15.529 19.9405 15.3267 19.6151C15.1217 19.2854 14.8742 18.9672 14.5846 18.659C14.282 18.3574 13.9333 18.0785 13.5348 17.8249C13.1432 17.5757 12.6927 17.3582 12.1803 17.1745C11.6881 17.0104 11.1087 16.8792 10.4382 16.7847C9.77241 16.6909 9.01948 16.643 8.17841 16.643L5.31415 16.6428L5.36594 16.095C5.50711 14.6237 5.84104 13.2558 6.37006 11.9945C6.89924 10.7328 7.62172 9.5827 8.53626 8.54634L8.53625 8.54731C9.4435 7.49962 10.5226 6.53183 11.7708 5.64319C12.8844 4.8504 14.1265 4.10498 15.4945 3.40412L14.2232 1.34058C13.6306 1.60761 13.0551 1.8893 12.4995 2.19205L11.8305 2.57092L11.8266 2.57288L11.1586 2.9703C10.4983 3.37757 9.85964 3.8144 9.24253 4.28075C8.62519 4.7473 8.0289 5.24391 7.45437 5.76991L6.88696 6.30602L6.88208 6.30992L6.32736 6.85286C5.77731 7.40645 5.24333 7.99317 4.72473 8.61254C4.20616 9.23188 3.73746 9.8441 3.31838 10.4494L2.91601 11.0519C2.42253 11.8691 2.00577 12.6791 1.66588 13.4815C1.32583 14.2844 1.07273 15.0793 0.904036 15.8663C0.735424 16.6529 0.651024 17.4384 0.650983 18.2227C0.650892 19.9626 0.851994 21.4904 1.24547 22.8116C1.63932 24.134 2.21657 25.2607 2.97185 26.2003L2.97088 26.2013C3.7422 27.1561 4.66471 27.8609 5.73932 28.3255C6.81714 28.7914 8.08527 29.0317 9.55471 29.0317ZM29.7989 29.0328C30.6968 29.0328 31.5327 28.8775 32.3106 28.57C32.9902 28.3014 33.6246 27.9135 34.215 27.4032L34.465 27.1776L34.4708 27.1727C35.1306 26.568 35.6153 25.913 35.9358 25.2099C36.2566 24.5059 36.4183 23.7514 36.4183 22.9414C36.4183 22.5591 36.3865 22.1763 36.3227 21.7929C36.2587 21.4088 36.1723 21.024 36.063 20.6386C35.939 20.286 35.7753 19.945 35.5708 19.6161C35.3659 19.2864 35.1183 18.9683 34.8287 18.66C34.5261 18.3585 34.1774 18.0796 33.7789 17.826C33.3873 17.5768 32.9368 17.3593 32.4245 17.1755C31.9323 17.0114 31.3528 16.8803 30.6823 16.7858C30.0165 16.692 29.2636 16.6441 28.4225 16.6441L25.5583 16.6439L25.6101 16.0961C25.7513 14.6247 26.0852 13.2568 26.6142 11.9955C27.1429 10.7349 27.8749 9.58707 28.8068 8.55228L28.8068 8.55131C29.7139 7.50315 30.7884 6.53462 32.0276 5.64522C33.1337 4.85145 34.3799 4.10523 35.7631 3.40421L34.4712 1.34164C33.6498 1.71741 32.849 2.12689 32.0707 2.57394C31.171 3.09076 30.3096 3.65993 29.4867 4.28181C28.8693 4.74836 28.273 5.24497 27.6985 5.77097L27.1311 6.30708L27.1262 6.31098L26.5715 6.85392C26.0214 7.40751 25.4875 7.99423 24.9689 8.6136C24.4515 9.23152 23.9889 9.8415 23.5821 10.4446L23.1934 11.0452L23.1924 11.0481L22.8222 11.6613C22.4692 12.2728 22.1652 12.8802 21.91 13.4826C21.57 14.2854 21.3169 15.0804 21.1482 15.8673C20.9796 16.654 20.8952 17.4394 20.8951 18.2237C20.895 19.9637 21.0961 21.4914 21.4896 22.8126C21.8835 24.135 22.4607 25.2618 23.216 26.2014L23.215 26.2024C23.9857 27.1564 24.9128 27.8608 25.9971 28.3256C27.0863 28.7924 28.3501 29.0327 29.7989 29.0328Z" fill="#E0E0E0" stroke="white"/>
</svg>
