<svg width="38" height="38" viewBox="0 0 38 38" fill="none" xmlns="http://www.w3.org/2000/svg">
<path fill-rule="evenodd" clip-rule="evenodd" d="M35.666 14.899C27.429 17.106 21.684 27.299 23.847 35.37C23.847 35.37 23.922 37.661 23.899 37.67C23.876 37.679 22.791 35.658 22.771 35.661C20.608 27.585 10.539 21.632 2.3 23.839C2.29 23.839 0 23.885 0 23.879C0 23.873 2.00001 22.765 2.01201 22.763C10.249 20.555 15.995 10.363 13.831 2.29202C13.831 2.28602 13.804 2.29902 13.831 2.29202C13.858 2.28502 13.788 -0.00797912 13.764 2.08847e-05L14.908 2.00002C17.071 10.073 27.141 16.025 35.378 13.818C35.388 13.818 37.689 13.783 37.678 13.779C37.647 13.764 35.676 14.896 35.666 14.899Z" fill="#F9D981"/>
</svg>
