<svg width="45" height="45" viewBox="0 0 45 45" fill="none" xmlns="http://www.w3.org/2000/svg">
<rect width="45" height="45" rx="8" fill="#E25B72"/>
<path d="M12.272 22.024C12.272 19.256 12.768 17.088 13.76 15.52C14.768 13.952 16.432 13.168 18.752 13.168C21.072 13.168 22.728 13.952 23.72 15.52C24.728 17.088 25.232 19.256 25.232 22.024C25.232 24.808 24.728 26.992 23.72 28.576C22.728 30.16 21.072 30.952 18.752 30.952C16.432 30.952 14.768 30.16 13.76 28.576C12.768 26.992 12.272 24.808 12.272 22.024ZM21.92 22.024C21.92 20.84 21.84 19.848 21.68 19.048C21.536 18.232 21.232 17.568 20.768 17.056C20.32 16.544 19.648 16.288 18.752 16.288C17.856 16.288 17.176 16.544 16.712 17.056C16.264 17.568 15.96 18.232 15.8 19.048C15.656 19.848 15.584 20.84 15.584 22.024C15.584 23.24 15.656 24.264 15.8 25.096C15.944 25.912 16.248 26.576 16.712 27.088C17.176 27.584 17.856 27.832 18.752 27.832C19.648 27.832 20.328 27.584 20.792 27.088C21.256 26.576 21.56 25.912 21.704 25.096C21.848 24.264 21.92 23.24 21.92 22.024ZM26.5634 16.6V13.504H32.3474V31H28.8914V16.6H26.5634Z" fill="white"/>
</svg>
