<svg width="45" height="45" viewBox="0 0 45 45" fill="none" xmlns="http://www.w3.org/2000/svg">
<rect width="45" height="45" rx="8" fill="#E25B72"/>
<path d="M9.272 22.024C9.272 19.256 9.768 17.088 10.76 15.52C11.768 13.952 13.432 13.168 15.752 13.168C18.072 13.168 19.728 13.952 20.72 15.52C21.728 17.088 22.232 19.256 22.232 22.024C22.232 24.808 21.728 26.992 20.72 28.576C19.728 30.16 18.072 30.952 15.752 30.952C13.432 30.952 11.768 30.16 10.76 28.576C9.768 26.992 9.272 24.808 9.272 22.024ZM18.92 22.024C18.92 20.84 18.84 19.848 18.68 19.048C18.536 18.232 18.232 17.568 17.768 17.056C17.32 16.544 16.648 16.288 15.752 16.288C14.856 16.288 14.176 16.544 13.712 17.056C13.264 17.568 12.96 18.232 12.8 19.048C12.656 19.848 12.584 20.84 12.584 22.024C12.584 23.24 12.656 24.264 12.8 25.096C12.944 25.912 13.248 26.576 13.712 27.088C14.176 27.584 14.856 27.832 15.752 27.832C16.648 27.832 17.328 27.584 17.792 27.088C18.256 26.576 18.56 25.912 18.704 25.096C18.848 24.264 18.92 23.24 18.92 22.024ZM25.0274 27.208C26.5634 25.928 27.7874 24.864 28.6994 24.016C29.6114 23.152 30.3714 22.256 30.9794 21.328C31.5874 20.4 31.8914 19.488 31.8914 18.592C31.8914 17.776 31.6994 17.136 31.3154 16.672C30.9314 16.208 30.3394 15.976 29.5394 15.976C28.7394 15.976 28.1234 16.248 27.6914 16.792C27.2594 17.32 27.0354 18.048 27.0194 18.976H23.7554C23.8194 17.056 24.3874 15.6 25.4594 14.608C26.5474 13.616 27.9234 13.12 29.5874 13.12C31.4114 13.12 32.8114 13.608 33.7874 14.584C34.7634 15.544 35.2514 16.816 35.2514 18.4C35.2514 19.648 34.9154 20.84 34.2434 21.976C33.5714 23.112 32.8034 24.104 31.9394 24.952C31.0754 25.784 29.9474 26.792 28.5554 27.976H35.6354V30.76H23.7794V28.264L25.0274 27.208Z" fill="white"/>
</svg>
