<svg width="45" height="45" viewBox="0 0 45 45" fill="none" xmlns="http://www.w3.org/2000/svg">
<rect width="45" height="45" rx="8" fill="#E25B72"/>
<path d="M9.272 22.024C9.272 19.256 9.768 17.088 10.76 15.52C11.768 13.952 13.432 13.168 15.752 13.168C18.072 13.168 19.728 13.952 20.72 15.52C21.728 17.088 22.232 19.256 22.232 22.024C22.232 24.808 21.728 26.992 20.72 28.576C19.728 30.16 18.072 30.952 15.752 30.952C13.432 30.952 11.768 30.16 10.76 28.576C9.768 26.992 9.272 24.808 9.272 22.024ZM18.92 22.024C18.92 20.84 18.84 19.848 18.68 19.048C18.536 18.232 18.232 17.568 17.768 17.056C17.32 16.544 16.648 16.288 15.752 16.288C14.856 16.288 14.176 16.544 13.712 17.056C13.264 17.568 12.96 18.232 12.8 19.048C12.656 19.848 12.584 20.84 12.584 22.024C12.584 23.24 12.656 24.264 12.8 25.096C12.944 25.912 13.248 26.576 13.712 27.088C14.176 27.584 14.856 27.832 15.752 27.832C16.648 27.832 17.328 27.584 17.792 27.088C18.256 26.576 18.56 25.912 18.704 25.096C18.848 24.264 18.92 23.24 18.92 22.024ZM24.0194 18.112C24.0994 16.512 24.6594 15.28 25.6994 14.416C26.7554 13.536 28.1394 13.096 29.8514 13.096C31.0194 13.096 32.0194 13.304 32.8514 13.72C33.6834 14.12 34.3074 14.672 34.7234 15.376C35.1554 16.064 35.3714 16.848 35.3714 17.728C35.3714 18.736 35.1074 19.592 34.5794 20.296C34.0674 20.984 33.4514 21.448 32.7314 21.688V21.784C33.6594 22.072 34.3794 22.584 34.8914 23.32C35.4194 24.056 35.6834 25 35.6834 26.152C35.6834 27.112 35.4594 27.968 35.0114 28.72C34.5794 29.472 33.9314 30.064 33.0674 30.496C32.2194 30.912 31.1954 31.12 29.9954 31.12C28.1874 31.12 26.7154 30.664 25.5794 29.752C24.4434 28.84 23.8434 27.496 23.7794 25.72H27.0434C27.0754 26.504 27.3394 27.136 27.8354 27.616C28.3474 28.08 29.0434 28.312 29.9234 28.312C30.7394 28.312 31.3634 28.088 31.7954 27.64C32.2434 27.176 32.4674 26.584 32.4674 25.864C32.4674 24.904 32.1634 24.216 31.5554 23.8C30.9474 23.384 30.0034 23.176 28.7234 23.176H28.0274V20.416H28.7234C30.9954 20.416 32.1314 19.656 32.1314 18.136C32.1314 17.448 31.9234 16.912 31.5074 16.528C31.1074 16.144 30.5234 15.952 29.7554 15.952C29.0034 15.952 28.4194 16.16 28.0034 16.576C27.6034 16.976 27.3714 17.488 27.3074 18.112H24.0194Z" fill="white"/>
</svg>
