<svg width="34" height="34" viewBox="0 0 34 34" fill="none" xmlns="http://www.w3.org/2000/svg">
<rect width="34" height="34" rx="4" fill="#E25B72"/>
<path d="M7.848 17.016C7.848 15.1707 8.17867 13.7253 8.84 12.68C9.512 11.6347 10.6213 11.112 12.168 11.112C13.7147 11.112 14.8187 11.6347 15.48 12.68C16.152 13.7253 16.488 15.1707 16.488 17.016C16.488 18.872 16.152 20.328 15.48 21.384C14.8187 22.44 13.7147 22.968 12.168 22.968C10.6213 22.968 9.512 22.44 8.84 21.384C8.17867 20.328 7.848 18.872 7.848 17.016ZM14.28 17.016C14.28 16.2267 14.2267 15.5653 14.12 15.032C14.024 14.488 13.8213 14.0453 13.512 13.704C13.2133 13.3627 12.7653 13.192 12.168 13.192C11.5707 13.192 11.1173 13.3627 10.808 13.704C10.5093 14.0453 10.3067 14.488 10.2 15.032C10.104 15.5653 10.056 16.2267 10.056 17.016C10.056 17.8267 10.104 18.5093 10.2 19.064C10.296 19.608 10.4987 20.0507 10.808 20.392C11.1173 20.7227 11.5707 20.888 12.168 20.888C12.7653 20.888 13.2187 20.7227 13.528 20.392C13.8373 20.0507 14.04 19.608 14.136 19.064C14.232 18.5093 14.28 17.8267 14.28 17.016ZM17.2795 20.728V18.968L22.5115 11.48H25.1195V18.776H26.5275V20.728H25.1195V23H22.8795V20.728H17.2795ZM23.0235 13.88L19.7435 18.776H23.0235V13.88Z" fill="white"/>
</svg>
